# Blender 4.5.3 LTS
# www.blender.org
mtllib key.mtl
o key
v 0.700696 0.334669 -0.042037
v 0.700696 0.413517 -0.042037
v 0.700696 0.334669 0.042037
v 0.700696 0.413517 0.042037
v 0.700696 0.433810 -0.000000
v 0.148915 0.514820 -0.000000
v 0.129212 0.495116 0.066355
v 0.087376 0.453280 0.069726
v 0.064462 0.430366 -0.000000
v 0.087376 0.453280 -0.069726
v 0.129212 0.495116 -0.066355
v 0.006476 0.573820 -0.000000
v 0.006476 0.545954 0.066355
v 0.006476 0.486790 0.069726
v 0.006476 0.454384 -0.000000
v 0.006476 0.486790 -0.069726
v 0.006476 0.545954 -0.066355
v -0.135963 0.514819 -0.000000
v -0.116259 0.495116 0.066355
v -0.074424 0.453280 0.069726
v -0.051509 0.430366 -0.000000
v -0.074424 0.453280 -0.069726
v -0.116259 0.495116 -0.066355
v -0.194963 0.372380 0.000000
v -0.167098 0.372380 0.066355
v -0.107934 0.372380 0.069726
v -0.075527 0.372380 0.000000
v -0.107934 0.372380 -0.069726
v -0.167098 0.372380 -0.066355
v -0.135963 0.229941 0.000000
v -0.116259 0.249645 0.066355
v -0.074424 0.291480 0.069726
v -0.051509 0.314395 0.000000
v -0.074424 0.291480 -0.069726
v -0.116259 0.249645 -0.066355
v 0.006476 0.170941 0.000000
v 0.006476 0.198806 0.066355
v 0.006476 0.257970 0.069726
v 0.006476 0.290377 0.000000
v 0.006476 0.257970 -0.069726
v 0.006476 0.198806 -0.066355
v 0.148915 0.229941 0.000000
v 0.129212 0.249645 0.066355
v 0.087376 0.291480 0.069726
v 0.064462 0.314395 0.000000
v 0.087376 0.291480 -0.069726
v 0.129212 0.249645 -0.066355
v 0.196137 0.314721 0.000000
v 0.196137 0.430040 -0.000000
v 0.168256 0.410446 0.053403
v 0.168256 0.334315 0.053403
v 0.101293 0.419684 0.069726
v 0.101293 0.325077 0.069726
v 0.101293 0.419684 -0.069726
v 0.101293 0.325077 -0.069726
v 0.168256 0.410446 -0.053403
v 0.168256 0.334315 -0.053403
v 0.700696 0.374093 -0.055562
v 0.700696 0.374093 0.055562
v 0.168256 0.372380 0.070586
v 0.116952 0.372380 0.070902
v 0.084559 0.372380 0.000000
v 0.116952 0.372380 -0.070902
v 0.168256 0.372380 -0.070586
v 0.478006 0.334669 -0.042037
v 0.478006 0.413517 -0.042037
v 0.478006 0.413517 0.042037
v 0.478006 0.314376 0.000000
v 0.478006 0.334669 0.042037
v 0.478006 0.433810 -0.000000
v 0.478006 0.374093 -0.055562
v 0.478006 0.374093 0.055562
v 0.478006 0.254929 -0.042037
v 0.501872 0.232587 -0.019695
v 0.676831 0.232587 -0.019695
v 0.700696 0.254929 -0.042037
v 0.700696 0.254929 0.042037
v 0.676831 0.232587 0.019695
v 0.501872 0.232587 0.019695
v 0.478006 0.254929 0.042037
vn 0.2874 0.4352 -0.8532
vn 0.6088 0.6688 -0.4267
vn 0.6897 0.7241 -0.0000
vn 0.4661 0.8847 -0.0000
vn -0.6412 0.6412 0.4215
vn -0.8613 0.3134 0.4000
vn -0.7234 0.6904 -0.0000
vn -0.8613 0.3134 -0.4000
vn -0.6412 0.6412 -0.4215
vn 0.1048 -0.0162 -0.9944
vn 0.2083 -0.0216 -0.9778
vn 0.2904 -0.4349 -0.8524
vn 0.1065 -0.0153 -0.9942
vn -0.7234 -0.6904 -0.0000
vn -0.8613 -0.3134 -0.4000
vn -1.0000 -0.0000 -0.0000
vn 0.6088 -0.6688 -0.4267
vn 0.4731 -0.8810 -0.0000
vn 0.6897 -0.7241 -0.0000
vn -0.0000 1.0000 -0.0000
vn -0.0000 0.9220 0.3872
vn 0.6088 0.6688 0.4267
vn 0.1065 0.0153 0.9942
vn -0.0000 0.0569 0.9984
vn 0.1048 0.0162 0.9944
vn -0.6412 -0.6412 0.4215
vn -0.0000 -0.9068 0.4215
vn -0.0000 -1.0000 -0.0000
vn -0.0000 -0.9068 -0.4215
vn -0.6412 -0.6412 -0.4215
vn 0.1048 0.0162 -0.9944
vn -0.0000 0.0569 -0.9984
vn 0.1065 0.0153 -0.9942
vn -0.0000 0.9220 -0.3872
vn -0.7071 0.7071 -0.0000
vn -0.6520 0.6520 0.3872
vn -0.0402 0.0402 0.9984
vn 0.6412 -0.6412 0.4215
vn 0.7071 -0.7071 -0.0000
vn 0.6412 -0.6412 -0.4215
vn -0.0402 0.0402 -0.9984
vn -0.6520 0.6520 -0.3872
vn -0.9220 -0.0000 0.3872
vn -0.0569 -0.0000 0.9984
vn 0.9068 -0.0000 0.4215
vn 1.0000 -0.0000 -0.0000
vn 0.9068 -0.0000 -0.4215
vn -0.0569 -0.0000 -0.9984
vn -0.9220 -0.0000 -0.3872
vn -0.7071 -0.7071 -0.0000
vn -0.6520 -0.6520 0.3872
vn -0.0402 -0.0402 0.9984
vn 0.6412 0.6412 0.4215
vn 0.7071 0.7071 -0.0000
vn 0.6412 0.6412 -0.4215
vn -0.0402 -0.0402 -0.9984
vn -0.6520 -0.6520 -0.3872
vn -0.0000 -0.9220 0.3872
vn -0.0000 -0.0569 0.9984
vn -0.0000 0.9068 0.4215
vn -0.0000 0.9068 -0.4215
vn -0.0000 -0.0569 -0.9984
vn -0.0000 -0.9220 -0.3872
vn 0.6088 -0.6688 0.4267
vn 0.1065 -0.0153 0.9942
vn 0.1048 -0.0162 0.9944
vn 0.2874 0.4352 0.8532
vn 0.2083 0.0216 0.9778
vn -0.8613 -0.3134 0.4000
vn 0.2083 0.0216 -0.9778
vn 0.2904 -0.4349 0.8524
vn 0.2083 -0.0216 0.9778
vn -0.6506 -0.3967 0.6476
vn 0.1707 -0.0000 0.9853
vn -0.9096 -0.0000 -0.4156
vn 0.1707 -0.0000 -0.9853
vn 0.0240 -0.0006 -0.9997
vn 0.0208 0.0007 0.9998
vn 0.0172 -0.5845 0.8112
vn -0.0000 -0.3245 0.9459
vn -0.0000 -0.0000 1.0000
vn -0.9096 -0.0000 0.4156
vn 0.6506 -0.3967 0.6476
vn 0.0089 0.6854 -0.7281
vn -0.0018 1.0000 -0.0000
vn -0.0000 0.6637 -0.7480
vn 0.0208 0.0007 -0.9998
vn -0.0000 -0.0000 -1.0000
vn 0.0089 0.6854 0.7281
vn -0.0000 0.6637 0.7480
vn 0.0172 -0.5845 -0.8112
vn -0.0000 -0.3245 -0.9459
vn 0.0240 -0.0006 0.9997
vn 0.0081 -1.0000 -0.0000
vn 0.6506 -0.3967 -0.6476
vn 0.2856 -0.9095 0.3020
vn 0.2856 -0.9095 -0.3020
vn -0.6506 -0.3967 -0.6476
vn -0.2856 -0.9095 -0.3020
vn -0.2856 -0.9095 0.3020
vt 0.179368 0.889120
vt 0.176218 0.914082
vt 0.178205 0.919891
vt 0.182179 0.894897
vt 0.172000 0.854874
vt 0.173403 0.844969
vt 0.169690 0.816869
vt 0.172000 0.854048
vt 0.173403 0.863953
vt 0.179368 0.866676
vt 0.176218 0.841715
vt 0.169690 0.782679
vt 0.173403 0.817078
vt 0.171716 0.831024
vt 0.176218 0.794840
vt 0.179368 0.819801
vt 0.182179 0.814025
vt 0.178205 0.789031
vt 0.178205 0.951141
vt 0.163844 0.984160
vt 0.163844 0.960320
vt 0.176218 0.945332
vt 0.163844 0.929070
vt 0.163844 0.911628
vt 0.172000 0.901749
vt 0.172000 0.807173
vt 0.163844 0.797294
vt 0.163844 0.775598
vt 0.149482 0.951141
vt 0.151469 0.945332
vt 0.151469 0.914082
vt 0.155687 0.901749
vt 0.155687 0.807173
vt 0.157997 0.782679
vt 0.149482 0.919891
vt 0.143534 0.877898
vt 0.146343 0.877898
vt 0.152308 0.877898
vt 0.152308 0.831024
vt 0.155576 0.799774
vt 0.149482 0.835906
vt 0.151469 0.841715
vt 0.155687 0.854048
vt 0.155687 0.854874
vt 0.157997 0.816869
vt 0.149482 0.789031
vt 0.163844 0.756012
vt 0.163844 0.779851
vt 0.151469 0.794840
vt 0.163844 0.826726
vt 0.163844 0.844169
vt 0.163844 0.864753
vt 0.163844 0.823949
vt 0.173403 0.891844
vt 0.197136 0.866676
vt 0.197136 0.860900
vt 0.197136 0.835182
vt 0.174982 0.877898
vt 0.174982 0.831024
vt 0.179368 0.877898
vt 0.197136 0.877898
vt 0.214200 0.866676
vt 0.214200 0.877898
vt 0.214200 0.835182
vt 0.197136 0.920370
vt 0.197136 0.926147
vt 0.214200 0.926147
vt 0.214200 0.920370
vt 0.197136 0.889120
vt 0.214200 0.889120
vt 0.182179 0.926147
vt 0.179368 0.920370
vt 0.197136 0.814025
vt 0.197136 0.819801
vt 0.214200 0.819764
vt 0.214200 0.806368
vt 0.214200 0.894897
vt 0.197136 0.819764
vt 0.197136 0.806368
vt 0.197136 0.812055
vt 0.214200 0.812055
vt 0.214200 0.790743
vt 0.197136 0.790743
s 1
g key_Material.001
usemtl Material.001
f 56/1/1 11/2/2 6/3/3 49/4/4
f 44/5/5 53/6/6 45/7/7
f 45/7/7 55/6/8 46/5/9
f 46/8/10 55/9/11 57/10/12 47/11/13
f 9/12/14 54/13/15 62/14/16
f 47/15/17 57/16/12 48/17/18 42/18/19
f 6/19/3 12/20/20 13/21/21 7/22/22
f 7/2/23 13/23/24 14/24/24 8/25/25
f 8/26/26 14/27/27 15/28/28 9/12/14
f 9/12/14 15/28/28 16/27/29 10/26/30
f 10/25/31 16/24/32 17/23/32 11/2/33
f 11/22/2 17/21/34 12/20/20 6/19/3
f 12/20/20 18/29/35 19/30/36 13/21/21
f 13/23/24 19/31/37 20/32/37 14/24/24
f 14/27/27 20/33/38 21/34/39 15/28/28
f 15/28/28 21/34/39 22/33/40 16/27/29
f 16/24/32 22/32/41 23/31/41 17/23/32
f 17/21/34 23/30/42 18/29/35 12/20/20
f 18/35/35 24/36/16 25/37/43 19/31/36
f 19/31/37 25/37/44 26/38/44 20/32/37
f 20/33/38 26/39/45 27/40/46 21/34/39
f 21/34/39 27/40/46 28/39/47 22/33/40
f 22/32/41 28/38/48 29/37/48 23/31/41
f 23/31/42 29/37/49 24/36/16 18/35/35
f 24/36/16 30/41/50 31/42/51 25/37/43
f 25/37/44 31/42/52 32/43/52 26/38/44
f 26/39/45 32/44/53 33/45/54 27/40/46
f 27/40/46 33/45/54 34/44/55 28/39/47
f 28/38/48 34/43/56 35/42/56 29/37/48
f 29/37/49 35/42/57 30/41/50 24/36/16
f 30/46/50 36/47/28 37/48/58 31/49/51
f 31/42/52 37/50/59 38/51/59 32/43/52
f 32/44/53 38/52/60 39/53/20 33/45/54
f 33/45/54 39/53/20 40/52/61 34/44/55
f 34/43/56 40/51/62 41/50/62 35/42/56
f 35/49/57 41/48/63 36/47/28 30/46/50
f 36/47/28 42/18/19 43/15/64 37/48/58
f 37/50/59 43/11/65 44/8/66 38/51/59
f 38/52/60 44/5/5 45/7/7 39/53/20
f 39/53/20 45/7/7 46/5/9 40/52/61
f 40/51/62 46/8/10 47/11/13 41/50/62
f 41/48/63 47/15/17 42/18/19 36/47/28
f 49/4/4 6/3/3 7/2/22 50/1/67
f 50/1/67 7/2/23 8/25/25 52/54/68
f 52/13/69 8/26/26 9/12/14
f 9/12/14 10/26/30 54/13/15
f 54/54/70 10/25/31 11/2/33 56/1/1
f 43/11/65 51/10/71 53/9/72 44/8/66
f 69/55/16 68/56/16 80/57/73
f 61/58/74 53/9/72 51/10/71
f 62/14/16 45/7/7 53/6/6
f 62/14/16 63/59/75 55/6/8
f 63/58/76 64/60/77 57/10/12
f 72/61/78 69/55/79 3/62/80 59/63/81
f 42/18/19 48/17/18 51/16/71 43/15/64
f 61/59/82 62/14/16 53/6/6
f 69/55/81 80/57/73 77/64/83 3/62/81
f 66/65/84 70/66/85 5/67/20 2/68/86
f 71/61/87 66/69/84 2/70/86 58/63/88
f 70/66/85 67/65/89 4/68/90 5/67/20
f 61/59/82 52/13/69 62/14/16
f 56/1/1 64/60/77 63/58/76
f 54/13/15 63/59/75 62/14/16
f 52/13/69 9/12/14 62/14/16
f 50/1/67 52/54/68 61/58/74
f 65/55/91 71/61/87 58/63/88 1/62/92
f 45/7/7 62/14/16 55/6/8
f 60/60/93 50/1/67 61/58/74
f 60/60/93 61/58/74 51/10/71
f 54/54/70 56/1/1 63/58/76
f 55/9/11 63/58/76 57/10/12
f 50/1/67 60/60/93 72/61/78 67/69/89
f 57/10/12 64/60/77 71/61/87 65/55/91
f 49/71/4 50/72/67 67/65/89 70/66/85
f 64/60/77 56/1/1 66/69/84 71/61/87
f 51/16/71 48/17/18 68/73/94 69/74/79
f 48/17/18 57/16/12 65/74/91 68/73/94
f 56/72/1 49/71/4 70/66/85 66/65/84
f 60/60/93 51/10/71 69/55/79 72/61/78
f 76/75/95 77/75/83 78/76/96 75/76/97
f 1/62/88 76/64/95 73/57/98 65/55/88
f 1/62/46 3/62/46 77/64/83 76/64/95
f 68/56/16 65/55/16 73/57/98
f 1/62/46 58/63/46 59/63/46 3/62/46
f 58/63/46 2/70/46 4/70/46 59/63/46
f 5/77/46 4/70/46 2/70/46
f 67/69/89 72/61/78 59/63/81 4/70/90
f 80/57/73 68/56/16 73/57/98
f 80/78/73 73/78/98 74/79/99 79/79/100
f 73/80/98 76/81/95 75/82/97 74/83/99
f 79/83/100 78/82/96 77/81/83 80/80/73
f 79/83/100 74/83/99 75/82/97 78/82/96
