# Blender 4.5.3 LTS
# www.blender.org
mtllib barril.mtl
o keg_decorated
v -10.702028 0.029513 -4.075644
v -10.566968 0.829513 -4.033707
v -10.841712 0.029513 -4.341141
v -10.706652 0.829513 -4.299203
v -10.967525 0.029513 -3.935960
v -10.832464 0.829513 -3.894023
v -9.728541 0.029513 -4.587819
v -9.770479 0.829513 -4.452759
v -9.994038 0.029513 -4.448135
v -10.035975 0.829513 -4.313075
v -10.133722 0.029513 -4.713632
v -10.175659 0.829513 -4.578571
v -11.094595 0.029513 -4.197540
v -10.958977 0.829247 -4.155429
v -9.872142 0.029513 -4.840702
v -9.914253 0.829247 -4.705084
v -10.869799 1.019692 -4.424636
v -10.882667 0.829513 -4.404341
v -10.542063 1.015020 -4.602032
v -10.515258 0.829513 -4.597643
v -10.168635 0.829513 -4.780009
v -10.183383 1.020272 -4.786969
v -10.518231 1.015858 -4.611152
v -10.515258 0.829513 -4.597643
v -10.189854 0.029513 -3.102157
v -10.147916 0.829513 -3.237217
v -10.329537 0.029513 -3.367654
v -10.287601 0.829513 -3.502714
v -10.595034 0.029513 -3.227970
v -10.553097 0.829513 -3.363030
v -10.837357 1.021048 -3.486312
v -10.763530 1.022372 -3.443070
v -10.761892 0.829478 -3.451140
v -9.356050 0.029513 -3.879828
v -9.491111 0.829513 -3.921766
v -9.481863 0.029513 -3.474648
v -9.616923 0.829513 -3.516585
v -9.621547 0.029513 -3.740144
v -9.756607 0.829513 -3.782082
v -10.160966 0.829513 -3.032609
v -10.479706 1.029513 -3.599385
v -10.154887 1.014809 -3.019413
v -10.451433 0.029513 -2.975086
v -10.409323 0.829247 -3.110705
v -9.228980 0.029513 -3.618248
v -9.364598 0.829247 -3.660359
v -10.495584 1.013878 -2.841970
v -10.486803 0.829513 -2.861178
v -10.140638 1.015407 -3.029380
v -10.160966 0.829513 -3.032609
v -9.793557 0.829513 -3.225911
v -9.787169 1.014642 -3.215037
v -9.804278 1.017337 -3.203614
v -9.793557 0.829513 -3.225911
v -9.452490 1.018095 -3.387695
v -9.446935 0.829513 -3.408278
v -10.301708 0.830080 -4.253002
v -10.298472 1.022277 -4.254346
v -10.361783 1.021502 -4.302707
v -11.208504 0.829513 -4.232910
v -11.226922 1.015175 -4.238629
v -10.893036 1.016668 -4.415726
v -10.882667 0.829513 -4.404341
v -9.836773 0.829513 -4.954610
v -9.827993 1.013878 -4.973818
v -10.168297 1.015010 -4.796589
v -10.168635 0.829513 -4.780009
v -9.115071 0.829513 -3.582879
v -9.096654 1.015175 -3.577160
v -9.430258 1.016965 -3.400297
v -9.446935 0.829513 -3.408278
v -9.843869 1.029513 -4.216403
v -9.561683 0.829478 -4.364648
v -9.560045 1.022372 -4.372718
v -9.486218 1.021048 -4.329477
v -9.351427 0.229513 -3.656270
v -9.444550 0.229513 -3.833267
v -9.444550 0.429513 -3.833267
v -10.413412 0.229513 -3.097533
v -10.506536 0.229513 -3.274531
v -10.506536 0.429513 -3.274531
v -9.817040 0.229513 -4.541258
v -9.817040 0.429513 -4.541258
v -9.910163 0.229513 -4.718256
v -10.879026 0.229513 -3.982522
v -10.879026 0.429513 -3.982522
v -10.972149 0.229513 -4.159519
v -9.355792 0.420138 -3.664566
v -10.416904 0.422013 -3.104171
v -9.906671 0.422013 -4.711618
v -10.967784 0.420138 -4.151222
v -9.738309 1.304441 -4.155073
v -9.739301 1.033393 -4.155813
v -9.811416 1.029512 -4.257830
v -10.816530 1.304556 -3.320241
v -10.896363 1.029512 -3.415801
v -10.811369 1.034941 -3.319013
v -9.739185 1.572827 -4.154908
v -9.811416 1.578857 -4.257830
v -10.815736 1.574979 -3.320744
v -10.896363 1.578857 -3.415802
v -10.266491 1.304861 -4.769729
v -10.261829 1.035579 -4.769325
v -10.368048 1.029512 -4.695050
v -9.849478 1.304672 -4.232443
v -9.947033 1.029512 -4.152576
v -9.850014 1.032111 -4.232913
v -10.265581 1.574690 -4.769127
v -10.368048 1.578856 -4.695050
v -9.849037 1.574978 -4.236030
v -9.947033 1.578857 -4.152576
v -10.862301 1.304861 -3.446377
v -10.863411 1.033669 -3.446968
v -10.760744 1.029512 -3.521055
v -11.279314 1.304672 -3.983662
v -11.181759 1.029512 -4.063529
v -11.279820 1.033409 -3.979867
v -10.866749 1.572732 -3.446791
v -10.760744 1.578857 -3.521055
v -11.278721 1.576288 -3.983376
v -11.181759 1.578857 -4.063529
v -10.368048 1.029512 -4.695050
v -9.947033 1.029512 -4.152576
v -10.760744 1.029512 -3.521055
v -11.181759 1.029512 -4.063529
v -9.947033 1.098180 -4.152576
v -10.368048 1.098180 -4.695050
v -11.181759 1.098180 -4.063529
v -10.760744 1.098180 -3.521055
v -10.106943 1.325312 -3.854624
v -9.940417 1.572555 -3.993101
v -10.169878 1.569037 -3.812697
v -10.113472 1.504056 -3.861989
v -10.250896 1.578857 -3.916749
v -10.183309 1.522887 -3.968444
v -10.232430 1.578856 -4.800304
v -10.313057 1.574979 -4.895362
v -11.390135 1.304441 -4.059328
v -11.317377 1.578857 -3.958276
v -11.389607 1.572827 -4.061198
v -10.313357 1.033393 -4.895482
v -10.232430 1.029512 -4.800304
v -10.313829 1.304556 -4.896626
v -11.317377 1.029512 -3.958276
v -11.390044 1.034941 -4.064631
v -11.021850 1.325312 -4.361481
v -11.079624 1.572230 -4.308469
v -10.905762 1.569426 -4.443754
v -11.016356 1.503722 -4.353655
v -10.823648 1.578857 -4.341458
v -10.952288 1.532470 -4.242292
v -10.787423 1.815251 -4.203080
v -10.621605 1.811560 -4.182227
v -10.532040 1.812322 -4.040520
v -10.565809 1.813808 -3.899535
v -10.680019 1.813079 -3.810884
v -10.845844 1.811560 -3.831767
v -10.935410 1.812322 -3.973475
v -10.901372 1.811537 -4.114708
v -10.580669 1.740225 -3.987703
v -10.814314 1.197200 -4.299589
v -10.819376 1.278650 -4.324622
v -10.570971 1.277651 -4.292508
v -10.583579 1.196532 -4.270392
v -10.997528 1.197832 -4.157376
v -11.014007 1.282374 -4.173090
v -10.420991 1.282373 -4.098333
v -10.440855 1.197832 -4.087200
v -10.443016 1.279140 -3.853155
v -10.470646 1.197693 -3.848082
v -10.640583 1.276061 -3.688923
v -10.662995 1.195766 -3.716280
v -10.895525 1.278650 -3.720567
v -10.884409 1.197200 -3.743560
v -11.054915 1.276865 -3.923273
v -11.026552 1.197200 -3.927269
v -10.830685 1.607379 -4.320833
v -10.806892 1.689641 -4.304558
v -10.578673 1.691614 -4.261701
v -10.568366 1.612145 -4.297079
v -11.019065 1.604138 -4.163173
v -10.996537 1.689852 -4.156811
v -10.435992 1.689211 -4.079729
v -10.418551 1.604138 -4.087471
v -10.479542 1.690481 -3.842705
v -10.448950 1.607861 -3.843197
v -10.663260 1.691614 -3.717257
v -10.652066 1.610471 -3.686168
v -10.883755 1.690298 -3.744432
v -10.905540 1.607379 -3.727045
v -11.025475 1.690298 -3.927423
v -11.048957 1.605673 -3.925889
v -10.658710 1.740679 -4.138593
v -10.828101 1.739321 -4.128602
v -10.693716 1.740679 -3.860902
v -10.861924 1.738510 -3.907502
v -10.831490 1.719347 -3.964805
v -10.796956 1.815263 -3.939414
v -10.834962 1.717711 -4.013897
v -10.789170 1.719221 -3.988589
v -10.859770 1.812064 -4.001202
v -10.783598 1.811643 -4.024614
v -10.795099 1.094394 -4.231112
v -10.618649 1.094394 -4.208868
v -10.509611 1.094394 -4.068371
v -10.531854 1.094394 -3.891922
v -10.672352 1.094394 -3.782883
v -10.848801 1.094394 -3.805127
v -10.957839 1.094394 -3.945623
v -10.935596 1.094394 -4.122072
v -10.529159 1.315708 -4.099951
v -10.000103 1.315652 -4.215435
v -10.322356 1.315709 -4.422192
v -10.359165 1.319722 -3.909803
v -10.512504 1.319722 -4.252198
v -10.170106 1.319677 -4.405555
v -10.016752 1.319678 -4.063139
v -10.323255 1.701582 -4.194759
v -10.227548 1.701582 -4.216288
v -10.301726 1.701582 -4.099053
v -10.206021 1.701582 -4.120581
v -10.343169 1.877492 -4.207360
v -10.357892 1.797329 -4.176941
v -10.302809 1.807860 -4.083821
v -10.190195 1.813194 -4.113235
v -10.221885 1.808583 -4.225238
v -10.310287 1.875145 -4.077456
v -10.216268 1.878061 -4.234116
v -10.196350 1.892860 -4.114462
v -10.327590 1.783892 -4.241518
v -10.202230 1.760086 -4.252391
v -10.173879 1.760114 -4.094025
v -10.326488 1.756969 -4.064310
v -10.223771 1.093906 -3.975993
v -10.446314 1.093906 -4.116804
v -10.082960 1.093906 -4.198536
v -10.305503 1.093906 -4.339347
v -10.325049 1.093906 -3.981521
v -10.440786 1.093906 -4.218082
v -10.204226 1.093906 -4.333819
v -10.088489 1.093906 -4.097259
v -10.206873 1.315652 -3.893137
v -10.421841 1.449025 -4.329321
v -10.560052 1.449024 -4.523255
v -10.227906 1.449024 -4.467531
v -10.366117 1.449024 -4.661466
v -10.446886 1.701582 -4.540253
v -10.349119 1.701582 -4.548301
v -10.438838 1.701582 -4.442486
v -10.341072 1.701582 -4.450534
v -10.459304 1.808835 -4.544596
v -10.452444 1.817324 -4.427628
v -10.328654 1.808835 -4.446191
v -10.324980 1.878060 -4.436889
v -10.333266 1.872308 -4.566997
v -10.444002 1.885827 -4.436396
v -10.462978 1.878060 -4.553897
v -10.475035 1.760114 -4.571010
v -10.358951 1.783892 -4.594219
v -10.316385 1.800047 -4.545063
v -10.310097 1.756970 -4.421194
v -10.465573 1.776496 -4.405834
v -10.381103 1.088187 -4.361744
v -10.527628 1.088190 -4.482494
v -10.260330 1.088187 -4.508269
v -10.406878 1.088190 -4.629043
v -10.460858 1.084927 -4.372377
v -10.516996 1.084928 -4.562272
v -10.327145 1.084932 -4.618412
v -10.270960 1.084932 -4.428558
v -8.035567 0.529513 -4.708092
v -7.949143 0.529513 -4.543826
v -8.402644 0.279389 -4.514964
v -8.316220 0.279389 -4.350698
v -8.826510 0.279389 -4.291958
v -8.740086 0.279389 -4.127692
v -9.193588 0.529513 -4.098830
v -9.107164 0.529513 -3.934564
v -8.967640 0.096179 -4.217706
v -8.909459 0.062846 -4.038580
v -8.233272 0.062846 -4.604075
v -8.175091 0.096179 -4.424950
v -9.456036 0.529513 -4.597661
v -9.542459 0.529513 -4.761927
v -9.088958 0.279389 -4.790789
v -9.175383 0.279389 -4.955055
v -8.665092 0.279389 -5.013794
v -8.751517 0.279389 -5.178061
v -8.298014 0.529513 -5.206923
v -8.384439 0.529513 -5.371190
v -8.523962 0.096179 -5.088047
v -8.582143 0.062846 -5.267173
v -9.258330 0.062846 -4.701677
v -9.316511 0.096179 -4.880803
v -7.950925 0.433717 -4.744192
v -7.872197 0.435688 -4.590502
v -9.270535 0.435688 -4.052154
v -9.191806 0.433717 -3.898464
v -9.166625 0.284028 -4.103118
v -9.087869 0.277257 -3.954331
v -9.264536 0.131359 -4.051729
v -9.189487 0.124163 -3.901339
v -8.054863 0.277257 -4.688325
v -7.976107 0.284028 -4.539538
v -7.953245 0.124164 -4.741317
v -7.878195 0.131359 -4.590927
v -7.953619 0.029512 -4.738322
v -7.875376 0.029512 -4.597738
v -9.267355 0.029512 -4.044918
v -9.189113 0.029512 -3.904334
v -9.538084 0.435688 -4.560684
v -9.620152 0.433717 -4.712618
v -8.221068 0.435688 -5.253599
v -8.299797 0.433717 -5.407290
v -8.324978 0.284027 -5.202635
v -8.403734 0.277257 -5.351422
v -8.227066 0.131359 -5.254024
v -8.302116 0.124163 -5.404415
v -9.435139 0.280338 -4.617548
v -9.516339 0.280950 -4.765171
v -9.538357 0.124163 -4.564435
v -9.613407 0.131359 -4.714826
v -9.537984 0.029512 -4.567430
v -9.616226 0.029512 -4.708015
v -8.224247 0.029512 -5.260835
v -8.302490 0.029512 -5.401420
v -9.074173 1.711099 -5.582511
v -8.158783 1.712246 -3.842812
v -8.772086 1.459248 -5.740741
v -7.931610 1.569464 -3.945747
v -7.821737 1.322481 -4.036650
v -8.730251 1.037994 -5.763456
v -7.814566 1.039932 -4.023908
v -8.928591 0.706492 -5.658259
v -7.933471 0.790351 -3.946887
v -8.165659 0.649376 -3.855704
v -9.325942 0.649377 -5.450049
v -8.563009 0.706491 -3.647495
v -9.543979 0.791620 -5.335335
v -9.693678 1.180237 -5.255970
v -8.761349 1.037994 -3.542298
v -8.754133 1.322784 -3.529848
v -9.470827 1.653983 -5.372976
v -8.624231 1.571657 -3.589609
v -8.417427 1.711098 -3.723243
v -9.054621 1.793553 -5.592798
v -8.802717 1.629215 -5.725330
v -7.890889 1.625801 -3.982456
v -8.133033 1.782348 -3.837305
v -8.657281 1.344575 -5.801848
v -7.748767 1.344575 -4.075041
v -8.657281 1.015900 -5.801848
v -7.744287 1.020553 -4.041354
v -8.802717 0.731260 -5.725330
v -7.890037 0.736788 -3.982599
v -9.054621 0.566922 -5.592798
v -8.146107 0.566922 -3.865991
v -9.345493 0.566922 -5.439763
v -8.436979 0.566922 -3.712956
v -9.597398 0.731260 -5.307230
v -8.688884 0.731260 -3.580423
v -9.742834 1.015900 -5.230712
v -8.834320 1.015900 -3.503906
v -9.742834 1.344575 -5.230712
v -8.807616 1.343646 -3.481721
v -9.597398 1.629215 -5.307230
v -8.671347 1.623403 -3.562872
v -9.345493 1.793553 -5.439763
v -8.436979 1.793553 -3.712956
v -9.143985 1.697166 -5.409705
v -8.825807 1.540375 -5.578412
v -7.958866 1.464138 -4.100057
v -8.347615 1.697166 -3.896049
v -8.709147 1.312057 -5.639790
v -8.755667 0.896336 -5.614531
v -7.911701 1.048418 -4.124088
v -8.118591 0.732427 -4.016022
v -9.143986 0.663309 -5.409704
v -8.558369 0.714966 -3.785036
v -9.463241 0.820100 -5.243043
v -9.579899 1.048418 -5.181666
v -8.782453 1.048418 -3.665965
v -9.532734 1.464138 -5.205697
v -8.782453 1.312057 -3.665965
v -8.665794 1.540375 -3.727342
v -8.829408 1.968301 -5.263633
v -8.285505 1.964346 -4.230742
v -7.963446 1.753569 -4.399255
v -8.520222 1.751293 -5.448268
v -7.775136 1.388595 -4.489681
v -8.330317 1.391466 -5.544343
v -7.778638 0.968119 -4.496828
v -8.318085 0.968309 -5.532200
v -7.965368 0.604902 -4.398585
v -8.520222 0.609182 -5.448268
v -8.282254 0.401420 -4.218375
v -8.832979 0.396128 -5.271319
v -8.656978 0.396226 -4.034370
v -9.204937 0.395777 -5.075624
v -8.986901 0.604006 -3.871285
v -9.526499 0.603818 -4.896424
v -9.172766 0.971114 -3.776435
v -9.714529 0.972147 -4.819914
v -9.165214 1.390916 -3.766976
v -9.708938 1.391876 -4.787149
v -8.979074 1.754522 -3.864908
v -9.527217 1.754853 -4.906064
v -8.656978 1.964248 -4.034370
v -9.210104 1.959382 -5.085304
v -8.536674 2.038752 -4.747021
v -8.193318 1.811588 -4.955511
v -7.984457 1.410691 -5.053002
v -7.979166 0.951319 -5.039605
v -8.191991 0.550385 -4.956209
v -8.537130 0.318537 -4.749777
v -8.951399 0.320792 -4.544276
v -9.300529 0.553277 -4.360719
v -9.512831 0.948397 -4.261284
v -9.498741 1.409156 -4.240119
v -9.304131 1.808279 -4.358696
v -8.955905 2.041380 -4.554296
v -8.410648 1.963962 -4.466870
v -8.354598 2.080238 -4.427247
v -8.287646 1.922085 -4.208982
v -8.275595 2.048937 -4.259076
v -8.088754 1.753964 -4.636227
v -7.984946 1.839083 -4.621730
v -7.982952 1.723308 -4.369288
v -7.918799 1.816170 -4.446795
v -7.902908 1.390236 -4.734004
v -7.771527 1.421392 -4.734015
v -7.807036 1.379015 -4.461842
v -7.712803 1.413005 -4.555174
v -7.902908 0.970239 -4.734004
v -7.771527 0.939083 -4.734015
v -7.807036 0.981460 -4.461842
v -7.712803 0.947470 -4.555174
v -8.088754 0.606511 -4.636227
v -7.984946 0.521392 -4.621730
v -7.982952 0.637167 -4.369288
v -7.918800 0.544305 -4.446795
v -8.410648 0.396512 -4.466870
v -8.354598 0.280238 -4.427247
v -8.287646 0.438389 -4.208981
v -8.275595 0.311538 -4.259076
v -8.782341 0.396512 -4.271314
v -8.781435 0.280238 -4.202678
v -8.639478 0.438390 -4.023874
v -8.687588 0.311538 -4.042316
v -9.104236 0.606511 -4.101957
v -9.151088 0.521392 -4.008195
v -8.944173 0.637167 -3.863567
v -9.044384 0.544305 -3.854598
v -9.290083 0.970239 -4.004179
v -9.364506 0.939083 -3.895910
v -9.120090 0.981460 -3.771013
v -9.250381 0.947470 -3.746218
v -9.290083 1.390236 -4.004179
v -9.364506 1.421392 -3.895910
v -9.120090 1.379015 -3.771013
v -9.250381 1.413005 -3.746218
v -9.104237 1.753964 -4.101957
v -9.151088 1.839083 -4.008195
v -8.944173 1.723307 -3.863567
v -9.044385 1.816170 -3.854598
v -8.782342 1.963962 -4.271313
v -8.781435 2.080238 -4.202678
v -8.639478 1.922085 -4.023874
v -8.687589 2.048937 -4.042317
v -8.852123 1.922085 -5.281878
v -8.804013 2.048937 -5.263436
v -8.709260 1.963962 -5.034439
v -8.710167 2.080238 -5.103074
v -8.547429 1.723308 -5.442185
v -8.447217 1.816170 -5.451155
v -8.387365 1.753964 -5.203795
v -8.340514 1.839083 -5.297556
v -8.371512 1.379015 -5.534739
v -8.241220 1.413005 -5.559534
v -8.201519 1.390236 -5.301573
v -8.127096 1.421392 -5.409841
v -8.371512 0.981460 -5.534739
v -8.241220 0.947470 -5.559534
v -8.201519 0.970239 -5.301573
v -8.127096 0.939083 -5.409841
v -8.547429 0.637167 -5.442185
v -8.447218 0.544305 -5.451154
v -8.387365 0.606511 -5.203795
v -8.340514 0.521392 -5.297556
v -8.852123 0.438389 -5.281878
v -8.804013 0.311538 -5.263436
v -8.709260 0.396512 -5.034439
v -8.710167 0.280238 -5.103073
v -9.203955 0.438390 -5.096771
v -9.216006 0.311538 -5.046677
v -9.080954 0.396512 -4.838882
v -9.137003 0.280238 -4.878504
v -9.508650 0.637167 -4.936464
v -9.572803 0.544305 -4.858957
v -9.402847 0.606511 -4.669526
v -9.506656 0.521392 -4.684021
v -9.684566 0.981460 -4.843910
v -9.778799 0.947470 -4.750577
v -9.588694 0.970239 -4.571747
v -9.720075 0.939083 -4.571737
v -9.684566 1.379015 -4.843910
v -9.778799 1.413005 -4.750577
v -9.588694 1.390236 -4.571747
v -9.720075 1.421392 -4.571737
v -9.508650 1.723307 -4.936464
v -9.572803 1.816170 -4.858957
v -9.402848 1.753964 -4.669525
v -9.506656 1.839083 -4.684021
v -9.203955 1.922085 -5.096771
v -9.216006 2.048937 -5.046677
v -9.080954 1.963962 -4.838882
v -9.137004 2.080238 -4.878504
v -8.281614 1.040188 -3.770599
v -8.377101 0.966690 -3.728540
v -8.192867 0.966690 -3.825469
v -8.228053 0.844327 -3.806957
v -8.341915 0.844327 -3.747052
v -8.415008 0.975880 -3.787753
v -8.323374 1.050940 -3.835201
v -8.217764 0.983885 -3.891279
v -8.243740 0.841452 -3.877612
v -8.386633 0.825355 -3.802445
v -8.478144 0.979291 -3.837293
v -8.351703 1.083095 -3.903816
v -8.225261 0.979291 -3.970340
v -8.273558 0.811332 -3.944930
v -8.429848 0.811333 -3.862703
v -9.322783 0.285125 -4.711229
v -8.988821 0.247958 -4.163092
v -9.296976 0.197334 -4.724807
v -9.061363 0.184601 -4.124926
v -9.388426 0.226059 -4.676693
v -9.082087 0.258178 -4.114023
v -8.474644 0.281595 -5.157456
v -8.103832 0.247958 -4.628706
v -8.402101 0.218238 -5.195622
v -8.176375 0.184601 -4.590539
v -8.495367 0.208017 -5.146553
v -8.197099 0.258178 -4.579636
v -10.064432 1.039513 -3.007564
v -9.378805 1.039513 -3.735364
v -9.499699 1.039513 -3.573848
v -9.904166 1.039513 -3.134349
v -9.760627 1.054616 -4.037112
v -10.091108 1.039513 -4.401271
v -10.773699 1.039513 -3.793512
v -10.629274 1.039513 -3.892740
v -10.226860 1.039513 -4.257567
v -10.426040 1.054769 -3.364318
v -9.606206 1.093601 -3.906655
v -10.276947 1.093970 -3.210827
v -10.606633 1.039196 -3.571098
v -9.935452 1.039544 -4.210051
v -10.148467 1.039518 -3.086784
v -9.474233 1.039530 -3.805970
v -10.103735 1.287960 -3.703087
v -9.316319 1.287898 -3.684142
v -9.700541 1.287961 -4.087277
v -9.928685 1.291651 -3.376404
v -10.027225 1.291651 -3.912227
v -9.491394 1.291605 -4.010789
v -9.392838 1.291605 -3.474935
v -9.987063 1.028791 -3.759022
v -9.780239 1.678014 -3.766225
v -9.637403 1.678014 -3.763780
v -9.782683 1.678014 -3.623388
v -9.639848 1.678014 -3.620944
v -9.810500 1.875907 -3.794059
v -9.807104 1.820972 -3.757281
v -9.789667 1.822119 -3.602028
v -9.628885 1.823085 -3.609600
v -9.641975 1.821641 -3.785282
v -9.803848 1.873402 -3.590321
v -9.608670 1.875927 -3.598666
v -9.610541 1.867530 -3.789737
v -9.624665 1.927466 -3.776089
v -9.788524 1.935717 -3.774798
v -9.635751 1.936080 -3.605776
v -9.797852 1.936080 -3.619292
v -9.770766 1.788180 -3.833508
v -9.590424 1.786062 -3.801833
v -9.594513 1.754060 -3.574031
v -9.831326 1.757423 -3.587126
v -9.845972 1.759485 -3.766089
v -9.775241 1.027334 -3.417392
v -9.433859 1.027330 -3.628628
v -9.645037 1.027349 -3.969769
v -9.719485 1.287897 -3.299860
v -10.373283 1.407036 -3.143303
v -10.595825 1.407036 -3.276340
v -10.240247 1.407036 -3.365844
v -10.462789 1.407036 -3.498881
v -10.471836 1.417228 -3.151739
v -10.587389 1.417228 -3.374893
v -10.364236 1.417228 -3.490445
v -10.248683 1.417227 -3.267292
v -10.560207 1.029143 -3.315694
v -10.483311 1.706972 -3.359552
v -10.379577 1.706971 -3.386366
v -10.456496 1.706972 -3.255819
v -10.352762 1.706972 -3.282632
v -10.503163 1.899723 -3.371250
v -10.496794 1.824449 -3.367497
v -10.463418 1.822448 -3.244070
v -10.330585 1.831234 -3.279998
v -10.370363 1.828593 -3.402002
v -10.472467 1.864390 -3.228713
v -10.460923 1.908205 -3.248304
v -10.373232 1.915887 -3.397135
v -10.346748 1.915447 -3.272484
v -10.523098 1.765501 -3.379465
v -10.354725 1.768192 -3.428546
v -10.320334 1.788354 -3.253520
v -10.478951 1.770871 -3.213211
v -10.412643 1.028398 -3.179376
v -10.276343 1.028397 -3.326559
v -10.423488 1.028403 -3.462790
v -10.432985 1.115231 -3.124745
v -10.614389 1.115281 -3.336061
v -10.403093 1.115290 -3.517446
v -10.221689 1.115238 -3.306169
vn -0.7065 -0.6193 0.3425
vn -0.8185 -0.5152 -0.2542
vn -0.0000 -1.0000 -0.0000
vn 0.6825 -0.6193 -0.3883
vn 0.8782 -0.1240 -0.4620
vn 0.7065 -0.6193 -0.3425
vn 0.3425 -0.6193 0.7065
vn -0.2542 -0.5152 0.8185
vn -0.6022 0.6474 0.4671
vn 0.2108 0.5769 -0.7891
vn -0.8050 0.5315 -0.2635
vn -0.4953 0.7680 0.4060
vn 0.4808 0.7639 -0.4305
vn -0.3012 0.9406 0.1565
vn 0.6134 0.5993 -0.5144
vn -0.0001 -1.0000 0.0008
vn -0.0005 -1.0000 0.0005
vn 0.0007 -1.0000 0.0012
vn -0.4807 0.7639 0.4305
vn 0.2995 0.9413 -0.1556
vn -0.6134 0.5994 0.5144
vn -0.1125 0.0011 0.9936
vn -0.7639 0.0025 0.6453
vn -0.5172 -0.7040 0.4866
vn 0.9900 -0.0015 0.1412
vn 0.8135 -0.5681 0.1247
vn 0.8161 -0.0010 -0.5779
vn -0.0647 -0.5686 0.8201
vn 0.8176 0.0022 -0.5759
vn 0.7873 0.6107 0.0850
vn -0.0758 0.5707 0.8177
vn 0.9935 0.0009 0.1139
vn 0.8178 0.5708 0.0737
vn 0.6444 0.0065 0.7647
vn 0.1358 -0.0005 -0.9907
vn 0.1326 -0.5677 -0.8125
vn -0.5782 -0.0080 -0.8158
vn -0.5876 0.0027 -0.8091
vn 0.1218 0.5683 -0.8137
vn 0.6366 -0.0019 0.7712
vn 0.8176 -0.5699 0.0823
vn -0.9935 -0.0006 -0.1139
vn -0.8175 0.5699 -0.0827
vn -0.6361 0.0016 -0.7716
vn -0.1358 0.0008 0.9907
vn -0.1224 -0.5683 0.8136
vn 0.5871 -0.0030 0.8095
vn 0.5788 0.0077 0.8155
vn -0.1320 0.5676 0.8127
vn -0.6449 -0.0068 -0.7643
vn -0.8179 -0.5707 -0.0731
vn -0.6109 -0.0041 -0.7917
vn -0.6125 -0.0009 -0.7905
vn -0.6130 -0.0000 -0.7901
vn 0.6013 0.7053 0.3755
vn 0.5968 -0.2392 0.7659
vn 0.6150 0.5336 0.5806
vn -0.6131 -0.0000 -0.7900
vn 0.2770 0.9593 -0.0546
vn 0.3341 0.7575 0.5609
vn 0.0191 -0.9995 0.0246
vn -0.8167 0.0040 0.5771
vn -0.7895 0.6093 -0.0738
vn -0.9909 -0.0020 -0.1348
vn 0.7624 -0.0010 -0.6472
vn 0.0811 -0.5681 -0.8190
vn 0.1058 0.0028 -0.9944
vn 0.0782 0.5710 -0.8172
vn 0.7629 0.0006 -0.6465
vn -0.8104 -0.5686 -0.1409
vn -0.5998 -0.7040 0.3803
vn 0.6125 0.0008 0.7905
vn 0.6105 0.0040 0.7920
vn 0.6133 0.0004 0.7899
vn -0.5286 0.7047 -0.4733
vn -0.5962 -0.2481 -0.7635
vn -0.4611 0.5076 -0.7278
vn -0.0996 0.9888 -0.1114
vn -0.2050 0.7560 -0.6217
vn -0.0191 -0.9995 -0.0246
vn -0.5517 0.8300 -0.0828
vn -0.3499 0.9149 0.2015
vn -0.0060 1.0000 0.0042
vn -0.0067 1.0000 -0.0020
vn -0.2887 0.9075 -0.3052
vn -0.3345 -0.2124 -0.9181
vn -0.6241 -0.2709 -0.7328
vn -0.9617 -0.2632 0.0768
vn 0.2823 0.5281 0.8009
vn 0.6174 0.4714 -0.6298
vn -0.5078 0.7159 0.4792
vn -0.6862 0.5820 -0.4363
vn -0.2993 0.0533 -0.9527
vn -0.8944 0.0629 -0.4429
vn -0.9527 0.0532 0.2993
vn -0.4429 0.0630 0.8944
vn -0.4363 0.5820 0.6862
vn 0.2993 0.0531 0.9527
vn 0.6862 0.5820 0.4363
vn 0.4363 0.5820 -0.6862
vn 0.9527 0.0531 -0.2993
vn 0.4429 0.0628 -0.8944
vn 0.8944 0.0629 0.4428
vn -0.7454 -0.4979 -0.4433
vn -0.9860 0.0291 -0.1640
vn -0.5304 0.2842 -0.7987
vn 0.8393 0.2566 0.4792
vn -0.4032 0.5474 0.7333
vn -0.3595 0.2904 0.8868
vn 0.4455 0.4569 -0.7699
vn 0.6303 0.6662 0.3987
vn -0.6937 0.5021 -0.5164
vn 0.5507 0.2719 -0.7892
vn -0.5491 -0.0737 0.8325
vn -0.6757 0.4513 -0.5828
vn 0.1715 0.1429 -0.9748
vn -0.9748 0.1429 -0.1715
vn -0.1715 0.1429 0.9748
vn -0.5828 0.4513 0.6757
vn 0.6757 0.4513 0.5829
vn 0.5829 0.4513 -0.6757
vn 0.9748 0.1429 0.1715
vn -0.6250 0.3253 0.7096
vn 0.6020 0.5707 0.5584
vn -0.4687 0.6843 0.5586
vn 0.6057 -0.4801 -0.6346
vn 0.2767 0.2684 -0.9227
vn 0.8782 0.0505 -0.4756
vn -0.7964 0.2700 -0.5412
vn -0.6336 0.5008 -0.5896
vn 0.4991 0.4880 -0.7160
vn -0.7591 -0.0681 -0.6474
vn -0.6281 0.0192 0.7779
vn 0.7438 -0.0689 0.6648
vn 0.7386 0.2801 0.6132
vn -0.5610 -0.0478 0.8264
vn 0.2565 -0.0480 0.9653
vn -0.8264 -0.0478 -0.5610
vn -0.9653 -0.0480 0.2565
vn 0.5610 -0.0478 -0.8264
vn -0.2565 -0.0480 -0.9653
vn 0.8264 -0.0478 0.5610
vn 0.9653 -0.0480 -0.2565
vn -0.8527 -0.0217 -0.5220
vn -0.4808 0.0084 -0.8768
vn -0.9425 0.2388 -0.2338
vn 0.3532 0.2334 -0.9059
vn -0.4494 0.0096 -0.8933
vn 0.0514 -0.0050 -0.9987
vn -0.7490 -0.6167 -0.2423
vn 0.9425 0.2388 0.2338
vn 0.4808 0.0084 0.8768
vn 0.7490 -0.6167 0.2423
vn -0.3532 0.2334 0.9059
vn 0.4494 0.0096 0.8933
vn -0.0514 -0.0050 0.9987
vn 0.8527 -0.0217 0.5220
vn -0.3543 0.2331 0.9056
vn 0.4499 0.0082 0.8930
vn -0.0433 -0.0131 0.9990
vn -0.9421 0.2394 -0.2348
vn -0.4814 0.0096 -0.8765
vn -0.8570 -0.0133 -0.5152
vn 0.1762 -0.3895 0.9040
vn -0.5665 -0.5263 0.6342
vn -0.6469 -0.1667 0.7441
vn 0.1001 0.8969 -0.4308
vn -0.3395 0.7294 -0.5939
vn -0.6189 0.7498 -0.2340
vn -0.4716 -0.0039 -0.8818
vn -0.4672 -0.0029 -0.8841
vn -0.4686 -0.0001 -0.8834
vn 0.0582 0.4527 -0.8898
vn -0.4653 -0.0007 -0.8851
vn 0.1893 -0.7529 -0.6304
vn 0.7322 -0.5105 -0.4509
vn 0.6233 -0.0251 -0.7816
vn -0.8346 0.5066 0.2164
vn -0.9671 0.1302 0.2185
vn -0.4168 -0.9081 -0.0416
vn -0.3042 -0.7436 -0.5955
vn 0.4438 -0.8823 0.1565
vn 0.3273 -0.6884 0.6473
vn 0.2188 -0.4795 0.8498
vn 0.0466 0.2981 0.9534
vn 0.0288 0.6149 0.7881
vn 0.0509 0.9407 0.3354
vn -0.8927 -0.4503 -0.0162
vn -0.9893 -0.1058 0.1001
vn -0.6976 -0.5046 -0.5087
vn 0.7494 -0.4572 0.4789
vn 0.4661 0.0015 0.8847
vn 0.3204 0.7255 0.6090
vn 0.4821 -0.0307 0.8756
vn 0.6867 0.4832 0.5431
vn 0.4486 -0.0307 0.8932
vn 0.0245 0.4701 0.8823
vn 0.8575 0.4121 -0.3081
vn 0.8464 0.2213 -0.4843
vn 0.3884 0.8937 -0.2245
vn -0.8062 -0.3855 0.4489
vn -0.9083 -0.0106 0.4182
vn -0.2594 -0.9623 0.0815
vn 0.6258 -0.7236 -0.2913
vn 0.5945 0.7236 -0.3507
vn 0.5238 0.7907 -0.3170
vn -0.8024 -0.3992 0.4435
vn 0.0017 -0.9991 -0.0430
vn 0.0668 -0.9945 -0.0802
vn 0.0364 0.9991 0.0230
vn -0.8200 0.3992 0.4101
vn -0.8541 0.3032 0.4226
vn 0.0001 1.0000 0.0004
vn -0.0203 0.9996 -0.0205
vn -0.0001 1.0000 -0.0001
vn -0.0215 0.9995 -0.0217
vn 0.0004 1.0000 0.0007
vn 0.0006 1.0000 0.0009
vn 0.1031 0.9898 0.0979
vn 0.0001 1.0000 0.0001
vn 0.1099 0.9884 0.1044
vn -0.0000 1.0000 -0.0000
vn -0.0025 -1.0000 -0.0006
vn -0.6082 -0.7800 -0.1477
vn 0.1463 -0.7820 -0.6058
vn -0.0886 0.0781 -0.9930
vn 0.6625 0.0840 -0.7444
vn -0.1475 -0.7820 0.6055
vn 0.0887 0.0779 0.9930
vn -0.6626 0.0842 0.7442
vn 0.8150 -0.5447 0.1974
vn 0.9930 0.0780 -0.0887
vn 0.7443 0.0840 0.6625
vn -0.4898 0.7059 -0.5116
vn -0.7441 0.0844 -0.6627
vn 0.6593 0.1084 0.7440
vn 0.7666 0.1442 -0.6257
vn 0.3139 0.8054 -0.5027
vn -0.9930 0.0783 0.0888
vn -0.5116 0.7059 0.4898
vn 0.4898 0.7059 0.5116
vn 0.5116 0.7059 -0.4898
vn -0.4969 -0.6120 -0.6152
vn -0.9382 -0.0398 -0.3437
vn -0.2521 0.2502 -0.9348
vn 0.5022 0.7090 -0.4951
vn 0.0266 0.9993 -0.0255
vn 0.4209 0.7411 0.5231
vn -0.4751 0.7175 -0.5094
vn -0.8556 0.3051 -0.4182
vn -0.0026 -1.0000 0.0001
vn -0.6233 -0.7812 0.0350
vn -0.0352 -0.7831 -0.6209
vn 0.0342 -0.7831 0.6209
vn -0.7604 0.4683 -0.4501
vn -0.3503 0.1580 -0.9232
vn -0.8869 0.1712 -0.4291
vn -0.9232 0.1580 0.3503
vn -0.4291 0.1712 0.8869
vn -0.4501 0.4683 0.7604
vn 0.3503 0.1580 0.9232
vn 0.7604 0.4683 0.4501
vn 0.4501 0.4683 -0.7604
vn 0.9232 0.1580 -0.3503
vn 0.4290 0.1712 -0.8869
vn 0.8869 0.1712 0.4291
vn 0.8772 0.3302 0.3485
vn -0.5342 0.1865 0.8245
vn 0.7355 0.5379 0.4119
vn -0.4929 -0.0048 0.8701
vn -0.7559 0.4732 -0.4525
vn 0.3828 0.6468 -0.6597
vn 0.4867 0.2540 -0.8358
vn -0.3301 0.6922 0.6418
vn 0.6295 0.6507 0.4247
vn -0.9404 0.1745 -0.2920
vn -0.8924 0.1283 0.4326
vn 0.4620 -0.1240 0.8782
vn -0.4904 0.1283 -0.8620
vn 0.2920 0.1745 -0.9404
vn 0.2542 -0.5152 -0.8185
vn -0.4326 0.1283 -0.8924
vn -0.8782 -0.1240 0.4620
vn 0.8620 0.1283 -0.4904
vn 0.1865 0.5799 -0.7930
vn -0.4696 -0.0752 -0.8797
vn -0.7626 0.5830 -0.2802
vn -0.4638 -0.0697 -0.8832
vn 0.3337 -0.0005 -0.9427
vn -0.8812 0.0988 0.4622
vn -0.2015 0.5826 0.7874
vn 0.7596 0.5847 0.2850
vn -0.4620 -0.1240 -0.8782
vn -0.2920 0.1745 0.9404
vn 0.4326 0.1283 0.8924
vn -0.8620 0.1283 0.4904
vn 0.8843 0.0240 -0.4663
vn 0.7846 0.5575 0.2715
vn 0.9617 -0.0421 0.2709
vn 0.8845 0.0125 -0.4665
vn 0.9404 0.1745 0.2920
vn 0.4904 0.1283 0.8620
vn 0.8185 -0.5152 0.2542
vn 0.8924 0.1283 -0.4326
vn 0.4625 -0.0741 0.8835
vn -0.2790 0.5344 0.7979
vn 0.7705 0.5711 0.2832
vn 0.8839 0.0639 -0.4633
vn 0.8793 0.1106 -0.4633
vn 0.4619 -0.0723 0.8840
vn 0.4611 -0.0754 0.8841
vn -0.2383 0.5566 0.7958
vn -0.8681 -0.0625 0.4924
vn -0.8594 -0.0162 0.5111
vn -0.8967 0.0117 0.4424
vn -0.4656 -0.0764 -0.8817
vn -0.8293 0.4983 -0.2531
vn -0.3560 0.6666 -0.6549
vn 0.2790 0.5343 -0.7979
vn -0.7750 0.5670 -0.2791
vn -0.4626 -0.0741 -0.8835
vn -0.9656 -0.0130 -0.2597
vn 0.8482 -0.0535 -0.5270
vn 0.9087 -0.0550 -0.4139
vn 0.3597 0.6577 0.6619
vn 0.4655 -0.0762 0.8818
vn 0.8293 0.4982 0.2531
vn -0.8829 0.0619 0.4655
vn -0.8834 0.0510 0.4658
vn 0.8659 -0.1643 -0.4726
vn -0.0009 -1.0000 0.0002
vn -0.8659 -0.1643 0.4726
vn -0.8482 -0.0535 0.5270
vn -0.9087 -0.0550 0.4139
vn -0.4656 -0.0000 -0.8850
vn 0.0212 0.9990 0.0386
vn 0.3302 0.7071 0.6253
vn -0.3302 0.7071 -0.6253
vn -0.0212 0.9990 -0.0386
vn 0.4656 -0.0000 0.8850
vn -0.4659 0.0440 -0.8838
vn 0.4659 0.0440 0.8838
vn 0.0353 0.9986 0.0400
vn 0.0253 -0.9994 -0.0228
vn -0.7900 -0.0000 0.6131
vn 0.0248 0.9995 -0.0195
vn -0.0248 -0.9995 0.0195
vn 0.7900 -0.0000 -0.6131
vn -0.0254 0.9994 0.0229
vn -0.1277 0.9911 -0.0386
vn -0.6134 0.0009 -0.7898
vn 0.5428 0.7913 -0.2813
vn 0.1165 0.9914 0.0603
vn 0.6140 -0.0000 0.7893
vn -0.0346 0.9986 -0.0388
vn 0.6131 -0.0000 0.7900
vn -0.3666 0.9265 0.0853
vn 0.7289 0.4333 -0.5300
vn 0.7329 0.4222 -0.5335
vn 0.1477 0.9748 -0.1674
vn -0.0282 0.9980 -0.0557
vn 0.8021 0.5356 -0.2640
vn 0.6767 0.7253 0.1268
vn -0.0284 0.9996 0.0031
vn -0.1953 0.9757 0.0996
vn -0.7860 -0.1364 0.6030
vn -0.7924 0.1381 0.5941
vn -0.7930 0.1324 0.5947
vn -0.7863 -0.1343 0.6031
vn 0.5473 -0.4069 0.7314
vn 0.4960 -0.5386 0.6811
vn 0.5511 -0.3952 0.7349
vn -0.1148 -0.4029 0.9080
vn -0.1060 -0.5384 0.8360
vn -0.1150 -0.4004 0.9091
vn -0.9813 -0.1276 -0.1444
vn -0.9806 -0.1327 -0.1444
vn -0.9822 0.1316 -0.1341
vn -0.9824 0.1301 -0.1343
vn 0.9865 -0.1261 0.1047
vn 0.9839 0.1275 0.1252
vn 0.9820 0.1398 0.1269
vn 0.9852 -0.1359 0.1045
vn -0.7233 -0.3990 0.5635
vn -0.6661 -0.5385 0.5161
vn -0.7228 -0.4006 0.5631
vn 0.0767 0.9712 0.2254
vn 0.1420 0.9887 0.0488
vn -0.0207 0.6333 0.7736
vn 0.1090 0.9632 -0.2457
vn -0.0782 0.9855 -0.1504
vn 0.3099 0.5387 0.7834
vn -0.2714 0.9048 -0.3283
vn 0.1472 0.6295 -0.7629
vn 0.0396 0.9992 0.0011
vn 0.0087 0.9818 0.1895
vn 0.1157 -0.1369 -0.9838
vn 0.1157 -0.1358 -0.9840
vn 0.1172 0.1324 -0.9842
vn 0.1179 0.1460 -0.9822
vn -0.3691 0.8804 0.2977
vn 0.4299 0.9006 0.0645
vn -0.6170 -0.1296 -0.7763
vn -0.6171 -0.1285 -0.7763
vn -0.6236 0.1291 -0.7710
vn -0.6229 0.1390 -0.7699
vn 0.8362 -0.5383 0.1045
vn 0.9153 -0.3892 0.1036
vn 0.9121 -0.3967 0.1037
vn 0.7272 -0.3950 -0.5614
vn 0.6663 -0.5382 -0.5161
vn 0.7280 -0.3928 -0.5619
vn 0.7909 -0.1316 -0.5976
vn 0.7968 0.1313 -0.5898
vn 0.7962 0.1376 -0.5892
vn 0.7911 -0.1307 -0.5976
vn -0.9111 -0.3919 -0.1278
vn -0.8360 -0.5383 -0.1063
vn -0.9097 -0.3952 -0.1274
vn -0.1329 -0.1321 0.9823
vn -0.1415 0.1371 0.9804
vn -0.1415 0.1361 0.9805
vn -0.1325 -0.1377 0.9816
vn 0.6123 -0.1289 0.7800
vn 0.6059 0.1299 0.7849
vn 0.6031 0.1436 0.7846
vn 0.6103 -0.1427 0.7792
vn 0.1148 -0.4001 -0.9092
vn 0.1148 -0.4002 -0.9092
vn -0.5663 -0.3899 -0.7261
vn -0.5654 -0.3932 -0.7250
vn -0.5174 -0.5383 -0.6652
vn 0.8912 0.4273 0.1525
vn 0.8996 0.4095 0.1517
vn 0.5310 0.4318 0.7291
vn 0.5337 0.4226 0.7325
vn -0.1251 0.4310 0.8936
vn -0.1247 0.4340 0.8922
vn -0.7287 0.4291 0.5337
vn -0.7301 0.4253 0.5349
vn -0.8959 0.4246 -0.1308
vn -0.9016 0.4126 -0.1302
vn -0.5698 0.4134 -0.7102
vn -0.5652 0.4278 -0.7053
vn 0.1290 0.4240 -0.8964
vn 0.1294 0.4401 -0.8886
vn 0.8944 -0.4087 -0.1820
vn 0.1047 -0.5385 -0.8361
vn 0.0132 -0.2603 0.9654
vn 0.8869 -0.3451 -0.3070
vn 0.4230 -0.3403 -0.8398
vn -0.3071 -0.3450 -0.8870
vn -0.4232 -0.3402 0.8398
vn 0.3069 -0.3451 0.8870
vn -0.8870 -0.3450 0.3070
vn 0.8398 -0.3403 0.4231
vn -0.8398 -0.3402 -0.4231
vn -0.4624 -0.5800 0.6706
vn 0.6912 -0.5875 0.4209
vn 0.6662 -0.5885 0.4580
vn 0.5949 -0.0778 -0.8000
vn 0.4439 -0.5957 -0.6694
vn 0.7133 0.4513 0.5363
vn -0.5713 -0.5370 0.6207
vn 0.6667 -0.5467 0.5067
vn -0.6613 -0.5666 -0.4915
vn 0.8658 0.0181 -0.5001
vn -0.4570 0.8563 0.2404
vn -0.2372 0.9634 0.1248
vn 0.2372 0.9634 -0.1248
vn 0.4570 0.8563 -0.2404
vn -0.4577 -0.0010 -0.8891
vn -0.4423 -0.0364 -0.8961
vn 0.4625 0.0347 -0.8859
vn -0.9898 0.0409 -0.1364
vn -0.4852 -0.0380 -0.8736
vn -0.4731 -0.0009 -0.8810
vn -0.4493 0.0420 0.8924
vn -0.9920 0.0333 -0.1217
vn 0.2428 -0.6389 -0.7300
vn 0.0412 -0.9972 -0.0625
vn -0.0522 -0.9955 0.0792
vn -0.0412 -0.9972 0.0625
vn 0.0522 -0.9955 -0.0792
vn 0.4731 -0.0009 0.8810
vn 0.4577 -0.0010 0.8891
vn -0.2428 -0.6389 0.7300
vn -0.4625 0.0347 0.8859
vn 0.9898 0.0409 0.1364
vn 0.4852 -0.0380 0.8736
vn 0.4423 -0.0364 0.8961
vn 0.4587 -0.0008 0.8886
vn 0.4463 -0.0339 0.8942
vn 0.6392 0.6916 -0.3363
vn -0.4740 -0.0010 -0.8805
vn -0.4889 -0.0400 -0.8714
vn -0.6392 0.6916 0.3363
vn 0.2304 0.9662 -0.1160
vn -0.2317 0.9657 0.1171
vn -0.0951 0.9302 0.3546
vn 0.3457 0.9304 0.1218
vn 0.8549 0.2589 -0.4496
vn 0.6232 0.7077 -0.3327
vn 0.7286 0.6803 -0.0794
vn 0.9496 0.2482 -0.1915
vn 0.8574 -0.2584 -0.4451
vn 0.9482 -0.2513 -0.1945
vn 0.6242 -0.7068 -0.3328
vn 0.7267 -0.6825 -0.0774
vn 0.2307 -0.9661 -0.1160
vn 0.3479 -0.9287 0.1287
vn -0.0944 -0.9299 0.3554
vn -0.2302 -0.9655 0.1218
vn -0.4801 -0.6805 0.5536
vn -0.6260 -0.7069 0.3293
vn -0.8566 -0.2597 0.4459
vn -0.7004 -0.2490 0.6689
vn -0.8525 0.2580 0.4546
vn -0.6973 0.2484 0.6724
vn -0.6266 0.7061 0.3299
vn -0.4765 0.6816 0.5553
vn 0.0962 0.9314 -0.3511
vn -0.3487 0.9285 -0.1276
vn 0.8890 0.4578 -0.0112
vn -0.7290 0.6801 0.0777
vn -0.5927 0.7923 -0.1444
vn -0.9469 0.2496 0.2028
vn -0.8904 0.4548 0.0166
vn -0.9504 -0.2474 0.1887
vn -0.9974 0.0043 0.0726
vn -0.7276 -0.6811 0.0823
vn -0.8894 -0.4570 0.0122
vn -0.3463 -0.9300 -0.1231
vn -0.5927 -0.7925 -0.1436
vn 0.0951 -0.9298 -0.3555
vn -0.1875 -0.9150 -0.3573
vn 0.4733 -0.6800 -0.5600
vn 0.2169 -0.7922 -0.5703
vn 0.7003 -0.2505 -0.6684
vn 0.5133 -0.4580 -0.7258
vn 0.6949 0.2499 -0.6743
vn 0.6205 -0.0026 -0.7842
vn 0.4725 0.6811 -0.5593
vn 0.5100 0.4600 -0.7268
vn 0.5931 0.3168 0.7402
vn 0.6420 0.3585 0.6777
vn -0.1881 0.9151 -0.3567
vn 0.9976 -0.0012 -0.0696
vn 0.7325 -0.2473 0.6343
vn 0.7075 -0.1762 0.6844
vn 0.5916 -0.7932 0.1442
vn 0.1880 -0.9149 0.3571
vn -0.2175 -0.7926 0.5697
vn -0.5186 -0.4541 0.7245
vn -0.6253 -0.0044 0.7803
vn 0.1847 0.1638 0.9690
vn 0.1578 0.2060 0.9658
vn -0.2163 0.7944 0.5676
vn 0.1841 0.9161 0.3561
vn -0.4662 -0.0027 -0.8847
vn 0.4640 0.0293 0.8854
vn 0.4649 0.0289 0.8849
vn -0.4682 0.0008 -0.8836
vn -0.0357 0.1554 0.9872
vn -0.4691 0.0025 -0.8832
vn -0.4703 0.0089 -0.8825
vn 0.4542 -0.0455 0.8897
vn 0.4539 -0.0469 0.8898
vn -0.4656 0.0038 -0.8850
vn -0.4653 0.0014 -0.8852
vn -0.4653 0.0015 -0.8852
vn 0.4703 0.0089 0.8825
vn 0.4656 0.0038 0.8850
vn -0.4649 0.0008 -0.8854
vn -0.4633 0.0014 -0.8862
vn -0.4592 -0.0002 -0.8883
vn 0.4691 0.0025 0.8832
vn 0.5164 -0.0378 0.8555
vn 0.5165 -0.0379 0.8554
vn 0.8710 -0.1836 0.4556
vn -0.4608 -0.0021 -0.8875
vn -0.4610 -0.0038 -0.8874
vn -0.4606 -0.0090 -0.8875
vn 0.4629 -0.0415 0.8854
vn 0.7428 -0.3549 0.5677
vn 0.4627 -0.0418 0.8856
vn -0.4656 -0.0038 -0.8850
vn 0.5711 0.5856 0.5752
vn 0.6599 0.7417 0.1202
vn 0.9520 -0.2532 -0.1718
vn 0.4542 0.6620 -0.5962
vn -0.5766 0.2417 0.7804
vn 0.6728 0.3069 -0.6731
vn 0.9539 0.2814 -0.1040
vn 0.9566 0.2711 -0.1073
vn 0.2168 0.7928 -0.5697
vn 0.3057 0.9515 0.0335
vn -0.1456 0.9515 0.2709
vn 0.9222 -0.2550 -0.2908
vn 0.9222 0.2550 -0.2908
vn 0.6965 -0.6966 -0.1721
vn 0.3057 -0.9515 0.0335
vn -0.1456 -0.9515 0.2709
vn -0.5364 -0.6966 0.4765
vn -0.7620 -0.2550 0.5952
vn -0.7620 0.2550 0.5952
vn -0.5364 0.6966 0.4765
vn 0.6965 0.6966 -0.1721
vn 0.1456 0.9515 -0.2709
vn -0.3057 0.9515 -0.0335
vn 0.7620 -0.2550 -0.5952
vn 0.7620 0.2550 -0.5952
vn 0.5364 -0.6966 -0.4765
vn 0.1456 -0.9515 -0.2709
vn -0.3057 -0.9515 -0.0335
vn -0.6965 -0.6966 0.1721
vn -0.9222 -0.2550 0.2908
vn -0.9222 0.2550 0.2908
vn -0.6965 0.6966 0.1721
vn 0.5364 0.6966 -0.4765
vn -0.3113 0.4375 -0.8436
vn -0.1316 0.3203 -0.9381
vn 0.6236 0.2000 0.7557
vn 0.5114 0.2732 0.8148
vn -0.0279 0.1172 -0.9927
vn 0.6884 0.0732 0.7217
vn -0.0279 -0.1172 -0.9927
vn 0.6884 -0.0732 0.7217
vn -0.1316 -0.3203 -0.9381
vn 0.6236 -0.2000 0.7557
vn -0.3113 -0.4376 -0.8436
vn 0.5114 -0.2732 0.8148
vn -0.5189 -0.4376 -0.7344
vn 0.3818 -0.2732 0.8829
vn -0.6986 -0.3203 -0.6398
vn 0.2696 -0.2000 0.9420
vn -0.8023 -0.1172 -0.5853
vn 0.2048 -0.0732 0.9761
vn -0.8023 0.1172 -0.5853
vn 0.2048 0.0732 0.9761
vn -0.6986 0.3203 -0.6398
vn 0.2696 0.2000 0.9420
vn -0.5189 0.4375 -0.7344
vn 0.3818 0.2732 0.8829
vn -0.2696 0.2000 -0.9420
vn -0.3818 0.2732 -0.8829
vn 0.5189 0.4375 0.7344
vn 0.6986 0.3203 0.6398
vn -0.2048 0.0732 -0.9761
vn 0.8023 0.1172 0.5853
vn -0.2048 -0.0732 -0.9761
vn 0.8023 -0.1172 0.5853
vn -0.2696 -0.2000 -0.9420
vn 0.6986 -0.3203 0.6398
vn -0.3818 -0.2732 -0.8829
vn 0.5189 -0.4375 0.7344
vn -0.5114 -0.2732 -0.8148
vn 0.3113 -0.4375 0.8436
vn -0.6236 -0.2000 -0.7557
vn 0.1316 -0.3203 0.9381
vn -0.6884 -0.0732 -0.7217
vn 0.0279 -0.1172 0.9927
vn -0.6884 0.0732 -0.7217
vn 0.0279 0.1172 0.9927
vn -0.6236 0.2000 -0.7557
vn 0.1316 0.3203 0.9381
vn -0.5114 0.2732 -0.8148
vn 0.3113 0.4375 0.8436
vn 0.4657 -0.0003 0.8849
vn 0.4657 -0.0004 0.8849
vn 0.4660 0.0005 0.8848
vn -0.4659 0.0007 -0.8848
vn -0.4659 -0.0002 -0.8849
vn -0.4654 0.0002 -0.8851
vn -0.3995 0.7876 0.4691
vn -0.3995 0.7876 0.4692
vn -0.7267 -0.2515 0.6392
vn -0.7253 -0.2515 0.6408
vn -0.7749 -0.2511 0.5801
vn 0.1502 -0.9724 0.1786
vn 0.1212 -0.9862 0.1128
vn 0.1508 -0.9721 0.1798
vn 0.9389 -0.2504 -0.2363
vn 0.9208 -0.2491 -0.3000
vn 0.9389 -0.2504 -0.2360
vn 0.5730 0.8184 -0.0429
vn 0.5735 0.8182 -0.0418
vn 0.5949 0.8038 0.0057
vn 0.9507 -0.2505 -0.1829
vn 0.1735 -0.9572 0.2319
vn -0.6831 -0.2508 0.6859
vn -0.3656 0.7746 0.5161
vn -0.7550 0.4935 0.4318
vn 0.5646 -0.7901 -0.2385
vn -0.0880 0.9923 -0.0869
vn -0.0882 0.9923 -0.0871
vn 0.0464 0.9980 0.0420
vn 0.0543 0.9973 0.0497
vn 0.5579 -0.7907 -0.2521
vn -0.8320 -0.3032 0.4646
vn 0.1039 0.9945 -0.0096
vn 0.6818 -0.0605 0.7290
vn -0.5577 -0.6509 0.5151
vn -0.5077 -0.6444 0.5718
vn 0.5618 -0.6048 0.5644
vn -0.7423 0.3368 0.5793
vn -0.5907 0.3451 0.7294
vn 0.7081 0.4109 0.5742
vn 0.6016 -0.5569 -0.5727
vn 0.6630 -0.5530 -0.5046
vn 0.4437 -0.5331 -0.7204
vn -0.5830 -0.3732 -0.7217
vn 0.6512 -0.4608 0.6030
vn -0.6660 -0.2490 0.7031
vn -0.5955 0.1954 0.7792
vn 0.6533 0.3971 -0.6446
vn -0.6633 0.3360 -0.6687
vn -0.6071 0.5727 0.5509
vn 0.8434 -0.5351 -0.0473
vn 0.0858 -0.2794 -0.9563
vn 0.9563 -0.2796 0.0858
vn -0.0858 -0.2795 0.9563
vn -0.9563 -0.2794 -0.0863
vn -0.4975 -0.0365 0.8667
vn -0.3948 -0.5926 0.7021
vn 0.7484 -0.5195 0.4123
vn 0.6894 -0.3915 0.6094
vn 0.4861 -0.5671 -0.6649
vn 0.4528 -0.5702 -0.6855
vn -0.7019 -0.6042 -0.3772
vn -0.6852 -0.6042 -0.4067
vn -0.8392 0.1921 -0.5088
vn 0.4172 0.3832 -0.8241
vn -0.7744 0.4611 -0.4333
vt 0.592855 0.786290
vt 0.592299 0.786290
vt 0.579507 0.786290
vt 0.512768 0.786290
vt 0.526116 0.786290
vt 0.575058 0.890865
vt 0.579507 0.813991
vt 0.551699 0.922159
vt 0.531296 0.938242
vt 0.552131 0.936597
vt 0.549325 0.922159
vt 0.511043 0.878790
vt 0.529453 0.878790
vt 0.509431 0.878790
vt 0.511647 0.953409
vt 0.529453 0.953409
vt 0.509431 0.953409
vt 0.531678 0.847540
vt 0.549966 0.847540
vt 0.551699 0.847540
vt 0.593976 0.906534
vt 0.576170 0.906534
vt 0.596192 0.906534
vt 0.532728 0.863133
vt 0.532728 0.931615
vt 0.532728 0.794463
vt 0.595734 0.863101
vt 0.595734 0.794463
vt 0.595734 0.931615
vt 0.593371 0.863132
vt 0.593371 0.931615
vt 0.587858 0.931615
vt 0.593371 0.863211
vt 0.593371 0.794463
vt 0.587858 0.794463
vt 0.535091 0.863132
vt 0.535091 0.931615
vt 0.540604 0.931615
vt 0.535091 0.863211
vt 0.535091 0.794463
vt 0.540604 0.794463
vt 0.560761 0.915990
vt 0.564469 0.898402
vt 0.532728 0.778838
vt 0.560761 0.926287
vt 0.564231 0.868314
vt 0.564231 0.907404
vt 0.532728 0.915990
vt 0.564469 0.931615
vt 0.564231 0.931615
vt 0.567701 0.931615
vt 0.532728 0.763213
vt 0.595734 0.763213
vt 0.567701 0.926287
vt 0.532847 0.810698
vt 0.595457 0.811352
vt 0.564231 0.814382
vt 0.532728 0.763213
vt 0.565318 0.903021
vt 0.595734 0.778838
vt 0.565318 0.931615
vt 0.532928 0.811042
vt 0.595615 0.810674
vt 0.595734 0.763213
vt 0.565513 0.947964
vt 0.563139 0.947964
vt 0.545945 0.947964
vt 0.537840 0.947964
vt 0.551676 0.947964
vt 0.304613 0.890562
vt 0.307047 0.799219
vt 0.305748 0.799219
vt 0.308599 0.942276
vt 0.312652 0.941170
vt 0.304613 0.941170
vt 0.813978 0.759546
vt 0.833506 0.960539
vt 0.805572 0.899558
vt 0.794036 0.899558
vt 0.787589 0.899558
vt 0.802569 0.759546
vt 0.794036 0.868308
vt 0.808406 0.759546
vt 0.819815 0.759546
vt 0.833506 0.991824
vt 0.841056 0.929215
vt 0.816813 0.899558
vt 0.808255 0.799958
vt 0.814130 0.799958
vt 0.148800 0.527350
vt 0.144407 0.517948
vt 0.160076 0.616424
vt 0.152241 0.620162
vt 0.152377 0.623964
vt 0.153465 0.665596
vt 0.150984 0.684142
vt 0.159102 0.680250
vt 0.145294 0.571430
vt 0.145948 0.666849
vt 0.819335 0.890453
vt 0.814907 0.871854
vt 0.810557 0.882194
vt 0.807693 0.828030
vt 0.802100 0.823986
vt 0.801885 0.830093
vt 0.836998 0.945560
vt 0.799311 0.899558
vt 0.791088 0.882597
vt 0.825957 0.949637
vt 0.144407 0.572086
vt 0.152241 0.620161
vt 0.820285 0.799958
vt 0.820285 0.831208
vt 0.150523 0.517948
vt 0.145971 0.517948
vt 0.152530 0.517949
vt 0.159189 0.571430
vt 0.159101 0.680251
vt 0.152829 0.666849
vt 0.145734 0.665596
vt 0.150984 0.684142
vt 0.819994 0.827133
vt 0.811667 0.823986
vt 0.810673 0.830093
vt 0.802251 0.825623
vt 0.810981 0.836385
vt 0.807406 0.830093
vt 0.781975 0.916089
vt 0.788422 0.763685
vt 0.792985 0.763468
vt 0.794791 0.916089
vt 0.804902 0.763685
vt 0.792985 0.763473
vt 0.840410 0.916089
vt 0.833727 0.763673
vt 0.829400 0.763473
vt 0.827594 0.942079
vt 0.815894 0.763673
vt 0.829400 0.763889
vt 0.521013 0.804193
vt 0.538164 0.784594
vt 0.514938 0.788066
vt 0.592874 0.788066
vt 0.571967 0.781123
vt 0.587746 0.803181
vt 0.514920 0.777651
vt 0.569649 0.784594
vt 0.592892 0.777651
vt 0.535845 0.781123
vt 0.520066 0.803181
vt 0.586799 0.804193
vt 0.586799 0.804193
vt 0.520103 0.803634
vt 0.587746 0.803181
vt 0.521053 0.803671
vt 0.572218 0.870287
vt 0.573615 0.864502
vt 0.579458 0.858235
vt 0.546125 0.824902
vt 0.553169 0.826828
vt 0.567533 0.829128
vt 0.575936 0.879960
vt 0.575403 0.889050
vt 0.583541 0.874954
vt 0.553169 0.842453
vt 0.535334 0.864606
vt 0.571003 0.864606
vt 0.538805 0.873253
vt 0.532722 0.864502
vt 0.526880 0.851191
vt 0.573614 0.837879
vt 0.579458 0.844146
vt 0.560213 0.877480
vt 0.553169 0.875553
vt 0.546125 0.877480
vt 0.560197 0.877358
vt 0.572242 0.832271
vt 0.565350 0.830092
vt 0.560213 0.824901
vt 0.575936 0.864335
vt 0.577531 0.857718
vt 0.571003 0.869025
vt 0.553169 0.906803
vt 0.535334 0.884650
vt 0.571003 0.884650
vt 0.306554 0.942484
vt 0.306511 0.941170
vt 0.302716 0.941170
vt 0.572699 0.827275
vt 0.572993 0.804279
vt 0.566814 0.852802
vt 0.555597 0.794468
vt 0.549950 0.817204
vt 0.572699 0.827275
vt 0.572699 0.811711
vt 0.555597 0.844518
vt 0.555597 0.794468
vt 0.549495 0.812590
vt 0.549495 0.826396
vt 0.047303 0.133315
vt 0.042295 0.171640
vt 0.040098 0.133315
vt 0.087372 0.171640
vt 0.086873 0.133315
vt 0.094078 0.133315
vt 0.086796 0.152477
vt 0.046263 0.152477
vt 0.074559 0.251970
vt 0.071420 0.251970
vt 0.080274 0.251970
vt 0.081671 0.262127
vt 0.086118 0.401855
vt 0.093878 0.402336
vt 0.040711 0.262127
vt 0.037739 0.401832
vt 0.028505 0.401361
vt 0.042107 0.251970
vt 0.074821 0.262127
vt 0.085003 0.443952
vt 0.066641 0.401346
vt 0.063978 0.259546
vt 0.083654 0.459649
vt 0.055572 0.399558
vt 0.062041 0.399121
vt 0.068198 0.395375
vt 0.069320 0.394677
vt 0.044036 0.399558
vt 0.037589 0.399558
vt 0.052569 0.259546
vt 0.044036 0.368308
vt 0.058406 0.259546
vt 0.069815 0.259546
vt 0.083654 0.491824
vt 0.091213 0.429763
vt 0.066813 0.399558
vt 0.058255 0.299958
vt 0.064130 0.299958
vt 0.145948 0.666849
vt 0.150314 0.680247
vt 0.155669 0.640161
vt 0.153499 0.666849
vt 0.069320 0.385229
vt 0.064907 0.371854
vt 0.060581 0.382348
vt 0.063800 0.326972
vt 0.058255 0.323986
vt 0.058929 0.330093
vt 0.047585 0.262127
vt 0.037381 0.401854
vt 0.055744 0.401361
vt 0.074547 0.251970
vt 0.080276 0.251970
vt 0.042106 0.251970
vt 0.083660 0.459609
vt 0.083660 0.491824
vt 0.090961 0.428883
vt 0.061753 0.396131
vt 0.054036 0.382336
vt 0.057477 0.371854
vt 0.149437 0.536125
vt 0.152108 0.572086
vt 0.160076 0.620160
vt 0.160076 0.616359
vt 0.158819 0.684142
vt 0.145734 0.665596
vt 0.150314 0.680251
vt 0.588406 0.890865
vt 0.592855 0.813991
vt 0.587294 0.890865
vt 0.591743 0.813991
vt 0.518329 0.890865
vt 0.513880 0.813991
vt 0.526116 0.813991
vt 0.530565 0.890865
vt 0.517217 0.890865
vt 0.512768 0.813991
vt 0.553283 0.938931
vt 0.553924 0.922115
vt 0.573945 0.922115
vt 0.574499 0.938931
vt 0.513324 0.786290
vt 0.551699 0.875240
vt 0.552290 0.892056
vt 0.531023 0.892056
vt 0.531678 0.875240
vt 0.574369 0.938931
vt 0.574262 0.965179
vt 0.574369 0.970287
vt 0.553578 0.966695
vt 0.553618 0.969696
vt 0.575639 0.876431
vt 0.575497 0.876431
vt 0.576170 0.859615
vt 0.596192 0.859615
vt 0.596613 0.876431
vt 0.530993 0.892056
vt 0.513324 0.786290
vt 0.553361 0.938931
vt 0.552105 0.892056
vt 0.553924 0.894415
vt 0.573945 0.894415
vt 0.552281 0.893201
vt 0.552105 0.936989
vt 0.531409 0.937760
vt 0.550011 0.850506
vt 0.552811 0.850506
vt 0.549629 0.833689
vt 0.552811 0.892056
vt 0.596786 0.876431
vt 0.508976 0.959621
vt 0.529940 0.959296
vt 0.509431 0.906490
vt 0.529453 0.906490
vt 0.530126 0.923306
vt 0.508976 0.923306
vt 0.508319 0.923306
vt 0.529984 0.923306
vt 0.508837 0.923306
vt 0.529804 0.958027
vt 0.508984 0.959875
vt 0.511119 0.881756
vt 0.508319 0.881756
vt 0.511364 0.864939
vt 0.529453 0.967259
vt 0.508816 0.924381
vt 0.575814 0.926777
vt 0.596639 0.924591
vt 0.596807 0.877506
vt 0.596613 0.925768
vt 0.575676 0.925094
vt 0.594504 0.834881
vt 0.597304 0.834881
vt 0.594260 0.818064
vt 0.576170 0.920384
vt 0.597304 0.876431
vt 0.594580 0.831915
vt 0.596192 0.831915
vt 0.576170 0.831915
vt 0.521666 0.852428
vt 0.521666 0.833209
vt 0.583957 0.833209
vt 0.583957 0.852428
vt 0.521666 0.880128
vt 0.583957 0.880128
vt 0.583957 0.805509
vt 0.521666 0.805509
vt 0.521666 0.850026
vt 0.583957 0.850026
vt 0.594751 0.857972
vt 0.533711 0.857972
vt 0.533711 0.799476
vt 0.594751 0.799476
vt 0.594751 0.868314
vt 0.594751 0.926287
vt 0.560761 0.962865
vt 0.532728 0.962865
vt 0.594159 0.799476
vt 0.594159 0.857972
vt 0.593371 0.763213
vt 0.587858 0.763213
vt 0.587858 0.778838
vt 0.587858 0.915990
vt 0.587858 0.962865
vt 0.593371 0.962865
vt 0.594159 0.868314
vt 0.594159 0.926287
vt 0.534303 0.857972
vt 0.534303 0.799476
vt 0.535091 0.763213
vt 0.540604 0.763213
vt 0.540604 0.778838
vt 0.540604 0.915990
vt 0.540604 0.962865
vt 0.535091 0.962865
vt 0.534303 0.926287
vt 0.534303 0.868314
vt 0.540604 0.842856
vt 0.587858 0.842856
vt 0.595734 0.962865
vt 0.567701 0.962865
vt 0.595734 0.778838
vt 0.595734 0.915990
vt 0.533711 0.926287
vt 0.533711 0.868314
vt 0.560761 0.978490
vt 0.560761 0.975240
vt 0.564231 0.978490
vt 0.532728 0.778838
vt 0.560761 0.975377
vt 0.581453 0.902913
vt 0.573665 0.944019
vt 0.570033 0.959287
vt 0.576318 0.919358
vt 0.537840 0.932339
vt 0.545945 0.932339
vt 0.538422 0.938923
vt 0.532931 0.938923
vt 0.527304 0.908389
vt 0.527304 0.927570
vt 0.518510 0.885817
vt 0.518510 0.866635
vt 0.552996 0.850187
vt 0.552996 0.812570
vt 0.568167 0.852499
vt 0.571799 0.891293
vt 0.531554 0.870038
vt 0.535185 0.831833
vt 0.550357 0.831833
vt 0.550357 0.870038
vt 0.527304 0.886810
vt 0.518510 0.886810
vt 0.518510 0.905992
vt 0.527304 0.905992
vt 0.584842 0.886810
vt 0.584842 0.905992
vt 0.576049 0.905992
vt 0.576049 0.886810
vt 0.521899 0.850187
vt 0.527035 0.812570
vt 0.533319 0.852499
vt 0.529688 0.891293
vt 0.551676 0.932339
vt 0.551676 0.938923
vt 0.564931 0.938923
vt 0.565513 0.932339
vt 0.563139 0.932339
vt 0.570422 0.938923
vt 0.574208 0.886810
vt 0.552978 0.886810
vt 0.552978 0.905992
vt 0.574208 0.905992
vt 0.550375 0.866635
vt 0.529145 0.908389
vt 0.529145 0.927570
vt 0.550374 0.885817
vt 0.570033 0.831833
vt 0.576318 0.831833
vt 0.581453 0.870038
vt 0.573665 0.870038
vt 0.581453 0.850187
vt 0.576318 0.812570
vt 0.570033 0.852499
vt 0.573665 0.891293
vt 0.576049 0.908389
vt 0.576049 0.927570
vt 0.584842 0.885817
vt 0.584843 0.866635
vt 0.529688 0.870038
vt 0.533319 0.831833
vt 0.527035 0.831833
vt 0.521899 0.870038
vt 0.550374 0.886810
vt 0.550375 0.905992
vt 0.529145 0.905992
vt 0.529145 0.886810
vt 0.574208 0.908389
vt 0.574208 0.927570
vt 0.552978 0.885817
vt 0.552978 0.866635
vt 0.209192 0.923419
vt 0.207757 0.901046
vt 0.183174 0.901046
vt 0.183174 0.923419
vt 0.158591 0.901046
vt 0.157157 0.923419
vt 0.550357 0.812570
vt 0.535185 0.852499
vt 0.531554 0.891292
vt 0.550357 0.850187
vt 0.217939 0.901046
vt 0.219968 0.923419
vt 0.573665 0.922764
vt 0.581453 0.922764
vt 0.576318 0.938620
vt 0.570033 0.938620
vt 0.552996 0.902913
vt 0.571799 0.944019
vt 0.568167 0.959287
vt 0.552996 0.919358
vt 0.531554 0.922764
vt 0.550357 0.922764
vt 0.550357 0.938620
vt 0.535185 0.938620
vt 0.521899 0.902913
vt 0.529688 0.944019
vt 0.533319 0.959287
vt 0.527035 0.919358
vt 0.148409 0.901046
vt 0.146380 0.923419
vt 0.529688 0.922764
vt 0.521899 0.922764
vt 0.527035 0.938620
vt 0.533319 0.938620
vt 0.183174 0.922282
vt 0.157157 0.922282
vt 0.158591 0.944655
vt 0.183174 0.944655
vt 0.209192 0.922282
vt 0.219968 0.922282
vt 0.217939 0.944655
vt 0.207757 0.944655
vt 0.148409 0.944655
vt 0.146380 0.922282
vt 0.550357 0.919358
vt 0.550357 0.902913
vt 0.531554 0.944019
vt 0.535185 0.959287
vt 0.571799 0.922764
vt 0.552996 0.922764
vt 0.552996 0.938620
vt 0.568167 0.938620
vt 0.312652 0.890562
vt 0.311248 0.799219
vt 0.568167 0.831833
vt 0.552996 0.831833
vt 0.552996 0.870038
vt 0.571799 0.870038
vt 0.308694 0.890562
vt 0.830474 0.762127
vt 0.833848 0.762127
vt 0.843841 0.901715
vt 0.834993 0.942535
vt 0.836054 0.900693
vt 0.833611 0.762127
vt 0.787728 0.900672
vt 0.778543 0.900772
vt 0.788774 0.762127
vt 0.791911 0.762127
vt 0.787392 0.900693
vt 0.788536 0.762127
vt 0.816655 0.900757
vt 0.817484 0.762127
vt 0.829339 0.762127
vt 0.805730 0.900772
vt 0.806507 0.762127
vt 0.793046 0.762127
vt 0.815878 0.762127
vt 0.802100 0.799958
vt 0.810718 0.811398
vt 0.820285 0.816587
vt 0.152242 0.517949
vt 0.160076 0.574108
vt 0.160076 0.517948
vt 0.156475 0.517949
vt 0.146922 0.517948
vt 0.157561 0.614101
vt 0.153673 0.606077
vt 0.820285 0.840615
vt 0.819720 0.861343
vt 0.814978 0.861343
vt 0.810718 0.835426
vt 0.813783 0.827133
vt 0.819720 0.830093
vt 0.804901 0.762127
vt 0.802100 0.799958
vt 0.810981 0.812357
vt 0.811667 0.799958
vt 0.160076 0.572437
vt 0.809497 0.891360
vt 0.805097 0.885509
vt 0.802735 0.871854
vt 0.152241 0.566024
vt 0.153960 0.614101
vt 0.802664 0.830093
vt 0.148008 0.517948
vt 0.812888 0.883640
vt 0.819027 0.897143
vt 0.819649 0.871854
vt 0.819885 0.859555
vt 0.816286 0.916089
vt 0.588198 0.841805
vt 0.558062 0.815754
vt 0.558062 0.827833
vt 0.549750 0.827833
vt 0.549750 0.815754
vt 0.519614 0.841805
vt 0.558062 0.803676
vt 0.588198 0.829726
vt 0.594668 0.820040
vt 0.513230 0.820168
vt 0.519614 0.829726
vt 0.549750 0.803676
vt 0.519614 0.796818
vt 0.512657 0.807233
vt 0.540483 0.775987
vt 0.567330 0.775987
vt 0.595155 0.788066
vt 0.595155 0.777651
vt 0.512657 0.788066
vt 0.512657 0.777651
vt 0.520418 0.810159
vt 0.520401 0.810167
vt 0.513726 0.800145
vt 0.513556 0.800145
vt 0.587394 0.810159
vt 0.587411 0.810167
vt 0.594086 0.800145
vt 0.594256 0.800145
vt 0.594582 0.820168
vt 0.513144 0.820040
vt 0.594582 0.820168
vt 0.588198 0.853884
vt 0.594582 0.844326
vt 0.594668 0.844198
vt 0.587394 0.810159
vt 0.587411 0.810167
vt 0.594086 0.800145
vt 0.520401 0.810167
vt 0.513726 0.800145
vt 0.513556 0.800145
vt 0.595155 0.807233
vt 0.588198 0.796818
vt 0.513144 0.820040
vt 0.594582 0.844326
vt 0.594505 0.765572
vt 0.574286 0.765572
vt 0.594269 0.765572
vt 0.594505 0.765572
vt 0.513306 0.765572
vt 0.533526 0.765572
vt 0.513543 0.765572
vt 0.513543 0.765572
vt 0.519614 0.853884
vt 0.513144 0.844198
vt 0.513230 0.844326
vt 0.513230 0.844326
vt 0.513144 0.844198
vt 0.563040 0.941723
vt 0.543298 0.941723
vt 0.544254 0.922528
vt 0.562084 0.922528
vt 0.595913 0.895720
vt 0.586041 0.912818
vt 0.583428 0.910205
vt 0.592343 0.894764
vt 0.596826 0.872569
vt 0.596826 0.892312
vt 0.593256 0.891355
vt 0.593256 0.873526
vt 0.586041 0.852063
vt 0.595913 0.869161
vt 0.592343 0.870117
vt 0.583428 0.854676
vt 0.566449 0.839697
vt 0.583546 0.849568
vt 0.580933 0.852181
vt 0.565492 0.843266
vt 0.544254 0.842353
vt 0.543298 0.838784
vt 0.563040 0.838784
vt 0.562084 0.842353
vt 0.525405 0.852181
vt 0.522792 0.849568
vt 0.539889 0.839697
vt 0.540846 0.843266
vt 0.510425 0.869161
vt 0.520296 0.852063
vt 0.522910 0.854676
vt 0.513995 0.870117
vt 0.509512 0.892312
vt 0.509512 0.872569
vt 0.513082 0.873526
vt 0.513082 0.891355
vt 0.520296 0.912818
vt 0.510425 0.895720
vt 0.513995 0.894764
vt 0.522910 0.910205
vt 0.539889 0.940809
vt 0.522792 0.930938
vt 0.525405 0.912700
vt 0.540846 0.921615
vt 0.583546 0.930938
vt 0.566449 0.940809
vt 0.565492 0.921615
vt 0.580933 0.912700
vt 0.575266 0.904565
vt 0.583541 0.890579
vt 0.545031 0.912813
vt 0.530935 0.904675
vt 0.522797 0.890579
vt 0.522797 0.874302
vt 0.530935 0.860206
vt 0.545031 0.852068
vt 0.561307 0.852068
vt 0.575403 0.860206
vt 0.583541 0.874302
vt 0.575403 0.904675
vt 0.561254 0.912467
vt 0.561307 0.912813
vt 0.583137 0.874559
vt 0.575265 0.860446
vt 0.523350 0.890580
vt 0.531250 0.904511
vt 0.560213 0.893105
vt 0.561307 0.897188
vt 0.575266 0.888940
vt 0.572218 0.885912
vt 0.579458 0.873860
vt 0.583541 0.858677
vt 0.579458 0.859771
vt 0.579314 0.859873
vt 0.583137 0.858934
vt 0.575403 0.844581
vt 0.567533 0.844753
vt 0.575265 0.844821
vt 0.572242 0.847896
vt 0.560213 0.840526
vt 0.561307 0.836443
vt 0.545031 0.836443
vt 0.546125 0.840527
vt 0.538805 0.844753
vt 0.530935 0.844581
vt 0.533924 0.847571
vt 0.522797 0.858677
vt 0.526880 0.866816
vt 0.526880 0.859771
vt 0.527079 0.873867
vt 0.523350 0.874955
vt 0.522797 0.874954
vt 0.530935 0.889050
vt 0.538805 0.888878
vt 0.545031 0.897188
vt 0.531250 0.888886
vt 0.534162 0.885951
vt 0.546125 0.893105
vt 0.560197 0.892983
vt 0.561254 0.896842
vt 0.542117 0.829440
vt 0.538805 0.829128
vt 0.528806 0.857718
vt 0.535334 0.869025
vt 0.534162 0.870326
vt 0.527079 0.858242
vt 0.535334 0.833356
vt 0.533924 0.831946
vt 0.577531 0.844663
vt 0.579314 0.844248
vt 0.528806 0.844663
vt 0.526880 0.844146
vt 0.187113 0.981322
vt 0.167383 0.981322
vt 0.167726 0.979439
vt 0.186770 0.979439
vt 0.214064 0.912662
vt 0.214064 0.941681
vt 0.212784 0.941177
vt 0.212784 0.913167
vt 0.204199 0.887531
vt 0.203262 0.888910
vt 0.187113 0.873021
vt 0.186770 0.874905
vt 0.167726 0.874905
vt 0.167383 0.873021
vt 0.151234 0.888910
vt 0.150296 0.887531
vt 0.141712 0.913167
vt 0.140431 0.912662
vt 0.141712 0.941177
vt 0.140431 0.941681
vt 0.150296 0.966813
vt 0.151234 0.965434
vt 0.204199 0.966813
vt 0.203262 0.965434
vt 0.185838 0.928363
vt 0.187113 0.935359
vt 0.204199 0.920850
vt 0.200717 0.915728
vt 0.199463 0.913884
vt 0.203262 0.919471
vt 0.186770 0.933476
vt 0.185379 0.925844
vt 0.214064 0.895718
vt 0.209308 0.893844
vt 0.207595 0.893169
vt 0.212784 0.895214
vt 0.214064 0.866699
vt 0.209308 0.868574
vt 0.207595 0.869249
vt 0.212784 0.867204
vt 0.200717 0.846689
vt 0.204199 0.841568
vt 0.199463 0.848534
vt 0.203262 0.842947
vt 0.185838 0.834055
vt 0.187113 0.827059
vt 0.185379 0.836574
vt 0.186770 0.828942
vt 0.168657 0.834055
vt 0.167383 0.827059
vt 0.169116 0.836574
vt 0.167726 0.828942
vt 0.153778 0.846689
vt 0.150296 0.841568
vt 0.155032 0.848534
vt 0.151234 0.842947
vt 0.145188 0.868574
vt 0.140431 0.866699
vt 0.146901 0.869249
vt 0.141712 0.867204
vt 0.140431 0.895718
vt 0.145188 0.893844
vt 0.146901 0.893169
vt 0.141712 0.895214
vt 0.153778 0.915728
vt 0.150296 0.920850
vt 0.155032 0.913884
vt 0.151234 0.919471
vt 0.168657 0.928363
vt 0.167383 0.935359
vt 0.169116 0.925844
vt 0.167726 0.933476
vt 0.528806 0.860288
vt 0.577531 0.860288
vt 0.577531 0.888968
vt 0.528806 0.888968
vt 0.571003 0.848981
vt 0.577531 0.875913
vt 0.528806 0.875913
vt 0.535334 0.848981
vt 0.573615 0.889501
vt 0.535334 0.900275
vt 0.528806 0.873343
vt 0.571003 0.900275
vt 0.577531 0.873343
vt 0.532722 0.889501
vt 0.306779 0.907390
vt 0.303583 0.907390
vt 0.302716 0.937437
vt 0.306511 0.937437
vt 0.573614 0.859755
vt 0.303583 0.876140
vt 0.306779 0.876140
vt 0.306511 0.906187
vt 0.302716 0.906187
vt 0.311950 0.860515
vt 0.306511 0.890562
vt 0.306779 0.860515
vt 0.311950 0.876140
vt 0.312652 0.906187
vt 0.312652 0.937437
vt 0.311950 0.907390
vt 0.307047 0.797842
vt 0.306779 0.820714
vt 0.311950 0.820714
vt 0.311248 0.797842
vt 0.311248 0.766592
vt 0.311950 0.789464
vt 0.311950 0.804708
vt 0.311248 0.750967
vt 0.311950 0.773839
vt 0.306779 0.773839
vt 0.307047 0.750967
vt 0.304450 0.766592
vt 0.307047 0.766592
vt 0.306779 0.799535
vt 0.303583 0.789464
vt 0.304450 0.797842
vt 0.303583 0.820714
vt 0.086873 0.116902
vt 0.047303 0.116902
vt 0.047303 0.086009
vt 0.086873 0.085586
vt 0.047303 0.078577
vt 0.086873 0.078577
vt 0.047303 0.059414
vt 0.086873 0.059414
vt 0.047303 0.040252
vt 0.086873 0.040252
vt 0.061193 0.313130
vt 0.052100 0.299958
vt 0.151854 0.609332
vt 0.152533 0.628330
vt 0.070285 0.317892
vt 0.160076 0.566024
vt 0.152140 0.517948
vt 0.152533 0.574192
vt 0.160076 0.622920
vt 0.160076 0.620162
vt 0.152140 0.572086
vt 0.152241 0.572086
vt 0.061193 0.337159
vt 0.057406 0.330093
vt 0.051885 0.330093
vt 0.052100 0.323986
vt 0.069720 0.330093
vt 0.070100 0.343918
vt 0.064978 0.361343
vt 0.074809 0.262127
vt 0.081673 0.262127
vt 0.089274 0.382672
vt 0.075162 0.399507
vt 0.033110 0.382672
vt 0.047229 0.382672
vt 0.047587 0.262127
vt 0.040709 0.262127
vt 0.060456 0.310443
vt 0.151855 0.609344
vt 0.152620 0.630764
vt 0.070285 0.315583
vt 0.060941 0.299958
vt 0.160076 0.525468
vt 0.070285 0.339611
vt 0.060941 0.323986
vt 0.061202 0.330093
vt 0.069720 0.361343
vt 0.060186 0.335632
vt 0.051885 0.330093
vt 0.035532 0.416089
vt 0.027566 0.416089
vt 0.035484 0.416089
vt 0.027809 0.416089
vt 0.084510 0.416089
vt 0.056098 0.416089
vt 0.037250 0.416089
vt 0.053742 0.416089
vt 0.086853 0.461629
vt 0.094818 0.417854
vt 0.086901 0.416089
vt 0.094576 0.416089
vt 0.037875 0.416089
vt 0.066286 0.416089
vt 0.085135 0.461366
vt 0.068643 0.419185
s 1
usemtl texture.133
f 5/1/1 13/2/2 3/3/3
f 7/4/4 9/5/3 11/5/3
f 1/3/3 5/1/1 3/3/3
f 4/6/5 2/6/5 1/7/5 3/7/5
f 34/4/6 36/5/3 38/5/3
f 25/3/7 43/2/8 29/1/3
f 27/3/3 25/3/7 29/1/3
f 59/8/9 22/9/10 23/10/11
f 58/11/12 22/9/10 59/8/9
f 73/12/3 67/13/3 64/14/3
f 74/15/13 72/16/14 75/17/15
f 21/18/16 57/19/17 24/20/18
f 32/21/19 41/22/20 31/23/21
f 95/24/22 101/25/23 96/26/24
f 92/27/25 93/28/26 94/28/27
f 96/26/24 97/26/28 95/24/22
f 94/28/27 99/29/29 92/27/25
f 99/29/29 98/29/30 92/27/25
f 95/24/22 100/25/31 101/25/23
f 105/30/32 110/31/33 111/32/34
f 102/33/35 103/34/36 104/35/37
f 104/35/37 109/32/38 102/33/35
f 109/32/38 108/31/39 102/33/35
f 106/35/40 105/30/32 111/32/34
f 106/35/40 107/34/41 105/30/32
f 115/36/42 120/37/43 121/38/44
f 112/39/45 113/40/46 114/41/47
f 114/41/47 119/38/48 112/39/45
f 119/38/48 118/37/49 112/39/45
f 116/41/50 115/36/42 121/38/44
f 116/41/50 117/40/51 115/36/42
f 134/42/52 135/43/53 96/44/54
f 132/45/55 130/46/56 133/47/57
f 134/42/52 96/44/54 101/48/58
f 135/49/59 133/50/57 131/51/60
f 96/52/24 94/53/61 93/53/26
f 131/54/60 133/47/57 130/46/56
f 95/55/22 92/56/25 130/57/56
f 97/58/28 96/52/24 93/53/26
f 139/29/62 140/29/63 138/27/64
f 142/26/65 141/26/66 143/24/67
f 143/24/67 137/25/68 136/25/69
f 143/24/67 136/25/69 142/26/65
f 138/27/64 145/28/70 144/28/71
f 144/28/71 139/29/62 138/27/64
f 150/42/72 151/59/73 144/60/74
f 148/45/75 146/46/76 149/47/77
f 151/61/78 149/50/77 147/51/79
f 147/54/79 149/47/77 146/46/76
f 143/62/67 138/63/64 146/57/76
f 142/58/80 144/64/71 141/58/66
f 141/58/66 144/64/71 145/53/70
f 160/65/81 193/66/82 194/67/83
f 160/65/81 196/68/84 195/69/85
f 160/65/81 194/67/83 196/68/84
f 201/70/86 199/71/87 197/72/88
f 198/73/89 202/74/90 201/75/91
f 218/76/92 213/77/93 215/78/94
f 211/79/95 214/80/96 220/81/97
f 214/80/96 242/82/98 220/81/97
f 221/83/99 220/81/97 242/82/98
f 219/84/100 212/85/101 216/86/102
f 217/87/103 221/83/99 242/82/98
f 217/87/103 212/85/101 221/76/99
f 219/84/100 221/76/99 212/85/101
f 216/86/102 213/77/93 219/84/100
f 218/76/92 219/84/100 213/77/93
f 215/78/94 211/79/95 218/83/92
f 220/81/97 218/83/92 211/79/95
f 218/83/104 223/88/105 230/89/106
f 225/90/107 227/91/108 224/91/109
f 228/92/110 229/93/111 225/94/107
f 222/95/112 229/96/111 228/97/110
f 222/98/112 227/99/108 229/96/111
f 226/100/113 230/101/106 223/102/105
f 223/103/105 233/104/114 224/105/109
f 247/76/115 246/106/116 244/107/117
f 244/107/117 243/108/118 249/81/119
f 250/83/120 249/81/119 243/108/118
f 248/84/121 245/109/122 246/106/116
f 245/109/122 250/83/120 243/108/118
f 252/110/123 254/111/124 256/110/125
f 248/84/126 259/112/127 260/113/128
f 248/84/121 250/76/120 245/109/122
f 247/76/115 248/84/121 246/106/116
f 249/81/119 247/83/115 244/107/117
f 251/114/129 252/115/123 257/116/130
f 256/117/125 255/118/131 257/119/130
f 256/120/125 254/121/124 255/118/131
f 259/122/127 258/123/132 251/124/129
f 262/125/133 261/126/134 253/127/135
f 243/128/118 267/129/136 263/130/137
f 244/131/117 268/132/138 264/133/139
f 246/134/116 269/135/140 266/136/141
f 245/137/122 270/138/142 265/139/143
f 299/140/144 279/141/145 301/142/146
f 305/143/147 281/144/148 303/145/149
f 301/142/146 279/141/145 309/146/150
f 306/143/151 282/147/152 308/148/153
f 302/142/154 280/149/155 300/150/156
f 304/151/157 282/147/152 306/143/151
f 315/152/157 291/147/152 317/143/151
f 321/142/158 293/149/159 319/153/160
f 317/143/151 291/147/152 325/148/153
f 322/142/161 294/141/162 324/146/150
f 318/143/147 292/144/148 316/154/149
f 320/155/163 294/141/162 322/142/161
f 330/156/164 372/157/165 331/158/166
f 337/159/167 378/160/168 334/161/169
f 329/162/170 347/163/171 350/164/172
f 378/165/168 380/166/173 375/167/174
f 343/168/175 383/169/176 340/170/177
f 334/161/169 375/171/178 332/172/179
f 327/173/180 370/174/181 343/168/175
f 345/175/182 373/174/183 328/176/184
f 335/177/185 377/178/186 336/179/187
f 329/180/188 374/181/189 371/182/190
f 373/183/183 385/184/191 372/185/192
f 518/186/193 521/74/194 520/74/195
f 518/186/193 522/187/196 521/74/194
f 518/186/193 519/188/197 522/187/196
f 534/189/198 535/190/199 533/191/200
f 536/192/201 537/193/202 535/190/203
f 540/194/204 541/195/205 539/196/206
f 542/197/207 543/198/208 541/195/209
f 544/199/210 539/196/211 543/198/212
f 553/200/213 558/201/214 550/202/215
f 557/203/216 552/204/217 551/205/218
f 560/206/219 547/204/220 546/205/220
f 559/207/221 545/202/222 548/200/220
f 591/208/223 568/209/224 592/210/225
f 592/211/225 563/212/226 566/213/227
f 590/214/228 593/215/229 564/216/230
f 590/217/228 568/209/224 591/208/223
f 591/218/231 562/219/232 567/220/233
f 569/221/234 563/222/226 565/223/235
f 576/224/236 586/225/237 577/226/238
f 561/227/239 564/228/230 571/229/240
f 564/228/230 593/230/229 571/229/240
f 572/231/241 571/229/240 593/230/229
f 570/232/242 562/233/232 566/234/227
f 567/235/233 572/231/241 593/230/229
f 567/235/233 562/233/232 572/221/241
f 570/232/242 572/221/241 562/233/232
f 566/234/227 563/222/226 570/232/242
f 569/221/234 570/232/242 563/222/226
f 565/223/235 561/227/239 569/231/234
f 571/229/240 569/231/234 561/227/239
f 569/231/243 589/236/244 585/237/245
f 581/98/246 584/238/247 583/239/248
f 581/240/246 582/241/249 584/238/247
f 577/242/238 585/243/245 574/244/250
f 585/245/245 589/246/244 574/247/250
f 568/248/224 561/249/239 565/250/235
f 621/251/251 602/209/252 622/252/253
f 620/253/254 602/209/252 621/251/251
f 603/221/255 597/254/256 599/223/257
f 595/227/258 598/228/259 605/229/260
f 598/228/259 594/230/261 605/229/260
f 606/231/262 605/229/260 594/230/261
f 604/232/263 596/255/264 600/256/265
f 601/235/266 606/231/262 594/230/261
f 601/235/266 596/255/264 606/221/262
f 604/232/263 606/221/262 596/255/264
f 600/256/265 597/254/256 604/232/263
f 603/221/255 604/232/263 597/254/256
f 599/223/257 595/227/258 603/231/255
f 605/229/260 603/231/255 595/227/258
f 610/257/267 609/258/268 618/259/269
f 610/260/267 612/91/270 609/91/268
f 607/261/271 614/262/272 611/263/273
f 613/117/274 614/264/272 607/119/271
f 613/265/274 615/266/275 614/264/272
f 14/267/276 13/268/2 5/268/1 6/267/277
f 6/267/278 5/268/278 1/7/278 2/6/278
f 14/269/276 4/6/279 3/7/279 13/270/2
f 16/271/280 15/272/281 11/273/282 12/274/282
f 12/274/283 11/273/283 9/273/283 10/274/283
f 8/275/278 10/274/278 9/273/278 7/276/278
f 16/275/280 8/275/284 7/276/4 15/276/281
f 19/277/285 20/278/286 18/279/286 17/280/287
f 7/4/4 11/5/3 15/281/281
f 24/282/288 23/283/11 22/284/10 21/285/289
f 18/279/290 50/279/290 49/286/291 17/280/287
f 17/287/287 49/288/291 53/289/292 19/290/285
f 26/6/5 25/7/5 27/7/5 28/6/5
f 30/267/293 28/6/293 27/7/293 29/268/293
f 44/269/294 43/270/8 25/7/7 26/6/295
f 44/267/294 30/267/296 29/268/296 43/268/8
f 62/291/297 42/292/298 40/293/299 63/293/300
f 46/271/301 37/274/302 36/273/302 45/272/303
f 35/275/293 34/276/293 38/273/293 39/274/293
f 37/274/283 39/274/283 38/273/283 36/273/283
f 46/275/301 45/276/303 34/276/6 35/275/304
f 48/294/305 40/293/299 42/292/298 47/295/306
f 22/284/10 55/296/307 56/285/308 21/285/289
f 45/297/303 36/5/3 34/4/6
f 53/298/292 54/278/309 20/278/309 19/277/285
f 50/279/310 54/278/310 53/298/292 49/286/291
f 51/282/311 56/285/311 55/296/307 52/299/312
f 54/300/3 50/301/3 18/301/3 20/300/3
f 24/282/313 57/282/314 59/302/9 23/283/11
f 58/11/12 52/303/312 55/304/307 22/9/10
f 58/305/12 59/306/9 57/307/314
f 57/282/314 51/282/315 52/299/312 58/308/12
f 60/294/316 61/309/317 62/291/318 63/293/316
f 74/15/13 65/310/319 66/311/320 72/16/14
f 64/312/321 67/313/322 66/314/320 65/315/319
f 73/312/323 64/312/324 65/315/319 74/316/13
f 70/317/325 71/313/326 68/312/326 69/318/327
f 70/319/325 69/320/327 75/17/15 72/16/14
f 74/321/13 75/322/15 73/323/323
f 70/319/328 72/324/14 66/311/320
f 70/317/328 66/314/320 67/313/322 71/313/329
f 68/312/330 73/312/330 75/325/15 69/318/327
f 73/12/3 68/14/3 71/13/3 67/13/3
f 57/19/17 21/18/16 56/18/331 51/20/331
f 62/326/318 61/327/317 31/23/21 41/22/20
f 60/294/332 33/294/332 31/328/21 61/309/317
f 32/21/19 47/329/306 42/330/298 41/22/20
f 32/331/19 31/332/21 33/333/333
f 62/326/297 41/334/20 42/330/298
f 33/294/333 48/294/334 47/295/306 32/335/19
f 33/336/3 60/337/3 63/338/3 40/338/3
f 78/339/335 77/340/335 80/341/335 81/342/335
f 40/338/3 48/337/3 33/336/3
f 78/343/336 81/344/336 89/344/337 88/343/337
f 80/345/3 77/346/3 76/346/3 79/345/3
f 90/343/338 91/344/338 86/344/339 83/343/339
f 86/342/340 85/341/340 82/340/340 83/339/340
f 87/345/3 84/346/3 82/346/3 85/345/3
f 90/347/338 84/340/341 87/341/341 91/348/338
f 89/348/337 79/341/342 76/340/342 88/347/337
f 92/349/25 95/350/22 97/351/28 93/352/26
f 92/353/25 98/354/30 131/54/60 130/46/56
f 134/355/343 101/356/343 100/356/31 132/355/55
f 103/357/36 102/358/35 105/358/32 107/357/41
f 107/359/41 106/360/344 104/360/344 103/359/36
f 106/361/345 111/362/345 109/362/345 104/361/345
f 109/363/346 111/363/346 110/364/33 108/364/39
f 102/365/35 108/366/39 110/366/33 105/365/32
f 112/367/45 115/367/42 117/368/51 113/368/46
f 117/369/51 116/370/347 114/370/347 113/369/46
f 116/371/348 121/372/348 119/372/348 114/371/348
f 119/373/349 121/373/349 120/374/43 118/374/49
f 118/375/49 120/375/43 115/376/42 112/376/45
f 124/371/3 125/371/3 122/361/3 123/361/3
f 129/377/222 126/378/222 127/378/222 128/377/222
f 99/379/350 135/380/350 131/380/60 98/379/30
f 94/381/351 96/44/54 135/43/53 99/382/351
f 132/45/55 100/383/31 95/384/22 130/46/56
f 134/385/352 132/386/55 133/387/57 135/387/59
f 145/352/70 138/349/64 143/350/67 141/351/66
f 139/379/353 151/380/353 147/380/79 140/379/63
f 138/353/64 140/354/63 147/54/79 146/46/76
f 151/59/73 139/382/354 144/60/74
f 150/355/355 136/356/355 137/356/68 148/355/75
f 148/45/75 137/383/68 143/384/67 146/46/76
f 142/388/356 136/48/356 150/42/72 144/60/74
f 150/385/357 148/389/75 149/387/77 151/387/78
f 183/390/358 179/391/359 153/392/360 154/393/361
f 196/394/362 194/395/363 159/396/364 158/397/365
f 173/398/366 190/399/367 192/400/368 175/401/369
f 172/402/370 207/403/371 206/404/371 170/405/372
f 174/406/373 208/407/374 207/408/374 172/409/375
f 166/410/376 175/411/377 192/412/378 181/413/379
f 167/414/380 184/415/381 186/416/382 169/417/383
f 176/418/384 209/419/385 208/420/385 174/421/386
f 195/422/85 156/423/387 155/424/388 160/425/81
f 193/426/389 153/424/390 152/423/391 194/395/392
f 152/423/391 159/396/393 194/395/392
f 196/394/394 157/396/395 156/423/396 195/422/394
f 193/426/82 160/425/81 154/427/361 153/424/360
f 163/428/397 162/429/398 177/430/399 180/431/400
f 158/397/365 157/396/401 196/394/362
f 155/424/388 154/427/402 160/425/81
f 162/432/403 166/433/404 181/434/405 177/435/406
f 206/436/407 205/437/407 168/438/408 170/439/409
f 168/440/410 205/441/411 204/442/411 164/443/412
f 163/444/413 180/445/414 184/446/415 167/447/416
f 165/448/417 210/449/418 209/450/418 176/451/419
f 171/452/420 188/453/421 190/454/422 173/455/423
f 169/456/424 186/457/425 188/458/426 171/459/427
f 163/460/397 164/461/428 161/462/429 162/463/398
f 162/463/403 161/462/430 165/464/431 166/465/404
f 203/466/432 210/467/432 165/468/431 161/469/430
f 168/470/410 164/461/412 163/460/413 167/471/416
f 185/472/433 183/473/434 154/474/402 155/475/388
f 169/460/383 170/461/409 168/470/408 167/471/380
f 187/476/435 185/477/436 155/478/388 156/479/387
f 171/463/427 172/462/370 170/461/372 169/460/424
f 189/480/437 187/481/438 156/482/396 157/483/395
f 174/464/373 172/462/375 171/463/420 173/465/423
f 191/484/439 189/485/440 157/486/401 158/487/365
f 176/488/384 174/464/386 173/465/366 175/489/369
f 182/490/441 191/491/442 158/492/365 159/493/364
f 165/464/417 176/488/419 175/489/377 166/465/376
f 177/494/406 181/495/405 182/496/443 178/497/444
f 186/498/382 184/499/381 183/500/434 185/501/433
f 188/494/426 186/498/425 185/501/436 187/497/435
f 189/496/437 190/495/422 188/494/421 187/497/438
f 191/502/439 192/503/368 190/495/367 189/496/440
f 182/496/441 181/495/379 192/503/378 191/502/442
f 183/500/358 184/499/415 180/498/414 179/501/359
f 180/498/400 177/494/399 178/497/445 179/501/446
f 152/504/391 178/505/444 182/506/443 159/507/393
f 179/508/446 178/509/445 152/510/391 153/511/390
f 199/71/87 201/70/86 202/512/90 200/513/447
f 204/514/448 203/515/448 161/516/429 164/517/428
f 202/512/90 198/518/89 200/513/447
f 198/518/89 197/72/449 200/513/447
f 198/518/89 201/70/91 197/72/449
f 236/519/450 240/520/451 216/521/102 212/522/101
f 213/523/93 216/521/102 240/524/451 237/519/452
f 242/525/98 214/526/96 238/527/453 234/528/454
f 214/526/96 211/529/95 235/528/455 238/530/453
f 212/522/101 217/531/103 241/532/456 236/533/450
f 215/534/94 213/523/93 237/533/452 239/535/457
f 234/536/454 241/537/456 217/531/103 242/525/98
f 233/538/114 220/81/458 221/83/459 232/539/460
f 231/540/461 232/539/460 221/76/459 219/84/462
f 227/110/108 225/94/107 229/93/111
f 223/88/105 218/83/104 220/81/458 233/538/114
f 222/541/112 228/542/110 226/543/113 223/544/105
f 222/541/112 223/114/105 224/545/109 227/91/108
f 226/546/113 228/542/110 225/547/107
f 231/548/461 226/549/113 225/550/107 232/551/463
f 230/552/106 226/553/113 231/548/461
f 232/551/463 225/127/107 224/105/109 233/104/114
f 230/89/106 231/540/461 219/84/462 218/76/104
f 211/529/95 215/534/94 239/554/457 235/536/455
f 262/555/133 249/81/464 250/83/465 261/556/134
f 248/84/126 260/113/128 261/556/134 250/76/465
f 262/555/133 258/557/132 247/83/466 249/81/464
f 255/558/131 260/543/467 251/544/129 257/116/130
f 253/559/135 252/560/123 262/561/133
f 255/558/131 254/562/124 253/563/135 260/546/467
f 262/125/133 252/564/123 251/124/129 258/123/132
f 253/565/135 254/562/124 252/115/123
f 252/110/123 256/110/125 257/261/130
f 251/566/129 260/567/128 259/568/127
f 253/550/135 261/126/134 260/569/467
f 247/76/466 258/557/132 259/112/127 248/84/126
f 244/131/117 264/133/139 267/129/136 243/128/118
f 246/134/116 266/136/141 268/132/138 244/131/117
f 245/137/122 265/139/143 269/135/140 246/134/116
f 243/128/118 263/130/137 270/138/142 245/570/122
f 272/571/468 271/571/468 273/572/469 274/572/469
f 274/573/469 273/573/469 275/574/470 276/574/470
f 276/575/470 275/575/470 277/576/471 278/576/471
f 303/145/149 273/577/472 271/578/473 295/579/474
f 299/140/144 297/580/475 277/581/476 275/582/477
f 319/583/160 311/584/478 312/584/479 320/583/163
f 299/140/144 275/582/477 279/141/145
f 281/144/148 273/577/472 303/145/149
f 305/143/147 307/148/480 281/144/148
f 279/585/481 281/586/482 282/586/483 280/585/484
f 282/147/152 274/577/485 276/582/486 280/149/155
f 281/144/148 279/141/145 275/582/477 273/577/472
f 305/587/147 306/587/151 308/588/153 307/588/480
f 302/142/154 310/146/487 280/149/155
f 302/589/154 301/589/146 309/590/150 310/590/487
f 300/591/156 299/592/144 301/593/146 302/594/154
f 303/595/149 304/596/157 306/597/151 305/598/147
f 280/149/155 276/582/486 300/150/156
f 298/584/488 297/584/475 299/583/144 300/583/156
f 304/151/157 274/577/485 282/147/152
f 304/151/157 296/599/489 272/578/490 274/577/485
f 300/150/156 276/582/486 278/581/491 298/600/488
f 284/576/471 283/576/471 285/575/470 286/575/470
f 286/574/470 285/574/470 287/573/469 288/573/469
f 288/572/469 287/572/469 289/571/468 290/571/468
f 319/153/160 285/582/492 283/581/493 311/580/478
f 315/152/157 313/601/489 289/578/490 287/577/485
f 271/602/494 272/602/494 296/603/489 295/604/474
f 315/152/157 287/577/485 291/147/152
f 293/149/159 285/582/492 319/153/160
f 321/142/158 323/146/487 293/149/159
f 291/586/483 293/585/484 294/585/481 292/586/482
f 294/141/162 286/582/495 288/577/472 292/144/148
f 293/149/159 291/147/152 287/577/485 285/582/492
f 321/589/158 322/589/161 324/590/150 323/590/487
f 318/143/147 326/148/480 292/144/148
f 318/587/147 317/587/151 325/588/153 326/588/480
f 316/605/149 315/606/157 317/607/151 318/598/147
f 319/591/160 320/608/163 322/609/161 321/610/158
f 292/144/148 288/577/472 316/154/149
f 314/611/474 313/611/489 315/612/157 316/612/149
f 320/155/163 286/582/495 294/141/162
f 320/155/163 312/613/479 284/581/496 286/582/495
f 316/154/149 288/577/472 290/578/473 314/579/474
f 295/611/474 296/611/489 304/612/157 303/612/149
f 290/602/494 289/602/494 313/614/489 314/604/474
f 308/615/153 282/616/483 281/616/482 307/617/480
f 325/618/153 291/616/483 292/616/482 326/617/480
f 309/619/150 279/620/481 280/620/484 310/621/487
f 324/619/150 294/620/481 293/620/484 323/622/487
f 283/623/497 284/623/497 312/624/479 311/625/478
f 278/623/497 277/623/497 297/626/475 298/627/488
f 410/628/498 421/629/499 408/630/500 387/631/501
f 412/632/502 411/633/503 388/634/504 390/635/505
f 413/636/506 412/637/502 390/638/505 392/639/507
f 414/640/508 413/641/506 392/642/507 394/643/509
f 415/644/510 414/645/508 394/646/509 396/647/511
f 398/648/512 416/649/513 415/650/510 396/651/511
f 400/652/514 417/653/515 416/654/513 398/655/512
f 418/656/516 417/657/515 400/658/514 402/659/517
f 419/660/518 418/661/516 402/662/517 404/663/519
f 420/664/520 419/665/518 404/666/519 406/667/521
f 421/668/499 420/669/520 406/670/521 408/671/500
f 411/672/503 410/673/498 387/674/501 388/675/504
f 386/631/522 409/630/523 421/629/499 410/628/498
f 390/635/505 388/634/504 348/676/524 351/677/524
f 421/668/499 409/671/523 407/670/525 420/669/520
f 409/671/523 368/678/526 366/679/526 407/670/525
f 420/664/520 407/667/525 405/666/527 419/665/518
f 407/667/525 366/679/528 364/680/528 405/666/527
f 405/663/527 403/662/529 418/661/516 419/660/518
f 364/680/530 362/681/530 403/662/529 405/663/527
f 418/656/516 403/659/529 401/658/531 417/657/515
f 362/681/532 360/682/532 401/658/531 403/659/529
f 401/652/531 399/655/533 416/654/513 417/653/515
f 360/682/534 358/683/534 399/655/533 401/652/531
f 399/648/533 397/651/535 415/650/510 416/649/513
f 358/683/536 356/684/536 397/651/535 399/648/533
f 397/647/535 395/646/537 414/645/508 415/644/510
f 356/684/538 354/685/538 395/646/537 397/647/535
f 414/640/508 395/643/537 393/642/539 413/641/506
f 354/685/540 352/686/540 393/642/539 395/643/537
f 393/639/539 391/638/541 412/637/502 413/636/506
f 352/686/542 350/677/542 391/638/541 393/639/539
f 391/635/541 389/634/543 411/633/503 412/632/502
f 391/635/541 350/677/544 347/687/544 389/634/543
f 411/672/503 389/675/543 386/674/522 410/673/498
f 388/675/504 387/674/501 349/688/545 348/676/546
f 386/631/522 346/689/547 368/678/547 409/630/523
f 353/690/548 392/639/507 390/638/505 351/677/548
f 355/691/549 394/643/509 392/642/507 353/690/550
f 357/684/551 396/647/511 394/646/509 355/691/551
f 359/683/552 398/648/512 396/651/511 357/684/552
f 361/682/553 400/652/514 398/655/512 359/683/553
f 363/681/554 402/659/517 400/658/514 361/682/554
f 404/663/519 402/662/517 363/681/555 365/692/555
f 406/667/521 404/666/519 365/692/556 367/693/557
f 408/671/500 406/670/521 367/693/558 369/678/558
f 387/631/501 408/630/500 369/678/559 349/688/559
f 347/163/171 329/162/170 327/694/560 346/695/560
f 348/696/546 330/697/164 331/698/561 351/164/562
f 352/699/563 332/700/563 329/162/170 350/164/172
f 351/164/562 331/698/561 333/701/564 353/702/550
f 354/703/565 334/704/566 332/700/563 352/699/563
f 355/705/549 335/706/185 336/707/567 357/708/568
f 334/704/566 354/703/565 356/708/569
f 358/709/570 337/710/571 334/704/566 356/708/569
f 357/708/568 336/707/567 338/711/572 359/709/573
f 358/709/570 360/712/574 339/713/574 337/710/571
f 360/712/574 362/714/575 340/715/576 339/713/574
f 338/711/572 361/712/577 359/709/573
f 361/712/577 338/711/572 341/716/578 363/714/579
f 363/714/579 341/716/578 342/717/580 365/718/556
f 340/715/576 362/714/575 364/719/581
f 366/720/582 343/721/583 340/715/576 364/719/581
f 369/722/584 367/723/557 344/724/585 345/725/586
f 343/721/583 366/720/582 368/722/587
f 346/695/560 327/694/560 343/721/583 368/722/587
f 369/722/584 345/725/586 328/726/184 349/727/545
f 379/728/588 338/729/589 336/179/187 377/178/186
f 374/181/189 329/180/188 332/172/179 375/171/178
f 384/730/590 385/731/191 344/732/585 342/733/580
f 380/734/173 378/160/168 337/159/167 339/735/591
f 376/736/592 333/737/564 331/158/166 372/157/165
f 385/731/191 373/174/183 345/175/182 344/732/585
f 343/168/175 370/174/181 383/169/176
f 381/738/593 380/734/173 339/735/591 340/170/177
f 376/736/592 377/178/186 335/177/185 333/737/564
f 371/182/190 370/174/181 327/173/180 329/180/188
f 382/738/594 341/739/595 338/729/589 379/728/588
f 372/157/165 330/156/164 328/176/184 373/174/183
f 334/161/169 378/160/168 375/171/178
f 384/730/590 342/733/580 341/739/595 382/738/594
f 340/170/177 383/169/176 381/738/593
f 389/675/543 347/687/596 346/689/596 386/674/522
f 423/740/597 467/741/598 469/742/598 425/743/597
f 435/744/599 431/745/600 433/746/600 437/747/599
f 439/748/601 435/744/599 437/747/599 441/749/601
f 443/750/602 439/748/601 441/749/601 445/751/602
f 449/752/603 447/753/603 443/750/602 445/751/602
f 453/754/604 451/755/604 447/753/603 449/752/603
f 457/756/605 455/757/605 451/755/604 453/754/604
f 461/758/606 459/759/606 455/757/605 457/756/605
f 463/760/607 459/759/606 461/758/606 465/761/607
f 467/741/598 463/760/607 465/761/607 469/742/598
f 431/745/600 427/762/608 429/763/608 433/746/600
f 427/762/608 423/740/597 425/743/597 429/763/608
f 473/740/609 471/743/609 515/742/610 517/741/610
f 483/747/611 479/746/612 481/745/612 485/744/611
f 489/748/613 487/749/613 483/747/611 485/744/611
f 493/750/614 491/751/614 487/749/613 489/748/613
f 495/752/615 491/751/614 493/750/614 497/753/615
f 499/754/616 495/752/615 497/753/615 501/755/616
f 503/756/617 499/754/616 501/755/616 505/757/617
f 507/758/618 503/756/617 505/757/617 509/759/618
f 513/760/619 511/761/619 507/758/618 509/759/618
f 517/741/610 515/742/610 511/761/619 513/760/619
f 481/745/612 479/746/612 475/763/620 477/762/620
f 477/762/620 475/763/620 471/743/609 473/740/609
f 422/764/621 423/765/621 427/766/622 426/767/622
f 428/768/623 429/769/623 425/770/624 424/771/624
f 426/767/622 427/766/622 431/772/625 430/773/625
f 432/774/626 433/775/626 429/769/623 428/768/623
f 430/773/625 431/772/625 435/776/627 434/777/627
f 432/774/626 436/778/628 437/779/628 433/775/626
f 438/780/629 434/777/627 435/776/627 439/781/629
f 440/782/630 441/783/630 437/779/628 436/778/628
f 442/784/631 438/780/629 439/781/629 443/785/631
f 440/782/630 444/786/632 445/787/632 441/783/630
f 446/788/633 442/784/631 443/785/631 447/789/633
f 444/786/632 448/790/634 449/791/634 445/787/632
f 450/792/635 446/788/633 447/789/633 451/793/635
f 452/794/636 453/795/636 449/791/634 448/790/634
f 454/796/637 450/792/635 451/793/635 455/797/637
f 456/798/638 457/799/638 453/795/636 452/794/636
f 454/796/637 455/797/637 459/800/639 458/801/639
f 460/802/640 461/803/640 457/799/638 456/798/638
f 462/804/641 458/801/639 459/800/639 463/805/641
f 464/806/642 465/807/642 461/803/640 460/802/640
f 466/808/643 462/804/641 463/805/641 467/809/643
f 468/810/644 469/811/644 465/807/642 464/806/642
f 422/764/621 466/808/643 467/809/643 423/765/621
f 424/771/624 425/770/624 469/811/644 468/810/644
f 474/768/645 470/771/646 471/770/646 475/769/645
f 472/764/647 476/767/648 477/766/648 473/765/647
f 478/774/649 474/768/645 475/769/645 479/775/649
f 476/767/648 480/773/650 481/772/650 477/766/648
f 478/774/649 479/775/649 483/779/651 482/778/651
f 484/777/652 485/776/652 481/772/650 480/773/650
f 482/778/651 483/779/651 487/783/653 486/782/653
f 488/780/654 489/781/654 485/776/652 484/777/652
f 486/782/653 487/783/653 491/787/655 490/786/655
f 492/784/656 493/785/656 489/781/654 488/780/654
f 490/786/655 491/787/655 495/791/657 494/790/657
f 492/784/656 496/788/658 497/789/658 493/785/656
f 498/794/659 494/790/657 495/791/657 499/795/659
f 500/792/660 501/793/660 497/789/658 496/788/658
f 502/798/661 498/794/659 499/795/659 503/799/661
f 504/796/662 505/797/662 501/793/660 500/792/660
f 506/802/663 502/798/661 503/799/661 507/803/663
f 504/796/662 508/801/664 509/800/664 505/797/662
f 510/806/665 506/802/663 507/803/663 511/807/665
f 512/804/666 513/805/666 509/800/664 508/801/664
f 514/810/667 510/806/665 511/807/665 515/811/667
f 516/808/668 517/809/668 513/805/666 512/804/666
f 514/810/667 515/811/667 471/770/646 470/771/646
f 472/764/647 473/765/647 517/809/668 516/808/668
f 349/727/545 328/726/184 330/697/164 348/696/546
f 353/702/550 333/701/564 335/706/185 355/705/549
f 365/718/556 342/717/580 344/724/585 367/723/557
f 382/812/669 376/813/670 372/814/192 384/815/671
f 377/816/186 376/817/670 382/818/669 379/819/588
f 372/820/192 385/821/191 384/822/671
f 383/815/672 374/814/673 375/813/174 381/812/674
f 371/185/190 383/184/672 370/183/181
f 371/823/190 374/824/673 383/825/672
f 524/826/675 523/827/676 519/828/197 518/829/193
f 375/830/174 380/819/173 381/818/674
f 523/831/677 527/832/678 522/833/679 519/834/679
f 526/835/680 521/512/681 522/836/681 527/837/682
f 525/838/683 520/839/684 521/839/684 526/838/685
f 524/826/686 518/829/193 520/840/195 525/841/687
f 529/842/688 524/843/686 525/844/687 530/845/688
f 530/846/689 525/847/683 526/848/685 531/846/689
f 531/849/690 526/850/680 527/851/682 532/852/690
f 528/853/691 532/854/691 527/855/678 523/856/677
f 528/857/692 523/858/676 524/843/675 529/842/692
f 533/191/200 537/193/202 538/199/693 534/189/198
f 534/189/198 536/192/694 535/190/199
f 536/192/201 538/199/693 537/193/202
f 549/859/695 554/860/696 556/861/697 555/862/698
f 540/194/204 542/197/699 541/195/205
f 542/197/207 544/199/700 543/198/208
f 544/199/210 540/194/701 539/196/211
f 549/860/695 558/863/214 557/864/216 554/859/696
f 555/862/698 556/861/697 559/865/221 560/866/219
f 558/863/214 553/867/213 552/868/217 557/864/216
f 560/866/219 559/865/221 548/867/220 547/868/220
f 591/218/231 592/211/225 566/213/227 562/219/232
f 564/216/230 561/249/239 568/248/224 590/214/228
f 565/250/235 563/212/226 592/211/225 568/248/224
f 590/214/228 591/218/231 567/220/233 593/215/229
f 587/869/702 588/870/703 571/229/704 572/231/705
f 583/871/248 584/110/706 578/110/707 579/872/708
f 570/232/709 586/873/237 587/869/702 572/221/705
f 589/236/244 569/231/243 571/229/704 588/870/703
f 580/874/710 577/543/711 574/544/250 573/875/712
f 580/874/710 579/876/713 576/563/236 577/546/711
f 578/91/714 575/91/715 576/565/236 579/876/713
f 573/875/712 574/114/250 575/545/715 578/91/714
f 581/877/246 583/871/248 579/872/708 580/878/716
f 581/877/246 580/878/716 573/879/717 582/880/249
f 584/110/706 582/880/249 573/879/717 578/110/707
f 587/881/702 576/882/236 575/883/715 588/884/718
f 585/245/245 577/885/238 586/886/237
f 586/886/237 576/887/236 587/881/702
f 588/884/718 575/883/715 574/882/250 589/246/244
f 585/237/245 586/873/237 570/232/709 569/221/243
f 621/888/719 622/889/253 625/890/720 626/891/721
f 623/892/722 624/893/723 602/894/252 620/895/254
f 624/893/723 625/890/720 622/889/253 602/894/252
f 620/895/254 621/888/719 626/891/721 623/892/722
f 619/870/724 605/229/725 606/231/726 618/896/727
f 615/897/275 613/110/274 612/110/270 610/898/267
f 617/899/728 618/896/727 606/221/726 604/232/729
f 616/900/730 603/231/731 605/229/725 619/870/724
f 612/91/270 607/116/271 608/114/732 609/545/268
f 608/544/732 607/116/271 611/901/273
f 614/262/272 615/897/275 610/898/267 611/901/273
f 617/902/733 616/903/734 608/904/732 611/885/273
f 612/110/270 613/110/274 607/261/271
f 617/902/733 611/905/273 610/887/267 618/906/269
f 619/884/724 609/907/268 608/904/732 616/903/734
f 618/906/727 609/907/268 619/884/724
f 603/221/731 616/900/730 617/899/728 604/232/729
f 595/908/258 624/893/723 623/892/722 598/909/259
f 594/910/261 598/911/259 623/892/722
f 597/912/256 625/890/720 624/893/723 599/913/257
f 595/914/258 599/915/257 624/893/723
f 596/916/264 626/891/721 625/890/720 600/917/265
f 597/918/256 600/919/265 625/890/720
f 594/920/261 623/892/722 626/891/721 601/921/266
f 596/922/264 601/923/266 626/891/721
