# Blender 4.5.3 LTS
# www.blender.org
mtllib cajas.mtl
o crates_stacked
v 10.418129 0.305744 -4.942952
v 9.698874 0.305686 -4.890719
v 10.084601 0.305744 -4.557250
v 10.229772 0.309123 -5.225212
v 10.366861 0.309123 -4.745607
v 9.887253 0.309081 -4.608494
v 9.750145 0.309081 -5.088126
v 10.023549 0.068454 -4.658665
v 10.128896 0.662867 -4.856862
v 9.998512 0.662866 -4.846483
v 10.118517 0.662867 -4.987246
v 9.988132 0.662867 -4.976867
v 10.156341 0.838843 -4.837340
v 10.148979 0.794806 -4.852383
v 10.127887 0.795691 -4.998237
v 9.980533 0.794806 -4.995988
v 10.136805 0.880098 -5.008698
v 9.966907 0.841759 -5.005877
v 9.973620 0.841499 -4.817286
v 10.141238 0.891260 -4.846341
v 9.991430 0.898813 -4.838177
v 9.974039 0.899146 -4.979745
v 10.169993 0.731659 -4.817579
v 10.011003 0.763733 -4.785540
v 9.954787 0.784600 -4.851041
v 9.939522 0.732797 -5.005759
v 10.154490 0.735540 -5.033695
v 10.093554 0.067121 -5.174316
v 10.315971 0.067139 -4.881780
v 9.801091 0.067118 -4.951683
v 10.032370 0.305686 -5.276504
v 9.441397 1.569389 -4.461060
v 9.441794 1.273069 -4.459762
v 9.446301 1.269111 -4.330307
v 10.926841 1.569515 -4.577005
v 10.941625 1.269111 -4.448651
v 10.923024 1.274719 -4.580925
v 9.442212 1.862921 -4.460588
v 9.446301 1.869111 -4.330307
v 10.925901 1.865166 -4.576941
v 10.941625 1.869111 -4.448650
v 9.551982 1.569852 -3.625745
v 9.552015 1.272010 -3.626523
v 9.689570 1.269111 -3.633042
v 9.496171 1.569644 -4.330651
v 9.633216 1.269111 -4.345099
v 9.492652 1.275850 -4.326930
v 9.548926 1.864810 -3.628289
v 9.689570 1.869111 -3.633042
v 9.495847 1.864456 -4.329497
v 9.633216 1.869111 -4.345099
v 10.892298 1.569852 -4.441156
v 10.893019 1.273758 -4.439947
v 10.754709 1.269111 -4.433858
v 10.948109 1.569644 -3.736251
v 10.811064 1.269111 -3.721801
v 10.950895 1.273435 -3.739383
v 10.896173 1.862312 -4.438145
v 10.754709 1.869111 -4.433858
v 10.947762 1.866248 -3.736865
v 10.811064 1.869111 -3.721801
v 9.689570 1.269111 -3.633042
v 9.633216 1.269111 -4.345099
v 10.754709 1.269111 -4.433858
v 10.811064 1.269111 -3.721801
v 9.633216 1.344111 -4.345099
v 9.689570 1.344111 -3.633042
v 10.811064 1.344111 -3.721801
v 10.754709 1.344111 -4.433858
v 9.958393 1.592187 -4.514140
v 9.723645 1.862581 -4.487565
v 10.040999 1.858806 -4.514619
v 9.959938 1.787775 -4.503605
v 10.052012 1.869111 -4.378244
v 9.959313 1.807987 -4.371597
v 9.517439 1.569515 -3.489896
v 9.502655 1.869111 -3.618250
v 9.518379 1.865166 -3.489960
v 11.002884 1.569389 -3.605841
v 10.997979 1.869111 -3.736594
v 11.002069 1.862920 -3.606312
v 9.521255 1.274719 -3.485975
v 9.502655 1.269111 -3.618250
v 10.997979 1.269111 -3.736595
v 11.002486 1.273069 -3.607139
v 10.485887 1.592187 -3.552761
v 10.570352 1.862228 -3.566549
v 10.330636 1.859234 -3.547299
v 10.485575 1.787416 -3.563118
v 10.317500 1.869111 -3.682739
v 10.494401 1.818455 -3.696131
v 10.380036 2.125186 -3.824882
v 10.243737 2.115806 -4.010133
v 10.349198 2.125186 -4.214518
v 10.494027 2.122884 -4.226010
v 10.630698 2.115806 -4.040758
v 10.524869 2.122884 -3.836314
v 10.449916 2.045387 -3.864978
v 10.344130 1.450576 -3.726486
v 10.325247 1.540259 -3.699684
v 10.122490 1.545350 -3.865141
v 10.141799 1.453435 -3.871326
v 10.576533 1.451266 -3.744639
v 10.597960 1.541276 -3.720441
v 10.091520 1.539234 -4.126781
v 10.121180 1.452754 -4.130569
v 10.275398 1.540259 -4.329539
v 10.298262 1.450576 -4.306041
v 10.547981 1.541276 -4.351939
v 10.530628 1.451266 -4.324671
v 10.751945 1.545350 -4.185751
v 10.740389 1.453964 -4.173634
v 10.782915 1.539234 -3.924110
v 10.746003 1.451926 -3.912899
v 10.323443 1.905394 -3.694485
v 10.344469 1.992352 -3.727451
v 10.142848 1.989674 -3.871662
v 10.117499 1.896737 -3.875610
v 10.609124 1.900275 -3.726644
v 10.575873 1.991861 -3.745548
v 10.122223 1.990147 -4.130531
v 10.097878 1.898437 -4.123806
v 10.304779 1.991128 -4.312895
v 10.269896 1.902772 -4.330235
v 10.537420 1.993268 -4.316727
v 10.556139 1.903557 -4.351675
v 10.739551 1.988966 -4.173235
v 10.756936 1.896737 -4.175282
v 10.744916 1.991067 -3.912939
v 10.776558 1.898437 -3.927085
v 10.261178 2.043550 -4.011513
v 10.424543 2.044452 -4.185582
v 10.613257 2.043550 -4.039378
v 10.561784 2.020769 -3.987356
v 10.573180 2.127679 -4.013114
v 10.504562 2.022313 -3.978137
v 10.525592 2.022473 -4.025330
v 10.525173 2.123363 -3.945093
v 10.478042 2.123347 -4.022443
v 10.358016 1.339977 -3.795171
v 10.210772 1.339977 -3.914737
v 10.210772 2.116755 -3.914737
v 10.196177 1.339977 -4.099155
v 10.196177 2.116755 -4.099155
v 10.322780 1.339977 -4.240395
v 10.516418 1.339977 -4.255720
v 10.663662 1.339977 -4.136153
v 10.663662 2.116755 -4.136153
v 10.678258 1.339977 -3.951736
v 10.678258 2.116755 -3.951736
v 10.551655 1.339977 -3.810497
v 10.193500 1.583694 -4.064866
v 9.645083 1.583615 -4.255818
v 9.812489 1.581729 -3.896818
v 10.154794 1.585941 -4.322948
v 10.088822 1.579361 -3.936081
v 9.683820 1.585891 -3.997747
v 9.749801 1.579325 -4.384642
v 9.950327 2.003154 -4.094736
v 9.850215 2.003153 -4.130295
v 9.988412 2.003154 -4.190414
v 9.888299 2.003154 -4.225975
v 9.961862 2.190166 -4.071525
v 9.956233 2.118494 -4.083063
v 10.005847 2.129345 -4.197692
v 9.879025 2.125620 -4.244475
v 9.832781 2.129345 -4.123019
v 9.884233 2.204377 -4.233275
v 9.838817 2.212023 -4.125779
v 9.999810 2.212023 -4.194932
v 9.970938 2.064337 -4.052293
v 9.811239 2.092681 -4.113914
v 9.867688 2.064337 -4.268417
v 10.027388 2.092681 -4.206796
v 9.991609 1.339443 -4.341980
v 10.109355 1.339443 -4.092854
v 9.729272 1.339443 -4.227857
v 9.847018 1.339443 -3.978730
v 10.080486 1.339443 -4.279665
v 10.043280 1.339443 -4.007676
v 9.758141 1.339443 -4.041046
v 9.795348 1.339443 -4.313034
v 10.026104 1.581668 -4.423928
v 9.959822 1.727812 -3.920358
v 9.994352 1.700178 -3.709709
v 9.699104 1.728843 -3.908980
v 9.707216 1.727812 -3.664496
v 9.918227 1.709766 -3.644035
v 9.854651 2.003154 -3.723274
v 9.760787 2.003153 -3.771757
v 9.906251 2.003154 -3.813097
v 9.812387 2.003154 -3.861581
v 9.862514 2.190193 -3.698644
v 9.858673 2.118487 -3.710874
v 9.924525 2.129366 -3.818105
v 9.806068 2.125606 -3.881217
v 9.742513 2.129366 -3.766749
v 9.809620 2.204377 -3.869427
v 9.748935 2.212020 -3.768655
v 9.918103 2.212020 -3.816199
v 9.868701 2.064341 -3.678377
v 9.719949 2.092667 -3.760497
v 9.798339 2.064341 -3.906477
v 9.947089 2.092667 -3.824357
v 9.901862 1.333530 -3.916647
v 9.962763 1.333405 -3.726538
v 9.704289 1.333402 -3.858336
v 9.765198 1.333533 -3.668193
v 9.968344 1.329783 -3.862458
v 9.905489 1.330759 -3.664593
v 9.698733 1.329788 -3.722371
v 9.761521 1.330764 -3.920224
v 9.366391 0.369392 -4.056149
v 9.367245 0.074722 -4.061553
v 9.428410 0.069114 -3.942804
v 10.646301 0.369518 -4.818921
v 10.717772 0.069114 -4.709319
v 10.646726 0.073072 -4.817631
v 9.367208 0.662924 -4.057888
v 9.428410 0.669114 -3.942804
v 10.645907 0.662923 -4.818065
v 10.717772 0.669114 -4.709319
v 9.834362 0.369854 -3.357331
v 9.833180 0.073761 -3.358098
v 9.954585 0.069114 -3.424637
v 9.473002 0.369647 -3.965135
v 9.589579 0.069114 -4.038618
v 9.471886 0.073438 -3.961095
v 9.830497 0.664813 -3.358264
v 9.954586 0.669114 -3.424638
v 9.473221 0.664459 -3.963958
v 9.589579 0.669114 -4.038618
v 10.676825 0.369854 -4.680811
v 10.678006 0.073761 -4.680044
v 10.556602 0.069114 -4.613504
v 11.038185 0.369647 -4.073008
v 10.921608 0.069114 -3.999525
v 11.039302 0.073438 -4.077048
v 10.680690 0.664813 -4.679878
v 10.556602 0.669114 -4.613504
v 11.037967 0.664459 -4.074185
v 10.921608 0.669114 -3.999525
v 9.954585 0.069114 -3.424637
v 9.589579 0.069114 -4.038618
v 10.556602 0.069114 -4.613504
v 10.921608 0.069114 -3.999525
v 9.589579 0.144114 -4.038618
v 9.954585 0.144114 -3.424637
v 10.921608 0.144114 -3.999525
v 10.556602 0.144114 -4.613504
v 10.073091 0.069114 -4.326061
v 10.000089 0.392190 -4.448858
v 9.865878 0.662244 -4.360887
v 10.141489 0.662244 -4.524736
v 10.004841 0.511392 -4.440866
v 10.208565 0.669114 -4.406599
v 9.937616 0.669114 -4.245522
v 10.073091 0.511508 -4.326061
v 9.863361 0.369517 -3.220191
v 9.793416 0.669114 -3.328824
v 9.864176 0.665169 -3.220664
v 11.144918 0.369392 -3.980190
v 11.082778 0.669114 -4.095338
v 11.143991 0.665169 -3.981504
v 9.868516 0.074722 -3.218359
v 9.793416 0.069114 -3.328824
v 11.082778 0.069114 -4.095338
v 11.143989 0.073072 -3.981179
v 10.438097 0.069114 -3.712081
v 10.511099 0.392190 -3.589284
v 10.643435 0.658831 -3.674933
v 10.372633 0.658831 -3.513943
v 10.506347 0.511392 -3.597276
v 10.302622 0.669114 -3.631543
v 10.573571 0.669114 -3.792620
v 10.438097 0.511508 -3.712081
v 9.366393 0.969389 -3.788282
v 9.367589 0.673069 -3.787639
v 9.461843 0.669111 -3.698786
v 10.340767 0.969515 -4.915483
v 10.441554 0.669111 -4.834641
v 10.335298 0.674719 -4.915586
v 9.367689 1.265166 -3.787330
v 9.461843 1.269111 -3.698786
v 10.340145 1.265166 -4.914777
v 10.441554 1.269111 -4.834641
v 10.032518 0.969852 -3.272282
v 10.031155 0.673758 -3.272634
v 10.125190 0.669111 -3.374241
v 9.497053 0.969645 -3.734107
v 9.584308 0.669111 -3.840767
v 9.497275 0.673435 -3.729920
v 10.027645 1.262311 -3.271696
v 10.125190 1.269111 -3.374241
v 9.497731 1.266248 -3.733913
v 9.584308 1.269111 -3.840767
v 10.411762 0.969852 -4.794619
v 10.412286 0.672010 -4.794043
v 10.319090 0.669111 -4.692660
v 10.947227 0.969645 -4.332794
v 10.859972 0.669111 -4.226134
v 10.947111 0.675850 -4.337914
v 10.415724 1.264810 -4.794961
v 10.319090 1.269111 -4.692660
v 10.946647 1.264456 -4.333841
v 10.859972 1.269111 -4.226134
v 10.125190 0.669111 -3.374241
v 9.584308 0.669111 -3.840767
v 10.319090 0.669111 -4.692660
v 10.859972 0.669111 -4.226134
v 9.584308 0.744111 -3.840767
v 10.125190 0.744111 -3.374241
v 10.859972 0.744111 -4.226134
v 10.319090 0.744111 -4.692660
v 9.951699 0.669111 -4.266714
v 9.843522 0.992187 -4.360020
v 9.745179 1.258829 -4.236823
v 9.950946 1.258828 -4.475385
v 9.850562 1.111390 -4.353947
v 10.054638 1.269111 -4.386059
v 9.848760 1.269111 -4.147368
v 9.951699 1.111505 -4.266714
v 10.103513 0.969515 -3.151417
v 10.002726 1.269111 -3.232259
v 10.105369 1.262921 -3.151917
v 11.077887 0.969389 -4.278618
v 10.982435 1.269111 -4.368115
v 11.076976 1.262921 -4.278380
v 10.108983 0.674719 -3.151315
v 10.002726 0.669111 -3.232259
v 10.982435 0.669111 -4.368115
v 11.076691 0.673069 -4.279262
v 10.492580 0.669111 -3.800187
v 10.600760 0.992187 -3.706881
v 10.700142 1.262241 -3.832875
v 10.490722 1.262241 -3.590076
v 10.593718 1.111389 -3.712953
v 10.389643 1.269111 -3.680842
v 10.595520 1.269111 -3.919532
v 10.492580 1.111505 -3.800187
v 9.549376 0.226574 -5.186401
v 9.549376 0.911657 -5.186401
v 9.877181 0.911657 -4.584834
v 9.877181 0.226574 -4.584834
v 9.814260 0.226574 -4.371229
v 9.814260 0.911657 -4.371229
v 9.212693 0.911657 -4.043424
v 9.212693 0.226574 -4.043424
v 8.999087 0.226574 -4.106345
v 8.999087 0.911657 -4.106345
v 8.671283 0.911657 -4.707911
v 8.671283 0.226574 -4.707911
v 8.734203 0.226574 -4.921517
v 8.734203 0.911657 -4.921517
v 9.335771 0.911657 -5.249322
v 9.335771 0.226574 -5.249322
v 9.738917 0.069115 -4.509492
v 9.137350 0.069115 -4.181687
v 8.809546 0.069115 -4.783253
v 9.411113 0.069115 -5.111059
v 9.137350 1.069115 -4.181686
v 9.738917 1.069115 -4.509492
v 9.411113 1.069115 -5.111059
v 8.809546 1.069115 -4.783253
v 9.453559 0.250824 -5.106572
v 9.453559 0.887406 -5.106572
v 9.758156 0.887406 -4.547594
v 9.758156 0.250824 -4.547594
v 9.734430 0.250824 -4.467046
v 9.734430 0.887406 -4.467046
v 9.175452 0.887406 -4.162448
v 9.175452 0.250824 -4.162448
v 9.094904 0.250824 -4.186174
v 9.094904 0.887406 -4.186174
v 8.790307 0.887406 -4.745152
v 8.790307 0.250824 -4.745152
v 8.814033 0.250824 -4.825700
v 8.814033 0.887406 -4.825700
v 9.373011 0.887406 -5.130297
v 9.373011 0.250824 -5.130298
v 9.706019 0.191449 -4.519183
v 9.147041 0.191449 -4.214585
v 8.842443 0.191449 -4.773563
v 9.401423 0.191449 -5.078161
v 9.147041 0.946782 -4.214585
v 9.706019 0.946782 -4.519183
v 9.401423 0.946782 -5.078161
v 8.842443 0.946782 -4.773563
v 8.621858 1.047462 -4.835637
v 9.082756 1.048282 -3.996343
v 9.925033 1.047462 -4.451767
v 9.920916 0.088778 -4.451740
v 9.079600 0.088778 -3.999689
v 8.627547 0.088778 -4.841004
v 9.468864 0.088778 -5.293056
v 9.466664 1.046574 -5.299645
vn -0.0880 -0.7800 0.6195
vn 0.1840 0.0783 0.9798
vn -0.5878 0.0841 0.8046
vn 0.1185 -0.5446 -0.8303
vn -0.1840 0.0779 -0.9798
vn 0.5877 0.0842 -0.8047
vn -0.0003 -1.0000 0.0025
vn -0.6170 -0.7821 -0.0872
vn -0.9798 0.0779 0.1840
vn -0.8047 0.0840 -0.5876
vn 0.6171 -0.7819 0.0885
vn 0.5369 0.7059 0.4620
vn 0.8047 0.0842 0.5877
vn 0.9798 0.0781 -0.1839
vn 0.4620 0.7059 -0.5369
vn -0.5369 0.7059 -0.4620
vn -0.4620 0.7059 0.5369
vn -0.5879 -0.5128 0.6256
vn -0.2780 0.2629 0.9239
vn -0.8996 -0.0289 0.4358
vn 0.2883 0.9547 -0.0735
vn 0.5316 0.7069 0.4666
vn 0.6681 0.3538 0.6546
vn 0.0781 0.9962 -0.0390
vn -0.4500 0.7134 0.5371
vn 0.7655 -0.0685 0.6398
vn 0.8536 0.1868 0.4862
vn 0.6393 0.0011 -0.7689
vn 0.9928 0.0023 -0.1198
vn 0.6995 -0.7039 -0.1230
vn -0.7500 -0.0014 -0.6615
vn -0.6116 -0.5683 -0.5504
vn -0.9994 -0.0009 0.0355
vn 0.5044 -0.5687 -0.6497
vn -0.9995 0.0020 0.0329
vn -0.6130 0.6121 -0.4995
vn 0.5122 0.5707 -0.6419
vn -0.7677 -0.0005 -0.6408
vn -0.6383 0.5681 -0.5195
vn -0.1107 0.0027 -0.9939
vn -0.6575 0.0009 0.7534
vn -0.5490 -0.5698 0.6115
vn 0.0489 -0.0019 0.9988
vn 0.0390 0.0065 0.9992
vn -0.5550 0.5705 0.6053
vn -0.1220 -0.0079 -0.9925
vn -0.6456 -0.5673 -0.5114
vn 0.7679 -0.0005 0.6405
vn 0.6380 0.5698 0.5179
vn 0.1083 0.0016 0.9941
vn 0.6573 0.0008 -0.7536
vn 0.5491 -0.5681 -0.6130
vn -0.0464 -0.0030 -0.9989
vn -0.0363 0.0077 -0.9993
vn 0.5566 0.5672 -0.6070
vn 0.1194 -0.0067 0.9928
vn 0.6437 -0.5705 0.5100
vn 0.0760 -0.0043 0.9971
vn 0.0781 -0.0009 0.9969
vn 0.0788 -0.0000 0.9969
vn -0.2963 0.7048 -0.6445
vn -0.0785 -0.2346 -0.9689
vn -0.1947 0.5312 -0.8246
vn 0.0789 -0.0000 0.9969
vn -0.2558 0.9603 -0.1110
vn 0.0282 0.7603 -0.6490
vn -0.0024 -0.9995 -0.0305
vn 0.9995 0.0020 -0.0329
vn 0.6220 0.6108 0.4899
vn 0.7496 -0.0000 0.6619
vn -0.9911 -0.0080 0.1330
vn -0.5042 -0.5690 0.6496
vn -0.6393 0.0011 0.7689
vn -0.5125 0.5709 0.6414
vn -0.9928 0.0023 0.1198
vn 0.6114 -0.5686 0.5503
vn 0.7104 -0.7038 -0.0033
vn -0.0781 0.0009 -0.9969
vn -0.0755 0.0042 -0.9971
vn -0.0791 0.0004 -0.9969
vn 0.1819 0.7030 0.6875
vn 0.0780 -0.2354 0.9688
vn -0.0121 0.5051 0.8630
vn 0.0103 0.9882 0.1530
vn -0.1680 0.7595 0.6284
vn 0.0033 -0.9991 0.0419
vn 0.3147 0.9489 -0.0249
vn -0.0226 0.9995 0.0227
vn -0.0258 0.9995 -0.0189
vn 0.3874 0.9197 0.0635
vn -0.3151 0.9487 0.0249
vn -0.5880 0.6804 -0.4374
vn 0.0139 0.9997 -0.0181
vn 0.4052 0.4897 0.7720
vn 0.0047 0.8935 -0.4490
vn -0.0455 0.7928 -0.6077
vn -0.0002 1.0000 -0.0029
vn 0.5668 0.8226 -0.0454
vn -0.5642 0.8244 0.0441
vn 0.7667 0.5938 -0.2442
vn 0.9500 -0.2576 0.1764
vn 0.6979 -0.2372 -0.6758
vn -0.7472 0.4955 -0.4429
vn -0.1003 0.4709 0.8765
vn 0.3356 0.5637 0.7547
vn -0.2648 0.0533 0.9628
vn 0.5022 0.0489 0.8634
vn 0.8609 0.3356 -0.3825
vn 0.4104 -0.0739 0.9089
vn 0.7853 0.5376 -0.3070
vn -0.8502 0.3372 0.4043
vn -0.4088 0.1850 -0.8937
vn -0.7505 0.5367 0.3856
vn 0.9608 0.0609 0.2706
vn 0.8558 0.0618 -0.5136
vn 0.7406 0.5806 -0.3384
vn 0.2648 0.0531 -0.9629
vn -0.3356 0.5637 -0.7547
vn -0.7406 0.5806 0.3384
vn -0.9608 0.0607 -0.2706
vn -0.8558 0.0617 0.5136
vn -0.5023 0.0488 -0.8633
vn 0.3682 0.4582 0.8090
vn -0.6719 0.6803 0.2930
vn -0.3193 0.6310 -0.7071
vn 0.6617 0.6817 -0.3123
vn -0.8821 -0.2760 0.3817
vn 0.4170 -0.0318 0.9083
vn 0.3394 0.5326 0.7753
vn 0.8732 -0.2746 -0.4028
vn -0.4150 -0.0931 -0.9050
vn -0.3718 0.3967 -0.8393
vn 0.2519 0.4441 0.8598
vn -0.7100 0.1412 0.6898
vn 0.3437 0.1252 0.9307
vn 0.9058 0.3364 -0.2575
vn 0.2809 -0.0742 0.9569
vn 0.8202 0.5376 -0.1956
vn -0.8986 0.3374 0.2807
vn -0.2797 0.1843 -0.9422
vn -0.7963 0.5370 0.2784
vn 0.9263 0.1124 0.3595
vn 0.6521 0.1409 -0.7450
vn 0.8515 0.4645 -0.2435
vn -0.2448 0.4327 -0.8677
vn -0.8561 0.4535 0.2478
vn -0.7231 0.1399 -0.6764
vn 0.2519 0.4586 0.8522
vn -0.7062 0.6802 0.1966
vn -0.2184 0.6313 -0.7441
vn 0.6991 0.6811 -0.2178
vn -0.9259 -0.2765 0.2573
vn 0.2853 -0.0315 0.9579
vn 0.2327 0.5318 0.8143
vn 0.9197 -0.2755 -0.2796
vn -0.2840 -0.0927 -0.9543
vn -0.2547 0.3959 -0.8823
vn 0.8979 -0.0697 -0.4347
vn 0.2985 -0.0438 -0.9534
vn -0.9172 -0.0477 0.3955
vn -0.3441 -0.0682 0.9365
vn -0.3729 -0.0417 -0.9269
vn -0.9410 -0.0459 -0.3353
vn 0.2288 0.0013 -0.9735
vn 0.8351 0.0020 -0.5500
vn 0.8365 -0.0009 -0.5479
vn -0.9663 -0.0005 -0.2576
vn -0.7867 -0.5690 -0.2394
vn -0.8861 -0.0081 0.4635
vn 0.1817 -0.5683 -0.8025
vn -0.8815 0.0038 0.4722
vn -0.7913 0.5682 -0.2257
vn 0.1813 0.5683 -0.8026
vn -0.9718 -0.0003 -0.2357
vn -0.8021 0.5681 -0.1842
vn -0.5382 0.0027 -0.8428
vn -0.2571 0.0007 0.9664
vn -0.2220 -0.5681 0.7924
vn 0.4827 -0.0030 0.8758
vn 0.4762 0.0065 0.8793
vn -0.2307 0.5705 0.7882
vn -0.5456 -0.0067 -0.8380
vn -0.8028 -0.5705 -0.1733
vn 0.9718 -0.0003 0.2357
vn 0.8021 0.5681 0.1842
vn 0.5382 0.0027 0.8428
vn 0.2571 0.0007 -0.9664
vn 0.2220 -0.5681 -0.7924
vn -0.4827 -0.0030 -0.8758
vn -0.4762 0.0065 -0.8793
vn 0.2307 0.5705 -0.7882
vn 0.5456 -0.0067 0.8380
vn 0.8028 -0.5705 0.1733
vn 0.5110 -0.0000 0.8596
vn -0.5727 0.7097 -0.4104
vn -0.4973 -0.2349 -0.8352
vn -0.4459 0.4885 -0.7500
vn -0.0194 -0.9993 -0.0308
vn -0.0215 -0.9991 -0.0361
vn -0.0876 0.7089 -0.6998
vn -0.0156 -0.9995 -0.0263
vn 0.8806 0.0005 -0.4739
vn 0.7897 0.5707 0.2251
vn 0.9644 0.0010 0.2643
vn -0.8305 -0.0080 0.5570
vn -0.1655 -0.5690 0.8055
vn -0.2351 -0.0008 0.9720
vn -0.1780 0.5706 0.8017
vn -0.8378 0.0023 0.5459
vn 0.7918 -0.5683 0.2237
vn 0.8810 -0.0009 -0.4732
vn -0.5110 -0.0000 -0.8596
vn 0.5784 0.7046 0.4111
vn 0.4961 -0.2350 0.8359
vn 0.4455 0.4900 0.7493
vn 0.0178 -0.9993 0.0317
vn 0.0156 -0.9995 0.0263
vn 0.0842 0.7053 0.7039
vn 0.0215 -0.9991 0.0361
vn -0.0853 -0.0008 -0.9964
vn 0.6215 0.0023 -0.7834
vn 0.6110 -0.0080 -0.7916
vn -0.9985 0.0010 0.0552
vn -0.8219 -0.5683 0.0389
vn -0.6854 -0.0009 0.7281
vn -0.0985 -0.5690 -0.8164
vn -0.6848 0.0005 0.7287
vn -0.8203 0.5707 0.0370
vn -0.0854 0.5706 -0.8168
vn -0.9964 -0.0005 0.0848
vn -0.8178 0.5698 0.0806
vn -0.7762 0.0016 -0.6305
vn 0.0628 0.0008 0.9980
vn 0.0408 -0.5681 0.8219
vn 0.7356 -0.0030 0.6775
vn 0.7287 0.0077 0.6848
vn 0.0313 0.5672 0.8230
vn -0.7832 -0.0067 -0.6218
vn -0.8163 -0.5705 0.0902
vn 0.9964 -0.0005 -0.0845
vn 0.8191 0.5681 -0.0797
vn 0.7777 0.0027 0.6286
vn -0.0625 0.0009 -0.9980
vn -0.0398 -0.5698 -0.8208
vn -0.7372 -0.0019 -0.6756
vn -0.7305 0.0065 -0.6829
vn -0.0312 0.5705 -0.8207
vn 0.7848 -0.0079 0.6197
vn 0.8185 -0.5673 -0.0906
vn 0.7572 -0.0000 0.6531
vn -0.6789 0.7046 -0.2064
vn -0.7356 -0.2350 -0.6354
vn -0.6601 0.4900 -0.5694
vn -0.0270 -0.9993 -0.0245
vn -0.0232 -0.9995 -0.0200
vn -0.3030 0.7053 -0.6409
vn -0.0318 -0.9991 -0.0274
vn 0.6873 0.0020 -0.7264
vn 0.8219 0.5683 -0.0385
vn 0.9985 0.0013 -0.0554
vn -0.6110 -0.0080 0.7916
vn 0.0985 -0.5690 0.8164
vn 0.0850 -0.0005 0.9964
vn 0.0842 0.5682 0.8186
vn -0.6187 0.0038 0.7856
vn 0.8219 -0.5683 -0.0389
vn 0.6854 -0.0009 -0.7281
vn -0.7572 -0.0000 -0.6531
vn 0.6738 0.7089 0.2083
vn 0.7356 -0.2349 0.6354
vn 0.6607 0.4885 0.5699
vn 0.0270 -0.9993 0.0245
vn 0.0232 -0.9995 0.0200
vn 0.3042 0.7097 0.6355
vn 0.0318 -0.9991 0.0274
vn -0.4694 -0.1944 -0.8613
vn -0.7050 -0.6781 -0.2077
vn 0.0930 0.9809 0.1707
vn 0.7808 0.5197 0.3468
vn -0.2986 -0.0000 -0.9544
vn 0.3468 -0.5197 -0.7808
vn 0.2986 -0.0000 0.9544
vn -0.3468 -0.5197 0.7808
vn 0.4694 -0.1944 0.8613
vn 0.7050 -0.6781 0.2077
vn -0.7050 0.6781 -0.2077
vn -0.5887 0.7419 0.3208
vn -0.0000 1.0000 -0.0000
vn 0.5887 -0.7420 -0.3208
vn 0.9236 0.2699 0.2721
vn 0.4694 0.1945 0.8613
vn -0.7270 -0.6809 0.0887
vn -0.7808 -0.5197 -0.3468
vn -0.0930 -0.9809 -0.1707
vn -0.9236 0.2699 -0.2721
vn -0.4694 0.1945 -0.8613
vn 0.7270 0.6809 -0.0888
vn -0.0930 0.9809 -0.1707
vn 0.1318 0.5197 -0.8441
vn 0.0930 -0.9809 0.1707
vn 0.7808 -0.5197 0.3468
vn -0.4694 0.1944 -0.8613
vn 0.2337 -0.0000 -0.9723
vn 0.0888 -0.6809 0.7270
vn -0.0887 -0.6809 -0.7270
vn -0.6401 -0.0000 -0.7683
vn -0.8441 -0.5197 -0.1319
vn 0.6401 -0.0000 0.7683
vn 0.8441 -0.5197 0.1319
vn 0.4940 -0.6124 -0.6171
vn 0.5098 -0.6126 -0.6040
vn -0.6357 -0.5830 -0.5060
vn -0.8076 -0.0378 -0.5886
vn -0.6944 0.1671 -0.6999
vn -0.7973 0.3968 -0.4549
vn 0.5562 -0.0854 -0.8267
vn 0.6025 -0.6341 0.4846
vn -0.4844 -0.3765 0.7897
vn 0.7421 -0.4036 0.5351
vn -0.5957 0.2703 -0.7563
vn 0.6431 0.1811 -0.7441
vn -0.6097 0.3258 0.7226
vn 0.5531 0.4736 -0.6854
vn -0.0075 0.9986 -0.0530
vn -0.0346 -0.9994 0.0001
vn 0.9969 -0.0000 -0.0789
vn -0.0320 0.9995 0.0022
vn 0.0320 -0.9995 -0.0028
vn -0.9969 -0.0000 0.0789
vn 0.0343 0.9994 -0.0054
vn -0.0000 -1.0000 -0.0000
vn 0.0861 0.9901 0.1108
vn 0.0793 0.0009 0.9969
vn -0.6083 0.7909 -0.0664
vn -0.0649 0.9903 -0.1232
vn -0.0801 -0.0000 -0.9968
vn 0.0075 0.9986 0.0515
vn -0.0789 -0.0000 -0.9969
vn 0.3535 0.9256 0.1354
vn -0.8693 0.4894 0.0696
vn -0.9262 0.3697 0.0744
vn -0.9261 0.3697 0.0744
vn 0.9879 -0.1287 -0.0865
vn 0.9886 0.1306 -0.0751
vn 0.9878 0.1375 -0.0738
vn 0.9864 -0.1401 -0.0854
vn -0.0732 -0.3861 -0.9196
vn -0.0670 -0.5197 -0.8517
vn 0.5158 -0.5272 -0.6752
vn 0.5618 -0.3877 -0.7308
vn 0.5632 -0.3823 -0.7326
vn 0.7321 -0.1376 0.6672
vn 0.7354 -0.1213 0.6667
vn 0.7419 0.1207 0.6596
vn 0.7391 0.1387 0.6591
vn -0.7326 -0.1397 -0.6662
vn -0.7348 -0.1288 -0.6659
vn -0.7424 0.1271 -0.6578
vn -0.7398 0.1439 -0.6572
vn 0.9149 -0.3996 -0.0577
vn 0.8419 -0.5381 -0.0407
vn 0.9187 -0.3905 -0.0587
vn 0.3565 0.9280 -0.1078
vn 0.0165 0.9997 0.0157
vn -0.5127 0.6797 0.5245
vn 0.0426 0.8983 0.4373
vn -0.6046 0.5169 0.6060
vn -0.6239 -0.1332 0.7700
vn -0.6317 0.1394 0.7625
vn -0.6336 0.1267 0.7632
vn -0.6257 -0.1248 0.7700
vn 0.0861 -0.1275 0.9881
vn 0.0862 -0.1265 0.9882
vn 0.0960 0.1270 0.9872
vn 0.0960 0.1325 0.9865
vn -0.6636 -0.3996 -0.6324
vn -0.6146 -0.5283 -0.5857
vn -0.6670 -0.3887 -0.6357
vn -0.8401 -0.5382 0.0675
vn -0.9158 -0.3925 0.0856
vn -0.9144 -0.3958 0.0852
vn -0.9863 -0.1316 0.0995
vn -0.9871 0.1334 0.0888
vn -0.9869 0.1349 0.0887
vn -0.9856 -0.1366 0.0995
vn 0.6639 -0.3970 0.6337
vn 0.6136 -0.5294 0.5859
vn 0.6669 -0.3873 0.6366
vn 0.6236 -0.1317 -0.7706
vn 0.6309 0.1345 -0.7641
vn 0.6316 0.1305 -0.7643
vn 0.6243 -0.1283 -0.7706
vn -0.0784 -0.1274 -0.9887
vn -0.0658 0.1261 -0.9898
vn -0.0649 0.1346 -0.9888
vn -0.0784 -0.1271 -0.9888
vn -0.5629 -0.3833 0.7323
vn -0.5610 -0.3904 0.7300
vn 0.0723 -0.3861 0.9196
vn 0.0678 -0.5197 0.8516
vn -0.6470 0.4168 -0.6385
vn -0.6553 0.4010 -0.6402
vn -0.5591 0.5588 -0.6125
vn -0.0422 0.4174 -0.9078
vn -0.0425 0.4105 -0.9109
vn 0.4530 0.5559 -0.6969
vn 0.5460 0.3986 -0.7369
vn 0.5382 0.4138 -0.7343
vn 0.9269 0.3724 -0.0459
vn 0.9290 0.3672 -0.0461
vn 0.8710 0.4895 -0.0414
vn 0.6426 0.4186 0.6418
vn 0.6524 0.4000 0.6437
vn 0.5516 0.5633 0.6151
vn 0.0856 0.4107 0.9077
vn 0.0853 0.4145 0.9061
vn -0.5475 0.4013 0.7343
vn -0.5409 0.4141 0.7321
vn -0.4552 0.5568 0.6948
vn -0.5933 -0.4173 0.6884
vn -0.5946 -0.2585 -0.7613
vn -0.5150 -0.5282 0.6751
vn -0.9403 -0.3083 0.1445
vn -0.8084 -0.3367 0.4828
vn -0.2232 -0.3350 0.9154
vn 0.8085 -0.3366 -0.4827
vn 0.2233 -0.3351 -0.9153
vn 0.9403 -0.3081 -0.1444
vn -0.4671 -0.3332 -0.8191
vn -0.7436 -0.3201 -0.5870
vn 0.4671 -0.3330 0.8191
vn 0.7883 -0.4939 -0.3669
vn -0.3441 -0.5255 -0.7781
vn -0.7883 -0.4939 0.3669
vn 0.3441 -0.5255 0.7781
vn 0.7437 -0.3199 0.5870
vn 0.8318 -0.4952 -0.2508
vn -0.2359 -0.5243 -0.8182
vn -0.8318 -0.4952 0.2508
vn 0.2359 -0.5242 0.8182
vn 0.9341 -0.0619 0.3515
vn 0.3331 -0.0612 0.9409
vn -0.0254 0.9988 -0.0420
vn -0.0275 -0.9995 0.0167
vn 0.8596 -0.0000 -0.5110
vn -0.0278 0.9995 0.0161
vn 0.0275 -0.9995 -0.0167
vn -0.8596 -0.0000 0.5110
vn 0.0278 0.9995 -0.0161
vn -0.0248 0.9988 -0.0423
vn 0.5854 0.7174 -0.3778
vn -0.6115 0.7174 0.3338
vn 0.0229 0.9986 0.0484
vn 0.0316 0.9986 0.0433
vn -0.5838 0.7181 0.3789
vn 0.6118 0.7181 -0.3318
vn -0.0436 0.9986 -0.0310
vn -0.0208 -0.9995 0.0245
vn 0.6531 -0.0000 -0.7572
vn -0.0206 0.9994 0.0280
vn 0.0245 -0.9994 -0.0244
vn -0.6531 -0.0000 0.7572
vn 0.0212 0.9995 -0.0241
vn -0.0371 0.9986 -0.0386
vn 0.4335 0.7181 -0.5445
vn -0.4749 0.7181 0.5087
vn 0.0369 0.9988 0.0323
vn 0.0374 0.9988 0.0318
vn -0.4353 0.7174 0.5439
vn 0.4741 0.7174 -0.5105
vn -0.1707 0.9809 0.0930
vn 0.5628 -0.6809 0.4687
vn -0.5628 -0.6809 -0.4687
vn -0.5887 -0.7419 0.3208
vn -0.8613 -0.1944 0.4694
vn -0.9236 -0.2699 -0.2721
vn 0.8613 0.1945 -0.4694
vn 0.8613 -0.1945 -0.4694
vn 0.9236 -0.2699 0.2721
vn -0.8613 0.1945 0.4694
vn 0.1707 0.9809 -0.0930
vn 0.1069 0.9939 0.0281
vn -0.0305 0.9942 0.1035
vn -0.2336 0.5735 0.7852
vn 0.7844 0.5730 0.2375
vn -0.8371 0.0706 0.5425
vn -0.7866 0.5730 -0.2300
vn -0.9103 0.0683 0.4082
vn 0.5358 -0.0809 0.8404
vn 0.7771 -0.5827 0.2377
vn 0.5364 0.0697 0.8411
vn -0.0284 -0.9947 0.0984
vn -0.2364 -0.5820 0.7780
vn -0.7780 -0.5827 -0.2348
vn -0.0984 -0.9947 -0.0284
vn -0.4049 -0.0831 -0.9106
vn 0.2361 -0.5835 -0.7770
vn -0.5411 -0.0800 -0.8372
vn -0.9104 -0.0831 0.4053
vn -0.8375 -0.0801 0.5406
vn 0.0984 -0.9947 0.0284
vn 0.9129 -0.0822 -0.3999
vn 0.9130 0.0730 -0.4015
vn -0.1051 0.9939 -0.0343
vn -0.4082 0.0720 -0.9101
vn 0.2338 0.5725 -0.7859
vn 0.0284 -0.9947 -0.0984
vn 0.8402 -0.0809 -0.5363
vn 0.4004 -0.0822 0.9126
vn 0.4017 0.0692 0.9132
vn -0.5425 0.0744 -0.8367
vn 0.4785 -0.0000 0.8781
vn 0.4687 0.6809 -0.5628
vn 0.7270 -0.6809 -0.0888
vn 0.8781 -0.0000 -0.4785
vn -0.8781 -0.0000 0.4785
vn 0.8408 0.0734 -0.5363
vn -0.9437 -0.0000 -0.3307
vn 0.0320 0.9936 -0.1085
vn -0.7683 -0.0000 0.6401
vn -0.9544 -0.0000 0.2986
vn 0.7683 -0.0000 -0.6401
vt 0.831670 0.762127
vt 0.836118 0.901855
vt 0.843878 0.902335
vt 0.790711 0.762127
vt 0.787739 0.901832
vt 0.778505 0.901361
vt 0.792107 0.751970
vt 0.830274 0.751970
vt 0.824559 0.751970
vt 0.824821 0.762127
vt 0.835003 0.943952
vt 0.816641 0.901346
vt 0.797848 0.751970
vt 0.813978 0.759546
vt 0.833654 0.959649
vt 0.805572 0.899558
vt 0.794036 0.899558
vt 0.787589 0.899558
vt 0.802569 0.759546
vt 0.794036 0.868308
vt 0.808406 0.759546
vt 0.819815 0.759546
vt 0.833654 0.991824
vt 0.841213 0.929763
vt 0.816813 0.899558
vt 0.820285 0.799958
vt 0.820285 0.831208
vt 0.144407 0.572086
vt 0.152340 0.572086
vt 0.152106 0.572086
vt 0.150654 0.664518
vt 0.151654 0.688038
vt 0.158818 0.684143
vt 0.145294 0.571430
vt 0.145381 0.666849
vt 0.820009 0.826972
vt 0.811411 0.823986
vt 0.810674 0.830093
vt 0.797586 0.762127
vt 0.787381 0.901855
vt 0.805744 0.901361
vt 0.532728 0.863133
vt 0.532728 0.931615
vt 0.532728 0.794463
vt 0.595734 0.863101
vt 0.595734 0.794463
vt 0.595734 0.931615
vt 0.593371 0.863132
vt 0.593371 0.931615
vt 0.587858 0.931615
vt 0.593371 0.863211
vt 0.593371 0.794463
vt 0.587858 0.794463
vt 0.535091 0.863132
vt 0.535091 0.931615
vt 0.540604 0.931615
vt 0.535091 0.863211
vt 0.535091 0.794463
vt 0.540604 0.794463
vt 0.560761 0.915990
vt 0.564469 0.898403
vt 0.532728 0.778838
vt 0.560761 0.926287
vt 0.564231 0.868314
vt 0.564231 0.907404
vt 0.532728 0.915990
vt 0.564469 0.931615
vt 0.564231 0.931615
vt 0.567701 0.931615
vt 0.532728 0.763213
vt 0.595734 0.763213
vt 0.567701 0.926287
vt 0.532840 0.810668
vt 0.595473 0.811284
vt 0.564231 0.814382
vt 0.565318 0.903022
vt 0.595734 0.778838
vt 0.565318 0.931615
vt 0.595473 0.811284
vt 0.567676 0.970173
vt 0.576318 0.970173
vt 0.568490 0.970173
vt 0.566397 0.970173
vt 0.575455 0.970173
vt 0.535676 0.970173
vt 0.536963 0.970173
vt 0.527898 0.970173
vt 0.564931 0.938923
vt 0.557407 0.932339
vt 0.551676 0.938923
vt 0.545945 0.947964
vt 0.557407 0.947964
vt 0.565513 0.947964
vt 0.537840 0.947964
vt 0.304535 0.890562
vt 0.304450 0.799219
vt 0.309136 0.799219
vt 0.304714 0.942852
vt 0.312652 0.941170
vt 0.306511 0.941170
vt 0.833505 0.960542
vt 0.805873 0.897143
vt 0.810439 0.882452
vt 0.802735 0.871854
vt 0.816512 0.915005
vt 0.809452 0.889457
vt 0.819649 0.883945
vt 0.833810 0.991824
vt 0.841046 0.929181
vt 0.145845 0.517948
vt 0.152196 0.517949
vt 0.150523 0.517948
vt 0.152194 0.572086
vt 0.160076 0.621570
vt 0.160076 0.621430
vt 0.159189 0.571430
vt 0.158782 0.684649
vt 0.153415 0.666849
vt 0.151108 0.682796
vt 0.145701 0.666849
vt 0.819993 0.827138
vt 0.811114 0.823986
vt 0.811135 0.830093
vt 0.802391 0.827138
vt 0.811271 0.837446
vt 0.807406 0.830093
vt 0.837149 0.944910
vt 0.810451 0.882463
vt 0.809437 0.889399
vt 0.819649 0.883824
vt 0.790957 0.883234
vt 0.826298 0.951046
vt 0.145842 0.517948
vt 0.152213 0.517948
vt 0.152212 0.572086
vt 0.160076 0.621054
vt 0.160076 0.620965
vt 0.158795 0.684463
vt 0.153446 0.666849
vt 0.151078 0.682591
vt 0.145688 0.666849
vt 0.819994 0.827127
vt 0.811143 0.823986
vt 0.811156 0.830093
vt 0.802390 0.827127
vt 0.811242 0.837339
vt 0.781818 0.916089
vt 0.788412 0.763814
vt 0.792992 0.763322
vt 0.840567 0.916089
vt 0.833736 0.763801
vt 0.829394 0.763326
vt 0.827846 0.942724
vt 0.815894 0.763723
vt 0.829415 0.764323
vt 0.564231 0.897108
vt 0.564231 0.778838
vt 0.567701 0.915990
vt 0.564231 0.763213
vt 0.532914 0.810983
vt 0.595622 0.810643
vt 0.595473 0.811284
vt 0.595473 0.811284
vt 0.210171 0.782127
vt 0.208123 0.794732
vt 0.154330 0.794732
vt 0.152281 0.855510
vt 0.154330 0.858008
vt 0.208123 0.858008
vt 0.138976 0.817404
vt 0.149312 0.819903
vt 0.149312 0.885495
vt 0.223476 0.817404
vt 0.213140 0.819903
vt 0.213140 0.885495
vt 0.152281 0.782127
vt 0.518044 0.970922
vt 0.540387 0.919800
vt 0.585066 0.774823
vt 0.585066 0.774823
vt 0.562726 0.825945
vt 0.562726 0.970922
vt 0.585066 0.919800
vt 0.210171 0.904218
vt 0.208123 0.891613
vt 0.152281 0.904218
vt 0.152281 0.868941
vt 0.154330 0.866442
vt 0.210171 0.868941
vt 0.154330 0.891613
vt 0.210171 0.855510
vt 0.208123 0.866442
vt 0.208123 0.858008
vt 0.154330 0.866442
vt 0.208123 0.866442
vt 0.208123 0.891613
vt 0.585066 0.843615
vt 0.585066 0.953252
vt 0.562726 0.902130
vt 0.223476 0.887994
vt 0.138976 0.887994
vt 0.802100 0.799958
vt 0.811839 0.815491
vt 0.151860 0.609484
vt 0.152629 0.630992
vt 0.811411 0.799958
vt 0.160076 0.566024
vt 0.160076 0.517948
vt 0.156475 0.517949
vt 0.152106 0.517948
vt 0.151860 0.555346
vt 0.153960 0.614101
vt 0.157561 0.614101
vt 0.144407 0.517948
vt 0.148008 0.517948
vt 0.146922 0.517948
vt 0.160076 0.620162
vt 0.160076 0.620163
vt 0.802100 0.823986
vt 0.811839 0.839519
vt 0.801885 0.830093
vt 0.812552 0.881850
vt 0.819027 0.897143
vt 0.819649 0.871854
vt 0.819870 0.859719
vt 0.814978 0.861343
vt 0.594751 0.857972
vt 0.533711 0.857972
vt 0.533711 0.799476
vt 0.594751 0.799476
vt 0.594751 0.868314
vt 0.594751 0.926287
vt 0.560761 0.962865
vt 0.532728 0.962865
vt 0.594159 0.857972
vt 0.594159 0.799476
vt 0.593371 0.763213
vt 0.587858 0.763213
vt 0.587858 0.778838
vt 0.587858 0.915990
vt 0.593371 0.962865
vt 0.587858 0.962865
vt 0.594159 0.926287
vt 0.594159 0.868314
vt 0.534303 0.857972
vt 0.534303 0.799476
vt 0.535091 0.763213
vt 0.540604 0.763213
vt 0.540604 0.778838
vt 0.540604 0.915990
vt 0.540604 0.962865
vt 0.535091 0.962865
vt 0.534303 0.926287
vt 0.534303 0.868314
vt 0.540604 0.842856
vt 0.587858 0.842856
vt 0.595734 0.962865
vt 0.567701 0.962865
vt 0.595734 0.915990
vt 0.533711 0.926287
vt 0.533711 0.868314
vt 0.560761 0.978490
vt 0.560761 0.975368
vt 0.564231 0.978490
vt 0.560761 0.975505
vt 0.576318 0.919358
vt 0.581453 0.902913
vt 0.573665 0.944019
vt 0.570033 0.959287
vt 0.537840 0.932339
vt 0.545945 0.932339
vt 0.538422 0.938923
vt 0.535676 0.938923
vt 0.527304 0.908389
vt 0.527304 0.927570
vt 0.518510 0.885817
vt 0.518510 0.866635
vt 0.552996 0.850187
vt 0.552996 0.812570
vt 0.568167 0.852499
vt 0.571799 0.891293
vt 0.535185 0.831833
vt 0.550357 0.831833
vt 0.550357 0.870038
vt 0.531554 0.870038
vt 0.527304 0.886810
vt 0.518510 0.886810
vt 0.518510 0.905992
vt 0.527304 0.905992
vt 0.576049 0.886810
vt 0.584842 0.886810
vt 0.584842 0.905992
vt 0.576049 0.905992
vt 0.521899 0.850187
vt 0.527035 0.812570
vt 0.533319 0.852499
vt 0.529688 0.891293
vt 0.565513 0.932339
vt 0.567676 0.938923
vt 0.568167 0.970173
vt 0.551676 0.970173
vt 0.535185 0.970173
vt 0.552217 0.970173
vt 0.527035 0.970173
vt 0.534862 0.970173
vt 0.552978 0.886810
vt 0.552978 0.905992
vt 0.574208 0.905992
vt 0.574208 0.886810
vt 0.550375 0.866635
vt 0.529145 0.908389
vt 0.529145 0.927570
vt 0.550374 0.885817
vt 0.573665 0.870038
vt 0.570033 0.831833
vt 0.576318 0.831833
vt 0.581453 0.870038
vt 0.576318 0.812570
vt 0.570033 0.852499
vt 0.573665 0.891293
vt 0.581453 0.850187
vt 0.576049 0.908389
vt 0.576049 0.927570
vt 0.584842 0.885817
vt 0.584843 0.866635
vt 0.529688 0.870038
vt 0.533319 0.831833
vt 0.527035 0.831833
vt 0.521899 0.870038
vt 0.550374 0.886810
vt 0.550375 0.905992
vt 0.529145 0.905992
vt 0.529145 0.886810
vt 0.574208 0.908389
vt 0.574208 0.927570
vt 0.552978 0.885817
vt 0.552978 0.866635
vt 0.207757 0.901046
vt 0.183174 0.901046
vt 0.183174 0.923419
vt 0.209192 0.923419
vt 0.158591 0.901046
vt 0.157157 0.923419
vt 0.550357 0.812570
vt 0.535185 0.852499
vt 0.531554 0.891292
vt 0.550357 0.850187
vt 0.219968 0.923419
vt 0.217939 0.901046
vt 0.573665 0.922764
vt 0.581453 0.922764
vt 0.576318 0.938620
vt 0.570033 0.938620
vt 0.552996 0.902913
vt 0.571799 0.944019
vt 0.568167 0.959287
vt 0.552996 0.919358
vt 0.535185 0.938620
vt 0.531554 0.922764
vt 0.550357 0.922764
vt 0.550357 0.938620
vt 0.521899 0.902913
vt 0.529688 0.944019
vt 0.533319 0.959287
vt 0.527035 0.919358
vt 0.146380 0.923419
vt 0.148409 0.901046
vt 0.529688 0.922764
vt 0.521899 0.922764
vt 0.527035 0.938620
vt 0.533319 0.938620
vt 0.183174 0.922282
vt 0.157157 0.922282
vt 0.158591 0.944655
vt 0.183174 0.944655
vt 0.209192 0.922282
vt 0.219968 0.922282
vt 0.217939 0.944655
vt 0.207757 0.944655
vt 0.146380 0.922282
vt 0.148409 0.944655
vt 0.550357 0.919358
vt 0.550357 0.902913
vt 0.531554 0.944019
vt 0.535185 0.959287
vt 0.568167 0.938620
vt 0.571799 0.922764
vt 0.552996 0.922764
vt 0.552996 0.938620
vt 0.306511 0.890562
vt 0.309538 0.799219
vt 0.312652 0.890562
vt 0.568167 0.831833
vt 0.552996 0.831833
vt 0.552996 0.870038
vt 0.571799 0.870038
vt 0.830474 0.762127
vt 0.833848 0.762127
vt 0.843837 0.901660
vt 0.835012 0.945147
vt 0.836056 0.900720
vt 0.833611 0.762127
vt 0.787728 0.900699
vt 0.778546 0.900720
vt 0.788774 0.762127
vt 0.791911 0.762127
vt 0.787372 0.902839
vt 0.788536 0.762127
vt 0.816695 0.899099
vt 0.817484 0.762127
vt 0.829339 0.762127
vt 0.805690 0.899111
vt 0.806507 0.762127
vt 0.793046 0.762127
vt 0.815878 0.762127
vt 0.811271 0.813418
vt 0.152287 0.621445
vt 0.152290 0.621520
vt 0.820285 0.816022
vt 0.811114 0.799958
vt 0.803358 0.897143
vt 0.160076 0.539078
vt 0.819997 0.858350
vt 0.802388 0.827100
vt 0.804901 0.762127
vt 0.811242 0.813311
vt 0.152270 0.620969
vt 0.152272 0.621018
vt 0.820285 0.815861
vt 0.811143 0.799958
vt 0.160076 0.538930
vt 0.819997 0.858353
vt 0.802388 0.827103
vt 0.785532 0.916089
vt 0.792970 0.763803
vt 0.804901 0.763734
vt 0.787250 0.916089
vt 0.803742 0.916089
vt 0.806098 0.916089
vt 0.816286 0.916089
vt 0.560761 0.975881
vt 0.560761 0.975365
vt 0.560761 0.975365
vt 0.213140 0.858008
vt 0.223476 0.855510
vt 0.149312 0.866442
vt 0.138976 0.868941
vt 0.213140 0.866442
vt 0.223476 0.868941
vt 0.149312 0.858008
vt 0.138976 0.855510
vt 0.152281 0.942324
vt 0.210171 0.942324
vt 0.215669 0.942324
vt 0.146783 0.942324
vt 0.223476 0.907047
vt 0.223476 0.918119
vt 0.152281 0.836457
vt 0.143201 0.829752
vt 0.143201 0.913751
vt 0.152281 0.907047
vt 0.210171 0.801180
vt 0.219251 0.801180
vt 0.146783 0.825384
vt 0.215669 0.825384
vt 0.210171 0.836457
vt 0.223476 0.836457
vt 0.223476 0.825384
vt 0.152281 0.801180
vt 0.146783 0.801180
vt 0.215669 0.801180
vt 0.138976 0.836457
vt 0.138976 0.907047
vt 0.138976 0.913751
vt 0.138976 0.829752
vt 0.219251 0.942324
vt 0.518044 0.825945
vt 0.540387 0.774823
vt 0.143201 0.801180
vt 0.138976 0.825384
vt 0.210171 0.907047
vt 0.219251 0.913751
vt 0.219251 0.829752
vt 0.223476 0.829752
vt 0.223476 0.913751
vt 0.540387 0.792493
vt 0.518044 0.843615
vt 0.518044 0.953252
vt 0.540387 0.902130
vt 0.511795 0.893901
vt 0.511795 0.806234
vt 0.591318 0.893901
vt 0.591318 0.806234
vt 0.518044 0.792493
vt 0.540387 0.843615
vt 0.518044 0.902130
vt 0.215669 0.918119
vt 0.146783 0.918119
vt 0.138976 0.918119
vt 0.143201 0.942324
vt 0.154330 0.885495
vt 0.154330 0.819903
vt 0.152281 0.817404
vt 0.152281 0.887994
vt 0.208123 0.885495
vt 0.210171 0.887994
vt 0.210171 0.817404
vt 0.208123 0.819903
s 1
usemtl texture.135
f 8/1/1 3/2/2 6/3/3
f 28/4/4 31/5/5 4/6/6
f 28/7/7 8/8/1 30/9/8
f 30/10/8 2/11/9 7/12/10
f 29/13/11 8/8/1 28/7/7
f 9/14/12 3/15/2 5/16/13
f 1/17/14 4/18/6 11/19/15
f 4/18/6 31/20/5 11/19/15
f 12/21/16 11/19/15 31/20/5
f 10/22/17 2/23/9 6/24/3
f 7/25/10 12/21/16 31/20/5
f 10/22/18 24/26/19 25/27/20
f 7/25/10 2/23/9 12/14/16
f 10/22/17 12/14/16 2/23/9
f 6/24/3 3/15/2 10/22/17
f 9/14/12 10/22/17 3/15/2
f 5/16/13 1/17/14 9/21/12
f 11/19/15 9/21/12 1/17/14
f 17/28/21 20/29/22 13/30/23
f 20/31/22 22/32/24 21/33/25
f 20/34/22 17/35/21 22/32/24
f 24/36/19 23/37/26 14/38/27
f 29/39/11 1/40/14 5/41/13
f 35/42/28 41/43/29 36/44/30
f 32/45/31 33/46/32 34/46/33
f 36/44/30 37/44/34 35/42/28
f 34/46/33 39/47/35 32/45/31
f 39/47/35 38/47/36 32/45/31
f 35/42/28 40/43/37 41/43/29
f 45/48/38 50/49/39 51/50/40
f 42/51/41 43/52/42 44/53/43
f 44/53/43 49/50/44 42/51/41
f 49/50/44 48/49/45 42/51/41
f 46/53/46 45/48/38 51/50/40
f 46/53/46 47/52/47 45/48/38
f 55/54/48 60/55/49 61/56/50
f 52/57/51 53/58/52 54/59/53
f 54/59/53 59/56/54 52/57/51
f 59/56/54 58/55/55 52/57/51
f 56/59/56 55/54/48 61/56/50
f 56/59/56 57/58/57 55/54/48
f 74/60/58 75/61/59 36/62/60
f 72/63/61 70/64/62 73/65/63
f 74/60/58 36/62/60 41/66/64
f 75/67/65 73/68/63 71/69/66
f 36/70/30 34/71/67 33/71/32
f 71/72/66 73/65/63 70/64/62
f 35/73/28 32/74/31 70/75/62
f 37/70/34 36/70/30 33/71/32
f 80/47/68 81/47/69 79/45/70
f 83/44/71 82/44/72 76/42/73
f 76/42/73 78/43/74 77/43/75
f 76/42/73 77/43/75 83/44/71
f 79/45/70 85/46/76 84/46/77
f 84/46/77 80/47/68 79/45/70
f 90/60/78 91/76/79 84/77/80
f 88/63/81 86/64/82 89/65/83
f 91/78/84 89/68/83 87/69/85
f 87/72/85 89/65/83 86/64/82
f 76/73/73 79/79/70 86/75/82
f 83/70/86 84/71/77 82/70/72
f 82/70/72 84/71/77 85/71/76
f 93/80/87 144/81/88 142/82/89
f 93/80/87 94/83/90 144/84/88
f 96/85/91 97/86/92 150/87/93
f 94/88/90 132/89/94 95/90/95
f 98/91/96 132/92/97 131/93/98
f 98/91/96 133/94/99 132/92/97
f 135/95/100 134/96/101 137/97/102
f 135/98/100 139/99/103 138/100/104
f 159/14/105 154/101/106 156/16/107
f 165/102/108 164/103/109 174/104/110
f 167/105/111 166/106/112 172/107/113
f 152/17/114 155/18/115 161/19/116
f 155/18/115 183/20/117 161/19/116
f 162/21/118 161/19/116 183/20/117
f 160/22/119 153/108/120 157/109/121
f 158/25/122 162/21/118 183/20/117
f 158/25/122 153/108/120 162/14/118
f 160/22/119 162/14/118 153/108/120
f 157/109/121 154/101/106 160/22/119
f 159/14/105 160/22/119 154/101/106
f 156/16/107 152/17/114 159/21/105
f 161/19/116 159/21/105 152/17/114
f 165/110/108 163/111/123 164/112/109
f 163/113/123 169/114/124 167/115/111
f 168/116/125 169/117/124 163/118/123
f 168/119/125 163/118/123 170/120/126
f 172/121/127 171/122/128 164/123/129
f 174/124/130 173/125/131 166/126/132
f 189/14/133 187/127/134 188/16/135
f 195/102/136 194/128/137 204/104/138
f 197/105/139 196/129/140 202/130/141
f 185/17/142 184/131/143 191/19/144
f 192/21/145 191/19/144 184/131/143
f 190/22/146 186/132/147 187/127/134
f 186/132/147 192/21/145 184/131/143
f 30/10/8 8/1/1 6/3/3 2/11/9
f 190/22/146 192/14/145 186/132/147
f 189/14/133 190/22/146 187/127/134
f 188/16/135 185/17/142 189/21/133
f 191/19/144 189/21/133 185/17/142
f 195/133/136 193/134/148 194/112/137
f 193/135/148 199/136/149 197/137/139
f 198/116/150 199/138/149 193/139/148
f 198/140/150 193/139/148 200/141/151
f 202/142/152 201/143/153 194/144/154
f 204/145/155 203/146/156 196/126/157
f 184/147/143 209/148/158 205/149/159
f 187/150/134 211/151/160 208/152/161
f 186/153/147 212/154/162 207/155/163
f 216/42/164 222/43/165 217/44/166
f 213/45/167 214/46/168 215/46/169
f 217/44/166 218/44/170 216/42/164
f 215/46/169 220/47/171 213/45/167
f 220/47/171 219/47/172 213/45/167
f 216/42/164 221/43/173 222/43/165
f 226/48/174 231/49/175 232/50/176
f 223/51/177 224/52/178 225/53/179
f 225/53/179 230/50/180 223/51/177
f 230/50/180 229/49/181 223/51/177
f 227/53/182 226/48/174 232/50/176
f 227/53/182 228/52/183 226/48/174
f 236/54/184 241/55/185 242/56/186
f 233/57/187 234/58/188 235/59/189
f 235/59/189 240/56/190 233/57/187
f 240/56/190 239/55/191 233/57/187
f 237/59/192 236/54/184 242/56/186
f 237/59/192 238/58/193 236/54/184
f 256/60/194 258/156/194 251/157/194
f 254/63/195 252/64/196 255/65/197
f 258/156/194 257/158/194 251/157/194
f 251/159/198 215/71/199 214/71/168
f 253/72/200 255/65/197 252/64/196
f 216/160/164 213/161/167 252/75/196
f 217/70/201 251/159/198 218/70/170
f 218/70/170 251/159/198 214/71/168
f 263/47/202 264/47/203 262/45/204
f 266/44/205 265/44/206 259/42/207
f 259/42/207 261/43/208 260/43/209
f 259/42/207 260/43/209 266/44/205
f 262/45/204 268/46/210 267/46/211
f 267/46/211 263/47/202 262/45/204
f 274/60/212 276/156/212 269/157/212
f 272/63/213 270/64/214 273/65/215
f 276/156/212 275/158/212 269/157/212
f 269/159/216 267/71/217 268/71/210
f 271/72/218 273/65/215 270/64/214
f 259/73/207 262/162/204 270/75/214
f 266/70/219 269/159/216 265/70/206
f 265/70/206 269/159/216 268/71/210
f 280/42/220 286/43/221 281/44/222
f 277/45/223 278/46/224 279/46/225
f 281/44/222 282/44/226 280/42/220
f 279/46/225 284/47/227 277/45/223
f 284/47/227 283/47/228 277/45/223
f 280/42/220 285/43/229 286/43/221
f 290/48/230 295/49/231 296/50/232
f 287/51/233 288/52/234 289/53/235
f 289/53/235 294/50/236 287/51/233
f 294/50/236 293/49/237 287/51/233
f 291/53/238 290/48/230 296/50/232
f 291/53/238 292/52/239 290/48/230
f 300/54/240 305/55/241 306/56/242
f 297/57/243 298/58/244 299/59/245
f 299/59/245 304/56/246 297/57/243
f 304/56/246 303/55/247 297/57/243
f 301/59/248 300/54/240 306/56/242
f 301/59/248 302/58/249 300/54/240
f 320/60/250 322/156/250 315/157/250
f 318/63/251 316/64/252 319/65/253
f 322/156/250 321/158/250 315/157/250
f 315/159/254 279/71/255 278/71/224
f 317/72/256 319/65/253 316/64/252
f 280/73/220 277/163/223 316/75/252
f 281/70/257 315/159/254 282/70/226
f 282/70/226 315/159/254 278/71/224
f 327/47/258 328/47/259 326/45/260
f 330/44/261 329/44/262 323/42/263
f 323/42/263 325/43/264 324/43/265
f 323/42/263 324/43/265 330/44/261
f 326/45/260 332/46/266 331/46/267
f 331/46/267 327/47/258 326/45/260
f 338/60/268 340/156/268 333/157/268
f 336/63/269 334/64/270 337/65/271
f 340/156/268 339/158/268 333/157/268
f 333/159/272 331/71/273 332/71/266
f 335/72/274 337/65/271 334/64/270
f 323/73/263 326/79/260 334/75/270
f 330/70/275 333/159/272 329/70/262
f 329/70/262 333/159/272 332/71/266
f 358/164/276 382/165/276 381/166/277
f 345/167/278 369/168/278 372/169/279
f 344/170/280 368/171/280 367/172/281
f 352/173/282 376/174/282 375/175/283
f 360/176/284 384/166/284 383/165/285
f 386/177/286 387/177/287 388/178/288
f 382/179/289 383/180/285 381/181/277
f 386/182/286 388/183/288 385/183/288
f 364/184/290 388/185/290 363/186/291
f 355/187/292 379/188/293 354/189/294
f 362/186/295 386/190/286 361/184/296
f 345/167/278 372/169/279 348/191/297
f 378/192/294 354/189/294 379/188/293
f 380/168/298 356/167/298 377/193/299
f 370/194/300 346/187/300 371/195/301
f 385/196/302 361/184/296 386/190/286
f 387/190/291 363/186/291 388/185/290
f 377/197/299 378/198/303 379/199/293
f 352/173/282 375/175/283 351/200/304
f 344/170/280 367/172/281 343/201/305
f 373/174/306 349/173/306 374/175/307
f 365/171/308 341/170/308 366/172/309
f 4/6/6 1/40/14 29/39/11 28/4/4
f 5/41/13 3/2/2 8/1/1 29/39/11
f 28/4/4 30/10/8 7/12/10 31/5/5
f 27/202/310 11/19/311 12/21/312 26/203/313
f 10/22/18 25/27/20 26/203/313 12/14/312
f 18/204/314 22/205/315 17/28/316
f 23/206/26 9/21/317 11/19/311 27/202/310
f 19/207/318 25/208/20 14/209/27 13/210/319
f 19/207/318 18/211/314 16/212/320 25/213/20
f 18/211/314 17/214/316 15/214/321 16/215/320
f 13/210/319 14/112/27 15/216/321 17/214/316
f 22/205/315 18/204/314 19/217/322 21/218/25
f 20/29/22 21/218/25 19/217/322 13/30/23
f 27/219/323 26/220/313 16/126/320 15/221/321
f 14/222/27 25/223/20 24/224/19
f 25/225/20 16/226/320 26/220/313
f 27/219/323 15/221/321 14/38/27 23/37/26
f 9/14/317 23/206/26 24/26/19 10/22/18
f 32/227/31 35/228/28 37/229/34 33/230/32
f 32/231/31 38/232/36 71/72/66 70/64/62
f 74/233/324 41/234/324 40/234/37 72/233/61
f 42/235/41 45/235/38 47/236/47 43/236/42
f 43/237/42 47/237/47 46/238/325 44/238/325
f 46/239/326 51/240/326 49/240/326 44/239/326
f 48/241/45 49/242/327 51/242/327 50/241/39
f 48/243/45 50/243/39 45/244/38 42/244/41
f 52/245/51 55/245/48 57/246/57 53/246/52
f 57/247/57 56/248/328 54/248/328 53/247/52
f 56/249/329 61/250/329 59/250/329 54/249/329
f 59/251/330 61/251/330 60/252/49 58/252/55
f 58/253/55 60/253/49 55/254/48 52/254/51
f 65/249/331 62/239/331 63/239/331 64/249/331
f 69/255/288 66/256/288 67/256/288 68/255/288
f 39/257/332 75/258/332 71/258/66 38/257/36
f 34/77/333 36/62/60 75/61/59 39/259/333
f 72/63/61 40/260/37 35/261/28 70/64/62
f 74/262/334 72/263/61 73/264/63 75/264/65
f 79/227/70 76/228/73 82/229/72 85/230/76
f 80/257/335 91/258/335 87/258/85 81/257/69
f 79/231/70 81/232/69 87/72/85 86/64/82
f 91/76/79 80/259/336 84/77/80
f 90/233/337 77/234/337 78/234/74 88/233/81
f 88/63/81 78/260/74 76/261/73 86/64/82
f 83/62/338 77/66/338 90/60/78 84/77/80
f 90/262/339 88/265/81 89/264/83 91/264/84
f 144/266/340 121/267/341 117/268/342 142/269/340
f 133/270/99 98/271/96 97/272/92 96/273/91
f 111/274/343 128/275/344 130/276/345 113/277/346
f 110/278/347 146/279/348 145/280/348 108/281/347
f 147/282/349 146/283/349 110/284/350 112/285/351
f 104/286/352 113/287/353 130/288/354 119/289/355
f 107/290/356 105/291/357 122/292/358 124/293/359
f 114/294/360 149/295/361 147/296/361 112/297/362
f 131/298/98 93/299/87 92/90/363 98/271/96
f 93/80/87 142/300/89 92/301/363
f 96/85/91 148/302/364 95/303/365
f 96/85/91 150/304/93 148/305/364
f 92/90/363 97/272/366 98/271/96
f 133/270/99 96/273/91 95/90/365 132/89/367
f 131/298/98 132/89/94 94/88/90 93/299/87
f 100/306/368 115/307/369 118/308/370 101/309/371
f 100/310/372 104/311/373 119/312/374 115/313/375
f 108/314/376 145/315/377 143/316/377 106/317/378
f 143/318/379 141/319/379 102/320/380 106/321/381
f 101/322/382 118/323/383 122/324/384 105/325/385
f 103/326/386 151/327/387 149/328/387 114/329/388
f 109/330/389 126/331/390 128/332/391 111/333/392
f 107/334/393 124/335/394 126/336/395 109/337/396
f 102/338/397 99/339/398 100/340/368 101/341/371
f 100/340/372 99/339/399 103/342/399 104/343/373
f 140/344/400 151/345/400 103/346/399 99/347/399
f 105/348/385 106/349/381 102/338/380 101/341/382
f 123/350/401 121/351/402 144/352/403 94/353/403
f 107/341/356 108/338/376 106/349/378 105/348/357
f 125/354/404 123/355/405 94/356/90 95/357/95
f 110/339/347 108/338/347 107/341/393 109/340/396
f 148/358/406 127/359/407 125/360/408 95/361/406
f 112/342/351 110/339/350 109/340/389 111/343/392
f 129/362/409 127/363/410 148/364/411 150/365/411
f 113/366/346 114/367/360 112/342/362 111/343/343
f 120/368/412 129/369/413 150/370/414 97/371/414
f 104/343/352 103/342/386 114/367/388 113/366/353
f 115/372/375 119/373/374 120/374/415 116/375/416
f 124/376/359 122/377/358 121/378/402 123/379/401
f 126/372/395 124/376/394 123/379/405 125/375/404
f 127/374/407 128/373/391 126/372/390 125/375/408
f 130/380/345 128/373/344 127/374/410 129/381/409
f 119/373/355 130/380/354 129/381/413 120/374/412
f 122/377/384 118/376/383 117/379/342 121/378/341
f 117/379/417 118/376/370 115/372/369 116/375/418
f 92/382/363 116/383/416 120/384/415 97/385/366
f 142/386/419 117/387/417 116/388/418 92/389/419
f 134/96/101 135/95/100 138/390/104 136/391/420
f 138/390/104 139/392/103 136/391/420
f 139/392/103 137/97/421 136/391/420
f 139/392/103 135/95/100 137/97/421
f 141/393/422 140/394/422 99/395/398 102/396/397
f 177/397/423 181/398/424 157/399/121 153/400/120
f 154/401/106 157/399/121 181/402/424 178/397/425
f 183/403/117 155/404/115 179/405/426 175/406/427
f 155/404/115 152/407/114 176/406/428 179/408/426
f 158/409/122 182/410/429 177/411/430 153/400/120
f 156/412/107 154/401/106 178/411/425 180/413/431
f 175/414/427 182/415/429 158/409/122 183/403/117
f 173/416/131 174/202/130 161/19/432 162/21/433
f 170/28/126 165/28/108 166/417/112 168/418/125
f 160/22/434 172/419/127 173/416/131 162/14/433
f 171/420/128 159/21/435 161/19/432 174/202/130
f 169/114/124 168/418/125 166/417/112 167/115/111
f 165/421/108 174/104/110 166/106/112
f 167/422/111 164/209/109 163/111/123
f 171/420/128 172/419/127 160/22/434 159/14/435
f 163/113/123 165/28/108 170/28/126
f 167/223/111 172/107/113 164/103/109
f 172/423/127 166/226/132 173/125/131
f 174/424/130 164/123/129 171/122/128
f 156/412/107 180/425/431 176/414/436 152/407/114
f 203/426/156 204/202/155 191/19/437 192/21/438
f 200/28/151 195/28/136 196/427/140 198/428/150
f 190/22/439 202/429/152 203/426/156 192/14/438
f 201/430/153 189/21/440 191/19/437 204/202/155
f 199/136/149 198/428/150 196/427/140 197/137/139
f 195/421/136 204/104/138 196/129/140
f 197/431/139 194/209/137 193/134/148
f 201/430/153 202/429/152 190/22/439 189/14/440
f 193/135/148 195/28/136 200/28/151
f 197/223/139 202/130/141 194/128/137
f 202/432/152 196/226/157 203/146/156
f 204/433/155 194/144/154 201/143/153
f 185/434/142 206/435/441 209/148/158 184/147/143
f 210/436/442 206/435/441 185/437/142 188/438/135
f 187/150/134 208/152/161 210/436/442 188/439/135
f 186/153/147 207/155/163 211/151/160 187/150/134
f 184/147/143 205/149/159 212/154/162 186/440/147
f 214/230/168 213/227/167 216/228/164 218/229/170
f 213/231/167 219/232/172 253/72/200 252/64/196
f 254/233/195 256/233/443 222/234/443 221/234/173
f 223/235/177 226/235/174 228/236/183 224/236/178
f 228/237/183 227/238/444 225/238/444 224/237/178
f 225/239/445 227/239/445 232/240/445 230/240/445
f 229/241/181 230/242/446 232/242/446 231/241/175
f 229/243/181 231/243/175 226/244/174 223/244/177
f 233/245/187 236/245/184 238/246/193 234/246/188
f 238/247/193 237/248/447 235/248/447 234/247/188
f 237/249/448 242/250/448 240/250/448 235/249/448
f 239/252/191 240/251/449 242/251/449 241/252/185
f 239/253/191 241/253/185 236/254/184 233/254/187
f 246/249/331 243/239/331 244/239/331 245/249/331
f 247/256/288 248/256/288 249/255/288 250/255/288
f 220/257/450 257/258/450 253/258/200 219/257/172
f 215/77/194 251/157/194 257/158/194 220/259/194
f 254/63/195 221/260/173 216/261/164 252/64/196
f 217/62/194 222/66/194 256/60/194 251/157/194
f 255/68/197 253/69/200 257/69/451 258/68/451
f 256/262/452 254/441/195 255/264/197 258/264/452
f 262/227/204 259/228/207 265/229/206 268/230/210
f 264/257/203 263/257/453 275/258/453 271/258/218
f 267/77/212 269/157/212 275/158/212 263/259/212
f 262/231/204 264/232/203 271/72/218 270/64/214
f 274/233/454 260/234/454 261/234/208 272/233/213
f 272/63/213 261/260/208 259/261/207 270/64/214
f 266/62/212 260/66/212 274/60/212 269/157/212
f 273/68/215 271/69/218 275/69/455 276/68/455
f 274/262/456 272/442/213 273/264/215 276/264/456
f 277/227/223 280/228/220 282/229/226 278/230/224
f 277/231/223 283/232/228 317/72/256 316/64/252
f 320/233/457 286/234/457 285/234/229 318/233/251
f 287/235/233 290/235/230 292/236/239 288/236/234
f 292/237/239 291/238/458 289/238/458 288/237/234
f 291/239/459 296/240/459 294/240/459 289/239/459
f 294/242/460 296/242/460 295/241/231 293/241/237
f 293/243/237 295/243/231 290/244/230 287/244/233
f 297/245/243 300/245/240 302/246/249 298/246/244
f 298/247/244 302/247/249 301/248/461 299/248/461
f 301/249/462 306/250/462 304/250/462 299/249/462
f 303/252/247 304/251/463 306/251/463 305/252/241
f 303/253/247 305/253/241 300/254/240 297/254/243
f 309/249/331 310/249/331 307/239/331 308/239/331
f 314/255/288 311/256/288 312/256/288 313/255/288
f 283/257/228 284/257/464 321/258/464 317/258/256
f 279/77/250 315/157/250 321/158/250 284/259/250
f 318/63/251 285/260/229 280/261/220 316/64/252
f 281/62/250 286/66/250 320/60/250 315/157/250
f 319/68/253 317/69/256 321/69/465 322/68/465
f 320/262/466 318/443/251 319/264/253 322/264/466
f 326/227/260 323/228/263 329/229/262 332/230/266
f 327/257/467 339/258/467 335/258/274 328/257/259
f 331/77/268 333/157/268 339/158/268 327/259/268
f 326/231/260 328/232/259 335/72/274 334/64/270
f 336/233/269 338/233/468 324/234/468 325/234/264
f 336/63/269 325/260/264 323/261/263 334/64/270
f 330/62/268 324/66/268 338/60/268 333/157/268
f 337/68/271 335/69/274 339/69/469 340/68/469
f 338/262/470 336/441/269 337/264/271 340/264/470
f 376/444/471 352/445/471 349/445/471 373/444/471
f 367/446/281 366/446/309 342/447/472 343/447/305
f 375/448/283 374/448/307 350/449/473 351/449/304
f 381/166/277 384/166/474 360/176/475 357/176/476
f 388/185/290 364/184/290 361/184/477 385/196/477
f 383/165/285 382/165/289 358/164/478 359/164/479
f 386/190/286 362/186/295 363/186/480 387/190/287
f 368/450/481 344/451/481 341/451/481 365/450/481
f 362/452/482 361/453/483 390/454/484 391/455/485
f 350/456/486 390/457/484 389/457/487 351/456/488
f 345/458/489 392/459/490 391/460/485 346/461/491
f 358/462/492 393/463/493 394/463/494 359/462/495
f 356/458/496 395/464/497 394/465/494 353/466/498
f 352/467/499 394/468/494 393/468/493 349/467/500
f 357/469/501 392/470/490 393/471/493 358/462/492
f 344/472/502 343/473/503 391/474/485 392/475/490
f 361/453/483 364/453/504 389/476/487 390/476/484
f 381/477/277 383/478/285 384/477/474
f 356/458/496 355/461/505 396/460/506 395/459/497
f 359/462/495 394/471/494 395/470/497 360/469/507
f 360/469/507 395/479/497 392/479/490 357/469/501
f 344/472/502 392/480/490 395/480/497 341/472/508
f 348/466/509 347/481/510 390/482/484 393/483/493
f 349/467/500 393/484/493 390/485/484 350/456/486
f 353/466/498 394/483/494 389/482/487 354/481/511
f 372/486/279 369/487/512 370/488/512 371/489/301
f 359/164/479 360/176/284 383/165/285
f 356/167/298 353/191/513 377/193/299
f 357/176/476 358/164/276 381/166/277
f 346/187/300 347/189/514 371/195/301
f 367/490/281 368/491/515 365/491/515 366/490/309
f 375/492/283 376/493/516 373/493/516 374/492/307
f 341/472/508 395/475/497 396/474/506 342/473/517
f 380/494/518 377/495/299 379/496/293
f 354/481/511 389/497/487 396/498/506 355/461/505
f 347/481/510 346/461/491 391/498/485 390/497/484
f 343/473/503 342/473/517 396/499/506 391/499/485
f 348/466/509 393/465/493 392/464/490 345/458/489
f 363/452/519 362/452/482 391/500/485 396/500/506
f 352/467/499 351/456/488 389/485/487 394/484/494
f 370/501/520 369/502/520 345/503/520 346/504/520
f 349/173/306 350/200/473 374/175/307
f 379/501/293 355/504/292 356/503/521 380/502/518
f 341/170/308 342/201/472 366/172/309
f 371/505/301 347/506/514 348/507/297 372/508/279
f 378/505/303 377/508/299 353/507/513 354/506/522
f 364/453/504 363/452/519 396/455/506 389/454/487
