# Blender 4.5.3 LTS
# www.blender.org
mtllib cofre.mtl
o cofre
v 9.974821 0.047062 0.472524
v 9.974821 0.647062 0.472524
v 10.974821 0.047061 0.472524
v 10.974821 0.647061 0.472524
v 9.974821 0.047062 2.072524
v 9.974821 0.647062 2.072524
v 10.974821 0.047061 2.072524
v 10.974821 0.647061 2.072524
v 10.874822 0.647061 2.047524
v 10.874821 0.047061 2.047524
v 10.074821 0.647062 0.505857
v 10.874821 0.647061 0.489191
v 10.074821 0.047062 0.494746
v 10.074821 0.047062 2.047524
v 10.874821 0.047061 0.500302
v 10.074821 0.647062 2.047524
v 10.974821 0.047061 1.622524
v 10.974821 0.047061 0.922524
v 10.974821 0.647061 0.922524
v 10.974821 0.647061 1.622524
v 9.974821 0.047062 0.922524
v 9.974821 0.047062 1.622524
v 9.974821 0.647062 1.622524
v 9.974821 0.647062 0.922524
v 10.074821 0.647062 0.622524
v 10.015297 0.649443 1.922524
v 10.874821 0.647061 0.622524
v 10.874821 0.647061 1.922524
v 10.974821 0.647061 1.922524
v 9.974821 0.047062 1.922524
v 10.974821 0.047061 1.922524
v 10.974821 0.047061 0.622524
v 9.974821 0.647062 0.622524
v 10.974821 0.647061 0.622524
v 9.974821 0.047062 0.622524
v 9.888833 0.051771 0.627693
v 9.892230 0.051616 0.918953
v 9.886284 0.558524 1.916156
v 9.890539 0.562780 1.626890
v 9.888833 0.051771 1.627693
v 9.886283 0.558524 0.916156
v 9.892230 0.051616 1.918953
v 9.890539 0.562780 0.626890
v 11.060809 0.051771 1.917356
v 11.057412 0.051616 1.626095
v 11.063359 0.558524 0.628892
v 11.059103 0.562779 0.918158
v 11.060809 0.051770 0.917356
v 11.063359 0.558524 1.628892
v 11.059103 0.562779 1.918158
v 11.057412 0.051616 0.626095
v 10.874821 0.547061 0.622524
v 9.974821 0.547062 1.422524
v 9.974821 0.547062 1.122524
v 9.874821 0.547062 1.422524
v 9.874821 0.547062 1.122524
v 9.974821 0.396270 1.400750
v 9.974821 0.403834 1.136734
v 9.874821 0.403834 1.408314
v 9.874821 0.396270 1.144299
v 9.870782 0.116938 1.716906
v 9.871413 0.222344 1.723404
v 9.871090 0.216438 1.828371
v 9.880819 0.145103 1.821318
v 9.874821 0.167063 1.708440
v 9.831113 0.133792 1.791580
v 9.874821 0.102979 1.772524
v 9.874821 0.231148 1.772524
v 9.870782 0.116938 0.716906
v 9.871413 0.222344 0.723404
v 9.871089 0.216438 0.828371
v 9.880819 0.145103 0.821318
v 9.874821 0.167063 0.708440
v 9.831113 0.133792 0.791580
v 9.874821 0.102979 0.772524
v 9.874821 0.231148 0.772524
v 10.099780 0.510238 0.647483
v 10.074821 0.547062 1.922524
v 10.859543 0.514051 1.900150
v 10.201382 0.447062 1.795964
v 10.748261 0.447061 0.749084
v 10.733549 0.446340 1.473980
v 10.595813 0.446341 1.477752
v 10.501086 0.446341 1.577766
v 10.515212 0.441454 1.709037
v 10.604922 0.446341 1.810117
v 10.742660 0.446340 1.806345
v 10.829275 0.442885 1.703643
v 10.833612 0.446340 1.568661
v 10.782442 0.512250 1.532165
v 10.735931 0.527114 1.795532
v 10.603983 0.533136 1.799386
v 10.519660 0.535532 1.574565
v 10.833612 0.693419 1.576442
v 10.824040 0.714562 1.715549
v 10.722177 0.732928 1.497609
v 10.595813 0.696249 1.485533
v 10.515110 0.724203 1.591881
v 10.504859 0.688847 1.723217
v 10.599000 0.655235 1.798594
v 10.725504 0.655055 1.804377
v 10.823241 0.590521 1.712531
v 10.513640 0.595677 1.703152
v 10.601936 0.602117 1.496318
v 10.721333 0.607087 1.492891
v 10.820251 0.593926 1.573430
v 10.608060 0.507987 1.507102
v 10.725503 0.779995 1.808267
v 10.590904 0.789374 1.507079
v 10.529134 0.630331 1.594324
v 10.532190 0.883087 1.612927
v 10.626356 0.885629 1.521394
v 10.820251 0.792904 1.579626
v 10.837385 0.814071 1.718002
v 10.599001 0.780175 1.802484
v 10.518917 0.777147 1.713800
v 10.501086 0.818074 1.589438
v 10.733549 0.821306 1.485652
v 10.775384 0.879247 1.756222
v 10.561121 0.878922 1.769293
v 10.782594 0.885717 1.554756
v 10.669236 0.828566 1.654109
v 10.174647 0.441489 1.284176
v 10.160648 0.502167 1.406875
v 10.255134 0.441573 1.492483
v 10.376075 0.441701 1.495203
v 10.460280 0.443187 1.411830
v 10.467022 0.441730 1.293500
v 10.384953 0.440407 1.202279
v 10.262120 0.441765 1.201161
v 10.177725 0.542845 1.286536
v 10.473607 0.556157 1.347233
v 10.252896 0.544905 1.484892
v 10.177671 0.446340 1.401289
v 10.240402 0.700871 1.198100
v 10.368585 0.823642 1.197977
v 10.158217 0.766931 1.286411
v 10.141039 0.729409 1.411934
v 10.235436 0.731996 1.512275
v 10.372837 0.698712 1.497910
v 10.473413 0.738519 1.422021
v 10.462699 0.769488 1.289619
v 10.366874 0.704338 1.192686
v 10.377399 0.585368 1.192906
v 10.461160 0.654819 1.291393
v 10.467142 0.634142 1.417912
v 10.383364 0.579743 1.498130
v 10.255180 0.638752 1.503544
v 10.153250 0.625537 1.408386
v 10.165747 0.646722 1.282427
v 10.243827 0.575917 1.198100
v 10.245223 0.820260 1.498253
v 10.156786 0.823626 1.417910
v 10.354367 0.926105 1.213289
v 10.452991 0.929828 1.365185
v 10.286997 0.925278 1.497103
v 10.158027 0.921281 1.343682
v 10.235923 0.904388 1.190135
v 10.474163 0.863587 1.284296
v 10.452579 0.825945 1.419612
v 10.365220 0.829339 1.502414
v 10.141791 0.854477 1.274209
v 10.305546 0.871469 1.348115
v 10.254448 0.795042 1.207856
v 10.583561 0.562181 0.759197
v 10.487536 0.528836 0.852731
v 10.508967 0.562783 0.977987
v 10.606050 0.535466 1.077968
v 10.746142 0.571048 1.045157
v 10.816393 0.572981 0.946792
v 10.804628 0.564290 0.827780
v 10.708200 0.561063 0.748286
v 10.703962 0.446339 0.764773
v 10.729283 0.446339 1.040658
v 10.614959 0.446340 1.051142
v 10.526702 0.446340 0.977751
v 10.589637 0.446340 0.775257
v 10.792218 0.446339 0.838164
v 10.802707 0.446339 0.952440
v 10.516213 0.446340 0.863475
v 10.709902 0.754698 0.737081
v 10.811131 0.809590 0.831753
v 10.571954 0.744931 0.759321
v 10.506654 0.820551 0.850086
v 10.508985 0.803452 0.977258
v 10.609020 0.764252 1.061670
v 10.746967 0.815668 1.038204
v 10.812266 0.823345 0.944987
v 10.811131 0.684644 0.835431
v 10.812266 0.698399 0.948665
v 10.746966 0.690722 1.041883
v 10.609020 0.639307 1.065348
v 10.508985 0.678507 0.980936
v 10.502936 0.617067 0.860546
v 10.575658 0.650666 0.743174
v 10.712872 0.650294 0.730591
v 10.516213 0.716516 0.856119
v 10.571954 0.869876 0.755643
v 10.565979 0.974857 1.005449
v 10.709902 0.879643 0.733403
v 10.810353 0.964456 0.826207
v 10.820597 0.953718 0.943739
v 10.746351 0.968404 1.035542
v 10.614808 0.884555 1.057598
v 10.500125 0.907710 0.978850
v 10.505000 0.964574 0.845332
v 10.646108 0.967268 0.747641
v 10.659460 0.917740 0.894717
v 10.454630 0.439940 1.022066
v 10.167079 0.446340 1.021923
v 10.165423 0.446340 0.907130
v 10.360216 0.446340 0.823132
v 10.359064 0.642932 1.118839
v 10.232647 0.642933 1.111414
v 10.462818 0.590849 1.025319
v 10.451750 0.570016 0.899169
v 10.376990 0.642932 0.813641
v 10.250573 0.642933 0.806216
v 10.155932 0.642933 0.890356
v 10.148507 0.642932 1.016773
v 10.232014 0.510502 1.111298
v 10.148142 0.510502 1.016244
v 10.156048 0.510502 0.889723
v 10.251102 0.510502 0.805850
v 10.377623 0.510502 0.813757
v 10.448166 0.442853 0.900715
v 10.358535 0.510502 1.119205
v 10.249420 0.446340 1.101923
v 10.245423 0.446340 0.824788
v 10.364214 0.446340 1.100267
v 10.442558 0.674182 0.903133
v 10.462818 0.715849 1.025319
v 10.439947 0.801961 1.000477
v 10.366197 0.780451 1.124099
v 10.235803 0.797126 1.112933
v 10.142759 0.774747 1.025197
v 10.154392 0.797267 0.893547
v 10.243441 0.780451 0.800956
v 10.373835 0.797126 0.812122
v 10.459761 0.783702 0.895715
v 10.304818 0.749183 0.962528
v 10.330294 0.441759 1.544304
v 10.444651 0.530683 1.606180
v 10.210520 0.440397 1.581564
v 10.158767 0.441586 1.695922
v 10.200778 0.442697 1.808706
v 10.302491 0.518775 1.871002
v 10.418671 0.514127 1.840832
v 10.486151 0.514616 1.724001
v 10.468301 0.446340 1.714471
v 10.430788 0.446340 1.606050
v 10.309601 0.446340 1.855127
v 10.192591 0.579494 1.814453
v 10.156305 0.582754 1.707032
v 10.205751 0.603730 1.584901
v 10.418104 0.446340 1.817642
v 10.340498 0.594754 1.547721
v 10.445734 0.665794 1.601735
v 10.498277 0.619174 1.723567
v 10.427449 0.658102 1.848645
v 10.300115 0.673587 1.879493
v 10.270807 0.691258 1.577357
v 10.458724 0.684843 1.709287
v 10.172799 0.685053 1.765799
v 10.318570 0.632084 1.713298
v 10.633601 0.681484 1.430956
v 10.757920 0.681484 1.406850
v 10.845216 0.650234 1.291831
v 10.804674 0.681484 1.177577
v 10.699722 0.681484 1.106717
v 10.575402 0.681484 1.130824
v 10.504541 0.681484 1.235776
v 10.528648 0.681484 1.360095
v 10.529310 0.560533 1.360239
v 10.504908 0.560533 1.236346
v 10.575258 0.560533 1.131485
v 10.699152 0.560533 1.107083
v 10.804013 0.560533 1.177433
v 10.828416 0.560533 1.301327
v 10.758064 0.560533 1.406188
v 10.634171 0.560533 1.430591
v 10.547917 0.446340 1.360486
v 10.517890 0.446340 1.249678
v 10.575011 0.446340 1.150092
v 10.685821 0.446339 1.120065
v 10.785406 0.446339 1.177186
v 10.815434 0.446339 1.287995
v 10.758311 0.446339 1.387581
v 10.647503 0.446340 1.417608
v 10.828781 0.743984 1.301897
v 10.528648 0.931484 1.360095
v 10.504542 0.931484 1.235776
v 10.633601 0.931484 1.430956
v 10.757920 0.931484 1.406850
v 10.828781 0.868984 1.301897
v 10.804675 0.931484 1.177577
v 10.699722 0.931484 1.106717
v 10.575402 0.931484 1.130824
v 10.504541 0.806484 1.235776
v 10.575402 0.806484 1.130824
v 10.699722 0.806484 1.106717
v 10.804675 0.806484 1.177577
v 10.757920 0.806484 1.406850
v 10.633601 0.806484 1.430956
v 10.528648 0.806484 1.360095
v 10.815434 0.962734 1.287995
v 10.530588 1.085677 1.363011
v 10.496380 1.069002 1.239229
v 10.572486 1.085677 1.132763
v 10.696269 1.069002 1.098555
v 10.802735 1.085677 1.174661
v 10.836944 1.069002 1.298444
v 10.760837 1.085677 1.404910
v 10.637054 1.069002 1.439119
v 10.666661 1.037734 1.268836
v 10.187325 1.315760 0.574692
v 10.959546 0.797940 0.574692
v 10.187325 1.315760 1.991686
v 10.959546 0.797940 1.991686
v 10.184814 1.324175 0.484887
v 10.441257 1.575244 0.483189
v 11.103202 1.131371 0.483189
v 10.967225 0.796282 0.484519
v 10.441257 1.575244 2.083189
v 10.183008 1.322162 2.081549
v 10.968400 0.798702 2.081814
v 11.103202 1.131371 2.083189
v 10.655645 1.590605 0.458189
v 11.043685 1.342245 0.445689
v 11.043686 1.342244 2.120689
v 10.655645 1.590605 2.108189
v 10.929632 0.697598 2.133189
v 11.016076 0.639632 2.133189
v 10.019410 1.307955 2.133189
v 11.150022 1.078710 2.132519
v 10.374762 1.598565 2.132519
v 10.105852 1.249990 2.133189
v 10.105852 1.249990 0.433189
v 10.019410 1.307955 0.433189
v 11.016076 0.639632 0.433189
v 11.150022 1.078710 0.433860
v 10.374762 1.598565 0.433860
v 10.929632 0.697598 0.433189
v 11.268706 0.836825 1.887970
v 11.268706 0.836825 1.678407
v 11.058815 0.616370 1.655041
v 11.073653 0.608293 1.903896
v 10.722034 1.800015 0.678609
v 10.722034 1.800015 0.887768
v 10.722034 1.800015 1.678610
v 10.722034 1.800015 1.887768
v 10.105928 1.616535 0.887970
v 10.105928 1.616535 0.678407
v 10.378918 1.805569 0.678544
v 10.378918 1.805568 0.887833
v 10.105928 1.616535 1.887970
v 10.105928 1.616535 1.678407
v 10.378918 1.805568 1.678544
v 10.378918 1.805568 1.887833
v 9.981987 1.339583 0.911218
v 9.968151 1.349577 0.663340
v 9.981664 1.338663 1.911337
v 10.019410 1.307955 1.633189
v 11.016076 0.639632 0.933188
v 11.059369 0.616019 0.655479
v 11.110270 0.600550 0.888189
v 11.268706 0.836825 0.678407
v 11.268706 0.836825 0.887970
v 11.339950 1.161140 1.887833
v 11.339950 1.161140 1.678544
v 11.204550 1.476461 1.678610
v 11.204550 1.476461 1.887768
v 11.339950 1.161140 0.887833
v 11.339950 1.161140 0.678544
v 11.204549 1.476461 0.678609
v 11.204550 1.476461 0.887768
v 9.947492 1.380260 1.678188
v 11.218545 1.149448 2.133189
v 11.161761 0.879234 2.133189
v 10.185765 1.533696 2.133189
v 10.414192 1.688814 2.133189
v 10.685587 1.684128 2.133189
v 11.111176 1.398746 2.133189
v 11.161761 0.879234 0.433189
v 11.218545 1.149449 0.433189
v 10.414192 1.688815 0.433189
v 10.185765 1.533697 0.433189
v 11.111176 1.398746 0.433189
v 10.685587 1.684128 0.433189
v 10.185740 1.524960 0.633257
v 10.186766 1.521097 0.933765
v 10.188951 1.523466 1.632665
v 10.185536 1.524780 1.933089
v 10.412069 1.677013 1.934913
v 10.414603 1.677853 1.632089
v 10.409462 1.676010 0.934450
v 10.412335 1.676914 0.631430
v 11.149724 0.875376 1.632613
v 11.153598 0.875636 1.933089
v 11.153710 0.875921 0.633284
v 11.151086 0.878296 0.933713
v 11.206173 1.142724 0.935142
v 11.208240 1.143213 0.631430
v 11.208433 1.143004 1.934913
v 11.210272 1.143203 1.632680
v 11.106392 1.393443 0.633357
v 11.104402 1.391769 0.932884
v 11.100994 1.388973 1.631979
v 11.106373 1.393454 1.933026
v 10.678824 1.676546 1.932842
v 10.683146 1.672648 1.633770
v 10.678493 1.674041 0.932650
v 10.678806 1.676558 0.633541
v 11.131000 1.172898 0.574692
v 10.469120 1.616727 0.574692
v 10.469120 1.616727 1.991686
v 11.131000 1.172898 1.991686
v 10.122169 1.460970 1.517414
v 10.122033 1.460151 1.050544
v 9.934667 1.183046 1.401925
v 9.935836 1.183976 1.165331
v 10.001369 1.461365 1.330227
v 10.034172 1.473218 1.516022
v 9.990296 1.445455 1.231903
v 10.051901 1.489106 1.065195
v 9.899403 1.308546 1.340675
v 9.884172 1.241738 1.389907
v 9.881334 1.253075 1.185952
v 10.019407 1.307956 1.533189
v 10.019407 1.307956 1.033189
v 10.057176 1.399557 1.252172
v 10.054046 1.395363 1.315135
v 9.990193 1.280081 1.282915
v 9.969070 1.371335 1.056082
v 9.988623 1.448853 1.727571
v 10.047851 1.536046 1.734069
v 10.044292 1.531321 1.839036
v 10.012647 1.466656 1.831982
v 10.019894 1.488234 1.719104
v 9.965062 1.484944 1.802244
v 9.984202 1.435008 1.783188
v 10.055584 1.541460 1.783188
v 9.988623 1.448853 0.727571
v 10.047851 1.536046 0.734069
v 10.044292 1.531321 0.839036
v 10.012647 1.466656 0.831982
v 10.019894 1.488234 0.719104
v 9.965061 1.484944 0.802244
v 9.984202 1.435008 0.783188
v 10.055584 1.541460 0.783188
vn -0.0000 1.0000 -0.0000
vn -0.0778 0.7230 -0.6865
vn 0.0005 1.0000 0.0031
vn -0.0821 0.7341 0.6740
vn 0.0828 -0.7357 0.6723
vn -0.5402 -0.5855 0.6044
vn -0.3351 -0.9030 0.2689
vn 0.5075 -0.5655 0.6500
vn -0.0828 -0.7357 0.6723
vn 0.3357 -0.8958 0.2914
vn -0.1624 0.6631 -0.7307
vn -0.0010 1.0000 -0.0001
vn 0.0872 0.7479 -0.6581
vn -0.0152 0.9999 -0.0015
vn -0.3320 -0.8971 0.2915
vn -0.0717 -0.0000 0.9974
vn -0.7440 0.2903 0.6018
vn -0.0517 0.0035 0.9987
vn -0.7286 0.3303 0.6001
vn -0.6082 -0.5620 -0.5606
vn -0.7336 0.2968 -0.6114
vn -0.3357 -0.8958 -0.2914
vn 0.3320 -0.8971 -0.2915
vn 0.0717 -0.0000 -0.9974
vn 0.7440 0.2903 -0.6018
vn 0.5995 -0.5638 -0.5681
vn 0.0517 -0.0000 0.9987
vn 0.7336 0.2968 0.6114
vn -0.7205 0.3322 -0.6087
vn -0.0517 -0.0000 -0.9987
vn -0.5995 -0.5638 0.5681
vn 0.6082 -0.5620 0.5606
vn 0.9276 0.3728 0.0234
vn 0.8576 0.5142 0.0134
vn 0.6133 0.7898 -0.0108
vn -0.9925 0.1225 -0.0038
vn -0.9360 0.3519 0.0015
vn -0.6118 0.7909 0.0131
vn -0.9494 0.2405 -0.2022
vn -0.9511 0.0247 -0.3077
vn -0.8870 -0.2426 -0.3928
vn -0.9009 -0.3343 0.2767
vn -0.9512 0.0247 -0.3077
vn -0.9501 -0.0542 0.3072
vn -0.9312 -0.0013 -0.3646
vn -0.8955 0.1402 -0.4223
vn 0.9280 -0.0502 0.3692
vn 0.3430 -0.0246 0.9390
vn 0.4026 0.0535 0.9138
vn -0.9222 0.0602 0.3820
vn -0.9137 0.2576 -0.3143
vn 0.6829 0.1605 -0.7127
vn 0.9768 0.0659 0.2037
vn 0.8244 0.5297 -0.1993
vn 0.2266 0.4675 -0.8545
vn 0.9111 -0.0539 0.4086
vn -0.4322 0.2301 -0.8719
vn 0.3212 -0.0287 -0.9466
vn -0.4170 0.0290 -0.9084
vn 0.2857 0.1277 0.9498
vn 0.9328 0.1817 0.3112
vn 0.4013 0.7771 0.4849
vn -0.3394 0.1330 0.9312
vn -0.4316 0.7370 0.5201
vn -0.9198 0.1171 0.3745
vn -0.0196 0.9997 0.0141
vn 0.4471 0.8138 -0.3713
vn 0.9042 0.1960 -0.3796
vn 0.2943 0.1443 -0.9448
vn -0.9249 0.1708 -0.3398
vn -0.9322 -0.1479 -0.3303
vn -0.1617 0.8691 -0.4674
vn -0.5231 0.8439 -0.1193
vn 0.3660 0.0196 0.9304
vn -0.3188 -0.1167 0.9406
vn 0.3985 -0.0965 0.9121
vn 0.3516 0.0347 -0.9355
vn 0.9118 -0.0431 -0.4084
vn 0.4291 -0.0010 -0.9033
vn -0.3898 -0.0547 0.9193
vn -0.8819 -0.0629 0.4672
vn -0.3183 0.0304 0.9475
vn 0.9305 0.0354 -0.3645
vn 0.9989 -0.0405 -0.0230
vn 0.9054 0.0237 0.4238
vn 0.9033 -0.1173 0.4127
vn 0.9151 0.0534 0.3997
vn -0.3749 -0.0122 0.9270
vn -0.8746 0.1998 0.4417
vn -0.9043 -0.0727 -0.4207
vn -0.9484 0.0029 0.3169
vn 0.9220 -0.0323 -0.3859
vn 0.8425 0.2116 0.4955
vn 0.3780 0.1226 -0.9177
vn -0.3396 0.4808 -0.8084
vn 0.2396 0.8211 -0.5181
vn 0.9005 0.1707 -0.4001
vn 0.6025 0.7896 0.1166
vn 0.3852 0.1937 0.9023
vn -0.0846 0.7667 0.6365
vn -0.4053 0.1740 0.8975
vn -0.6173 0.7774 0.1207
vn -0.9080 0.0947 -0.4082
vn -0.0018 0.9997 0.0262
vn -0.9032 0.0114 0.4290
vn -0.9602 0.0125 -0.2792
vn -0.9586 0.0921 -0.2696
vn -0.4554 -0.1525 -0.8771
vn -0.9488 -0.0560 -0.3107
vn -0.5175 -0.0370 -0.8549
vn -0.9083 -0.0105 0.4182
vn -0.2723 0.0554 0.9606
vn -0.2682 0.0353 0.9627
vn -0.9043 -0.0222 0.4262
vn -0.2983 0.8473 0.4394
vn -0.8747 0.1965 0.4431
vn -0.2294 0.1494 0.9618
vn 0.0117 0.9997 -0.0219
vn 0.3412 0.7065 0.6201
vn 0.6365 0.6898 -0.3451
vn -0.0730 0.7843 -0.6161
vn 0.2986 0.1027 -0.9488
vn -0.5241 0.0729 -0.8485
vn 0.8294 0.5025 0.2439
vn -0.6639 0.6995 -0.2645
vn 0.4329 -0.1105 -0.8946
vn 0.9228 0.0080 -0.3851
vn 0.9166 -0.0827 -0.3911
vn 0.3139 -0.2596 -0.9133
vn 0.4537 -0.0052 -0.8911
vn 0.9177 -0.0200 -0.3969
vn -0.4949 -0.5756 -0.6510
vn -1.0000 -0.0000 -0.0000
vn -0.0314 0.9991 -0.0272
vn -0.3125 0.6875 0.6555
vn 0.5078 0.8435 0.1749
vn 0.3183 0.6842 -0.6562
vn -0.6550 0.6941 -0.2987
vn -0.1115 -0.1389 0.9840
vn -0.7614 0.0062 0.6482
vn -0.8115 -0.0639 0.5808
vn -0.1322 0.6551 0.7439
vn -0.6168 0.7599 0.2053
vn -0.9895 0.1240 -0.0745
vn -0.0367 0.9946 0.0968
vn 0.4652 0.8847 0.0310
vn -0.6925 0.1971 -0.6939
vn -0.2585 0.7910 -0.5545
vn 0.1166 0.1229 -0.9855
vn 0.8341 -0.0000 -0.5516
vn 0.9772 0.0589 0.2040
vn 0.9766 0.0523 0.2088
vn 0.8175 0.0025 -0.5760
vn 0.9903 0.0234 0.1370
vn 0.8420 -0.0056 -0.5394
vn 0.9875 0.0186 0.1566
vn -0.2288 0.9605 0.1584
vn 0.1584 0.9605 0.2288
vn 0.2288 0.9605 -0.1584
vn -0.1584 0.9605 -0.2288
vn -0.1436 -0.1337 -0.9806
vn -0.2957 0.0420 -0.9544
vn -0.7861 -0.1337 -0.6034
vn -0.0757 -0.1968 0.9775
vn 0.1535 -0.2642 0.9522
vn 0.1644 -0.7875 0.5939
vn 0.7322 -0.6355 0.2449
vn 0.6995 -0.7043 0.1210
vn 0.1536 -0.2644 -0.9521
vn 0.0029 -0.0016 -1.0000
vn 0.0328 -0.1216 -0.9920
vn -0.8655 0.4368 -0.2451
vn -0.9170 0.3801 -0.1208
vn -0.6038 -0.7971 0.0016
vn -0.5680 -0.8230 -0.0105
vn -0.5568 -0.8304 -0.0202
vn -0.5470 -0.8370 -0.0146
vn -0.0986 -0.9950 -0.0163
vn -0.5567 -0.8303 -0.0263
vn -0.1631 -0.9865 -0.0129
vn -0.7080 0.6490 0.2785
vn -0.5421 0.6075 0.5805
vn -0.2374 0.2522 0.9381
vn -0.5461 -0.8376 0.0104
vn -0.5082 -0.8613 -0.0015
vn -0.5045 -0.8634 0.0049
vn -0.6092 -0.7930 -0.0050
vn 0.7620 -0.2667 0.5901
vn 0.8425 -0.3971 0.3639
vn 0.3252 -0.1283 0.9369
vn 0.8453 -0.4215 -0.3284
vn 0.7598 -0.2741 -0.5896
vn 0.3260 -0.1257 -0.9370
vn -0.8817 -0.4715 0.0193
vn -0.5664 -0.8240 0.0152
vn -0.8523 -0.5229 0.0134
vn -0.7117 0.6217 0.3270
vn -0.5424 0.5985 0.5896
vn -0.2399 0.2542 0.9369
vn -0.2958 0.0420 0.9543
vn -0.0026 0.0021 1.0000
vn -0.0688 -0.0091 0.9976
vn 0.8692 -0.4092 -0.2777
vn 0.7678 -0.2708 -0.5807
vn 0.3228 -0.1234 -0.9384
vn 0.6754 -0.7373 -0.0122
vn 0.6994 -0.7044 -0.1209
vn 0.7323 -0.6339 -0.2488
vn -0.7567 0.6429 -0.1183
vn -0.8842 0.4120 0.2198
vn -0.6134 0.7871 0.0648
vn -0.9276 -0.1576 0.3387
vn -0.0267 -0.9322 0.3609
vn -0.6341 0.0641 0.7706
vn -0.4607 -0.0552 -0.8858
vn -0.0373 -0.9248 -0.3787
vn -0.8313 -0.4417 -0.3374
vn -0.4306 -0.0160 -0.9024
vn -0.8612 0.4138 0.2951
vn -0.0535 0.6576 0.7515
vn -0.1473 0.6427 -0.7518
vn -0.1451 0.6470 -0.7486
vn 0.0744 0.9359 -0.3442
vn -0.8305 0.5421 -0.1283
vn -0.8036 0.4482 0.3916
vn -0.8009 0.5897 0.1038
vn 0.1942 0.8005 0.5670
vn 0.0855 0.7680 -0.6347
vn -0.4167 -0.0730 -0.9061
vn 0.0991 0.8450 -0.5256
vn -0.0668 0.3102 -0.9483
vn -0.6545 0.7285 -0.2022
vn -0.7762 0.5502 -0.3077
vn -0.8719 0.2925 -0.3928
vn -0.9345 0.2241 0.2767
vn 0.2086 0.6266 -0.7509
vn 1.0000 -0.0000 -0.0000
vn 0.5202 -0.5557 -0.6485
vn -0.0756 -0.7402 -0.6681
vn 0.0899 -0.7312 -0.6762
vn 0.0841 0.7310 0.6771
vn 0.0025 0.9999 0.0122
vn 0.2017 0.5556 0.8066
vn -0.1853 0.6450 0.7414
vn -0.2470 0.9689 0.0142
vn -0.5775 0.8155 0.0374
vn -0.9905 0.0333 -0.1334
vn -0.7071 0.7071 -0.0000
vn 0.7071 0.7071 -0.0000
vn 0.0027 0.3699 0.9291
vn 0.0133 0.1062 0.9943
vn 0.0098 0.1968 0.9804
vn -0.0116 0.0925 -0.9956
vn -0.9978 0.0659 -0.0051
vn 0.9418 0.3353 0.0258
vn -0.0027 1.0000 -0.0014
vn 0.0076 0.9393 -0.3430
vn 0.0001 0.9954 -0.0959
vn -0.5946 -0.6254 -0.5053
vn -0.5719 -0.5894 0.5706
vn 0.0159 0.7922 -0.6100
vn -0.0181 0.7932 0.6087
vn -0.0329 -0.1214 -0.9921
vn -0.0231 -0.7183 -0.6953
vn 0.0209 -0.7777 0.6283
vn 0.0329 -0.1214 0.9921
vn -0.3954 -0.0346 0.9178
vn -0.3999 0.0361 0.9159
vn -0.4113 -0.3759 0.8304
vn -0.9060 0.2766 0.3205
vn -0.5200 -0.8385 0.1630
vn -0.9557 0.2941 0.0136
vn -0.3859 -0.0973 -0.9174
vn -0.3095 0.1601 -0.9373
vn -0.3108 0.4351 -0.8450
vn -0.3859 0.1124 0.9157
vn 0.4390 0.1517 0.8856
vn 0.7585 0.1481 0.6347
vn 0.9050 -0.0366 -0.4237
vn 0.2977 -0.0781 -0.9515
vn 0.9095 0.0335 -0.4145
vn -0.9228 -0.0328 0.3838
vn -0.9307 -0.0326 -0.3644
vn 0.4062 0.0560 0.9121
vn 0.4547 0.0592 0.8887
vn -0.7376 -0.2861 0.6116
vn -0.9538 -0.2147 0.2103
vn -0.8884 -0.3052 0.3430
vn -0.9129 -0.0585 -0.4039
vn -0.9058 -0.0699 -0.4179
vn -0.4254 0.0430 -0.9040
vn -0.4343 -0.0452 -0.8996
vn 0.4707 0.0352 -0.8816
vn -0.3825 -0.0519 -0.9225
vn -0.9098 -0.0599 -0.4108
vn -0.9351 -0.1151 0.3351
vn -0.3398 -0.0433 -0.9395
vn 0.2956 -0.1476 -0.9438
vn -0.4198 -0.1888 -0.8878
vn 0.3138 -0.1449 -0.9384
vn 0.9622 -0.0511 0.2676
vn 0.9498 -0.1094 0.2931
vn 0.8806 -0.1322 -0.4550
vn 0.8888 -0.0884 -0.4497
vn 0.5364 -0.0352 0.8432
vn 0.5023 -0.1312 0.8546
vn -0.2858 -0.0501 0.9570
vn -0.2792 -0.1858 0.9421
vn -0.8606 -0.2083 0.4648
vn -0.8876 -0.0878 0.4521
vn -0.9266 -0.2404 -0.2893
vn -0.5631 0.0218 -0.8261
vn 0.3296 -0.0284 -0.9437
vn 0.3109 0.0257 -0.9501
vn 0.9197 -0.0141 -0.3923
vn 0.5293 0.0235 0.8481
vn 0.9562 0.0065 0.2927
vn 0.5234 0.0145 0.8520
vn 0.9553 -0.0074 0.2954
vn 0.9135 -0.0189 -0.4064
vn -0.9513 -0.0481 -0.3044
vn 0.9289 -0.0697 0.3638
vn 0.9355 -0.0072 0.3534
vn -0.3555 -0.2366 0.9042
vn 0.3686 -0.2020 0.9074
vn 0.3182 -0.0979 0.9429
vn -0.4398 -0.1152 0.8907
vn -0.3881 -0.2366 -0.8907
vn -0.3188 -0.1152 -0.9408
vn -0.9042 -0.2366 -0.3555
vn -0.8907 -0.1152 -0.4398
vn -0.8907 -0.2366 0.3881
vn -0.9408 -0.1152 0.3188
vn 0.3285 -0.0173 0.9443
vn -0.4315 -0.0132 0.9020
vn -0.9443 -0.0139 0.3288
vn -0.9011 -0.0123 -0.4334
vn -0.3292 -0.0120 -0.9442
vn 0.9305 0.0955 0.3537
vn 0.8236 0.4696 -0.3181
vn 0.3350 0.5023 0.7971
vn -0.3045 0.4844 -0.8202
vn -0.8396 0.4424 0.3154
vn 0.6477 -0.2535 0.7185
vn 0.9759 -0.2149 0.0386
vn 0.9848 -0.1502 0.0868
vn 0.5855 -0.1657 0.7936
vn 0.0956 -0.0062 -0.9954
vn 0.7620 -0.0816 -0.6425
vn 0.7525 -0.1323 -0.6452
vn -0.0390 -0.2538 0.9665
vn -0.3749 -0.2334 0.8972
vn -0.6560 0.0126 -0.7547
vn -0.9982 -0.0304 -0.0524
vn 0.6062 0.5281 -0.5946
vn 0.9835 0.1648 0.0740
vn 0.5466 0.4816 0.6850
vn -0.7928 -0.1301 0.5955
vn -0.1395 -0.1302 0.9816
vn -0.1917 -0.0661 0.9792
vn -0.8280 -0.0661 0.5568
vn 0.5516 -0.0000 0.8341
vn 0.5955 -0.1302 0.7928
vn 0.5491 -0.0757 0.8323
vn 0.9816 -0.1301 0.1395
vn 0.9750 -0.0997 0.1984
vn 0.7927 -0.1301 -0.5955
vn 0.8140 -0.0895 -0.5740
vn 0.1395 -0.1301 -0.9816
vn 0.1917 -0.0661 -0.9792
vn -0.5955 -0.1301 -0.7927
vn -0.5568 -0.0661 -0.8280
vn -0.9816 -0.1301 -0.1395
vn -0.9792 -0.0661 -0.1917
vn -0.1996 -0.0019 0.9799
vn -0.8340 -0.0019 0.5518
vn -0.9799 -0.0019 -0.1996
vn -0.5518 -0.0019 -0.8340
vn 0.1996 -0.0019 -0.9799
vn 0.5420 -0.0011 0.8403
vn -0.8341 -0.0000 0.5516
vn -0.9798 -0.0000 -0.1998
vn -0.1998 -0.0000 0.9798
vn 0.1998 -0.0000 -0.9798
vn -0.5516 -0.0000 -0.8341
vn -0.8319 -0.0125 0.5549
vn -0.9801 -0.0127 -0.1980
vn -0.5549 -0.0125 -0.8319
vn 0.1980 -0.0127 -0.9801
vn 0.5774 -0.0058 0.8164
vn -0.1981 -0.0127 0.9801
vn -0.1562 0.4849 0.8605
vn -0.7924 0.2732 0.5454
vn 0.5790 0.2420 0.7786
vn 0.8753 0.4555 0.1622
vn 0.8076 0.2567 -0.5309
vn 0.1562 0.4849 -0.8605
vn -0.5454 0.2732 -0.7924
vn -0.8605 0.4849 -0.1562
vn -0.0377 -0.0522 0.9979
vn -0.0396 -0.0548 0.9977
vn -0.1436 -0.1337 0.9806
vn -0.0757 -0.1968 -0.9775
vn -0.0397 -0.0548 -0.9977
vn -0.0378 -0.0521 -0.9979
vn -0.6870 0.6284 -0.3649
vn -0.2429 0.2514 -0.9369
vn -0.5363 0.6037 -0.5898
vn -0.8640 0.4376 0.2490
vn -0.9171 0.3800 0.1207
vn -0.1044 -0.0890 0.9905
vn -0.9387 0.3446 -0.0117
vn 0.1643 -0.7876 -0.5938
vn 0.0971 0.3090 -0.9461
vn 0.2496 0.2079 -0.9458
vn 0.2501 0.2073 -0.9458
vn 0.0981 0.3087 -0.9461
vn -0.6557 0.7544 0.0295
vn -0.2829 0.9580 -0.0464
vn -0.2927 0.9551 -0.0463
vn -0.9385 0.3452 0.0124
vn 0.7707 0.6356 -0.0463
vn 0.7699 0.6365 -0.0463
vn 0.9939 0.1009 -0.0449
vn 0.9949 0.0907 -0.0448
vn -0.7425 0.6621 0.1010
vn 0.9505 -0.3072 0.0474
vn 0.9020 -0.4094 0.1371
vn 0.0328 -0.1216 0.9920
vn 0.0029 -0.0016 1.0000
vn -0.0688 -0.0091 -0.9976
vn -0.0026 0.0021 -1.0000
vn 0.2975 0.9535 -0.0477
vn 0.2909 0.9556 -0.0478
vn -0.2924 0.9552 0.0467
vn -0.2830 0.9580 0.0468
vn -0.6447 0.7630 -0.0476
vn 0.2535 0.2110 -0.9441
vn 0.3319 0.0337 -0.9427
vn 0.3325 0.0282 -0.9427
vn 0.2545 0.2099 -0.9440
vn -0.7862 -0.1338 0.6033
vn -0.0016 0.0020 -1.0000
vn 0.7300 -0.6835 -0.0000
vn 0.6750 -0.7377 0.0116
vn -0.6516 0.7583 0.0175
vn -0.2892 0.9573 -0.0000
vn -0.2920 0.9564 -0.0000
vn -0.5568 -0.8304 0.0202
vn 0.8948 -0.4345 -0.1024
vn 0.9471 -0.3196 -0.0300
vn 0.2908 0.9556 0.0479
vn 0.2974 0.9535 0.0478
vn -0.1044 -0.0890 -0.9905
vn -0.0943 0.3188 -0.9431
vn -0.0996 0.3174 -0.9430
vn 0.7707 0.6355 0.0464
vn 0.9948 0.0911 0.0451
vn 0.9939 0.1008 0.0452
vn 0.7700 0.6364 0.0464
vn -0.0420 -0.1594 0.9863
vn 0.0981 0.3076 0.9464
vn -0.0920 0.3144 0.9448
vn -0.1005 0.3123 0.9446
vn 0.0945 0.3088 0.9464
vn -0.7207 0.6795 -0.1378
vn -0.0420 -0.1594 -0.9863
vn -0.0016 0.0020 1.0000
vn 0.3278 0.0280 -0.9443
vn 0.3271 0.0334 -0.9444
vn -0.2905 0.9569 -0.0000
vn -0.7394 0.6708 0.0578
vn -0.7430 0.6667 0.0592
vn 0.0025 -0.0007 1.0000
vn -0.5567 -0.8303 0.0262
vn 0.0025 -0.0007 -1.0000
vn 0.1001 0.3136 -0.9443
vn 0.0958 0.3150 -0.9442
vn -0.2498 0.2554 -0.9340
vn -0.0932 0.3134 -0.9450
vn -0.0959 0.3127 -0.9450
vn -0.2529 0.2536 -0.9337
vn 0.3316 -0.1346 0.9338
vn 0.3275 0.0334 0.9443
vn 0.3282 0.0277 0.9442
vn 0.3311 -0.1379 0.9335
vn 0.2545 0.2099 0.9440
vn 0.2535 0.2110 0.9440
vn 0.1001 0.3136 0.9443
vn 0.0958 0.3150 0.9442
vn -0.0943 0.3188 0.9431
vn -0.0998 0.3173 0.9430
vn 0.2490 0.2074 0.9460
vn 0.2500 0.2063 0.9460
vn -0.7628 0.6464 0.0193
vn -0.7642 0.6447 0.0194
vn 0.2988 0.9543 -0.0000
vn 0.8863 -0.4627 -0.0190
vn 0.8872 -0.4610 -0.0188
vn 0.7770 -0.6196 -0.1111
vn 0.8991 -0.4337 -0.0585
vn 0.9015 -0.4289 -0.0571
vn 0.9955 0.0945 -0.0000
vn 0.7694 0.6387 -0.0000
vn -0.8686 0.4826 0.1124
vn -0.7281 0.6846 0.0344
vn 0.3326 0.0280 0.9426
vn 0.3319 0.0337 0.9427
vn 0.2990 0.9543 0.0008
vn 0.2969 0.9549 0.0008
vn 0.9095 -0.4144 -0.0341
vn 0.9489 -0.3151 -0.0183
vn 0.7697 0.6384 0.0011
vn 0.7702 0.6378 0.0011
vn 0.9955 0.0943 -0.0011
vn 0.9955 0.0948 -0.0011
vn 0.3210 -0.1989 0.9259
vn -0.7150 -0.6988 -0.0199
vn -0.3748 -0.9269 0.0204
vn -0.3059 0.2215 -0.9259
vn -0.4014 -0.6002 0.6918
vn -0.4010 -0.5996 0.6926
vn -0.4029 -0.5987 -0.6922
vn -0.4029 -0.5988 -0.6922
vn -0.5575 -0.8288 -0.0471
vn -0.5552 -0.8304 0.0470
vn -0.5569 -0.8306 -0.0000
vn -0.0000 -0.0000 1.0000
vn -0.9094 0.4158 -0.0000
vn -0.0000 -0.0000 -1.0000
vn 0.8284 -0.5602 0.0006
vn -0.7235 -0.3553 -0.5919
vn -0.8483 0.0394 -0.5280
vn -0.6301 0.3196 0.7077
vn -0.9046 -0.0719 0.4202
vn -0.5509 -0.0832 0.8304
vn -0.5984 0.7343 0.3205
vn -0.8989 -0.4068 0.1630
vn -0.6300 0.7765 0.0136
vt 0.568698 0.934377
vt 0.565143 0.934377
vt 0.598020 0.934377
vt 0.601353 0.934377
vt 0.601353 0.801245
vt 0.600686 0.801245
vt 0.598020 0.801245
vt 0.602019 0.801245
vt 0.564699 0.934377
vt 0.590023 0.934377
vt 0.565588 0.934377
vt 0.576695 0.934377
vt 0.153216 0.797726
vt 0.153216 0.899514
vt 0.152293 0.877602
vt 0.176953 0.797726
vt 0.176953 0.899514
vt 0.176031 0.877602
vt 0.132910 0.798995
vt 0.132944 0.878217
vt 0.132312 0.797726
vt 0.132312 0.899514
vt 0.133234 0.877602
vt 0.156049 0.797726
vt 0.156049 0.899514
vt 0.156972 0.877602
vt 0.156494 0.798669
vt 0.132756 0.798669
vt 0.176321 0.878217
vt 0.156647 0.798995
vt 0.156682 0.878217
vt 0.176509 0.798669
vt 0.152771 0.798669
vt 0.152618 0.798995
vt 0.152583 0.878217
vt 0.176355 0.798995
vt 0.921877 0.374419
vt 0.950520 0.353983
vt 0.947666 0.439885
vt 0.949972 0.370467
vt 0.921198 0.353983
vt 0.924052 0.439885
vt 0.170435 0.892095
vt 0.163700 0.817256
vt 0.172078 0.804204
vt 0.193678 0.813909
vt 0.170263 0.767729
vt 0.170435 0.892095
vt 0.172078 0.804203
vt 0.193678 0.813909
vt 0.170263 0.767729
vt 0.965665 0.405171
vt 0.937502 0.405172
vt 0.937502 0.343624
vt 0.937502 0.447553
vt 0.963102 0.459506
vt 0.965449 0.397352
vt 0.906877 0.362597
vt 0.901295 0.407478
vt 0.894048 0.361682
vt 0.951458 0.464193
vt 0.980847 0.414385
vt 0.968228 0.413709
vt 0.937502 0.431287
vt 0.937502 0.353806
vt 0.963102 0.299033
vt 0.937502 0.416202
vt 0.966140 0.432367
vt 0.977330 0.398624
vt 0.963102 0.383538
vt 0.901295 0.450968
vt 0.909812 0.413652
vt 0.894048 0.359375
vt 0.973706 0.459506
vt 0.967472 0.459506
vt 0.977330 0.398624
vt 0.965665 0.329204
vt 0.949824 0.427215
vt 0.937502 0.341496
vt 0.952165 0.474070
vt 0.955574 0.404093
vt 0.963060 0.404093
vt 0.927235 0.463313
vt 0.937502 0.382239
vt 0.906775 0.359375
vt 0.897671 0.329204
vt 0.911900 0.299033
vt 0.906775 0.361682
vt 0.897671 0.346596
vt 0.911900 0.331511
vt 0.937502 0.352742
vt 0.937502 0.425141
vt 0.937501 0.474070
vt 0.937501 0.448140
vt 0.915684 0.404093
vt 0.916763 0.474070
vt 0.911941 0.384041
vt 0.928464 0.378451
vt 0.914687 0.392556
vt 0.959317 0.436068
vt 0.927235 0.442940
vt 0.963102 0.450968
vt 0.937502 0.382273
vt 0.965665 0.329204
vt 0.937502 0.469811
vt 0.964811 0.444240
vt 0.908719 0.394114
vt 0.901119 0.300500
vt 0.963211 0.300319
vt 0.951576 0.430349
vt 0.937502 0.346821
vt 0.937502 0.329204
vt 0.978538 0.389906
vt 0.973706 0.299033
vt 0.968228 0.359375
vt 0.937502 0.341496
vt 0.909812 0.413652
vt 0.977330 0.405171
vt 0.977330 0.436607
vt 0.965665 0.398624
vt 0.937502 0.456895
vt 0.965190 0.395830
vt 0.980954 0.359375
vt 0.967943 0.450968
vt 0.965190 0.323617
vt 0.937502 0.344289
vt 0.923589 0.397023
vt 0.909812 0.343803
vt 0.907514 0.450968
vt 0.897671 0.346597
vt 0.897671 0.329204
vt 0.980954 0.413709
vt 0.973706 0.383538
vt 0.928465 0.378451
vt 0.922471 0.387347
vt 0.959317 0.404093
vt 0.958239 0.474070
vt 0.963060 0.436068
vt 0.946537 0.447080
vt 0.937502 0.374641
vt 0.911900 0.407478
vt 0.909812 0.343803
vt 0.911900 0.450968
vt 0.937502 0.438151
vt 0.901295 0.331511
vt 0.937502 0.346596
vt 0.966519 0.339261
vt 0.937502 0.356653
vt 0.908483 0.376947
vt 0.922489 0.398008
vt 0.937502 0.347083
vt 0.926913 0.463054
vt 0.937502 0.384474
vt 0.909338 0.329204
vt 0.937502 0.355536
vt 0.961882 0.424784
vt 0.973706 0.419718
vt 0.963060 0.450968
vt 0.928464 0.378451
vt 0.916387 0.392984
vt 0.922837 0.474070
vt 0.928464 0.426116
vt 0.911941 0.404093
vt 0.925478 0.441812
vt 0.937502 0.377814
vt 0.911813 0.332020
vt 0.909338 0.384580
vt 0.898879 0.341568
vt 0.898879 0.319147
vt 0.566032 0.858348
vt 0.568698 0.858348
vt 0.568698 0.918752
vt 0.566032 0.918752
vt 0.915685 0.404093
vt 0.916418 0.392992
vt 0.959317 0.404093
vt 0.946537 0.447080
vt 0.937502 0.382449
vt 0.911813 0.332024
vt 0.937502 0.378202
vt 0.907112 0.407478
vt 0.909736 0.344250
vt 0.898342 0.343803
vt 0.939976 0.381189
vt 0.908483 0.339261
vt 0.922489 0.459492
vt 0.937502 0.379446
vt 0.928464 0.426116
vt 0.915684 0.384041
vt 0.937501 0.372861
vt 0.937501 0.458092
vt 0.965665 0.405171
vt 0.937502 0.344290
vt 0.909338 0.384580
vt 0.937502 0.354139
vt 0.937502 0.382273
vt 0.909337 0.346597
vt 0.939976 0.381189
vt 0.928465 0.426117
vt 0.915684 0.384041
vt 0.959317 0.436068
vt 0.512839 0.868533
vt 0.512441 0.856384
vt 0.514035 0.858247
vt 0.541149 0.867821
vt 0.541946 0.856384
vt 0.540352 0.858247
vt 0.540352 0.833091
vt 0.541946 0.827087
vt 0.512441 0.872009
vt 0.512441 0.861064
vt 0.512441 0.879613
vt 0.514035 0.833090
vt 0.512441 0.827087
vt 0.536388 0.842712
vt 0.541946 0.842712
vt 0.529474 0.842712
vt 0.198663 0.862089
vt 0.199295 0.876026
vt 0.197944 0.878452
vt 0.512441 0.842712
vt 0.517999 0.842712
vt 0.524914 0.842712
vt 0.224252 0.876059
vt 0.223403 0.863346
vt 0.222901 0.878452
vt 0.184925 0.862112
vt 0.184290 0.876080
vt 0.185641 0.878452
vt 0.223625 0.862058
vt 0.224252 0.876059
vt 0.541946 0.872009
vt 0.541946 0.861064
vt 0.541946 0.879613
vt 0.209873 0.862058
vt 0.209246 0.875930
vt 0.210598 0.878452
vt 0.522807 0.832890
vt 0.514035 0.833277
vt 0.187066 0.935662
vt 0.189542 0.916150
vt 0.195306 0.916802
vt 0.198417 0.844218
vt 0.199398 0.839844
vt 0.199398 0.883827
vt 0.186070 0.883827
vt 0.186070 0.839444
vt 0.187528 0.849490
vt 0.186070 0.887174
vt 0.195926 0.871368
vt 0.198417 0.845301
vt 0.198657 0.928204
vt 0.194261 0.829854
vt 0.192722 0.829854
vt 0.191207 0.829854
vt 0.186070 0.892987
vt 0.198657 0.929071
vt 0.199398 0.929485
vt 0.186070 0.931587
vt 0.170435 0.938970
vt 0.163700 0.864131
vt 0.172078 0.851079
vt 0.193678 0.860784
vt 0.170263 0.814605
vt 0.170435 0.938970
vt 0.172077 0.851079
vt 0.193678 0.860785
vt 0.566032 0.934377
vt 0.600686 0.858348
vt 0.598020 0.858348
vt 0.598020 0.918752
vt 0.600686 0.918752
vt 0.564699 0.842723
vt 0.564699 0.871877
vt 0.565291 0.801245
vt 0.568698 0.801245
vt 0.564699 0.801245
vt 0.601353 0.934377
vt 0.594783 0.934377
vt 0.602019 0.934377
vt 0.600686 0.934377
vt 0.602019 0.842723
vt 0.602019 0.871877
vt 0.566032 0.842723
vt 0.566032 0.903127
vt 0.566032 0.801245
vt 0.565440 0.801245
vt 0.152618 0.783370
vt 0.153216 0.782101
vt 0.132312 0.782101
vt 0.132756 0.783044
vt 0.590023 0.858348
vt 0.576695 0.858348
vt 0.576695 0.918752
vt 0.590023 0.918752
vt 0.576695 0.801245
vt 0.590023 0.801245
vt 0.223020 0.769995
vt 0.215023 0.769995
vt 0.598020 0.934377
vt 0.201695 0.769995
vt 0.193698 0.769995
vt 0.156647 0.783370
vt 0.156049 0.782101
vt 0.176953 0.782101
vt 0.176509 0.783044
vt 0.135447 0.820002
vt 0.150080 0.820002
vt 0.150080 0.888531
vt 0.135447 0.888531
vt 0.176355 0.783370
vt 0.156494 0.783044
vt 0.173818 0.820002
vt 0.159185 0.820002
vt 0.159185 0.888531
vt 0.173818 0.888531
vt 0.132910 0.783370
vt 0.152771 0.783044
vt 0.600686 0.842723
vt 0.600686 0.903127
vt 0.176031 0.908852
vt 0.176953 0.930764
vt 0.156049 0.930764
vt 0.156682 0.909467
vt 0.152293 0.908852
vt 0.153216 0.930764
vt 0.132312 0.930764
vt 0.132944 0.909467
vt 0.133234 0.908852
vt 0.152583 0.909467
vt 0.156972 0.908852
vt 0.176321 0.909467
vt 0.568698 0.905996
vt 0.568698 0.871877
vt 0.598020 0.905996
vt 0.598020 0.871877
vt 0.598020 0.921621
vt 0.590023 0.887502
vt 0.576695 0.887502
vt 0.568698 0.921621
vt 0.201695 0.896302
vt 0.201950 0.845062
vt 0.214765 0.844927
vt 0.215023 0.896302
vt 0.215023 0.908777
vt 0.201695 0.908777
vt 0.201695 0.883827
vt 0.201695 0.843230
vt 0.202784 0.827521
vt 0.202552 0.825824
vt 0.214192 0.825824
vt 0.213911 0.827504
vt 0.215023 0.843382
vt 0.215023 0.883827
vt 0.977725 0.400267
vt 0.207899 0.803384
vt 0.202908 0.859410
vt 0.193678 0.800522
vt 0.204733 0.891344
vt 0.178955 0.889215
vt 0.187500 0.756589
vt 0.204781 0.766620
vt 0.187500 0.901965
vt 0.207899 0.803384
vt 0.202908 0.859410
vt 0.193678 0.800522
vt 0.204733 0.891344
vt 0.937502 0.384580
vt 0.909337 0.384580
vt 0.977725 0.332491
vt 0.973706 0.450968
vt 0.937502 0.359375
vt 0.937502 0.361682
vt 0.937502 0.394531
vt 0.980847 0.360726
vt 0.937502 0.427062
vt 0.937502 0.364360
vt 0.907077 0.299033
vt 0.908863 0.396690
vt 0.898235 0.412295
vt 0.909338 0.384580
vt 0.965665 0.329204
vt 0.901295 0.299033
vt 0.977330 0.329204
vt 0.937502 0.471578
vt 0.977330 0.329204
vt 0.911787 0.332174
vt 0.937502 0.365175
vt 0.898879 0.420437
vt 0.909338 0.329204
vt 0.973915 0.300772
vt 0.973915 0.384407
vt 0.963229 0.384284
vt 0.937502 0.416609
vt 0.937502 0.382239
vt 0.908483 0.376947
vt 0.967876 0.383538
vt 0.978538 0.428975
vt 0.937502 0.379445
vt 0.937502 0.423744
vt 0.937502 0.445747
vt 0.937502 0.453097
vt 0.965372 0.439226
vt 0.912928 0.428207
vt 0.960265 0.447440
vt 0.937502 0.455953
vt 0.964904 0.418760
vt 0.976841 0.411346
vt 0.937502 0.385591
vt 0.897484 0.383393
vt 0.976841 0.439695
vt 0.937502 0.450549
vt 0.977330 0.405171
vt 0.897484 0.402798
vt 0.937502 0.374790
vt 0.937502 0.433054
vt 0.977330 0.436607
vt 0.964811 0.444240
vt 0.965665 0.405171
vt 0.976122 0.420437
vt 0.937502 0.426259
vt 0.965665 0.436607
vt 0.898879 0.392213
vt 0.937502 0.349318
vt 0.976122 0.444240
vt 0.937502 0.384474
vt 0.898879 0.420437
vt 0.899989 0.434467
vt 0.937502 0.426259
vt 0.964044 0.451094
vt 0.964366 0.428390
vt 0.899989 0.399228
vt 0.976012 0.421821
vt 0.976012 0.444932
vt 0.901070 0.332446
vt 0.908838 0.396252
vt 0.937502 0.425552
vt 0.966164 0.396252
vt 0.978036 0.396252
vt 0.966164 0.432148
vt 0.978036 0.432148
vt 0.937502 0.446798
vt 0.937502 0.450549
vt 0.965665 0.436608
vt 0.977330 0.405171
vt 0.977330 0.436607
vt 0.908483 0.339261
vt 0.910473 0.394723
vt 0.898989 0.421820
vt 0.937502 0.433054
vt 0.937502 0.441909
vt 0.937502 0.375762
vt 0.964512 0.425776
vt 0.977078 0.408357
vt 0.964530 0.446750
vt 0.977078 0.438200
vt 0.937502 0.454976
vt 0.978483 0.390598
vt 0.966114 0.397148
vt 0.963060 0.459506
vt 0.973706 0.443881
vt 0.958584 0.449548
vt 0.962067 0.428260
vt 0.937501 0.405172
vt 0.937502 0.389547
vt 0.911941 0.407478
vt 0.901295 0.391853
vt 0.912928 0.428207
vt 0.937502 0.416479
vt 0.965541 0.437710
vt 0.978483 0.429321
vt 0.911778 0.300474
vt 0.901141 0.300316
vt 0.937502 0.364915
vt 0.965118 0.441492
vt 0.965076 0.415697
vt 0.909621 0.410242
vt 0.937502 0.437320
vt 0.969819 0.448102
vt 0.963102 0.443881
vt 0.925120 0.443806
vt 0.970830 0.428159
vt 0.939976 0.400097
vt 0.963102 0.419718
vt 0.898073 0.410243
vt 0.909621 0.387115
vt 0.937502 0.374399
vt 0.965381 0.410242
vt 0.976929 0.410242
vt 0.965381 0.439143
vt 0.976929 0.439143
vt 0.937502 0.452682
vt 0.965665 0.436608
vt 0.977330 0.405172
vt 0.937502 0.382273
vt 0.909338 0.405172
vt 0.977330 0.436608
vt 0.937502 0.450549
vt 0.897671 0.405171
vt 0.977330 0.436607
vt 0.937502 0.450549
vt 0.965665 0.436608
vt 0.977330 0.405171
vt 0.965665 0.405171
vt 0.897671 0.384580
vt 0.909337 0.405171
vt 0.909926 0.415697
vt 0.937502 0.450119
vt 0.899277 0.425457
vt 0.909926 0.389843
vt 0.937502 0.378202
vt 0.965076 0.415698
vt 0.975725 0.425458
vt 0.965076 0.441871
vt 0.975725 0.446751
vt 0.937502 0.459081
vt 0.540352 0.897646
vt 0.935027 0.457410
vt 0.969765 0.448160
vt 0.970790 0.428276
vt 0.939976 0.400097
vt 0.905236 0.396132
vt 0.911900 0.391853
vt 0.904211 0.428276
vt 0.911900 0.419718
vt 0.514035 0.897646
vt 0.185148 0.863400
vt 0.184290 0.876078
vt 0.540352 0.833275
vt 0.541946 0.856384
vt 0.541946 0.890281
vt 0.541946 0.884871
vt 0.512441 0.856384
vt 0.210614 0.945599
vt 0.209263 0.904803
vt 0.209263 0.904923
vt 0.536380 0.878962
vt 0.541946 0.876689
vt 0.541946 0.895238
vt 0.536376 0.893286
vt 0.531580 0.832890
vt 0.536373 0.904991
vt 0.541946 0.905906
vt 0.536375 0.896805
vt 0.541946 0.858337
vt 0.536381 0.874349
vt 0.536388 0.858337
vt 0.541946 0.872009
vt 0.512441 0.872009
vt 0.536373 0.906285
vt 0.518008 0.878962
vt 0.518011 0.893286
vt 0.512441 0.895238
vt 0.512441 0.876689
vt 0.185657 0.945599
vt 0.185652 0.900840
vt 0.184301 0.894415
vt 0.184306 0.905182
vt 0.541548 0.868534
vt 0.539101 0.848515
vt 0.515286 0.848515
vt 0.529482 0.878962
vt 0.529486 0.893286
vt 0.524901 0.893286
vt 0.524905 0.878962
vt 0.518006 0.874349
vt 0.517999 0.858337
vt 0.512441 0.858337
vt 0.518012 0.896805
vt 0.518014 0.904991
vt 0.512441 0.905906
vt 0.512441 0.890281
vt 0.512441 0.884871
vt 0.184301 0.894415
vt 0.518014 0.906285
vt 0.513238 0.867821
vt 0.197928 0.945599
vt 0.197933 0.900840
vt 0.199284 0.894330
vt 0.199278 0.904831
vt 0.209258 0.894516
vt 0.210608 0.900840
vt 0.222890 0.932090
vt 0.210608 0.932090
vt 0.210598 0.909702
vt 0.222901 0.909702
vt 0.184306 0.905020
vt 0.209258 0.894511
vt 0.209247 0.876168
vt 0.199284 0.894296
vt 0.199295 0.876168
vt 0.224235 0.905182
vt 0.222884 0.945599
vt 0.224235 0.905020
vt 0.222890 0.900840
vt 0.224241 0.894411
vt 0.199278 0.905199
vt 0.197933 0.932090
vt 0.185652 0.932090
vt 0.185641 0.909702
vt 0.197944 0.909702
vt 0.222884 0.976849
vt 0.210614 0.976849
vt 0.197928 0.976849
vt 0.185657 0.976849
vt 0.197961 0.866149
vt 0.210580 0.866149
vt 0.529474 0.858337
vt 0.529481 0.874349
vt 0.524907 0.874349
vt 0.524914 0.858337
vt 0.224241 0.894411
vt 0.529487 0.896805
vt 0.529489 0.904991
vt 0.524898 0.904991
vt 0.524900 0.896805
vt 0.529489 0.906285
vt 0.524898 0.906285
vt 0.199312 0.858337
vt 0.223625 0.854430
vt 0.210580 0.854430
vt 0.209230 0.854430
vt 0.184925 0.854430
vt 0.197961 0.854430
vt 0.199312 0.854430
vt 0.209230 0.858337
vt 0.540352 0.889497
vt 0.514035 0.889497
vt 0.514035 0.848515
vt 0.540352 0.848515
vt 0.199398 0.896302
vt 0.198522 0.852320
vt 0.186817 0.851920
vt 0.186070 0.896302
vt 0.198707 0.948904
vt 0.187051 0.948904
vt 0.198451 0.825824
vt 0.198324 0.837931
vt 0.187151 0.837895
vt 0.186861 0.825824
vt 0.193964 0.858975
vt 0.194261 0.859338
vt 0.191335 0.859430
vt 0.191207 0.858557
vt 0.192722 0.779953
vt 0.194261 0.809437
vt 0.191335 0.809529
vt 0.207899 0.850259
vt 0.202908 0.906285
vt 0.193678 0.847397
vt 0.204733 0.938219
vt 0.178955 0.936090
vt 0.187500 0.803464
vt 0.204781 0.813495
vt 0.187500 0.948840
vt 0.207899 0.850259
vt 0.202908 0.906285
vt 0.193678 0.847397
vt 0.178955 0.936090
s 1
usemtl texture.130
f 27/1/1 34/1/1 12/2/2
f 29/3/1 28/3/3 9/4/4
f 14/5/5 5/6/6 30/7/7
f 7/8/8 10/5/9 31/7/10
f 4/9/11 12/2/2 34/1/1
f 29/3/1 20/10/1 28/3/3
f 33/1/1 25/1/12 11/11/13
f 25/1/12 33/1/1 24/12/14
f 19/12/1 34/1/1 27/12/1
f 21/13/15 24/14/16 41/15/17
f 30/16/7 26/17/18 38/18/19
f 36/19/20 43/20/21 35/21/22
f 32/21/23 34/22/24 46/23/25
f 17/24/23 20/25/24 49/26/25
f 49/26/25 45/27/26 17/24/23
f 32/21/23 46/23/25 51/28/26
f 29/17/27 31/16/10 50/29/28
f 40/30/20 39/31/29 22/24/22
f 23/25/30 22/24/22 39/31/29
f 33/22/30 35/21/22 43/20/21
f 38/18/19 42/32/31 30/16/7
f 41/15/17 37/33/31 21/13/15
f 48/34/32 47/35/28 18/13/10
f 19/14/27 18/13/10 47/35/28
f 31/16/10 44/36/32 50/29/28
f 77/37/33 78/38/34 80/39/35
f 79/40/36 52/41/37 81/42/38
f 62/43/39 65/44/40 61/45/41
f 66/46/42 62/43/39 61/47/41
f 70/48/39 73/44/43 69/49/41
f 74/50/42 70/48/39 69/51/41
f 103/52/44 110/53/45 93/54/46
f 102/55/47 101/56/48 91/57/49
f 85/58/50 93/59/46 84/60/51
f 90/61/52 88/62/53 89/63/54
f 90/61/52 89/63/54 82/64/55
f 103/52/44 93/65/46 85/66/50
f 102/55/47 91/57/49 88/67/53
f 95/68/56 101/69/48 102/70/47
f 109/71/57 96/72/58 97/73/59
f 95/68/56 108/74/60 101/69/48
f 114/63/61 119/75/62 108/76/60
f 115/77/63 120/78/64 116/79/65
f 122/80/66 120/81/64 119/82/62
f 121/83/67 113/84/68 118/85/69
f 109/86/57 118/85/69 96/87/58
f 117/88/70 109/89/57 98/90/71
f 116/91/65 117/88/70 98/90/71
f 114/63/61 108/76/60 95/70/56
f 113/92/68 114/63/61 95/70/56
f 122/93/66 121/94/67 112/95/72
f 122/96/66 112/97/72 111/98/73
f 122/93/66 111/99/73 120/81/64
f 122/80/66 119/100/62 121/101/67
f 140/102/74 148/103/75 147/104/76
f 143/105/77 145/106/78 144/92/79
f 133/71/80 124/107/81 125/108/82
f 128/109/83 132/110/84 127/111/85
f 147/104/76 148/103/75 133/112/80
f 146/113/86 147/104/76 132/114/84
f 141/115/87 140/116/74 146/66/86
f 140/91/74 139/88/88 148/90/75
f 153/71/89 137/117/90 138/73/91
f 142/118/92 160/102/93 141/115/87
f 136/56/94 142/119/92 143/120/77
f 158/121/95 154/56/96 136/122/94
f 159/123/97 155/124/98 160/125/93
f 161/126/99 156/127/100 152/128/101
f 157/129/102 162/85/103 153/130/89
f 153/131/89 162/85/103 137/87/90
f 159/123/97 160/125/93 142/114/92
f 136/122/94 159/132/97 142/133/92
f 163/93/104 154/94/96 157/95/102
f 163/96/104 157/97/102 156/134/100
f 163/93/104 156/135/100 155/136/98
f 163/137/104 155/138/98 154/139/96
f 193/140/105 197/141/106 194/142/107
f 194/143/107 165/144/108 166/85/109
f 194/142/107 195/60/110 165/145/108
f 193/140/105 194/142/107 167/146/111
f 192/147/112 193/140/105 167/112/111
f 186/148/113 185/149/114 193/90/105
f 199/150/115 205/88/116 204/151/117
f 208/80/118 203/81/119 201/82/120
f 207/152/121 200/153/122 198/154/123
f 204/155/117 205/88/116 185/90/114
f 203/156/119 202/157/124 201/158/120
f 208/96/118 206/97/125 199/159/115
f 208/93/118 199/160/115 203/81/119
f 208/161/118 207/162/121 206/163/125
f 208/80/118 201/100/120 207/164/121
f 225/165/126 216/141/127 226/166/128
f 225/165/126 226/166/128 212/146/129
f 217/167/130 216/168/127 225/90/126
f 217/167/130 231/59/131 216/169/127
f 1/170/132 35/171/22 33/172/133 2/173/133
f 241/93/134 235/94/135 233/174/136
f 241/96/134 233/97/136 239/134/137
f 241/93/134 239/175/137 237/176/138
f 241/137/134 237/138/138 235/177/135
f 247/178/139 253/141/140 246/179/141
f 261/180/142 264/181/143 253/182/140
f 253/182/140 264/181/143 254/183/144
f 265/80/145 261/184/142 263/82/146
f 255/185/147 262/186/148 257/187/149
f 261/180/142 253/182/140 247/146/139
f 265/161/145 262/188/148 264/163/143
f 265/161/145 264/189/143 261/190/142
f 265/80/145 263/100/146 262/191/148
f 302/192/150 295/53/151 290/193/152
f 269/194/153 290/59/152 268/60/154
f 302/192/150 290/195/152 269/66/153
f 296/196/155 295/197/151 302/146/150
f 296/196/155 306/141/156 295/197/151
f 315/80/1 311/198/157 309/82/158
f 315/161/1 307/199/159 313/163/160
f 315/161/1 313/200/160 311/190/157
f 315/80/1 309/201/158 307/191/159
f 2/268/236 33/1/1 11/11/13
f 7/269/8 31/270/10 29/271/237 8/272/237
f 3/273/238 15/273/239 12/274/2 4/274/11
f 13/275/240 35/276/22 1/277/132
f 16/278/241 26/279/242 6/280/243
f 13/273/240 1/273/132 2/274/236 11/274/13
f 8/281/244 29/3/1 9/4/4
f 11/11/13 25/1/12 27/1/1 12/2/2
f 5/282/6 14/282/5 16/283/241 6/283/243
f 15/284/239 13/284/240 11/285/13 12/285/2
f 10/282/9 7/282/8 8/283/244 9/283/4
f 23/10/245 26/279/246 25/12/12 24/12/14
f 3/286/238 32/276/23 15/287/239
f 28/10/3 20/10/1 19/12/1 27/12/1
f 48/288/32 18/289/10 32/290/23 51/291/26
f 17/292/23 18/293/10 19/294/237 20/295/237
f 21/293/15 22/292/22 23/295/133 24/294/133
f 21/296/15 18/296/10 17/297/23 22/297/22
f 10/5/9 14/5/5 30/7/7 31/7/10
f 30/270/7 5/269/6 6/272/247 26/271/247
f 31/298/10 30/298/7 22/299/22 17/299/23
f 32/276/23 35/276/22 13/275/240 15/287/239
f 32/171/23 3/170/238 4/173/237 34/172/237
f 9/4/4 28/3/3 26/300/242 16/278/241
f 18/301/10 21/301/15 35/302/22 32/302/23
f 40/303/20 22/304/22 30/305/7 42/306/31
f 36/307/20 37/308/31 41/309/17 43/310/21
f 44/311/32 31/305/10 17/304/23 45/312/26
f 48/308/32 51/307/26 46/310/25 47/309/28
f 44/313/32 45/314/26 49/315/25 50/316/28
f 36/317/20 35/290/22 21/289/15 37/318/31
f 40/314/20 42/313/31 38/316/19 39/315/29
f 10/319/9 9/320/4 16/320/241 14/319/5
f 38/321/19 26/322/246 23/323/245 39/324/29
f 41/325/17 24/326/248 33/327/248 43/328/21
f 46/329/25 34/327/249 19/326/249 47/330/28
f 49/331/25 20/323/249 29/322/249 50/332/28
f 52/333/250 27/334/251 25/334/251 77/333/252
f 78/335/253 26/336/253 28/336/253 79/335/253
f 79/337/36 28/338/254 27/339/254 52/340/37
f 25/339/255 26/338/255 78/337/34 77/340/33
f 81/42/256 77/37/256 80/39/257 79/40/258
f 56/341/133 60/342/259 59/343/260 55/344/133
f 80/39/257 78/38/261 79/40/258
f 77/37/252 81/42/262 52/41/250
f 55/345/1 53/345/1 54/346/1 56/346/1
f 56/347/263 54/347/263 58/348/264 60/342/259
f 60/349/259 58/350/264 57/351/265 59/352/260
f 59/343/260 57/353/265 53/354/266 55/354/266
f 100/74/267 92/355/268 91/57/49 101/56/48
f 64/356/269 63/357/270 66/358/42
f 63/359/270 62/360/39 66/46/42
f 67/361/271 64/362/269 66/358/42
f 67/361/271 66/358/42 61/47/41
f 68/363/272 62/43/39 63/359/270
f 72/364/269 71/365/270 74/366/42
f 71/367/270 70/360/39 74/50/42
f 75/361/271 72/362/269 74/366/42
f 75/361/271 74/366/42 69/51/41
f 76/363/272 70/48/39 71/367/270
f 93/54/46 110/368/45 104/369/273
f 107/143/274 83/85/275 84/73/51 93/71/46
f 92/370/268 100/371/267 103/52/44
f 86/372/276 87/115/277 91/102/49 92/53/268
f 86/373/276 92/368/268 85/58/50
f 90/61/52 82/374/55 83/85/275 107/143/274
f 88/375/278 91/102/49 87/115/277
f 102/376/47 88/377/53 90/378/52 106/379/279
f 105/380/280 90/145/52 107/90/274 104/369/273
f 90/378/52 105/380/280 106/379/279
f 102/70/47 106/67/279 94/64/281 95/68/56
f 93/54/46 104/369/273 107/90/274
f 92/370/268 103/52/44 85/66/50
f 110/90/45 103/146/44 99/373/282 98/381/283
f 100/382/267 99/372/282 103/112/44
f 97/60/59 104/145/273 110/90/45 98/381/283
f 105/87/280 104/383/273 97/73/59 96/72/58
f 94/374/281 106/377/279 105/87/280 96/72/58
f 116/53/65 99/372/282 100/382/267 115/102/63
f 98/381/283 109/59/57 97/60/59
f 99/373/282 116/368/65 98/381/283
f 115/102/63 100/382/267 101/384/48 108/371/60
f 114/63/61 113/92/68 121/83/67 119/75/62
f 94/64/281 113/105/68 95/68/56
f 96/72/58 113/385/68 94/374/281
f 120/78/64 115/77/63 108/386/60 119/371/62
f 117/88/70 116/79/65 120/368/64 111/141/73
f 109/89/57 117/88/70 111/141/73 112/59/72
f 118/85/69 109/89/57 112/71/72 121/83/67
f 125/108/82 126/387/284 147/141/285 133/59/80
f 96/87/58 118/85/69 113/84/68
f 125/108/286 124/107/287 134/87/288
f 134/87/288 124/107/287 123/388/289
f 150/389/290 135/143/291 151/390/292
f 146/113/86 140/102/74 147/104/76
f 126/387/284 127/111/85 132/368/84 147/141/285
f 132/110/84 128/109/83 129/391/293 144/371/79
f 129/392/293 130/393/294 151/56/292 144/74/79
f 130/393/294 123/394/289 131/105/295 151/56/292
f 144/395/79 151/390/292 135/143/291 143/385/77
f 124/107/287 131/385/295 123/388/289
f 131/145/295 124/90/81 149/396/296 150/389/290
f 131/383/295 150/389/290 151/390/292
f 149/396/296 124/90/81 133/146/80 148/103/75
f 141/115/87 146/66/86 145/114/78 142/118/92
f 132/397/84 145/106/78 146/398/86
f 144/92/79 145/106/78 132/397/84
f 138/60/91 149/145/296 148/90/75 139/88/88
f 150/87/290 149/383/296 138/73/91 137/117/90
f 138/60/91 139/88/88 152/141/101 153/59/89
f 150/87/290 137/117/90 135/399/291
f 143/120/77 142/119/92 145/133/78
f 139/88/88 140/91/74 161/368/99 152/141/101
f 161/53/99 140/91/74 141/115/87 160/102/93
f 143/120/77 135/400/291 164/105/297 136/56/94
f 159/132/97 136/122/94 154/56/96 155/74/98
f 137/117/90 164/385/297 135/399/291
f 161/126/99 160/125/93 155/124/98 156/53/100
f 153/130/89 152/128/101 156/127/100 157/59/102
f 158/401/95 164/377/297 137/87/90 162/85/103
f 162/85/103 157/129/102 158/401/95
f 173/70/298 177/67/299 165/402/108 172/403/300
f 164/67/297 158/121/95 136/122/94
f 157/404/102 154/405/96 158/406/95
f 170/407/301 179/66/302 178/114/303 171/408/304
f 169/409/305 174/112/306 179/66/302 170/407/301
f 168/88/307 175/90/308 174/146/306 169/409/305
f 176/145/309 175/90/308 168/88/307 167/410/310
f 180/87/311 176/383/309 167/410/310 166/85/109
f 177/377/299 180/87/311 166/85/109 165/144/108
f 171/411/304 178/133/303 173/70/298 172/403/300
f 195/60/110 194/142/107 197/141/106 183/59/312
f 196/85/313 195/73/110 183/71/312 181/143/314
f 192/147/112 186/102/113 193/140/105
f 171/377/304 172/87/300 196/85/313 189/412/315
f 191/413/316 186/102/113 192/147/112
f 167/414/310 194/143/107 166/85/109
f 168/88/307 192/141/112 167/410/310
f 169/415/305 192/141/112 168/88/307
f 196/85/313 181/143/314 189/416/315
f 196/85/313 172/87/300 165/383/108 195/73/110
f 191/417/316 169/133/305 170/70/301 190/418/317
f 169/114/305 191/413/316 192/147/112
f 170/70/301 171/67/304 189/412/315 190/418/317
f 187/419/318 191/66/316 190/114/317 188/420/319
f 181/421/314 182/422/320 189/70/315
f 197/145/106 193/90/105 185/149/114 184/423/321
f 191/66/316 187/419/318 186/424/113
f 190/133/317 189/70/315 182/422/320 188/425/319
f 197/383/106 184/423/321 183/154/312
f 181/426/314 183/154/312 198/143/123 200/385/122
f 184/427/321 198/143/123 183/154/312
f 186/424/113 204/368/117 185/149/114
f 187/419/318 204/53/117 186/424/113
f 181/421/314 200/105/122 182/422/320
f 184/145/321 185/90/114 205/88/116 206/428/125
f 200/429/122 207/152/121 201/430/120
f 203/431/119 199/53/115 204/151/117
f 205/88/116 199/150/115 206/432/125
f 206/428/125 207/152/121 198/154/123
f 184/383/321 206/428/125 198/154/123
f 203/431/119 187/66/318 188/114/319 202/433/124
f 187/66/318 203/431/119 204/151/117
f 188/133/319 182/70/320 201/430/120 202/434/124
f 209/435/322 226/166/128 216/141/127 215/59/323
f 200/429/122 201/430/120 182/70/320
f 228/377/324 230/87/325 227/436/326 221/437/327
f 209/435/322 215/71/323 227/436/326
f 212/112/129 229/66/328 224/438/329 225/165/126
f 209/435/322 227/436/326 230/87/325
f 229/66/328 211/114/330 223/439/331 224/438/329
f 211/133/330 210/70/332 222/440/333 223/441/331
f 210/70/332 228/67/324 221/442/327 222/440/333
f 221/70/327 227/67/326 213/443/334 214/444/335
f 223/66/331 222/114/333 220/445/336 219/192/337
f 224/112/329 223/66/331 219/192/337 218/196/338
f 225/90/126 224/146/329 218/196/338 217/167/130
f 222/133/333 221/70/327 214/444/335 220/446/336
f 215/447/323 213/443/334 227/377/326
f 215/447/323 216/169/127 231/71/131 232/143/339
f 231/145/131 217/90/130 239/448/137 240/449/340
f 215/447/323 232/143/339 213/450/334
f 240/449/340 233/143/136 232/447/339
f 232/447/339 233/143/136 234/451/341
f 232/447/339 234/451/341 213/377/334
f 231/383/131 240/449/340 232/447/339
f 217/90/130 218/146/338 238/452/342 239/448/137
f 218/112/338 219/66/337 237/453/138 238/452/342
f 219/66/337 220/114/336 236/454/343 237/453/138
f 220/133/336 214/70/335 235/455/135 236/456/343
f 214/70/335 213/67/334 234/457/341 235/455/135
f 256/66/344 250/114/345 249/458/346 248/459/347
f 237/460/138 236/461/343 235/462/135
f 237/463/138 239/464/137 238/465/342
f 233/466/136 240/467/340 239/175/137
f 233/468/136 235/462/135 234/406/341
f 242/469/348 243/470/349 251/70/350
f 252/112/351 256/66/344 248/459/347 247/178/139
f 250/133/345 251/70/350 243/470/349 249/471/346
f 252/146/351 247/178/139 246/179/352
f 244/472/353 245/473/354 254/71/144 255/143/147
f 245/473/354 246/179/141 253/141/140 254/59/144
f 257/385/149 242/474/348 244/472/353 255/143/147
f 242/469/348 257/105/149 243/470/349
f 255/185/147 254/183/144 264/71/143 262/186/148
f 257/400/149 262/186/148 258/475/355
f 258/475/355 263/74/146 259/132/356
f 259/123/356 263/371/146 260/476/357
f 247/112/139 248/66/347 260/476/357 261/180/142
f 248/66/347 249/114/346 259/123/356 260/476/357
f 259/132/356 249/133/346 243/70/349 258/475/355
f 282/377/358 289/87/359 281/477/360 274/478/361
f 257/400/149 258/475/355 243/70/349
f 263/479/146 258/480/355 262/481/148
f 263/482/146 261/483/142 260/484/357
f 290/193/152 295/368/151 303/381/362
f 289/87/359 288/383/363 280/485/364 281/477/360
f 288/145/363 287/90/365 279/486/366 280/485/364
f 287/90/365 286/146/367 278/487/368 279/486/366
f 286/112/367 285/66/369 277/488/370 278/487/368
f 285/66/369 284/114/371 276/489/372 277/488/370
f 284/133/371 283/70/373 275/490/374 276/491/372
f 283/70/373 282/67/358 274/492/361 275/490/374
f 274/70/361 281/67/360 266/443/375 273/493/376
f 276/66/372 275/114/374 272/494/377 271/192/378
f 277/112/370 276/66/372 271/192/378 270/495/379
f 278/90/368 277/146/370 270/495/379 269/194/153
f 279/145/366 278/90/368 269/194/153 268/60/154
f 280/87/364 279/383/366 268/73/154 267/496/380
f 281/377/360 280/87/364 267/496/380 266/443/375
f 275/133/374 274/70/361 273/493/376 272/497/377
f 272/377/377 273/87/376 305/496/381 299/498/382
f 268/73/154 290/71/152 267/496/380
f 273/87/376 266/383/375 304/499/383 305/496/381
f 266/145/375 267/90/380 303/381/362 304/499/383
f 269/66/153 270/114/379 301/118/384 302/192/150
f 290/193/152 303/381/362 267/90/380
f 270/133/379 271/70/378 300/422/385 301/500/384
f 271/70/378 272/67/377 299/498/382 300/422/385
f 299/70/382 305/67/381 291/501/386 292/502/387
f 301/66/384 300/114/385 298/503/388 297/504/389
f 302/112/150 301/66/384 297/504/389 296/196/155
f 304/87/383 303/383/362 294/505/390 293/506/391
f 295/197/151 294/505/390 303/145/362
f 305/377/381 304/87/383 293/506/391 291/501/386
f 300/133/385 299/70/382 292/502/387 298/119/388
f 291/377/386 293/87/391 314/507/392 307/508/393
f 295/197/151 306/141/156 294/505/390
f 293/87/391 294/383/390 313/509/394 314/507/392
f 294/145/390 306/90/156 312/510/395 313/509/394
f 306/90/156 296/146/155 311/511/396 312/510/395
f 296/112/155 297/66/389 310/512/397 311/511/396
f 297/66/389 298/114/388 309/513/398 310/512/397
f 298/133/388 292/70/387 308/514/399 309/515/398
f 292/70/387 291/67/386 307/516/393 308/514/399
f 307/518/393 309/519/398 308/480/399
f 309/520/398 311/521/396 310/484/397
f 311/198/396 313/522/394 312/523/395
f 313/524/394 307/518/393 314/525/392
usemtl texture.076
f 329/202/161 341/203/162 322/204/163
f 331/205/164 336/206/165 324/207/166
f 324/207/166 336/206/165 325/208/167
f 325/208/167 336/206/165 337/209/168
f 342/210/169 387/211/170 386/212/171
f 323/213/172 341/203/162 343/214/173
f 322/204/163 341/203/162 323/213/172
f 362/215/174 337/216/175 334/216/176
f 332/216/177 347/215/178 333/216/179
f 332/216/177 346/217/180 347/215/178
f 360/218/181 391/219/182 352/220/183
f 343/221/184 365/222/185 364/223/186
f 363/217/187 337/216/175 362/215/174
f 399/224/188 347/225/189 344/226/190
f 365/227/191 400/228/192 367/229/193
f 361/222/194 338/221/195 360/223/196
f 362/230/197 393/231/198 356/226/199
f 335/232/200 379/233/201 378/234/202
f 346/235/203 398/236/204 345/237/205
f 316/238/206 338/214/207 320/239/208
f 425/240/209 424/241/210 422/242/211
f 427/243/212 420/244/213 429/245/214
f 430/246/215 421/247/216 428/248/217
f 430/246/215 428/248/217 434/249/218
f 428/248/217 427/243/212 426/250/219
f 422/242/211 426/250/219 427/251/212
f 423/252/220 427/243/212 429/245/214
f 426/253/221 433/254/222 428/255/223
f 434/256/224 428/248/225 424/241/210
f 422/242/211 427/251/212 423/257/226
f 423/252/226 425/240/209 422/242/211
f 418/258/227 423/252/220 429/245/214
f 419/259/228 430/246/229 425/240/230
f 425/240/209 434/256/224 424/241/210
f 425/240/231 430/246/215 434/249/218
f 436/260/232 439/261/233 435/262/234
f 440/263/235 436/260/232 435/264/234
f 444/265/232 447/261/233 443/266/234
f 448/267/235 444/265/232 443/264/234
f 331/517/164 324/207/400 327/207/401 330/517/402
f 328/526/403 329/526/161 322/204/404 321/204/405
f 346/217/180 332/216/177 343/221/184 364/223/186
f 361/527/406 353/229/407 390/528/408
f 326/529/409 332/209/410 335/530/200
f 383/531/411 330/532/402 335/232/200 378/234/202
f 317/238/412 323/213/172 343/214/173
f 321/204/413 320/239/208 342/533/169
f 350/534/414 371/534/415 408/535/416 411/536/417
f 393/537/198 380/538/418 381/539/419 394/540/420
f 332/209/410 326/529/409 319/541/421
f 409/542/422 383/543/423 378/539/424 404/544/425
f 334/545/426 380/538/418 393/546/198 362/547/197
f 399/546/188 379/538/427 333/545/428 347/547/189
f 336/548/165 381/234/429 380/233/430
f 341/549/162 385/212/431 384/211/432
f 382/543/433 383/543/423 409/550/422 410/550/434
f 390/551/408 397/552/435 386/553/436 387/554/437
f 375/555/438 374/556/439 403/557/440 406/558/441
f 327/207/442 326/529/409 335/530/200
f 340/221/443 343/221/443 341/549/162 384/211/432
f 330/559/402 327/207/442 335/530/200
f 416/560/444 318/560/445 316/561/206 415/561/444
f 392/562/446 395/563/447 396/564/448 391/565/182
f 343/221/184 340/221/449 365/222/185
f 400/566/192 365/567/191 340/568/450 384/554/451
f 386/553/436 397/569/435 413/570/452 389/571/453
f 388/572/454 385/212/431 341/549/162 329/573/161
f 353/229/407 354/556/455 397/574/456 390/528/408
f 406/570/457 403/569/458 385/553/459 388/571/460
f 389/571/453 413/575/452 406/575/457 388/571/460
f 382/531/461 381/234/429 336/548/165 331/532/164
f 328/576/403 321/204/413 342/533/169
f 320/239/208 338/214/207 342/533/169
f 381/539/419 382/543/433 410/542/434 394/544/420
f 349/577/462 355/578/463 396/579/464 412/580/465
f 339/568/466 361/567/406 390/566/408 387/554/437
f 389/572/467 328/573/403 342/210/169 386/212/171
f 385/553/459 403/552/458 400/551/192 384/554/451
f 389/572/467 388/572/454 329/573/161 328/573/403
f 378/539/424 379/538/427 399/537/188 404/540/425
f 335/232/200 332/216/468 333/216/468 379/233/201
f 405/581/469 370/582/470 345/237/205 398/236/204
f 359/583/471 358/584/471 357/585/472 356/586/473
f 382/531/461 331/532/164 330/532/402 383/531/411
f 338/221/195 337/216/175 363/217/187 360/223/196
f 334/216/474 337/216/474 336/548/165 380/233/430
f 361/222/194 339/221/475 338/221/195
f 318/541/445 325/208/167 337/209/168
f 342/210/169 338/221/476 339/221/476 387/211/170
f 371/534/415 370/582/470 405/581/469 408/535/416
f 348/555/477 375/555/438 406/558/441 413/587/478
f 357/237/479 358/582/480 395/588/481 392/589/482
f 396/579/464 355/578/463 352/220/183 391/219/182
f 368/220/483 373/578/484 402/590/485 401/591/486
f 409/592/487 372/593/488 351/593/489 410/594/490
f 351/593/489 359/595/491 394/596/492 410/594/490
f 402/590/485 373/578/484 376/577/493 407/597/494
f 403/557/440 374/556/439 367/229/193 400/228/192
f 355/598/471 354/599/471 353/600/495 352/601/496
f 359/583/471 351/602/497 350/603/497 358/584/471
f 349/604/497 348/605/497 354/599/471 355/598/471
f 347/225/178 346/235/180 345/585/498 344/586/499
f 366/606/500 365/227/500 367/600/501 368/601/502
f 369/583/503 370/584/503 371/603/504 372/602/504
f 376/604/504 373/598/503 374/599/503 375/605/504
f 344/586/499 345/585/498 370/584/503 369/583/503
f 373/598/503 368/601/502 367/600/501 374/599/503
f 372/602/504 371/603/504 350/603/497 351/602/497
f 376/604/504 375/605/504 348/605/497 349/604/497
f 356/586/473 357/585/472 377/607/505 362/230/505
f 352/601/496 353/600/495 361/527/194 360/218/196
f 363/608/506 392/609/446 391/610/182 360/611/181
f 404/612/507 369/595/508 372/593/488 409/592/487
f 344/226/190 369/595/508 404/612/507 399/224/188
f 395/613/447 411/614/509 412/615/510 396/616/448
f 398/609/204 346/608/203 364/611/511 401/610/512
f 407/597/494 376/577/493 349/577/462 412/580/465
f 395/588/481 358/582/480 350/534/414 411/536/417
f 407/615/513 408/614/514 405/613/515 402/616/516
f 411/617/509 408/617/514 407/618/513 412/618/510
f 405/563/515 398/562/204 401/565/512 402/564/516
f 401/591/486 364/619/517 366/606/517 368/220/483
f 362/620/174 377/621/518 363/622/187
f 397/574/456 354/556/455 348/555/477 413/587/478
f 365/623/185 366/624/519 364/625/186
f 394/596/492 359/595/491 356/226/199 393/231/198
f 392/589/482 363/626/520 377/607/520 357/237/479
f 324/627/400 325/208/521 326/529/522 327/627/401
f 323/213/523 320/239/524 321/628/405 322/628/404
f 323/629/523 317/561/525 316/561/525 320/629/524
f 325/630/521 318/560/526 319/560/526 326/630/522
f 318/541/445 337/209/168 338/214/207 316/238/206
f 417/560/527 416/560/527 415/561/527 414/561/527
f 415/561/528 316/561/528 317/561/528 414/561/528
f 414/561/529 317/561/412 319/560/421 417/560/529
f 416/560/530 417/560/530 319/560/530 318/560/530
f 317/238/412 343/214/173 332/209/410 319/541/421
f 429/631/531 420/632/213 421/633/216 430/634/531
f 425/240/230 423/252/220 418/635/227 419/636/228
f 420/637/213 427/638/212 428/639/217 421/640/216
f 433/254/222 426/253/221 422/641/532 432/642/533
f 433/254/534 431/643/535 424/644/210 428/255/225
f 433/645/534 432/646/533 431/647/535
f 422/641/532 424/644/210 431/643/535
f 422/641/532 431/643/535 432/642/533
f 438/648/536 437/649/537 440/650/235
f 437/651/537 436/652/232 440/263/235
f 441/653/538 438/654/536 440/650/235
f 441/653/538 440/650/235 435/264/234
f 442/655/539 436/260/232 437/651/537
f 446/656/536 445/657/537 448/658/235
f 445/651/537 444/659/232 448/267/235
f 449/653/538 446/654/536 448/658/235
f 449/653/538 448/658/235 443/264/234
f 450/655/539 444/265/232 445/651/537
