# Blender 4.5.3 LTS
# www.blender.org
mtllib decoracion.mtl
o shelf_small_candles
v 0.500000 5.511494 -5.872248
v 0.500000 5.711493 -5.872248
v -0.500000 5.511494 -5.872248
v -0.500000 5.711493 -5.872248
v 0.500000 5.523032 -6.366479
v 0.500000 5.702119 -6.362873
v -0.496524 5.520346 -6.374673
v -0.494271 5.699623 -6.379525
v -0.186088 5.519122 -6.330951
v -0.070844 5.701194 -6.365946
v -0.203832 5.703763 -6.319771
v 0.100000 5.311493 -5.872248
v 0.100000 5.511494 -5.872248
v -0.100000 5.311493 -5.872248
v -0.100000 5.511494 -5.872248
v 0.096637 5.312011 -5.994867
v 0.076204 5.511517 -6.221598
v -0.096634 5.312494 -5.995447
v -0.076203 5.511511 -6.221608
v -0.166491 6.021939 -6.213664
v -0.233920 6.016604 -6.055697
v -0.156818 5.997767 -5.903034
v 0.060984 6.097624 -5.958205
v 0.042198 6.147843 -6.127365
v -0.000176 6.088054 -6.210637
v -0.080292 6.068480 -6.060966
v -0.136079 6.083865 -6.175714
v -0.129924 6.065133 -5.943277
v 0.027556 6.139537 -5.994799
v -0.067872 5.567110 -6.237216
v -0.244892 5.567110 -6.114952
v -0.174671 5.567110 -5.911598
v 0.050418 5.567110 -5.942083
v 0.077287 5.567110 -6.124123
v -0.075790 5.998722 -6.061909
v -0.077771 6.163502 -6.089766
v -0.121046 6.155538 -6.052421
v -0.064415 6.159370 -6.033772
v 0.246766 6.227210 -6.041172
v 0.197902 6.227210 -6.142804
v 0.112558 6.226322 -6.131085
v 0.074484 6.227210 -6.054194
v 0.155161 6.227210 -5.975401
v 0.161773 6.204290 -6.062871
v 0.209752 5.567110 -5.972765
v 0.259788 5.567110 -6.066571
v 0.215818 5.567110 -6.149475
v 0.062416 5.567110 -6.106611
v 0.115970 5.567110 -5.976137
v 0.161773 6.169705 -6.062871
v 0.174790 6.298506 -6.030915
v 0.181466 6.302751 -6.088225
v 0.127589 6.298506 -6.067577
v 0.177449 5.952114 -6.244570
v 0.093426 5.952114 -6.319783
v 0.019055 5.951226 -6.276310
v 0.013289 5.952114 -6.190701
v 0.117969 5.952114 -6.148763
v 0.090620 5.929193 -6.232109
v 0.192699 5.567110 -6.233041
v 0.107428 5.567110 -6.332800
v -0.005623 5.567110 -6.266145
v 0.069402 5.567110 -6.125644
v 0.090620 5.863714 -6.232109
v 0.123993 6.023524 -6.240834
v 0.068165 6.027761 -6.254839
v 0.081490 6.023524 -6.198844
v -10.603253 1.193864 5.824728
v -10.687430 0.027584 5.986495
v -10.686548 1.195844 5.982510
v -10.828926 0.029649 6.080059
v -10.828926 1.181513 6.080059
v -11.156559 0.031811 6.026689
v -11.008958 1.194707 6.089780
v -11.168867 1.194548 6.009279
v -11.267433 0.027584 5.863734
v -11.283295 0.028961 5.690188
v -11.070221 0.031235 5.429963
v -11.070221 1.179928 5.429963
v -10.847454 0.030381 5.417552
v -10.868813 1.195040 5.417126
v -10.709139 1.194707 5.500096
v -10.612240 1.183579 5.650223
v -10.579082 0.037086 5.829856
v -11.017668 0.037086 6.115214
v -11.292837 1.174077 5.867879
v -11.284060 1.179431 5.707893
v -11.216224 0.037086 5.505908
v -11.216224 1.174077 5.505908
v -10.693719 0.037086 5.478073
v -10.604793 0.031212 5.671769
v -11.139448 0.106585 5.973963
v -10.776718 1.104240 6.005821
v -10.650707 1.104578 5.814697
v -11.065267 1.104173 6.031424
v -11.243933 1.103769 5.784749
v -11.161776 1.104578 5.554849
v -10.957472 1.103971 5.445053
v -10.688495 1.104173 5.588920
v -10.478524 0.262524 5.851541
v -10.478261 0.948158 5.851599
v -10.589641 0.948637 6.069637
v -10.589441 0.263004 6.069819
v -10.795735 0.959880 6.199179
v -10.795597 0.252182 6.199604
v -11.038585 0.948637 6.215935
v -11.038638 0.263004 6.216200
v -11.256865 0.948637 6.105181
v -11.257043 0.263004 6.105384
v -11.393094 0.943225 5.900091
v -11.393257 0.268170 5.900131
v -11.400502 0.955417 5.655560
v -11.400921 0.256610 5.655456
v -11.292994 0.948637 5.437433
v -11.293196 0.263004 5.437253
v -11.087902 0.943225 5.301202
v -11.087942 0.268170 5.301040
v -10.842113 0.941710 5.289776
v -10.842046 0.269857 5.289540
v -10.624660 0.948637 5.401828
v -10.624477 0.263004 5.401630
v -10.491342 0.948637 5.607107
v -10.491084 0.263004 5.607025
v -10.433230 0.605360 5.859443
v -10.554367 0.605803 6.099126
v -10.779785 0.605836 6.248126
v -11.049711 0.605803 6.260546
v -11.288806 0.605803 6.138252
v -11.432290 0.605737 5.913323
v -11.450271 0.605836 5.645464
v -11.326064 0.605803 5.405491
v -11.101135 0.605737 5.262006
v -10.834853 0.605803 5.245419
v -10.595170 0.605803 5.366555
v -10.448166 0.605803 5.591303
v -10.478508 0.792435 5.851143
v -10.409884 0.828075 5.865668
v -10.503224 0.958798 5.845912
v -10.473772 0.936121 6.019722
v -10.589428 0.792435 6.069299
v -10.613897 0.827256 6.204553
v -10.608217 0.958798 6.052412
v -10.794566 0.792435 6.202769
v -10.802393 0.958798 6.178750
v -10.912813 0.941467 6.283394
v -11.038955 0.792435 6.215787
v -11.053479 0.828075 6.284412
v -11.033724 0.958798 6.191073
v -11.257112 0.792435 6.104868
v -11.403900 0.820893 6.054386
v -11.240223 0.958798 6.086080
v -11.291380 0.936235 6.142992
v -11.390581 0.792435 5.899731
v -11.366561 0.958798 5.891903
v -11.471684 0.939807 5.778839
v -11.403601 0.792435 5.655342
v -11.472224 0.828075 5.640817
v -11.378884 0.958798 5.660573
v -11.292681 0.792435 5.437185
v -11.344848 0.828076 5.390295
v -11.273891 0.958798 5.454073
v -11.237082 0.936116 5.295650
v -11.087543 0.792435 5.303716
v -10.963989 0.823812 5.201899
v -11.079715 0.958798 5.327735
v -10.843154 0.792435 5.290697
v -10.848385 0.958798 5.315412
v -10.673570 0.937653 5.286939
v -10.624997 0.792435 5.401617
v -10.487829 0.829999 5.429220
v -10.641886 0.958798 5.420405
v -10.491528 0.792435 5.606754
v -10.515548 0.958798 5.614581
v -10.442788 0.936235 5.590871
v -10.503224 0.252365 5.845912
v -10.473772 0.275043 6.019722
v -10.478508 0.418728 5.851143
v -10.386539 0.381165 5.699243
v -10.608217 0.252365 6.052412
v -10.589428 0.418728 6.069299
v -10.613898 0.383907 6.204553
v -10.802393 0.252365 6.178750
v -10.778683 0.274929 6.251508
v -10.794566 0.418728 6.202769
v -11.033724 0.252365 6.191073
v -11.205997 0.271249 6.220576
v -11.038955 0.418728 6.215787
v -11.174538 0.387486 6.260246
v -11.240223 0.252365 6.086080
v -11.257112 0.418728 6.104868
v -11.366561 0.252365 5.891903
v -11.471684 0.271356 5.778839
v -11.390581 0.418728 5.899731
v -11.457273 0.383088 5.921464
v -11.378884 0.252365 5.660573
v -11.403601 0.418728 5.655342
v -11.472224 0.383088 5.640817
v -11.273891 0.252365 5.454073
v -11.253355 0.272238 5.315837
v -11.292681 0.418728 5.437185
v -11.221111 0.383908 5.271287
v -11.079716 0.252365 5.327735
v -11.087543 0.418728 5.303716
v -10.848385 0.252365 5.315412
v -10.832539 0.274929 5.240546
v -10.843154 0.418728 5.290697
v -10.685246 0.387352 5.264297
v -10.641886 0.252365 5.420405
v -10.476254 0.273511 5.483154
v -10.624997 0.418728 5.401617
v -10.515548 0.252365 5.614581
v -10.491528 0.418728 5.606754
v -10.672498 0.107090 5.889788
v -10.909541 0.107192 6.056191
v -11.241903 0.107090 5.769269
v -11.109339 0.107343 5.494596
v -10.879601 0.106585 5.462895
v -10.677704 0.107192 5.600214
v -10.917538 1.180021 5.550885
v -10.934697 1.175608 5.659538
v -11.017508 1.146927 5.581546
v -10.948888 1.136628 5.530861
v -10.885821 1.135389 5.616709
v -10.983288 1.136628 5.659691
v -10.901327 1.093853 5.525877
v -10.894082 1.093557 5.667761
v -11.023600 1.093982 5.628400
v -9.666383 0.174713 5.125007
v -9.666383 0.773519 5.125007
v -9.527793 0.773519 5.707554
v -9.549579 0.178952 5.708379
v -9.641173 0.180012 5.848519
v -9.629831 0.773519 5.873298
v -10.212379 0.773519 6.011888
v -10.212379 0.174713 6.011888
v -10.378122 0.174713 5.909851
v -10.378122 0.773519 5.909851
v -10.516712 0.773519 5.327303
v -10.489480 0.180012 5.326272
v -10.414674 0.174713 5.161559
v -10.414674 0.773519 5.161559
v -9.831096 0.768219 5.050201
v -9.832128 0.174713 5.022969
v -9.661684 0.037085 5.739408
v -10.244232 0.037085 5.877997
v -10.382821 0.037085 5.295451
v -9.800274 0.037085 5.156861
v -10.244232 0.911147 5.877997
v -9.661684 0.911147 5.739408
v -9.800274 0.911147 5.156861
v -10.382821 0.911147 5.295451
v -9.765501 0.195910 5.170376
v -9.765501 0.752322 5.170376
v -9.636724 0.752322 5.711681
v -9.675200 0.752322 5.774181
v -10.216504 0.752322 5.902958
v -10.216504 0.195910 5.902958
v -10.279005 0.195910 5.864481
v -10.279005 0.752322 5.864481
v -10.407783 0.752322 5.323177
v -10.369306 0.195910 5.260677
v -10.369306 0.752322 5.260677
v -9.828001 0.195910 5.131899
v -9.687212 0.144012 5.723692
v -10.228516 0.144012 5.852470
v -10.357294 0.144012 5.311165
v -9.815989 0.144012 5.182388
v -10.228516 0.804219 5.852470
v -9.687212 0.804219 5.723692
v -9.815989 0.804219 5.182388
v -10.357294 0.804219 5.311165
v -10.525773 0.895661 5.207444
v -10.332769 0.892937 6.021812
v -9.517870 0.892937 5.827945
v -9.521415 0.054272 5.829840
v -10.332769 0.055295 6.021812
v -10.525773 0.052570 5.207444
v -9.710979 0.059182 5.011814
v -9.708298 0.888231 5.011831
v -10.514707 0.134490 4.556337
v -10.497432 0.528041 4.532957
v -10.228619 0.528041 4.828089
v -10.244173 0.132370 4.837478
v -10.249280 0.132370 4.946908
v -10.271199 0.519209 4.930714
v -10.551260 0.519966 5.190966
v -10.529800 0.128837 5.226519
v -10.645021 0.133547 5.200986
v -10.659416 0.528041 5.220470
v -10.903343 0.522388 4.910315
v -10.879839 0.139828 4.896128
v -10.922180 0.128837 4.795722
v -10.898801 0.522388 4.812995
v -10.627048 0.528041 4.526908
v -10.612026 0.134490 4.551795
v -10.296452 0.037085 4.889873
v -10.591211 0.065599 5.150701
v -10.855407 0.054906 4.863786
v -10.565265 0.037085 4.594740
v -10.591584 0.619793 5.158686
v -10.304437 0.591279 4.889500
v -10.565265 0.619793 4.594740
v -10.855407 0.601972 4.863786
v -10.540618 0.513910 4.591405
v -10.290835 0.513910 4.865643
v -10.567354 0.142968 5.164302
v -10.616231 0.513910 5.162021
v -10.863732 0.142968 4.838907
v -10.589494 0.513910 4.589124
v -10.316414 0.108370 4.888941
v -10.566196 0.108370 4.614704
v -10.590652 0.548508 5.138723
v -10.566196 0.548508 4.614704
v -10.972863 0.607653 4.858305
v -10.596832 0.607653 5.271152
v -10.183985 0.607653 4.895121
v -10.183985 0.049225 4.895121
v -10.594457 0.048543 5.269911
v -10.973885 0.049703 4.859881
v -10.560016 0.049225 4.482275
v -10.560016 0.607653 4.482275
v -9.878491 1.682969 5.429365
v -9.867308 1.786065 5.439203
v -9.757318 1.683043 5.649614
v -9.755387 1.785360 5.653111
v -10.186853 1.682964 5.596730
v -10.190500 1.784664 5.591060
v -10.068584 1.683134 5.817472
v -10.080226 1.786877 5.808936
v -9.910398 1.682998 5.738331
v -9.843913 1.806911 5.729375
v -9.952179 1.816339 5.796531
v -10.035549 1.682998 5.507746
v -10.102520 1.812263 5.514644
v -9.992483 1.812660 5.450439
v -10.029253 1.808012 5.830601
v -9.918101 1.806855 5.416496
v -10.104671 1.923526 5.784412
v -10.226154 1.817039 5.571714
v -10.067479 1.816947 5.863356
v -9.719784 1.817094 5.674357
v -9.878482 1.816891 5.382726
v -10.161125 1.914733 5.571950
v -9.775727 1.867182 5.695659
v -9.867762 1.945313 5.668947
v -9.813908 1.953822 5.623891
v -9.765032 1.929764 5.598743
v -10.054027 1.949642 5.765226
v -9.995277 1.950271 5.733050
v -10.180937 1.929764 5.647305
v -9.946939 1.954168 5.521381
v -9.892789 1.944860 5.476583
v -10.081358 1.950702 5.577042
v -9.841293 1.923521 5.461631
v -9.969915 0.037221 6.149228
v -9.976080 0.173890 6.165329
v -10.040360 0.037218 6.509926
v -10.032043 0.190793 6.561237
v -10.474920 0.037218 6.050364
v -10.478027 0.175448 6.049051
v -10.545365 0.037221 6.411062
v -10.539201 0.173890 6.394961
v -10.041603 0.174659 6.480964
v -10.367083 0.175413 6.480697
v -10.219813 0.037097 6.086877
v -10.295467 0.037097 6.473412
v -10.283862 0.175678 6.054332
v -10.148140 0.174994 6.078703
v -10.231802 0.175159 6.507087
v -10.483707 0.284419 6.016975
v -10.577481 0.203266 6.465888
v -9.937555 0.206955 6.093989
v -10.361796 0.268607 6.509764
v -10.153196 0.272320 6.053168
v -10.270535 0.264748 6.029274
v -10.244660 0.268823 6.528280
v -10.227230 0.432126 6.430933
v -10.014481 0.370262 6.461546
v -10.340338 0.438742 6.397478
v -10.550938 0.371151 6.352778
v -10.513332 0.391699 6.109531
v -10.176336 0.444165 6.168256
v -10.286950 0.438643 6.133712
v -9.964911 0.380954 6.214888
v -9.807202 0.037125 4.755816
v -9.804799 0.139716 4.752162
v -9.959268 0.037052 4.955987
v -9.947136 0.140131 4.947917
v -10.089080 0.036942 4.544349
v -10.101516 0.140140 4.553650
v -10.241014 0.037221 4.744638
v -10.245796 0.139447 4.750068
v -10.103182 0.037085 4.855491
v -10.067963 0.167150 4.915784
v -10.170694 0.165946 4.840495
v -9.945671 0.037085 4.645676
v -9.979667 0.168145 4.586447
v -9.877295 0.165288 4.661975
v -10.049882 0.162061 4.537045
v -10.000143 0.160993 4.962862
v -9.770537 0.171157 4.736121
v -10.083210 0.171126 4.499031
v -10.282269 0.171035 4.764754
v -9.965631 0.171182 5.002142
v -10.230501 0.221014 4.793368
v -9.818695 0.221008 4.707488
v -10.016168 0.304118 4.857034
v -9.965425 0.302740 4.904290
v -9.915733 0.283853 4.929514
v -10.184180 0.303836 4.730116
v -10.226956 0.278036 4.698207
v -10.138419 0.304590 4.780390
v -9.820420 0.286430 4.809753
v -10.133008 0.283503 4.572773
v -9.910583 0.304374 4.719848
v -9.864195 0.303785 4.771020
v -10.083328 0.302877 4.597527
v -10.033200 0.304218 4.644119
v -10.511583 0.584795 4.665961
v -10.515053 0.687399 4.661848
v -10.357198 0.584516 4.864367
v -10.354624 0.686620 4.867321
v -10.788385 0.584625 4.883747
v -10.792934 0.686326 4.878770
v -10.634148 0.584698 5.082248
v -10.647583 0.688538 5.074994
v -10.492052 0.584659 4.976829
v -10.426098 0.713116 4.957585
v -10.523814 0.715441 5.039249
v -10.654204 0.584659 4.770582
v -10.717022 0.709644 4.789347
v -10.621008 0.712647 4.708330
v -10.593621 0.709626 5.087835
v -10.678891 0.831186 5.051690
v -10.831333 0.718700 4.865697
v -10.625864 0.718608 5.126494
v -10.314913 0.718755 4.881705
v -10.520403 0.718552 4.620923
v -10.563631 0.764700 4.661973
v -10.780136 0.768755 4.835646
v -10.366477 0.768843 4.912114
v -10.458626 0.851948 4.901894
v -10.416183 0.855483 4.847790
v -10.372235 0.831426 4.814779
v -10.628572 0.850437 5.028051
v -10.579524 0.851792 4.980340
v -10.776122 0.825555 4.929186
v -10.573309 0.852247 4.755920
v -10.513854 0.846655 4.720668
v -10.732384 0.851415 4.897750
v -10.683490 0.851049 4.849720
v -10.470472 0.825182 4.692449
v -9.865739 1.048775 5.011324
v -9.883396 1.642282 5.032082
v -9.493781 1.647581 5.480596
v -9.493781 1.048775 5.480596
v -9.516149 1.048775 5.673943
v -9.516149 1.647581 5.673943
v -9.985420 1.647581 6.045900
v -9.985420 1.048775 6.045900
v -10.178767 1.048775 6.023532
v -10.161109 1.642282 6.002775
v -10.550724 1.647581 5.554261
v -10.550724 1.048775 5.554261
v -10.528358 1.048775 5.360915
v -10.528358 1.647581 5.360915
v -10.059086 1.647581 4.988958
v -10.059086 1.048775 4.988958
v -9.601639 0.911147 5.566086
v -10.070910 0.911147 5.938043
v -10.442867 0.911147 5.468771
v -9.974457 0.937879 5.104259
v -10.070910 1.785209 5.938043
v -9.601638 1.785209 5.566086
v -9.974457 1.758477 5.104259
v -10.442867 1.785209 5.468771
v -9.936369 1.069972 5.094355
v -9.590745 1.626384 5.530404
v -9.590745 1.069972 5.530404
v -9.599179 1.069972 5.603312
v -9.599179 1.626384 5.603312
v -10.035229 1.626384 5.948936
v -10.035229 1.069972 5.948936
v -10.108136 1.069972 5.940502
v -10.453760 1.626384 5.504453
v -10.453760 1.069972 5.504453
v -10.445326 1.069972 5.431545
v -10.445326 1.626384 5.431545
v -10.009277 1.626384 5.085922
v -10.009277 1.069972 5.085922
v -9.631416 1.018075 5.562642
v -10.067466 1.018075 5.908265
v -10.413089 1.018075 5.472216
v -10.067465 1.678281 5.908265
v -9.631416 1.678281 5.562642
v -10.413089 1.678281 5.472216
v -10.613567 1.765506 5.449025
v -10.090318 1.766999 6.105808
v -9.433874 1.766999 5.585494
v -9.434943 0.926291 5.579210
v -10.084867 0.932802 6.107139
v -10.610632 0.929357 5.449364
v -9.957870 0.928334 4.930663
v -9.950971 1.768022 4.931461
v -10.915491 0.187685 4.998772
v -11.374228 0.187648 5.013273
v -11.137619 0.187685 5.235364
v -11.027925 0.189835 4.814379
v -10.953226 0.189835 5.122931
v -11.261781 0.189808 5.197643
v -11.336490 0.189808 4.889075
v -11.308135 0.036660 4.977081
v -11.089238 0.434784 5.065934
v -11.184838 0.414972 5.049200
v -11.148408 0.419274 4.950540
v -11.088491 0.553226 5.058178
v -11.091113 0.499738 5.050237
v -11.093459 0.504644 4.953424
v -11.196679 0.503671 4.952434
v -11.199695 0.491371 5.068794
v -11.195465 0.550852 5.065767
v -11.097853 0.560329 4.955235
v -11.196935 0.565349 4.963820
v -11.215942 0.459284 4.940193
v -11.080506 0.471413 4.936433
v -11.115871 0.035816 4.843200
v -10.982045 0.035827 5.035014
v -11.173720 0.035824 5.168797
v -11.152120 0.187648 4.776627
v -11.341551 0.271108 5.144083
v -11.249612 0.271108 5.264577
v -11.462046 0.271109 5.236022
v -11.370106 0.271108 5.356517
v -11.335019 0.041135 5.154277
v -11.310496 0.452922 5.291614
v -11.395083 0.484847 5.298067
v -11.328391 0.431845 5.215715
v -11.405210 0.452885 5.214100
v -11.311678 0.499485 5.279453
v -11.317489 0.494548 5.201972
v -11.398149 0.502880 5.214896
v -11.308533 0.544752 5.284036
v -11.392962 0.540503 5.297107
v -11.396120 0.553582 5.218336
v -11.320046 0.544163 5.205196
v -11.257466 0.047452 5.271079
v -11.454194 0.047455 5.229558
v -11.376583 0.047461 5.348662
vn 0.0028 -0.9998 -0.0208
vn -0.7068 -0.7071 -0.0186
vn -0.0001 -0.7269 -0.6867
vn -0.7034 0.7105 -0.0202
vn 0.0006 0.9998 -0.0203
vn -0.0423 0.7754 -0.6301
vn 0.5571 -0.5938 -0.5805
vn -0.0922 0.6446 -0.7589
vn -0.5401 -0.5553 -0.6324
vn -0.9631 -0.0307 -0.2676
vn -0.9835 0.1789 0.0273
vn -0.5574 0.3259 -0.7636
vn -0.3388 0.9307 0.1381
vn 0.1069 0.9386 0.3282
vn 0.6686 0.3615 0.6498
vn -0.4116 0.9090 0.0660
vn -0.3438 0.8941 0.2870
vn -0.3165 0.9453 0.0793
vn -0.3863 0.9122 -0.1370
vn -0.6327 -0.1365 -0.7623
vn -0.6184 0.4940 -0.6112
vn 0.2248 0.5598 -0.7976
vn -0.3007 -0.1438 0.9428
vn 0.9719 -0.0279 -0.2339
vn 0.7944 0.5896 -0.1460
vn 0.1079 -0.0413 -0.9933
vn 0.2702 0.3701 -0.8888
vn 0.9998 0.0179 0.0008
vn 0.7179 0.6751 0.1701
vn 0.4985 0.0035 0.8669
vn -0.1500 0.7094 0.6887
vn -0.5074 0.0069 0.8617
vn -0.0079 0.9999 -0.0109
vn 0.2970 0.6826 -0.6677
vn -0.4410 0.6853 -0.5796
vn -0.7573 0.6515 0.0457
vn 0.9864 -0.1259 0.1056
vn 0.5260 0.5144 -0.6772
vn 0.8379 0.5284 0.1367
vn -0.3464 -0.1259 -0.9296
vn -0.3398 0.5284 -0.7780
vn -0.6080 -0.1328 0.7828
vn -0.1242 -0.0212 0.9920
vn -0.6181 0.6907 0.3753
vn -0.9572 -0.0167 -0.2888
vn -0.0000 -0.0000 1.0000
vn -0.0115 0.9999 -0.0071
vn 0.7341 0.6790 -0.0060
vn 0.0931 0.6854 -0.7222
vn -0.5999 0.6995 -0.3884
vn 0.2010 0.6529 0.7303
vn 0.2348 -0.1018 -0.9667
vn -0.5961 0.5298 -0.6033
vn 0.2441 0.5282 -0.8133
vn -0.9695 -0.1018 0.2230
vn -0.8162 0.5282 0.2342
vn 0.6987 -0.1073 0.7073
vn 1.0000 -0.0000 -0.0000
vn 0.5884 0.5438 -0.5984
vn -0.5195 0.5657 -0.6404
vn 0.6385 -0.7083 -0.3010
vn -0.0012 -1.0000 -0.0062
vn -0.6395 -0.7070 -0.3018
vn -0.3980 -0.6739 -0.6224
vn 0.3981 -0.6739 -0.6224
vn 0.9982 0.0185 -0.0574
vn -0.9982 0.0186 -0.0573
vn -0.4902 0.0019 0.8716
vn -0.4589 0.2475 0.8533
vn 0.7531 0.0156 0.6577
vn 0.9355 0.0087 -0.3532
vn 0.8168 0.2635 -0.5133
vn -0.4225 0.7215 -0.5485
vn -0.3150 0.6088 0.7281
vn 0.4331 0.0156 -0.9012
vn -0.9242 0.0063 -0.3818
vn 0.9998 0.0179 -0.0064
vn 0.1464 0.0249 -0.9889
vn 0.0619 0.9883 0.1391
vn -0.4797 0.5077 -0.7156
vn 0.1225 0.9770 0.1744
vn -0.2016 -0.9700 0.1360
vn 0.0229 -0.9653 -0.2602
vn -0.2257 -0.8661 0.4460
vn -0.7409 -0.5774 -0.3431
vn -0.4809 -0.7650 -0.4285
vn -0.4263 -0.5816 -0.6929
vn -0.7785 -0.6121 0.1387
vn -0.7714 -0.3055 0.5582
vn -0.0193 -0.9693 -0.2450
vn 0.3526 -0.8551 -0.3802
vn -0.0081 -0.7511 -0.6601
vn -0.0919 0.9831 0.1586
vn 0.2920 0.7787 -0.5553
vn 0.4597 0.8863 -0.0561
vn -0.3070 -0.9468 -0.0963
vn -0.8555 -0.3786 -0.3533
vn 0.0712 -0.0144 0.9974
vn -0.3191 0.0785 0.9445
vn 0.4961 0.4258 0.7567
vn -0.9960 0.0644 0.0620
vn -0.8971 0.3381 -0.2845
vn -0.7926 0.3355 0.5091
vn -0.7771 0.3183 -0.5430
vn -0.5194 -0.0034 -0.8545
vn -0.0153 0.4184 -0.9082
vn 0.4423 -0.1332 -0.8869
vn 0.7788 0.3258 -0.5360
vn 0.8813 -0.0010 0.4725
vn 0.9940 0.0903 0.0613
vn 0.8429 0.1240 -0.5237
vn 0.9127 -0.4057 -0.0494
vn 0.8865 0.1735 0.4290
vn 0.0554 -0.1437 -0.9881
vn 0.4433 -0.3054 -0.8427
vn 0.5385 -0.2823 0.7940
vn 0.1376 -0.1017 0.9852
vn 0.2253 0.9651 0.1332
vn 0.3559 0.9342 0.0265
vn 0.2419 0.9115 0.3327
vn 0.0151 0.9753 0.2202
vn 0.2095 0.9085 0.3616
vn -0.1122 0.9505 0.2896
vn -0.2894 -0.9385 0.1883
vn -0.4961 -0.8648 0.0781
vn -0.2724 -0.8648 0.4219
vn -0.0091 -0.9208 -0.3900
vn 0.2684 -0.7442 -0.6117
vn -0.2357 -0.8491 -0.4728
vn 0.3479 -0.9016 -0.2570
vn 0.5592 -0.8225 -0.1038
vn 0.3310 -0.7507 -0.5718
vn 0.2658 0.8983 0.3499
vn 0.6220 0.7074 0.3357
vn 0.0919 0.6822 0.7254
vn -0.1187 -0.9729 0.1986
vn -0.3268 -0.9173 0.2273
vn -0.0188 -0.9428 0.3329
vn -0.1514 0.9215 0.3576
vn 0.0257 0.7109 0.7029
vn -0.4102 0.8474 0.3372
vn -0.2407 -0.9705 0.0108
vn -0.3765 -0.9121 -0.1624
vn -0.3605 -0.9108 0.2014
vn -0.1425 -0.9711 -0.1913
vn -0.0562 -0.9412 -0.3330
vn -0.3485 -0.9169 -0.1946
vn 0.2296 -0.9657 -0.1211
vn 0.4582 -0.8882 -0.0332
vn 0.1951 -0.9368 -0.2904
vn 0.4482 0.8929 -0.0437
vn 0.5725 0.7507 -0.3297
vn 0.6787 0.6781 0.2821
vn -0.5305 0.8387 -0.1232
vn -0.4894 0.8032 0.3397
vn -0.0010 1.0000 -0.0005
vn 0.0010 1.0000 -0.0001
vn 0.0011 -1.0000 0.0003
vn 0.6008 -0.7994 0.0013
vn -0.0032 -1.0000 -0.0018
vn -0.0001 -1.0000 -0.0000
vn 0.0017 -1.0000 0.0005
vn 0.4397 0.6775 -0.5896
vn -0.8632 0.3477 -0.3659
vn 0.1969 0.5924 0.7812
vn -0.3490 0.4269 0.8342
vn 0.5219 0.4170 0.7441
vn -0.9959 0.0332 -0.0841
vn -0.2270 0.1945 -0.9543
vn 0.3853 0.6781 -0.6258
vn 0.2270 0.1944 0.9543
vn -0.3853 0.6781 0.6258
vn -0.6523 0.7419 0.1552
vn 0.3853 -0.6781 -0.6258
vn 0.6523 -0.7419 -0.1552
vn -0.3853 -0.6781 0.6258
vn -0.5048 -0.2699 0.8200
vn 0.2270 -0.1944 0.9543
vn -0.2921 -0.1853 -0.9382
vn 0.3241 -0.5234 -0.7881
vn 0.6110 -0.6692 -0.4228
vn 0.5048 -0.2699 -0.8199
vn -0.2270 -0.1945 -0.9543
vn 0.7248 -0.6809 0.1050
vn 0.6530 -0.5046 0.5648
vn 0.0450 -0.9809 0.1892
vn -0.0450 0.9809 -0.1892
vn 0.3288 0.5046 -0.7983
vn 0.2270 -0.1945 0.9543
vn -0.4202 -0.6809 -0.5999
vn -0.7983 -0.5046 -0.3287
vn -0.4162 -0.0000 -0.9093
vn 0.4202 -0.6809 0.5999
vn 0.7994 -0.5036 0.3275
vn 0.4162 -0.0000 0.9093
vn 0.8974 0.1829 -0.4015
vn 0.5524 -0.4962 -0.6698
vn 0.1072 -0.6900 -0.7159
vn -0.6336 -0.0656 0.7709
vn -0.8609 -0.4971 0.1086
vn -0.6602 -0.6776 -0.3240
vn -0.3001 0.9538 -0.0140
vn -0.0296 0.7039 0.7097
vn 0.0366 0.7039 -0.7094
vn -0.6485 0.1103 0.7531
vn 0.2597 0.9610 0.0953
vn -0.0612 -0.2699 0.9609
vn -0.0142 -0.7106 0.7035
vn 0.0676 -0.9971 -0.0341
vn -0.8160 -0.2534 -0.5196
vn -0.8449 -0.5041 -0.1790
vn -0.4852 -0.2124 -0.8482
vn 0.5885 0.0428 0.8074
vn 0.8425 0.5016 0.1965
vn 0.6734 0.6963 -0.2483
vn 0.0292 -0.9969 -0.0725
vn -0.7001 -0.7124 -0.0475
vn -0.9627 -0.2698 -0.0184
vn -0.0995 0.5041 -0.8579
vn 0.5936 -0.1166 0.7963
vn -0.7669 0.1327 0.6279
vn 0.6452 -0.6993 0.3077
vn 0.8678 -0.4856 -0.1052
vn 0.7587 0.0690 -0.6477
vn -0.7122 0.0539 -0.6999
vn 0.7222 0.0728 -0.6878
vn 0.1816 -0.4842 -0.8559
vn -0.2511 -0.6923 -0.6765
vn 0.3216 0.6809 -0.6580
vn -0.4397 0.6351 0.6351
vn -0.7508 -0.1745 0.6371
vn -0.2769 -0.1288 0.9522
vn 0.3075 0.0040 0.9515
vn 0.4912 0.5582 -0.6687
vn 0.7542 -0.1762 -0.6326
vn 0.2910 -0.1297 -0.9479
vn -0.5054 0.0941 -0.8577
vn -0.9888 -0.1447 -0.0371
vn -0.6623 0.0396 -0.7482
vn -0.7914 0.5704 0.2197
vn -0.9228 -0.3527 0.1551
vn -0.8024 -0.2818 0.5261
vn -0.2136 -0.2374 0.9477
vn 0.8039 -0.2608 -0.5346
vn 0.2173 -0.2277 -0.9492
vn 0.2348 0.3743 -0.8971
vn -0.2363 0.3572 0.9036
vn -0.6745 0.5895 -0.4445
vn -0.5269 0.1109 -0.8426
vn 0.7882 0.5890 -0.1784
vn 0.9263 -0.3426 -0.1568
vn 0.2573 0.4627 0.8483
vn 0.6085 0.0020 0.7936
vn 0.9972 -0.0534 0.0531
vn -0.8127 0.5252 -0.2523
vn -0.9696 -0.1985 -0.1431
vn -0.9202 -0.3119 0.2366
vn 0.5541 0.5052 -0.6616
vn 0.9159 -0.1966 -0.3500
vn 0.9608 -0.2687 -0.0682
vn -0.5588 0.5158 0.6494
vn -0.0435 -0.4620 0.8858
vn 0.6885 -0.1882 -0.7004
vn 0.7248 -0.2325 -0.6486
vn -0.3855 0.5814 0.7165
vn -0.6345 -0.1735 0.7532
vn -0.1163 -0.1283 0.9849
vn 0.4748 0.0129 0.8800
vn -0.5108 0.3209 -0.7976
vn 0.0306 -0.3170 -0.9479
vn -0.8125 -0.5102 -0.2821
vn 0.4623 0.5197 -0.7184
vn 0.4039 -0.2034 -0.8919
vn -0.6417 0.0836 -0.7624
vn -0.9680 -0.2003 0.1509
vn -0.7092 -0.2372 -0.6639
vn -0.6093 0.1945 -0.7687
vn 0.0820 0.7006 -0.7089
vn -0.0290 0.9676 0.2510
vn -0.4944 0.7452 0.4475
vn -0.7687 0.1944 0.6093
vn 0.9582 0.2699 0.0944
vn 0.7151 0.6917 0.1010
vn -0.7013 -0.6809 0.2114
vn -0.8285 -0.5197 -0.2086
vn -0.1208 -0.9809 -0.1524
vn 0.1106 -0.2699 -0.9565
vn 0.0820 -0.7006 -0.7089
vn -0.6093 -0.1944 -0.7687
vn 0.7013 -0.6809 -0.2114
vn 0.8285 -0.5197 0.2086
vn 0.1208 -0.9809 0.1524
vn 0.1208 0.9809 0.1524
vn 0.0140 0.5197 0.8543
vn -0.0140 0.5197 -0.8542
vn 0.0645 -0.0000 -0.9979
vn 0.9863 -0.0000 0.1650
vn -0.8692 -0.1786 0.4610
vn -0.8672 0.4977 0.0195
vn -0.6272 0.6923 -0.3568
vn 0.8692 -0.1786 -0.4610
vn 0.8672 0.4977 -0.0195
vn 0.6272 0.6923 0.3568
vn 0.2114 0.6809 0.7013
vn -0.2356 0.5046 0.8306
vn 0.4569 -0.0000 0.8895
vn -0.2114 0.6809 -0.7013
vn 0.2356 0.5046 -0.8306
vn -0.4569 -0.0000 -0.8895
vn -0.1132 -0.7820 0.6129
vn 0.1280 0.0557 0.9902
vn -0.6201 0.0840 0.7800
vn 0.1128 -0.7821 -0.6129
vn -0.1466 0.0761 -0.9863
vn 0.6299 0.1003 -0.7702
vn -0.6153 -0.7801 -0.1132
vn -0.9863 0.0970 0.1334
vn -0.7837 0.1093 -0.6115
vn -0.0025 -1.0000 -0.0004
vn 0.6578 0.4382 0.6126
vn 0.7847 0.0381 0.6187
vn 0.9831 0.0751 -0.1670
vn -0.0087 0.8066 -0.5910
vn -0.1351 -0.7370 -0.6622
vn -0.7977 -0.1012 -0.5945
vn 0.7214 -0.1298 -0.6802
vn -0.7874 0.2324 0.5710
vn 0.7775 0.0926 0.6220
vn 0.7083 0.2829 -0.6467
vn 0.6122 0.5461 0.5719
vn -0.5454 0.5379 0.6428
vn -0.5858 0.6636 -0.4653
vn -0.4937 0.1456 -0.8574
vn 0.5113 0.6452 -0.5677
vn -0.6591 -0.1519 0.7365
vn -0.7380 0.4060 -0.5391
vn 0.8249 -0.5443 0.1524
vn -0.8055 -0.5739 -0.1475
vn 0.1471 -0.6117 -0.7773
vn -0.1506 -0.5800 0.8006
vn 0.8034 -0.5747 0.1558
vn 0.7796 0.2370 0.5797
vn -0.1413 0.0563 0.9884
vn 0.9873 0.0955 0.1269
vn 0.1568 0.1013 -0.9824
vn 0.6385 0.1340 -0.7579
vn -0.7188 0.2241 -0.6581
vn 0.6063 -0.2694 -0.7482
vn -0.6172 0.1889 0.7638
vn -0.9874 0.0579 -0.1474
vn 0.6101 0.0398 -0.7914
vn -0.7601 0.0904 -0.6435
vn 0.5159 0.5531 -0.6542
vn -0.5197 0.5039 0.6899
vn -0.5916 0.6650 -0.4558
vn 0.6580 0.5541 0.5099
vn 0.8278 0.0576 0.5581
vn 0.3098 0.0005 0.9508
vn 0.7443 0.0003 0.6678
vn 0.7091 0.2963 0.6399
vn 0.2952 0.3081 0.9044
vn -0.1955 0.2979 0.9344
vn -0.2080 0.0004 0.9781
vn -0.6340 0.2900 0.7169
vn -0.6699 0.0004 0.7424
vn -0.9125 0.2809 0.2973
vn -0.9510 0.0003 0.3091
vn -0.9783 0.0004 -0.2070
vn -0.9354 0.2924 -0.1988
vn -0.7154 0.2896 -0.6359
vn -0.7428 0.0004 -0.6695
vn -0.2888 0.2873 -0.9133
vn -0.3099 0.0003 -0.9508
vn 0.2053 0.0003 -0.9787
vn 0.1946 0.2945 -0.9356
vn 0.6674 0.0004 -0.7447
vn 0.6396 0.2985 -0.7083
vn 0.9503 0.0003 -0.3114
vn 0.9076 0.2979 -0.2959
vn 0.9787 -0.0001 0.2055
vn 0.9347 0.2962 0.1966
vn 0.9363 -0.2879 0.2009
vn 0.9110 -0.2863 -0.2968
vn -0.1775 -0.9841 0.0089
vn 0.2556 -0.8748 0.4115
vn 0.6435 -0.2897 -0.7085
vn 0.7786 -0.4470 -0.4403
vn 0.1877 -0.2905 -0.9383
vn 0.2317 -0.8661 -0.4430
vn -0.2846 -0.2912 -0.9133
vn 0.2832 -0.9259 0.2500
vn -0.7141 -0.2859 -0.6390
vn -0.9359 -0.2978 -0.1883
vn -0.9068 -0.2968 0.2994
vn -0.6457 -0.2935 0.7050
vn -0.1959 -0.2866 0.9378
vn 0.3038 -0.3024 0.9035
vn 0.0883 -0.4415 0.8929
vn 0.7058 -0.2927 0.6451
vn 0.1939 0.9807 0.0244
vn 0.6340 -0.7613 0.1363
vn 0.8075 -0.5862 -0.0655
vn -0.7367 0.4309 0.5211
vn 0.2210 0.9405 0.2580
vn -0.5508 0.8343 0.0219
vn -0.4793 0.7731 -0.4154
vn -0.7382 0.5918 -0.3237
vn -0.4224 0.5937 -0.6849
vn -0.0577 0.9789 -0.1960
vn 0.3644 0.9074 0.2096
vn 0.1763 0.9810 -0.0813
vn 0.1515 0.9831 -0.1031
vn -0.0071 0.4790 0.8778
vn 0.7106 -0.5810 0.3969
vn 0.0013 1.0000 0.0006
vn 0.6038 0.7873 -0.1245
vn -0.1616 -0.5954 0.7870
vn 0.5697 -0.5251 0.6322
vn 0.7397 0.4252 0.5217
vn 0.9565 0.2450 -0.1582
vn -0.5576 0.2473 0.7924
vn -0.3317 -0.1192 0.9358
vn -0.5277 -0.1905 0.8278
vn -0.8633 -0.2144 0.4569
vn -0.9933 -0.1049 0.0485
vn -0.6223 -0.1973 -0.7575
vn -0.9092 -0.1994 -0.3654
vn -0.4154 -0.1303 -0.9003
vn 0.5467 -0.8324 0.0904
vn 0.5455 -0.8329 0.0934
vn 0.2236 -0.9226 0.3143
vn 0.4009 -0.8764 0.2668
vn 0.0989 -0.8279 0.5521
vn -0.1003 -0.8283 0.5512
vn -0.0998 -0.8283 0.5514
vn -0.2280 0.9414 0.2485
vn -0.2279 0.9414 0.2485
vn -0.2890 0.9462 0.1454
vn -0.2385 0.9711 0.0065
vn -0.4885 -0.8691 -0.0769
vn -0.4857 -0.8702 -0.0825
vn -0.3536 -0.8624 -0.3622
vn -0.3564 -0.8639 -0.3559
vn -0.4161 0.8897 -0.1878
vn -0.3951 0.8913 -0.2225
vn -0.1438 0.9624 -0.2303
vn 0.0018 0.8514 -0.5245
vn 0.1177 0.9691 -0.2167
vn -0.0374 0.8611 -0.5071
vn 0.3333 0.9385 -0.0908
vn 0.3320 0.9387 -0.0929
vn 0.2280 0.9552 -0.1885
vn 0.2243 -0.9668 0.1226
vn 0.1969 -0.9521 0.2341
vn 0.4835 -0.8753 0.0101
vn 0.0996 -0.9408 0.3240
vn 0.0974 -0.9407 0.3250
vn -0.4713 0.8614 0.1895
vn -0.4713 0.8629 0.1825
vn -0.4999 0.8531 -0.1492
vn -0.4987 0.8552 -0.1416
vn -0.4647 0.8279 -0.3141
vn -0.2011 0.9100 -0.3627
vn 0.0779 -0.9327 -0.3520
vn 0.0777 -0.9327 -0.3520
vn -0.0608 0.7488 -0.6600
vn 0.0084 0.7318 -0.6815
vn 0.1899 0.9138 -0.3591
vn 0.5383 0.7442 -0.3955
vn 0.0172 0.2184 0.9757
vn 0.9668 -0.0820 -0.2419
vn -0.1602 0.0924 -0.9828
vn 0.9665 -0.2518 -0.0499
vn 0.5019 0.2472 -0.8289
vn -0.9291 0.2377 0.2835
vn -0.1892 0.9809 0.0450
vn -0.9797 0.0091 0.2000
vn -0.5518 -0.4977 0.6693
vn -0.1077 -0.6923 0.7135
vn -0.6523 -0.7419 0.1552
vn -0.9543 -0.1944 0.2270
vn 0.6523 0.7419 -0.1552
vn 0.9543 0.1944 -0.2270
vn 0.5048 0.2699 -0.8199
vn 0.9543 -0.1945 -0.2270
vn -0.9543 0.1944 0.2270
vn -0.5048 0.2699 0.8200
vn 0.0991 0.9937 0.0530
vn -0.0508 0.9946 0.0909
vn -0.4265 0.5781 0.6956
vn 0.6892 0.5836 0.4294
vn 0.1892 0.9809 -0.0450
vn 0.7143 0.6651 -0.2177
vn -0.9497 0.0764 0.3037
vn -0.7092 0.5664 -0.4198
vn -0.9758 0.0663 0.2085
vn 0.2574 -0.0266 0.9659
vn 0.6992 -0.5626 0.4411
vn 0.2483 0.0665 0.9664
vn -0.0517 -0.9947 0.0886
vn -0.4407 -0.5399 0.7171
vn -0.7076 -0.5708 -0.4165
vn -0.0843 -0.9947 -0.0593
vn -0.4594 -0.0611 -0.8862
vn 0.4195 -0.5659 -0.7097
vn -0.3078 -0.0751 -0.9485
vn 0.0972 -0.9940 0.0502
vn 0.9817 -0.0459 -0.1846
vn 0.9795 0.0607 -0.1923
vn -0.0844 0.9946 -0.0611
vn -0.2447 0.0299 -0.9691
vn 0.4219 0.5624 -0.7112
vn 0.0641 -0.9932 -0.0970
vn 0.9577 -0.0383 -0.2853
vn 0.1564 0.0758 0.9848
vn 0.1662 -0.0177 0.9859
vn -0.2993 0.0203 -0.9539
vn 0.6442 0.5234 0.5577
vn 0.0502 0.1786 0.9826
vn -0.4748 0.0436 0.8790
vn 0.5999 0.6809 -0.4202
vn 0.7360 0.6692 0.1024
vn -0.9109 0.0670 0.4072
vn -0.9520 0.0697 0.2981
vn -0.2981 -0.0697 -0.9520
vn 0.9536 0.0695 -0.2929
vn 0.0649 0.9929 -0.0995
vn -0.9093 -0.0000 0.4162
vn -0.9993 -0.0000 0.0379
vn 0.0029 0.9400 -0.3411
vn -0.0343 0.5214 0.8526
vn 0.8217 0.5621 0.0940
vn 0.0022 1.0000 0.0001
vn -0.0118 0.9995 -0.0282
vn -0.0347 0.2699 0.9623
vn -0.7430 -0.0272 0.6688
vn -0.8098 0.5864 0.0154
vn 0.8215 -0.5679 0.0510
vn 0.0166 -0.5532 0.8329
vn -0.8395 -0.5433 -0.0046
vn 0.0596 -0.5405 -0.8393
vn -0.6534 0.0264 -0.7566
vn 0.0349 -0.9980 -0.0523
vn 0.7508 0.0662 -0.6572
vn 0.0176 0.6021 -0.7982
vn 0.0345 -0.9976 -0.0600
vn 0.7200 -0.1295 0.6818
vn 0.7185 0.0044 0.6955
vn -0.6756 0.0013 -0.7372
vn 0.7469 0.0607 -0.6622
vn -0.0200 0.9997 0.0118
vn -0.2851 -0.6268 0.7251
vn -0.7570 -0.6295 -0.1748
vn -0.3173 0.0032 -0.9483
vn 0.2836 -0.6247 -0.7275
vn 0.7620 -0.6228 0.1775
vn 0.9811 -0.1934 -0.0017
vn -0.0000 -1.0000 0.0003
vn 0.5081 0.0832 0.8573
vn 0.4599 0.1427 0.8764
vn 0.5285 -0.1743 0.8308
vn -0.4586 0.1368 -0.8781
vn -0.5239 -0.1839 -0.8317
vn 0.4280 -0.2369 0.8722
vn 0.3564 0.4953 0.7922
vn 0.3313 0.5057 0.7966
vn 0.4066 0.4636 0.7873
vn -0.3908 0.4950 -0.7760
vn -0.8042 -0.3777 -0.4588
vn -0.7447 0.6355 0.2040
vn -0.7035 0.4696 -0.5335
vn 0.0107 0.9999 0.0103
vn 0.0102 0.9999 0.0092
vn -0.2389 0.8895 -0.3895
vn -0.1153 0.9928 0.0319
vn -0.4071 0.4702 -0.7830
vn 0.4199 0.5060 0.7534
vn -0.0953 -0.4778 0.8733
vn 0.8696 -0.3238 0.3727
vn 0.4410 0.5971 0.6701
vn 0.8317 0.5387 -0.1346
vn 0.1583 0.9812 -0.1101
vn 0.1701 0.9783 -0.1183
vn 0.5968 -0.2484 0.7630
vn -0.2048 0.9786 0.0223
vn -0.2057 0.8537 -0.4784
vn 0.3146 -0.2071 -0.9264
vn -0.4291 -0.2355 -0.8720
vn 0.6901 -0.5888 -0.4208
vn 0.1389 -0.7309 -0.6682
vn -0.6815 -0.5974 0.4226
vn -0.1601 -0.7471 0.6452
vn -0.4775 -0.6060 -0.6362
vn -0.6405 -0.1597 -0.7511
vn -0.2051 -0.2385 0.9492
vn -0.1174 -0.7785 0.6166
vn 0.9936 0.0216 0.1105
vn 0.0630 -0.1823 -0.9812
vn 0.1876 -0.2651 -0.9458
vn 0.1821 -0.2154 -0.9594
vn -0.1782 -0.2142 0.9604
vn -0.2484 0.5487 0.7983
vn 0.0876 0.2981 -0.9505
vn 0.1122 0.5595 -0.8212
vn 0.2499 0.5547 -0.7936
vn -0.1690 -0.2624 0.9500
vn -0.1114 0.3488 0.9305
vn -0.0805 0.5223 0.8489
vn -0.1245 0.9922 0.0085
vn -0.1288 0.9916 0.0080
vn 0.8258 0.5298 0.1934
vn 0.1360 0.9889 0.0601
vn 0.1270 0.9902 0.0577
vn -0.7751 -0.6296 0.0530
vn -0.6629 -0.1714 -0.7288
vn -0.1685 -0.6221 -0.7646
vn 0.6443 -0.1917 0.7403
vn 0.1713 -0.6223 0.7638
vn 0.7772 -0.6266 -0.0577
vn -0.4628 0.0031 0.8865
vn -0.0001 -1.0000 0.0002
vn -0.5755 0.1401 0.8057
vn -0.5255 0.2982 0.7969
vn -0.5682 -0.2174 0.7936
vn 0.5773 0.1439 -0.8038
vn 0.5261 0.2947 -0.7977
vn 0.5714 -0.2132 -0.7925
vn 0.4606 0.0057 -0.8876
vn -0.6643 -0.1778 0.7260
vn -0.6832 -0.1906 0.7049
vn -0.5608 0.5996 0.5709
vn -0.5151 0.4653 0.7198
vn -0.4441 0.5118 0.7354
vn 0.5060 0.4950 -0.7064
vn -0.1482 -0.1345 -0.9798
vn -0.3906 0.5767 -0.7175
vn 0.5695 0.5897 -0.5727
vn 0.7807 0.5742 0.2465
vn 0.0049 1.0000 0.0059
vn 0.0048 1.0000 0.0058
vn -0.0042 1.0000 -0.0059
vn -0.0041 1.0000 -0.0058
vn 0.5161 0.4665 -0.7183
vn 0.4451 0.5076 -0.7377
vn -0.5121 0.4898 0.7056
vn 0.3530 0.5794 0.7346
vn 0.1405 -0.1330 0.9811
vn 0.1205 0.9874 0.1027
vn 0.1141 0.9887 0.0975
vn -0.7191 -0.2158 0.6605
vn -0.1570 0.9811 -0.1135
vn -0.1611 0.9801 -0.1163
vn 0.6685 -0.1653 -0.7251
vn -0.1550 -0.6247 0.7653
vn -0.7768 -0.6280 -0.0469
vn 0.9663 -0.1937 -0.1697
vn 0.7846 -0.6184 0.0448
vn 0.1526 -0.6223 -0.7678
vn -0.0001 -1.0000 -0.0001
vn 0.6382 0.0914 0.7644
vn 0.5996 0.1407 0.7879
vn 0.6574 -0.1771 0.7324
vn -0.6007 0.0809 -0.7953
vn -0.6552 -0.1776 -0.7343
vn 0.5764 -0.2284 0.7846
vn 0.5060 0.5017 0.7016
vn 0.5315 0.4699 0.7047
vn 0.4629 0.5066 0.7274
vn -0.5364 0.5990 -0.5946
vn -0.5440 0.5114 -0.6652
vn -0.9270 -0.3150 -0.2037
vn -0.8103 0.5259 0.2587
vn -0.4049 0.5971 -0.6924
vn -0.0048 1.0000 0.0035
vn -0.0044 0.9999 -0.0122
vn -0.0044 0.9999 -0.0125
vn -0.0048 1.0000 0.0034
vn -0.4672 0.4964 -0.7317
vn -0.6039 0.4914 -0.6276
vn 0.5624 0.5025 0.6566
vn 0.0619 -0.4706 0.8802
vn 0.9214 -0.3251 0.2130
vn 0.5690 0.5933 0.5694
vn 0.7993 0.5332 -0.2772
vn 0.1311 0.9805 -0.1462
vn 0.1347 0.9796 -0.1494
vn 0.7230 -0.2472 0.6451
vn -0.1571 0.9806 0.1169
vn -0.1535 0.9815 0.1142
vn -0.0790 -0.4524 -0.8883
vn -0.5243 -0.1724 -0.8339
vn 0.1107 0.2699 -0.9565
vn 0.1524 -0.9809 -0.1208
vn 0.6111 -0.6654 -0.4288
vn -0.1524 -0.9809 0.1208
vn -0.6111 -0.6654 0.4288
vn -0.0290 -0.9676 0.2510
vn -0.7687 -0.1944 0.6093
vn -0.4944 -0.7452 0.4475
vn 0.7151 -0.6917 0.1010
vn 0.9582 -0.2699 0.0944
vn -0.0144 0.9941 0.1077
vn -0.1101 0.5673 0.8161
vn 0.8148 0.5706 0.1028
vn 0.0552 0.9976 0.0412
vn -0.7605 0.0238 0.6489
vn -0.8188 0.5695 -0.0719
vn -0.8195 0.0148 0.5729
vn 0.6866 -0.0800 0.7226
vn 0.7973 -0.5952 0.1003
vn 0.6846 0.0741 0.7251
vn -0.0200 -0.9932 0.1146
vn -0.1068 -0.5810 0.8069
vn -0.8024 -0.5923 -0.0726
vn -0.0687 -0.9971 0.0336
vn -0.5524 -0.0714 -0.8305
vn 0.1089 -0.6017 -0.7913
vn -0.6737 -0.0742 -0.7352
vn -0.7642 -0.0767 0.6405
vn -0.8222 -0.0848 0.5629
vn 0.0494 -0.9976 0.0476
vn 0.8205 0.0185 -0.5713
vn 0.8230 -0.0742 -0.5632
vn -0.0676 0.9974 0.0264
vn -0.5506 0.0811 -0.8308
vn 0.1150 0.5866 -0.8017
vn -0.0015 -0.9994 -0.0342
vn 0.7639 -0.0682 -0.6417
vn 0.5649 0.0771 0.8216
vn 0.5674 -0.0768 0.8198
vn -0.6715 0.0793 -0.7368
vn -0.8285 0.5197 -0.2086
vn -0.7013 0.6809 0.2114
vn 0.3659 0.6809 -0.6345
vn 0.7612 0.0253 -0.6480
vn -0.3659 0.6809 0.6345
vn -0.0646 -0.0000 0.9979
vn 0.0019 0.9992 -0.0397
vn -0.6479 -0.0000 0.7617
vn 0.8895 -0.0000 -0.4569
vn 0.6479 -0.0000 -0.7617
vt 0.514602 0.795742
vt 0.599288 0.795742
vt 0.565377 0.795775
vt 0.599288 0.863286
vt 0.514602 0.863286
vt 0.565890 0.863286
vt 0.514602 0.796130
vt 0.565377 0.811700
vt 0.565890 0.815780
vt 0.560773 0.815780
vt 0.598661 0.796059
vt 0.087584 0.053797
vt 0.092437 0.187171
vt 0.072220 0.187171
vt 0.043537 0.217887
vt 0.050129 0.221350
vt 0.046131 0.211573
vt 0.064500 0.101863
vt 0.069097 0.173823
vt 0.084644 0.173823
vt 0.075474 0.173823
vt 0.050129 0.173823
vt 0.047361 0.173823
vt 0.921876 0.767472
vt 0.949458 0.831170
vt 0.936291 0.831170
vt 0.908085 0.831170
vt 0.909533 0.831170
vt 0.057381 0.053797
vt 0.046268 0.187171
vt 0.082731 0.053797
vt 0.070486 0.187171
vt 0.053387 0.053797
vt 0.042184 0.187171
vt 0.036565 0.053797
vt 0.071074 0.173823
vt 0.083654 0.173823
vt 0.071495 0.173823
vt 0.053137 0.173823
vt 0.047853 0.173823
vt 0.947463 0.831170
vt 0.908085 0.831170
vt 0.908085 0.831170
vt 0.894294 0.831170
vt 0.040195 0.053797
vt 0.045755 0.187171
vt 0.066624 0.053797
vt 0.599288 0.826992
vt 0.514602 0.826992
vt 0.514602 0.832036
vt 0.599288 0.832036
vt 0.071074 0.173823
vt 0.083654 0.173823
vt 0.053137 0.173823
vt 0.047853 0.173823
vt 0.934219 0.831170
vt 0.935667 0.831170
vt 0.907461 0.831170
vt 0.514602 0.827380
vt 0.514602 0.831720
vt 0.598661 0.827316
vt 0.598481 0.831639
vt 0.560773 0.827623
vt 0.560773 0.831405
vt 0.560773 0.862920
vt 0.514602 0.862970
vt 0.576758 0.847030
vt 0.565890 0.847366
vt 0.565890 0.843248
vt 0.576758 0.843248
vt 0.598481 0.862900
vt 0.518836 0.793221
vt 0.527305 0.793221
vt 0.519895 0.825101
vt 0.526246 0.825101
vt 0.526246 0.895078
vt 0.519895 0.895078
vt 0.527305 0.824471
vt 0.518836 0.824471
vt 0.518836 0.895078
vt 0.527305 0.895078
vt 0.083261 0.053797
vt 0.080634 0.187171
vt 0.048995 0.053797
vt 0.046131 0.187171
vt 0.036565 0.187171
vt 0.087929 0.217228
vt 0.069097 0.221350
vt 0.072220 0.211573
vt 0.046268 0.211573
vt 0.075474 0.221350
vt 0.080634 0.211573
vt 0.091120 0.053797
vt 0.090385 0.187171
vt 0.058534 0.053797
vt 0.074200 0.187171
vt 0.045755 0.187171
vt 0.070486 0.187171
vt 0.071619 0.053797
vt 0.091120 0.053797
vt 0.090386 0.187171
vt 0.042184 0.187171
vt 0.574885 0.913745
vt 0.576875 0.906877
vt 0.582065 0.912783
vt 0.578175 0.800531
vt 0.584136 0.800531
vt 0.586149 0.800531
vt 0.548124 0.800531
vt 0.533542 0.800531
vt 0.527764 0.800531
vt 0.554368 0.784906
vt 0.544725 0.790813
vt 0.532305 0.784906
vt 0.578543 0.784906
vt 0.573611 0.790813
vt 0.580139 0.790813
vt 0.581927 0.913441
vt 0.577527 0.906877
vt 0.574844 0.914040
vt 0.575021 0.784906
vt 0.567958 0.790813
vt 0.213327 0.912500
vt 0.214608 0.901332
vt 0.208689 0.901332
vt 0.177604 0.912500
vt 0.167926 0.901332
vt 0.196200 0.901332
vt 0.150840 0.901332
vt 0.146966 0.912500
vt 0.140975 0.901332
vt 0.147967 0.912500
vt 0.157898 0.901332
vt 0.197125 0.912500
vt 0.187656 0.901332
vt 0.161670 0.844218
vt 0.176076 0.855385
vt 0.197125 0.844218
vt 0.142255 0.844218
vt 0.146133 0.855386
vt 0.208689 0.855386
vt 0.213327 0.844218
vt 0.197125 0.958463
vt 0.185923 0.960793
vt 0.200007 0.960793
vt 0.213327 0.958463
vt 0.208138 0.960793
vt 0.196200 0.855370
vt 0.186382 0.851690
vt 0.201261 0.851690
vt 0.140975 0.855370
vt 0.145731 0.851690
vt 0.157898 0.855370
vt 0.169201 0.851690
vt 0.154322 0.851690
vt 0.208689 0.901348
vt 0.201261 0.905028
vt 0.209851 0.905028
vt 0.207711 0.798255
vt 0.200007 0.795925
vt 0.208138 0.795925
vt 0.210436 0.901348
vt 0.177604 0.798255
vt 0.169660 0.795925
vt 0.185923 0.795925
vt 0.147831 0.798255
vt 0.147444 0.795925
vt 0.155576 0.795925
vt 0.161670 0.798255
vt 0.176076 0.901348
vt 0.169201 0.905028
vt 0.186382 0.905028
vt 0.562304 0.938127
vt 0.543596 0.930315
vt 0.573611 0.922502
vt 0.580139 0.938127
vt 0.531414 0.930315
vt 0.580139 0.922502
vt 0.573611 0.806438
vt 0.567958 0.806438
vt 0.580139 0.806438
vt 0.550520 0.806438
vt 0.555776 0.806438
vt 0.534678 0.806438
vt 0.536160 0.806438
vt 0.531414 0.806438
vt 0.544725 0.806438
vt 0.576875 0.930314
vt 0.537942 0.938127
vt 0.531414 0.922502
vt 0.304668 0.941833
vt 0.306511 0.941170
vt 0.312652 0.941170
vt 0.306703 0.884662
vt 0.311950 0.876140
vt 0.312652 0.906187
vt 0.309509 0.876140
vt 0.304597 0.906187
vt 0.306779 0.789464
vt 0.309148 0.766592
vt 0.311950 0.789464
vt 0.152281 0.904218
vt 0.154330 0.891613
vt 0.208123 0.891613
vt 0.210171 0.904218
vt 0.518044 0.970922
vt 0.540387 0.919800
vt 0.585066 0.774823
vt 0.585066 0.774823
vt 0.562726 0.825945
vt 0.152281 0.782127
vt 0.154330 0.794732
vt 0.210171 0.782127
vt 0.152793 0.868316
vt 0.208123 0.866442
vt 0.210171 0.868941
vt 0.208123 0.794732
vt 0.208123 0.866442
vt 0.152281 0.868941
vt 0.154330 0.858008
vt 0.152281 0.855510
vt 0.208123 0.858008
vt 0.208123 0.794732
vt 0.154330 0.794732
vt 0.154330 0.866442
vt 0.223476 0.887994
vt 0.213140 0.885495
vt 0.223476 0.817404
vt 0.138976 0.887994
vt 0.149312 0.885495
vt 0.138976 0.817404
vt 0.141043 0.817904
vt 0.213140 0.819903
vt 0.149312 0.819903
vt 0.219342 0.867941
vt 0.213140 0.866442
vt 0.223476 0.868941
vt 0.518044 0.970922
vt 0.591318 0.939511
vt 0.591318 0.851844
vt 0.585066 0.919800
vt 0.562726 0.970922
vt 0.585066 0.919800
vt 0.209659 0.785278
vt 0.209352 0.867941
vt 0.152793 0.856135
vt 0.208123 0.858008
vt 0.210171 0.855510
vt 0.209352 0.787169
vt 0.585066 0.843615
vt 0.585066 0.953252
vt 0.562726 0.902130
vt 0.518044 0.953252
vt 0.540387 0.792493
vt 0.518044 0.843615
vt 0.213140 0.885495
vt 0.220031 0.818237
vt 0.149312 0.885495
vt 0.143110 0.818404
vt 0.152281 0.887994
vt 0.153101 0.818404
vt 0.154330 0.885495
vt 0.141560 0.818029
vt 0.149312 0.885495
vt 0.209352 0.886994
vt 0.208123 0.819903
vt 0.210171 0.817404
vt 0.541126 0.810484
vt 0.541141 0.783143
vt 0.541946 0.797413
vt 0.529632 0.792988
vt 0.512852 0.814379
vt 0.513246 0.783143
vt 0.512441 0.797413
vt 0.210587 0.863498
vt 0.222918 0.849109
vt 0.222895 0.900318
vt 0.918279 0.814362
vt 0.917932 0.783243
vt 0.918671 0.797413
vt 0.907747 0.792988
vt 0.907747 0.792988
vt 0.892495 0.817333
vt 0.897426 0.811462
vt 0.897433 0.860455
vt 0.918671 0.816993
vt 0.913740 0.811462
vt 0.913733 0.860455
vt 0.918671 0.816476
vt 0.918396 0.798984
vt 0.892731 0.814939
vt 0.893234 0.783243
vt 0.892495 0.797413
vt 0.893319 0.808520
vt 0.892495 0.783395
vt 0.893910 0.786015
vt 0.916558 0.814510
vt 0.916119 0.783223
vt 0.916946 0.797413
vt 0.893007 0.860455
vt 0.887441 0.819194
vt 0.892999 0.811462
vt 0.911380 0.860455
vt 0.916946 0.818754
vt 0.911388 0.811462
vt 0.185623 0.849109
vt 0.197955 0.862741
vt 0.185641 0.886112
vt 0.541126 0.888609
vt 0.541141 0.861268
vt 0.541946 0.875538
vt 0.529632 0.871113
vt 0.529632 0.871113
vt 0.518007 0.938580
vt 0.512441 0.896866
vt 0.517999 0.889587
vt 0.512929 0.892569
vt 0.513246 0.861268
vt 0.512441 0.875538
vt 0.210586 0.938650
vt 0.222918 0.927234
vt 0.222901 0.964237
vt 0.208123 0.891613
vt 0.152793 0.901067
vt 0.208123 0.891613
vt 0.154330 0.866442
vt 0.208123 0.858008
vt 0.154330 0.858008
vt 0.585066 0.843615
vt 0.585066 0.902130
vt 0.585066 0.792493
vt 0.562726 0.843615
vt 0.220892 0.887369
vt 0.141560 0.887369
vt 0.081671 0.262127
vt 0.086118 0.401854
vt 0.093878 0.402336
vt 0.040711 0.262127
vt 0.037739 0.401832
vt 0.028505 0.401361
vt 0.074822 0.262127
vt 0.085003 0.443952
vt 0.066641 0.401346
vt 0.080274 0.251970
vt 0.050964 0.251970
vt 0.047848 0.251970
vt 0.042107 0.251970
vt 0.062853 0.280803
vt 0.083654 0.459649
vt 0.055572 0.399558
vt 0.044036 0.399558
vt 0.037589 0.399558
vt 0.055587 0.259546
vt 0.044036 0.368308
vt 0.061193 0.313130
vt 0.052100 0.299958
vt 0.069815 0.259546
vt 0.083654 0.491824
vt 0.091213 0.429763
vt 0.066813 0.399558
vt 0.063978 0.259546
vt 0.060212 0.280803
vt 0.150523 0.517948
vt 0.146041 0.517948
vt 0.152241 0.517949
vt 0.160076 0.615850
vt 0.152629 0.630993
vt 0.153517 0.601708
vt 0.159189 0.571430
vt 0.159102 0.680246
vt 0.153499 0.666849
vt 0.145596 0.665750
vt 0.151654 0.688038
vt 0.070036 0.337196
vt 0.061839 0.323986
vt 0.060674 0.330093
vt 0.052048 0.325469
vt 0.061193 0.337159
vt 0.057406 0.330093
vt 0.070285 0.319545
vt 0.047586 0.262127
vt 0.037381 0.401854
vt 0.055744 0.401361
vt 0.074547 0.251970
vt 0.042106 0.251970
vt 0.080276 0.251970
vt 0.047852 0.251970
vt 0.062472 0.284769
vt 0.086998 0.445560
vt 0.049311 0.399558
vt 0.041088 0.382597
vt 0.052569 0.259546
vt 0.060234 0.292685
vt 0.070232 0.309359
vt 0.075957 0.449637
vt 0.062409 0.292685
vt 0.060377 0.284769
vt 0.144407 0.517948
vt 0.153624 0.604700
vt 0.160076 0.617373
vt 0.152241 0.620163
vt 0.153465 0.665596
vt 0.150984 0.684143
vt 0.159102 0.680250
vt 0.145294 0.571430
vt 0.145948 0.666849
vt 0.069863 0.328543
vt 0.061564 0.323986
vt 0.060673 0.330093
vt 0.051949 0.328265
vt 0.061404 0.337932
vt 0.598520 0.880095
vt 0.588649 0.880095
vt 0.586036 0.908074
vt 0.594951 0.908074
vt 0.595864 0.908074
vt 0.599433 0.880095
vt 0.568100 0.908074
vt 0.569056 0.880095
vt 0.586154 0.880095
vt 0.583541 0.908074
vt 0.545905 0.880095
vt 0.565648 0.880095
vt 0.564691 0.908074
vt 0.546862 0.908074
vt 0.528012 0.908074
vt 0.525399 0.880095
vt 0.542497 0.880095
vt 0.543453 0.908074
vt 0.516602 0.908074
vt 0.513033 0.880095
vt 0.522904 0.880095
vt 0.525517 0.908074
vt 0.512119 0.880095
vt 0.515689 0.908074
vt 0.564691 0.852115
vt 0.546862 0.852115
vt 0.562821 0.784906
vt 0.548732 0.784906
vt 0.555776 0.790813
vt 0.577803 0.929623
vt 0.586149 0.928408
vt 0.543453 0.852115
vt 0.528012 0.852115
vt 0.547638 0.831781
vt 0.533542 0.831781
vt 0.525517 0.852115
vt 0.516602 0.852115
vt 0.525404 0.831781
vt 0.515689 0.852115
vt 0.563915 0.831781
vt 0.568100 0.852115
vt 0.583541 0.852115
vt 0.578010 0.831781
vt 0.586036 0.852115
vt 0.594951 0.852115
vt 0.586149 0.831781
vt 0.595864 0.852115
vt 0.563888 0.929211
vt 0.585745 0.930028
vt 0.577872 0.929220
vt 0.563915 0.928408
vt 0.547638 0.928408
vt 0.533542 0.928408
vt 0.525404 0.928408
vt 0.525681 0.929221
vt 0.533862 0.929629
vt 0.531414 0.906877
vt 0.543596 0.906877
vt 0.536748 0.913711
vt 0.529866 0.914040
vt 0.576481 0.800531
vt 0.550528 0.800531
vt 0.563915 0.800531
vt 0.550525 0.959658
vt 0.563915 0.959658
vt 0.576393 0.959658
vt 0.527764 0.959658
vt 0.533542 0.959658
vt 0.527922 0.800531
vt 0.573611 0.938127
vt 0.557081 0.922502
vt 0.531414 0.790813
vt 0.582065 0.784906
vt 0.534678 0.790813
vt 0.533010 0.784906
vt 0.537942 0.906877
vt 0.533010 0.912783
vt 0.554368 0.912783
vt 0.557081 0.906877
vt 0.548732 0.912783
vt 0.562304 0.906877
vt 0.562789 0.914209
vt 0.168269 0.912500
vt 0.203805 0.912500
vt 0.210436 0.855386
vt 0.207711 0.844218
vt 0.187656 0.855386
vt 0.177604 0.844218
vt 0.147831 0.844218
vt 0.167926 0.855386
vt 0.144921 0.855386
vt 0.187656 0.855370
vt 0.208689 0.855370
vt 0.209851 0.851690
vt 0.214608 0.855370
vt 0.203805 0.958463
vt 0.177604 0.958463
vt 0.167926 0.855370
vt 0.150840 0.855370
vt 0.169660 0.960793
vt 0.155576 0.960793
vt 0.146966 0.958463
vt 0.147444 0.960793
vt 0.147967 0.958463
vt 0.168269 0.958463
vt 0.197125 0.798255
vt 0.213327 0.798255
vt 0.187656 0.901348
vt 0.167926 0.901348
vt 0.154322 0.905028
vt 0.144921 0.901348
vt 0.142255 0.798255
vt 0.145731 0.905028
vt 0.146133 0.901348
vt 0.311248 0.766592
vt 0.309509 0.789464
vt 0.577527 0.931876
vt 0.531414 0.938127
vt 0.537942 0.922502
vt 0.303583 0.876140
vt 0.305749 0.766592
vt 0.303583 0.789464
vt 0.149312 0.866442
vt 0.138976 0.868941
vt 0.223476 0.855510
vt 0.213140 0.858008
vt 0.220892 0.856135
vt 0.152281 0.942324
vt 0.210171 0.942324
vt 0.215669 0.942324
vt 0.146783 0.942324
vt 0.141043 0.856010
vt 0.138976 0.855510
vt 0.149312 0.858008
vt 0.223476 0.907047
vt 0.223476 0.918119
vt 0.152281 0.836457
vt 0.143201 0.829752
vt 0.143201 0.913751
vt 0.152281 0.907047
vt 0.210171 0.801180
vt 0.219251 0.801180
vt 0.146783 0.825384
vt 0.215669 0.825384
vt 0.210171 0.836457
vt 0.223476 0.836457
vt 0.223476 0.825384
vt 0.152281 0.801180
vt 0.146783 0.801180
vt 0.215669 0.801180
vt 0.138976 0.836457
vt 0.138976 0.907047
vt 0.138976 0.913751
vt 0.138976 0.829752
vt 0.219251 0.942324
vt 0.518044 0.825945
vt 0.540387 0.774823
vt 0.518044 0.825945
vt 0.143201 0.801180
vt 0.138976 0.825384
vt 0.210171 0.907047
vt 0.219251 0.913751
vt 0.219251 0.829752
vt 0.223476 0.829752
vt 0.223476 0.913751
vt 0.518044 0.953252
vt 0.540387 0.902130
vt 0.152793 0.856134
vt 0.511795 0.893901
vt 0.511795 0.806234
vt 0.591318 0.893901
vt 0.591318 0.806234
vt 0.540387 0.953252
vt 0.518044 0.902130
vt 0.518044 0.792493
vt 0.540387 0.843615
vt 0.215669 0.918119
vt 0.146783 0.918119
vt 0.138976 0.918119
vt 0.143201 0.942324
vt 0.208123 0.885495
vt 0.210171 0.887994
vt 0.152793 0.818029
vt 0.152281 0.817404
vt 0.154330 0.819903
vt 0.152793 0.887369
vt 0.220892 0.818029
vt 0.208123 0.891613
vt 0.209659 0.901067
vt 0.153101 0.899176
vt 0.154330 0.891613
vt 0.153101 0.856509
vt 0.551556 0.818054
vt 0.591318 0.806234
vt 0.209001 0.886566
vt 0.602019 0.769995
vt 0.600686 0.856252
vt 0.602019 0.769995
vt 0.568698 0.871877
vt 0.566032 0.871877
vt 0.566576 0.785620
vt 0.598020 0.871877
vt 0.600686 0.871877
vt 0.600224 0.785620
vt 0.564699 0.769995
vt 0.564699 0.769995
vt 0.566032 0.856252
vt 0.223020 0.767417
vt 0.215023 0.767417
vt 0.576695 0.871877
vt 0.590023 0.871877
vt 0.583359 0.785620
vt 0.201695 0.767417
vt 0.193698 0.767417
vt 0.150080 0.868125
vt 0.153216 0.777702
vt 0.132312 0.777702
vt 0.135447 0.868125
vt 0.173818 0.868125
vt 0.176953 0.777702
vt 0.156049 0.777702
vt 0.159185 0.868125
vt 0.536374 0.871409
vt 0.541946 0.862336
vt 0.541946 0.798564
vt 0.536380 0.797955
vt 0.524900 0.871409
vt 0.529487 0.871409
vt 0.529481 0.797955
vt 0.524906 0.797955
vt 0.512441 0.798564
vt 0.518007 0.797955
vt 0.518013 0.871409
vt 0.512441 0.862336
vt 0.541946 0.829814
vt 0.541946 0.893586
vt 0.536377 0.830878
vt 0.541667 0.814836
vt 0.541134 0.783168
vt 0.524900 0.840159
vt 0.529487 0.840159
vt 0.518007 0.860455
vt 0.517999 0.811462
vt 0.512441 0.831049
vt 0.197931 0.917808
vt 0.197956 0.859975
vt 0.185653 0.917808
vt 0.513295 0.809862
vt 0.513253 0.783168
vt 0.222888 0.917808
vt 0.210610 0.917808
vt 0.512441 0.829814
vt 0.512441 0.893586
vt 0.541946 0.831086
vt 0.536374 0.840159
vt 0.536380 0.860455
vt 0.536388 0.811462
vt 0.541946 0.831013
vt 0.565088 0.802834
vt 0.565088 0.847870
vt 0.565088 0.843697
vt 0.565088 0.846008
vt 0.565088 0.846790
vt 0.222913 0.860083
vt 0.210588 0.864740
vt 0.197955 0.862175
vt 0.185628 0.859591
vt 0.518013 0.840159
vt 0.512441 0.831086
vt 0.940039 0.785620
vt 0.942403 0.785620
vt 0.942403 0.871877
vt 0.940039 0.871877
vt 0.970782 0.785620
vt 0.968417 0.785620
vt 0.968417 0.871877
vt 0.970782 0.871877
vt 0.971964 0.769995
vt 0.971964 0.769995
vt 0.970782 0.856252
vt 0.938856 0.769995
vt 0.940039 0.856252
vt 0.968417 0.754370
vt 0.971573 0.754370
vt 0.971172 0.754370
vt 0.939648 0.754370
vt 0.942403 0.754370
vt 0.939247 0.754370
vt 0.222901 0.862278
vt 0.185641 0.862278
vt 0.185623 0.833959
vt 0.222918 0.833959
vt 0.154632 0.779310
vt 0.135447 0.848512
vt 0.173818 0.848512
vt 0.918671 0.862336
vt 0.918671 0.798564
vt 0.913733 0.797955
vt 0.913728 0.871409
vt 0.918671 0.829814
vt 0.918671 0.893586
vt 0.897433 0.797955
vt 0.897438 0.871409
vt 0.892495 0.862336
vt 0.892495 0.798564
vt 0.892495 0.820641
vt 0.222888 0.886535
vt 0.185653 0.886535
vt 0.907747 0.792988
vt 0.892495 0.829814
vt 0.892495 0.893586
vt 0.918671 0.811462
vt 0.918671 0.861064
vt 0.918671 0.831086
vt 0.913728 0.840159
vt 0.939201 0.840641
vt 0.939201 0.802834
vt 0.939201 0.846961
vt 0.939201 0.844462
vt 0.939201 0.843997
vt 0.938856 0.825002
vt 0.892495 0.831086
vt 0.897438 0.840159
vt 0.977019 0.769995
vt 0.975686 0.856252
vt 0.977019 0.769995
vt 0.941032 0.856252
vt 0.939699 0.769995
vt 0.941576 0.785620
vt 0.941032 0.871877
vt 0.943698 0.871877
vt 0.951695 0.871877
vt 0.965023 0.871877
vt 0.958359 0.785620
vt 0.975134 0.785620
vt 0.975686 0.871877
vt 0.973020 0.871877
vt 0.911374 0.871409
vt 0.916946 0.862336
vt 0.916946 0.798564
vt 0.911380 0.797955
vt 0.899900 0.871409
vt 0.904487 0.871409
vt 0.904481 0.797955
vt 0.899906 0.797955
vt 0.916946 0.829814
vt 0.916946 0.893586
vt 0.887586 0.797332
vt 0.893007 0.797955
vt 0.893013 0.871409
vt 0.887441 0.862336
vt 0.916089 0.809809
vt 0.916156 0.783088
vt 0.899900 0.840159
vt 0.904487 0.840159
vt 0.197955 0.862507
vt 0.185628 0.859587
vt 0.888463 0.809996
vt 0.887441 0.797413
vt 0.888253 0.783168
vt 0.904632 0.792988
vt 0.210587 0.863234
vt 0.222901 0.886112
vt 0.887441 0.829814
vt 0.887441 0.893586
vt 0.916946 0.831086
vt 0.911374 0.840159
vt 0.940088 0.846698
vt 0.940088 0.802834
vt 0.940088 0.846126
vt 0.940088 0.823650
vt 0.940088 0.847518
vt 0.893013 0.840159
vt 0.887441 0.831086
vt 0.210587 0.862899
vt 0.222913 0.860100
vt 0.602019 0.848120
vt 0.600686 0.934377
vt 0.940088 0.856880
vt 0.598020 0.950002
vt 0.600686 0.950002
vt 0.600215 0.863745
vt 0.566032 0.934377
vt 0.564699 0.848120
vt 0.564699 0.848120
vt 0.223020 0.845542
vt 0.215023 0.845542
vt 0.576695 0.950002
vt 0.590023 0.950002
vt 0.583359 0.863745
vt 0.201695 0.845542
vt 0.193698 0.845542
vt 0.150080 0.946250
vt 0.153216 0.855827
vt 0.132312 0.855827
vt 0.135447 0.946250
vt 0.159185 0.946250
vt 0.173818 0.946250
vt 0.176953 0.855827
vt 0.156049 0.855827
vt 0.536374 0.949534
vt 0.541946 0.940461
vt 0.541946 0.876689
vt 0.536380 0.876080
vt 0.529487 0.949534
vt 0.529481 0.876080
vt 0.524906 0.876080
vt 0.524900 0.949534
vt 0.541946 0.907939
vt 0.541946 0.971711
vt 0.512441 0.876689
vt 0.518007 0.876080
vt 0.518013 0.949534
vt 0.512441 0.940461
vt 0.541559 0.892326
vt 0.541134 0.861293
vt 0.529487 0.918284
vt 0.524900 0.918284
vt 0.512441 0.909173
vt 0.197931 0.995933
vt 0.197955 0.941184
vt 0.185641 0.964237
vt 0.185653 0.995933
vt 0.513202 0.888125
vt 0.513253 0.861293
vt 0.185623 0.927234
vt 0.222888 0.995933
vt 0.210610 0.995933
vt 0.197955 0.940519
vt 0.512441 0.907939
vt 0.512441 0.971711
vt 0.536374 0.918284
vt 0.541946 0.909211
vt 0.536380 0.938580
vt 0.536388 0.889587
vt 0.541946 0.909138
vt 0.565088 0.880959
vt 0.565088 0.925995
vt 0.565088 0.921822
vt 0.565088 0.926979
vt 0.565088 0.924913
vt 0.222913 0.938877
vt 0.210586 0.940360
vt 0.518013 0.918284
vt 0.512441 0.909211
vt 0.141560 0.868316
vt 0.220892 0.868316
vt 0.152793 0.785278
vt 0.511795 0.939511
vt 0.511795 0.851844
vt 0.551556 0.927691
vt 0.144407 0.572086
vt 0.152008 0.613632
vt 0.160076 0.570230
vt 0.160076 0.517948
vt 0.156475 0.517949
vt 0.055116 0.385784
vt 0.052735 0.371854
vt 0.059468 0.389127
vt 0.052664 0.330093
vt 0.157561 0.614101
vt 0.152241 0.572086
vt 0.064978 0.361343
vt 0.160076 0.572437
vt 0.152139 0.517948
vt 0.152106 0.616361
vt 0.146922 0.517948
vt 0.044791 0.416089
vt 0.047470 0.302396
vt 0.039011 0.289072
vt 0.031975 0.416089
vt 0.069994 0.358383
vt 0.090410 0.416089
vt 0.084214 0.302425
vt 0.077594 0.442080
vt 0.074927 0.308075
vt 0.066286 0.416089
s 1
usemtl texture.141
f 1/1/1 3/2/2 9/3/3
f 4/4/4 2/5/5 11/6/6
f 1/1/1 9/3/3 5/7/7
f 9/8/3 11/9/6 10/10/8
f 3/2/2 7/11/9 9/3/3
f 31/12/10 21/13/11 20/14/12
f 24/15/13 29/16/14 23/17/15
f 26/18/16 27/19/17 21/20/18
f 26/18/16 21/20/18 28/21/19
f 26/18/16 28/21/19 29/22/14
f 26/18/16 29/22/14 24/23/13
f 26/18/16 24/23/13 27/19/17
f 35/24/20 37/25/21 36/26/22
f 35/24/23 38/27/23 37/25/23
f 35/24/24 36/28/22 38/27/25
f 38/27/25 36/28/22 37/25/21
f 30/29/26 20/14/12 25/30/27
f 46/31/28 39/32/29 45/33/30
f 45/33/30 43/34/31 49/35/32
f 44/18/33 39/36/29 40/37/34
f 44/18/33 40/37/34 41/38/35
f 44/18/33 41/38/35 42/39/36
f 44/18/33 42/39/36 43/40/31
f 44/18/33 43/40/31 39/36/29
f 50/24/37 52/41/38 51/42/39
f 50/24/40 53/43/41 52/41/38
f 51/42/39 52/44/38 53/43/41
f 50/24/42 51/42/42 53/43/42
f 63/45/43 57/46/44 62/47/45
f 3/48/46 1/49/46 2/50/46 4/51/46
f 59/18/47 54/52/48 55/53/49
f 59/18/47 55/53/49 56/38/50
f 59/18/47 56/38/50 57/54/44
f 59/18/47 57/54/44 58/55/51
f 59/18/47 58/55/51 54/52/48
f 64/24/52 66/56/53 65/57/54
f 64/24/55 67/44/56 66/58/53
f 64/24/57 65/57/57 67/44/57
f 65/57/54 66/56/53 67/44/56
f 2/50/58 1/49/58 5/59/7 6/60/59
f 7/61/9 3/48/2 4/51/4 8/62/60
f 5/59/7 9/63/3 10/64/8 6/60/59
f 10/65/8 11/6/6 2/5/5 6/66/59
f 8/67/60 11/68/6 9/69/3 7/70/9
f 4/4/4 11/6/6 8/71/60
f 16/72/61 12/72/62 14/73/62 18/73/63
f 16/74/61 18/75/63 19/76/64 17/77/65
f 14/78/46 12/79/46 13/80/46 15/81/46
f 13/80/66 12/79/66 16/79/61 17/80/65
f 18/78/63 14/78/67 15/81/67 19/81/64
f 21/13/11 31/12/10 32/82/68 22/83/69
f 30/29/26 31/12/10 20/14/12
f 22/83/69 32/82/68 33/84/70 23/85/15
f 23/85/15 33/84/70 34/35/71 24/86/72
f 21/87/11 27/88/73 20/89/12
f 25/30/27 24/86/72 34/35/71 30/29/26
f 25/90/27 20/89/12 27/88/73 24/15/72
f 28/91/74 22/92/69 23/17/15 29/16/14
f 39/32/29 46/31/28 47/93/75 40/94/34
f 22/92/69 28/91/74 21/87/11
f 40/94/34 47/93/75 48/95/76 41/96/35
f 42/97/36 48/95/76 49/35/32 43/34/31
f 48/95/76 42/97/36 41/96/35
f 54/98/48 60/99/77 61/100/78 55/101/49
f 45/33/30 39/32/29 43/34/31
f 55/101/49 61/100/78 62/47/45 56/96/50
f 58/102/51 63/45/43 60/99/77 54/98/48
f 62/47/45 57/46/44 56/96/50
f 63/45/43 58/102/51 57/46/44
usemtl texture.142
f 70/103/79 93/104/80 72/105/81
f 73/106/82 71/107/83 85/108/84
f 77/109/85 88/110/86 78/111/87
f 91/112/88 218/113/89 80/114/90
f 73/115/82 92/116/91 214/117/92
f 74/118/93 95/119/94 75/120/95
f 69/121/96 213/122/97 91/112/88
f 145/123/98 147/124/99 141/125/100
f 155/126/101 157/127/102 150/128/103
f 160/129/104 162/130/105 164/131/106
f 168/132/107 170/133/108 164/131/106
f 139/134/109 141/125/100 137/135/110
f 209/136/111 178/137/112 176/138/113
f 205/139/114 207/140/115 209/136/111
f 176/138/113 181/141/116 183/142/117
f 139/143/118 138/144/119 142/145/120
f 145/146/121 144/147/122 148/147/123
f 150/148/124 153/149/125 149/150/126
f 164/151/127 166/152/128 163/152/129
f 170/153/130 172/154/131 169/155/132
f 181/156/133 180/157/134 184/158/135
f 186/159/136 189/160/137 185/161/138
f 188/162/139 187/158/140 190/157/141
f 192/163/142 195/164/143 191/165/144
f 199/166/145 202/167/146 198/168/147
f 209/169/148 211/164/149 208/168/150
f 178/170/151 212/171/152 177/172/153
f 94/173/154 99/174/155 93/175/156
f 93/176/156 98/177/157 95/178/94
f 92/179/91 213/180/158 214/181/92
f 92/182/91 215/183/159 216/184/160
f 92/185/91 216/184/160 217/186/161
f 92/185/91 217/186/161 218/187/162
f 92/182/91 218/187/162 213/180/158
f 93/188/156 99/189/155 98/190/157
f 219/191/163 221/192/164 220/193/165
f 221/194/164 224/195/166 220/196/165
f 220/196/165 224/195/166 223/197/167
f 220/196/165 223/197/167 219/198/163
f 221/199/164 227/200/168 224/201/166
f 249/202/169 269/203/169 268/204/170
f 251/205/171 271/204/171 270/203/172
f 269/206/173 270/206/172 268/207/170
f 265/208/174 266/209/175 267/210/176
f 247/211/177 267/212/176 246/213/178
f 242/214/179 262/215/180 241/216/181
f 245/213/182 265/217/174 244/211/183
f 234/216/184 256/218/185 233/219/186
f 263/220/187 243/221/187 261/222/188
f 266/223/189 246/213/178 267/212/176
f 264/224/183 244/211/183 265/217/174
f 255/225/186 233/219/186 256/218/185
f 237/226/190 259/227/191 236/228/192
f 229/229/193 253/230/194 228/231/195
f 231/232/196 254/230/197 230/229/198
f 258/233/192 236/228/192 259/227/191
f 252/234/195 228/231/195 253/230/194
f 290/235/199 307/236/200 289/237/201
f 301/206/202 313/238/203 312/207/204
f 307/239/200 290/239/199 291/240/205
f 312/241/204 313/242/203 303/243/206
f 299/211/207 311/224/208 298/244/209
f 294/219/210 309/225/211 293/245/212
f 284/246/213 306/247/214 287/248/215
f 297/249/216 310/224/217 296/211/218
f 308/250/219 293/251/212 309/252/211
f 285/253/220 306/254/214 284/255/213
f 289/226/201 307/256/200 288/257/221
f 281/229/222 304/258/223 280/259/224
f 294/260/210 295/261/225 309/262/211
f 283/263/226 305/264/227 282/229/228
f 293/265/212 308/266/219 292/267/229
f 338/268/230 329/269/231 340/270/232
f 329/271/231 336/271/233 340/271/232
f 354/272/234 323/273/235 342/274/236
f 334/275/237 327/276/238 343/277/239
f 380/278/240 362/279/241 371/280/242
f 362/281/241 364/282/243 371/281/242
f 372/283/244 368/284/245 374/285/246
f 371/286/242 364/287/243 373/288/247
f 380/278/240 381/289/248 370/290/249
f 384/291/250 356/292/251 372/293/244
f 378/294/252 358/295/253 363/296/254
f 411/297/255 392/298/256 403/299/257
f 406/300/258 401/301/259 386/302/260
f 405/303/261 403/304/257 392/305/262
f 386/306/260 398/307/263 406/308/264
f 434/309/265 426/310/266 436/311/267
f 426/312/266 433/313/268 436/312/267
f 439/314/269 438/315/270 420/316/271
f 452/317/272 420/318/273 438/319/270
f 431/320/274 424/321/275 440/322/276
f 474/202/277 495/203/277 494/323/278
f 475/324/279 495/203/280 474/202/281
f 476/205/282 496/325/283 475/324/279
f 467/219/284 489/326/285 466/216/286
f 470/213/287 492/223/288 469/211/289
f 459/216/290 482/218/291 458/219/292
f 488/218/286 466/216/286 489/326/285
f 491/224/289 469/211/289 492/223/288
f 483/327/293 460/248/293 480/328/294
f 481/225/292 458/219/292 482/218/291
f 487/329/295 488/251/296 489/252/285
f 482/330/291 483/331/297 480/332/294
f 462/333/298 484/233/299 461/228/300
f 454/334/301 477/234/302 453/231/303
f 464/228/304 486/233/305 463/226/306
f 456/231/307 479/234/308 455/229/309
f 485/256/306 463/226/306 486/233/305
f 478/258/309 455/229/309 479/234/308
f 528/335/310 507/336/311 510/337/312
f 526/338/313 529/339/314 508/340/315
f 512/341/316 506/342/317 511/343/318
f 528/344/310 512/345/316 527/346/319
f 527/346/319 512/345/316 526/347/313
f 513/348/320 507/349/311 509/350/321
f 505/351/322 508/352/315 515/353/323
f 508/352/315 529/354/314 515/353/323
f 515/353/324 524/355/325 525/356/326
f 514/357/327 506/358/317 510/359/312
f 511/360/318 515/353/323 529/354/314
f 511/360/318 506/358/317 515/361/323
f 514/357/327 515/361/323 506/358/317
f 510/359/312 507/349/311 514/357/327
f 513/348/320 514/357/327 507/349/311
f 509/350/321 505/351/322 513/362/320
f 515/353/323 513/362/320 505/351/322
f 517/363/328 518/364/329 516/365/330
f 521/366/331 523/367/332 519/368/333
f 522/369/334 521/370/331 516/371/330
f 522/372/334 523/373/332 521/370/331
f 520/374/335 513/375/320 517/376/328
f 525/377/326 524/378/325 519/379/336
f 514/357/327 513/362/320 520/380/335
f 527/381/337 505/382/322 509/383/321
f 547/384/338 534/385/339 548/386/340
f 548/386/340 534/385/339 546/387/341
f 535/388/342 533/389/343 531/390/344
f 531/390/344 530/391/345 537/392/346
f 538/393/347 537/392/346 530/391/345
f 537/392/346 538/393/347 540/356/348
f 536/394/349 532/395/350 533/389/343
f 532/395/350 538/393/347 530/391/345
f 536/394/349 538/396/347 532/395/350
f 535/388/342 536/394/349 533/389/343
f 537/392/346 535/397/342 531/390/344
f 540/398/351 541/399/352 545/398/353
f 543/400/354 544/401/355 541/399/352
f 542/402/356 544/403/355 543/404/354
f 542/405/356 545/406/353 544/403/355
f 536/407/349 535/408/342 539/409/357
f 541/379/352 540/410/351 538/411/347
f 126/412/358 125/413/359 102/414/360 104/415/361
f 106/416/362 127/417/363 126/417/358 104/416/361
f 108/414/364 128/413/365 127/412/363 106/415/362
f 110/418/366 129/419/367 128/420/365 108/421/364
f 130/422/368 129/423/367 110/424/366 112/425/369
f 114/426/370 131/427/371 130/428/368 112/429/369
f 116/430/372 132/431/373 131/432/371 114/433/370
f 133/434/374 132/434/373 116/435/372 118/435/375
f 134/432/376 133/431/374 118/430/375 120/433/377
f 135/428/378 134/427/376 120/426/377 122/429/379
f 125/420/359 124/419/380 101/418/381 102/421/360
f 124/423/380 100/436/382 123/437/383 135/422/378
f 76/438/384 77/439/385 215/440/159
f 104/415/361 102/414/360 70/441/79 72/442/81
f 135/428/378 123/443/383 121/444/386 134/427/376
f 123/443/383 91/445/387 90/446/387 121/444/386
f 134/432/376 121/447/386 119/448/388 133/431/374
f 121/447/386 90/446/389 80/449/90 119/448/388
f 133/434/374 119/450/388 117/450/390 132/434/373
f 80/449/90 78/449/391 117/450/390 119/450/388
f 117/448/390 115/447/392 131/432/371 132/431/373
f 78/449/87 88/446/86 115/447/392 117/448/390
f 115/444/392 113/443/393 130/428/368 131/427/371
f 88/446/86 77/445/85 113/443/393 115/444/392
f 130/422/368 113/437/393 111/436/394 129/423/367
f 77/445/385 76/451/384 111/436/394 113/437/393
f 111/452/394 109/453/395 128/420/365 129/419/367
f 76/451/384 73/454/82 109/453/395 111/452/394
f 109/455/395 107/456/396 127/412/363 128/413/365
f 73/454/82 85/457/84 107/456/396 109/455/395
f 107/458/396 105/458/397 126/417/358 127/417/363
f 85/457/398 71/457/398 105/458/397 107/458/396
f 126/412/358 105/456/397 103/455/399 125/413/359
f 105/456/397 71/457/83 69/454/96 103/455/399
f 125/420/359 103/453/399 100/452/382 124/419/380
f 102/421/360 101/418/381 68/459/400 70/441/79
f 100/436/382 84/451/401 91/445/402 123/437/383
f 74/460/93 106/416/362 104/416/361 72/442/81
f 75/461/95 108/414/364 106/415/362 74/460/93
f 86/462/403 110/418/366 108/421/364 75/461/403
f 87/463/404 112/425/369 110/424/366 86/462/405
f 89/464/406 114/426/370 112/429/369 87/463/407
f 79/465/408 116/430/372 114/433/370 89/464/406
f 81/466/409 118/435/375 116/435/372 79/465/410
f 120/433/377 118/430/375 81/466/409 82/467/411
f 122/429/379 120/426/377 82/467/411 83/463/412
f 101/424/381 122/425/379 83/463/412 68/459/400
f 98/468/413 99/469/155 82/470/411 81/471/409
f 69/472/414 91/473/402 84/474/401
f 87/475/404 86/476/405 75/477/95
f 87/475/407 79/478/408 89/479/406
f 80/480/90 90/110/389 91/473/88
f 95/481/94 97/189/415 96/482/416
f 80/114/90 218/113/89 217/483/417
f 71/484/83 73/115/82 214/117/92
f 216/485/418 215/440/159 77/439/385 78/486/391
f 95/119/94 74/118/93 72/105/81 93/104/80
f 97/487/419 79/488/410 87/489/404 96/490/416
f 92/116/91 73/115/82 76/438/384 215/440/159
f 83/491/412 82/470/411 99/469/155
f 91/112/88 213/122/97 218/113/89
f 79/488/410 97/487/419 98/468/413
f 94/492/154 68/493/400 83/491/412 99/469/155
f 94/492/154 93/104/80 70/103/79 68/493/400
f 216/485/418 78/486/391 80/114/90 217/483/417
f 96/490/416 87/489/404 75/120/95 95/119/94
f 214/117/92 213/122/97 69/121/96 71/484/83
f 103/453/399 69/454/414 84/451/401 100/452/382
f 81/471/409 79/488/410 98/468/413
f 137/135/110 170/133/108 174/494/420 139/134/109
f 152/495/421 150/128/103 147/124/99 145/123/98
f 162/130/105 160/129/104 157/127/102 155/126/101
f 152/495/421 155/126/101 150/128/103
f 188/496/422 186/497/423 183/142/117 181/141/116
f 162/130/105 168/132/107 164/131/106
f 168/132/107 174/494/420 170/133/108
f 139/134/109 145/123/98 141/125/100
f 194/498/424 192/499/425 186/497/423 188/496/422
f 124/423/380 135/422/378 122/425/379 101/424/381
f 199/500/426 192/499/425 197/501/427 201/502/428
f 194/498/424 197/501/427 192/499/425
f 205/139/114 199/500/426 201/502/428 207/140/115
f 136/149/429 137/503/430 141/504/431 140/150/432
f 209/136/111 207/140/115 178/137/112
f 176/138/113 178/137/112 181/141/116
f 142/145/120 144/147/122 145/146/121 139/143/118
f 141/504/431 143/505/433 140/150/432
f 143/505/433 141/504/431 147/506/434 146/505/435
f 146/505/435 147/506/434 150/148/124 149/150/126
f 151/145/436 152/507/437 145/146/121 148/147/123
f 154/144/438 155/508/439 152/507/437 151/145/436
f 156/154/440 153/149/125 150/148/124 157/509/441
f 159/155/442 156/154/440 157/509/441 160/510/443
f 155/508/439 154/144/438 158/511/444
f 161/512/445 162/513/446 155/508/439 158/511/444
f 163/152/129 159/155/442 160/510/443 164/151/127
f 167/514/447 168/515/448 162/513/446 165/514/449
f 162/513/446 161/512/445 165/514/449
f 169/155/132 166/152/128 164/151/127 170/153/130
f 173/511/450 174/516/451 168/515/448 171/512/452
f 168/515/448 167/514/447 171/512/452
f 172/154/131 170/153/130 137/503/430 136/149/429
f 138/144/119 139/143/118 174/516/451 173/511/450
f 177/172/153 180/157/134 181/156/133 178/170/151
f 176/517/453 179/160/454 175/165/455
f 179/160/454 176/517/453 183/518/456 182/161/457
f 182/161/457 183/518/456 186/159/136 185/161/138
f 184/158/135 187/158/140 188/162/139 181/156/133
f 191/165/144 189/160/137 186/159/136 192/163/142
f 193/172/458 194/519/459 188/162/139 190/157/141
f 196/171/460 197/520/461 194/519/459 193/172/458
f 198/168/147 195/164/143 192/163/142 199/166/145
f 200/521/462 201/522/463 197/520/461 196/171/460
f 204/167/464 202/167/146 199/166/145 205/523/465
f 201/522/463 200/521/462 203/524/466
f 206/524/467 207/525/468 201/522/463 203/524/466
f 208/168/150 204/167/464 205/523/465 209/169/148
f 212/171/152 178/170/151 207/525/468 210/521/469
f 207/525/468 206/524/467 210/521/469
f 175/165/455 211/164/149 209/169/148 176/517/453
f 226/526/470 223/527/167 224/201/166 227/200/470
f 95/528/94 98/529/157 97/530/415
f 219/198/163 223/197/471 222/531/472
f 221/194/164 219/198/163 222/531/472
f 223/527/471 226/526/473 225/532/474
f 225/532/474 227/200/168 221/199/164 222/533/472
f 253/534/194 229/535/193 230/535/198 254/534/197
f 222/533/472 223/527/471 225/532/474
f 236/536/475 258/537/476 239/538/477
f 260/236/478 259/236/191 237/237/190 238/237/479
f 264/224/480 267/212/176 247/211/177 244/211/481
f 271/204/482 251/205/483 248/205/484 268/204/170
f 265/217/174 245/213/182 246/213/485 266/223/175
f 269/203/173 249/202/486 250/202/487 270/203/172
f 249/539/488 248/540/489 273/541/490 274/542/491
f 231/543/196 228/544/492 252/545/493
f 237/546/494 273/547/490 272/547/495 238/546/496
f 232/548/497 275/549/498 274/550/491 233/551/499
f 245/552/500 276/553/501 277/553/502 246/552/503
f 243/548/504 278/554/505 277/555/502 240/556/506
f 239/557/477 277/558/502 276/558/501 236/557/475
f 244/559/507 275/560/498 276/561/501 245/552/500
f 231/562/508 230/563/509 274/564/491 275/565/498
f 248/540/489 251/540/510 272/566/495 273/566/490
f 264/567/480 265/568/174 267/569/176
f 268/243/170 270/242/172 271/243/482
f 242/551/511 279/550/512 278/549/505 243/548/504
f 247/559/513 246/552/503 277/561/502 278/560/505
f 247/559/513 278/570/505 275/570/498 244/559/507
f 231/562/508 275/571/498 278/571/505 228/562/514
f 234/572/515 273/573/490 276/574/501 235/556/516
f 236/557/475 276/575/501 273/576/490 237/546/494
f 240/556/506 277/574/502 272/573/495 241/572/517
f 257/254/518 232/255/519 255/577/520 256/578/185
f 250/202/487 251/205/171 270/203/172
f 248/205/484 249/202/169 268/204/170
f 243/221/187 240/248/521 261/222/188
f 235/248/522 232/579/519 257/327/518
f 254/580/197 231/581/196 252/581/493 253/580/194
f 260/582/478 239/583/523 258/583/524 259/582/191
f 262/584/180 242/585/179 263/586/525 261/587/188
f 228/562/514 278/565/505 279/564/512 229/563/526
f 241/572/517 272/588/495 279/589/512 242/551/511
f 233/551/499 274/589/491 273/588/490 234/572/515
f 230/563/509 229/563/526 279/590/512 274/590/491
f 235/556/516 276/555/501 275/554/498 232/548/497
f 250/539/527 249/539/488 274/591/491 279/591/512
f 238/546/496 272/576/495 277/575/502 239/557/477
f 256/592/185 234/593/184 235/267/522 257/266/518
f 232/594/519 233/260/528 255/262/520
f 243/595/504 263/596/529 242/597/511
f 238/226/479 239/598/523 260/227/478
f 262/592/180 261/266/188 240/267/521 241/593/181
f 250/539/527 279/542/512 272/541/495 251/540/510
f 305/534/227 304/534/223 281/535/222 282/535/228
f 311/224/208 299/211/207 296/211/218 310/224/217
f 300/540/530 315/541/531 316/542/532 301/539/533
f 300/205/530 312/599/204 303/600/534
f 301/601/202 302/202/535 313/602/203
f 289/546/536 315/547/531 314/547/537 290/546/199
f 284/548/213 317/549/538 316/550/532 285/551/220
f 298/552/209 297/552/216 318/553/539 319/553/540
f 295/548/225 320/554/541 319/555/540 292/556/542
f 288/557/221 291/557/205 319/558/540 318/558/539
f 297/552/216 296/559/543 317/560/538 318/561/539
f 282/563/544 316/564/532 317/565/538 283/562/226
f 311/210/208 310/210/217 297/209/216 298/209/209
f 303/540/534 314/566/537 315/566/531 300/540/530
f 294/551/210 321/550/545 320/549/541 295/548/225
f 299/559/546 298/552/209 319/561/540 320/560/541
f 296/559/543 299/559/546 320/570/541 317/570/538
f 283/562/226 317/571/538 320/571/541 280/562/224
f 286/572/547 315/573/531 318/574/539 287/556/548
f 288/557/221 318/575/539 315/576/531 289/546/536
f 292/556/542 319/574/540 314/573/537 293/572/549
f 305/580/227 283/581/226 280/581/224 304/580/223
f 302/202/535 303/600/206 313/602/203
f 300/205/530 301/601/202 312/599/204
f 295/603/225 292/248/229 308/327/219
f 285/584/220 286/252/547 306/604/214
f 280/562/224 320/565/541 321/564/545 281/563/550
f 288/583/221 307/582/200 291/605/205
f 295/586/225 308/587/219 309/585/211
f 293/572/549 314/588/537 321/589/545 294/551/210
f 285/551/220 316/589/532 315/588/531 286/572/547
f 281/563/550 321/590/545 316/590/532 282/563/544
f 287/556/548 318/555/539 317/554/538 284/548/213
f 301/539/533 316/591/532 321/591/545 302/539/551
f 290/546/199 314/576/537 319/575/540 291/557/205
f 302/539/551 321/542/545 314/541/537 303/540/534
f 286/606/547 287/267/215 306/266/214
f 328/607/552 329/608/231 327/608/238 326/609/553
f 337/610/554 323/611/235 322/612/555
f 336/613/233 329/614/231 328/615/552
f 324/616/556 322/617/555 323/618/235 325/618/557
f 328/619/552 326/619/553 333/620/558 330/620/558
f 331/621/559 332/622/560 330/623/561
f 334/622/237 335/621/562 333/623/563
f 330/624/558 333/624/558 322/625/555 324/625/556
f 331/626/559 330/627/561 324/628/556 325/629/557
f 336/630/233 328/631/552 330/632/564 332/633/560
f 348/634/565 338/635/230 340/636/232 336/637/233
f 345/638/566 349/639/567 332/640/560 331/641/559
f 342/642/236 337/643/554 352/644/568 354/645/234
f 339/646/569 350/647/570 343/648/571
f 350/649/570 339/270/569 327/650/238
f 345/651/572 351/651/573 353/652/574 349/652/575
f 351/638/576 335/641/562 334/640/237 353/639/574
f 344/653/577 325/654/578 341/655/579
f 345/656/566 331/657/559 344/308/577 346/658/580
f 347/659/581 341/274/579 325/660/557
f 351/656/573 345/656/572 346/658/582 352/658/583
f 337/271/554 342/271/236 323/271/235
f 325/306/557 344/308/584 331/657/559
f 348/661/585 349/662/575 353/662/574 343/277/586
f 341/663/579 347/664/581 346/644/580 344/643/577
f 350/635/570 338/665/230 348/666/585 343/666/586
f 343/667/571 327/668/587 339/669/569
f 327/670/238 329/670/231 338/671/230 350/672/570
f 325/670/557 323/670/235 354/673/234 347/674/581
f 337/629/554 322/628/555 333/627/588 335/626/562
f 333/632/563 326/631/553 327/630/238 334/633/237
f 348/661/565 336/675/233 332/676/560 349/662/567
f 335/677/562 351/656/576 352/658/568 337/678/554
f 352/679/583 346/679/582 347/645/581 354/680/234
f 355/681/589 365/682/590 368/683/245 356/684/251
f 353/662/574 334/275/237 343/277/586
f 361/685/591 366/686/592 364/687/243 362/688/241
f 359/689/593 361/690/591 362/691/241 360/691/594
f 369/683/595 366/682/592 357/681/596 358/684/253
f 357/692/597 355/692/589 356/693/251 363/693/254
f 366/694/592 361/695/591 359/696/593 365/694/590
f 357/697/596 366/698/592 365/698/590 355/699/589
f 367/687/598 365/686/590 359/685/593 360/688/594
f 375/700/599 374/701/599 368/702/245 367/703/600
f 366/704/592 369/705/601 364/706/243
f 380/707/240 371/708/242 373/709/247 379/710/602
f 375/709/603 370/711/249 381/712/248 383/710/604
f 374/713/246 382/714/605 384/715/250 372/716/244
f 369/702/601 376/701/606 373/700/606 364/703/243
f 358/717/253 376/285/607 369/284/595
f 383/718/604 382/719/605 374/701/246 375/700/603
f 368/720/245 372/281/244 356/281/251
f 377/719/608 379/718/602 373/700/247 376/701/607
f 376/713/607 358/721/253 378/722/252 377/714/608
f 365/704/590 367/706/600 368/705/245
f 367/287/598 360/723/594 370/724/249 375/288/603
f 381/707/248 380/725/240 379/726/609 383/726/610
f 370/727/249 360/728/594 362/728/241 380/729/240
f 378/730/611 363/728/254 356/728/251 384/731/250
f 379/718/609 377/719/612 382/719/613 383/718/610
f 363/732/254 358/732/253 357/692/597
f 384/733/250 382/734/613 377/734/612 378/715/611
f 391/735/614 392/736/256 390/736/615 389/737/616
f 388/738/617 387/739/618 385/739/619 386/738/260
f 387/740/618 388/741/617 400/742/620
f 391/619/614 389/619/616 396/620/621 393/620/621
f 394/743/622 395/744/623 393/745/624
f 397/744/625 398/743/626 396/745/627
f 393/624/621 396/624/621 385/625/619 387/625/618
f 389/746/616 390/747/615 399/748/628
f 400/629/620 394/626/622 393/627/624 387/628/618
f 392/630/256 391/631/614 393/632/629 395/633/630
f 410/749/631 411/750/255 403/751/257 405/752/261
f 407/753/632 412/754/633 395/755/623 394/756/622
f 417/749/634 399/752/628 402/757/635 414/758/636
f 401/759/259 406/760/258 416/761/637 413/762/638
f 414/763/636 402/299/635 390/764/615
f 407/765/639 415/765/640 418/766/641 412/766/642
f 398/756/626 397/755/625 418/754/643 415/753/644
f 394/767/622 400/768/620 408/658/645 407/656/632
f 409/769/646 404/770/647 388/771/617
f 407/656/639 408/658/648 416/658/649 415/656/640
f 390/772/615 402/772/635 399/772/628
f 388/772/617 404/772/647 400/772/620
f 395/773/630 405/774/650 392/276/256
f 410/661/651 412/662/642 418/662/641 417/661/652
f 404/775/647 409/776/646 408/761/645 400/760/620
f 414/750/636 411/777/255 410/778/651 417/778/652
f 414/779/636 390/780/615 392/780/256 411/781/255
f 388/780/617 386/780/260 401/782/259 409/783/646
f 398/626/263 386/629/260 385/628/619 396/627/653
f 397/633/625 396/632/627 389/631/616 399/630/628
f 405/774/261 395/773/623 412/662/633 410/661/631
f 415/656/644 416/658/637 406/308/258 398/307/626
f 416/784/649 408/784/648 409/762/646 413/785/638
f 417/661/634 418/662/643 397/786/625 399/787/628
f 425/788/654 426/789/266 424/789/275 423/788/655
f 401/782/259 413/790/638 409/783/646
f 433/791/268 426/792/266 425/793/654
f 422/794/656 421/795/657 419/796/658 420/794/273
f 425/797/654 423/797/655 430/798/659 427/798/659
f 428/799/660 429/800/661 427/801/662
f 431/800/274 432/799/663 430/801/664
f 427/802/659 430/802/659 419/803/658 421/803/657
f 428/804/660 427/805/662 421/806/657 422/807/656
f 429/808/661 433/809/268 425/810/654 427/811/665
f 445/812/666 434/813/265 436/814/267 433/815/268
f 446/816/667 429/817/661 428/818/660 442/819/668
f 450/812/669 440/815/670 435/820/671 447/821/672
f 438/822/270 439/823/269 449/824/673 452/825/272
f 447/826/672 435/311/671 424/827/275
f 446/828/674 442/829/675 448/829/676 451/828/677
f 432/818/663 431/817/274 451/816/678 448/819/679
f 441/314/680 422/316/681 437/830/682
f 442/831/668 428/832/660 441/833/680 443/834/683
f 444/835/684 437/319/682 422/836/656
f 448/831/676 442/831/675 443/834/685 449/834/686
f 422/837/656 441/833/687 428/832/660
f 450/838/688 445/838/689 446/839/674 451/839/677
f 439/833/269 420/837/273 432/840/663
f 437/841/682 444/842/684 443/824/683 441/823/680
f 450/843/688 447/813/672 434/844/265 445/843/689
f 440/845/670 424/846/690 435/847/671
f 424/848/275 426/848/266 434/849/265 447/850/672
f 422/848/656 420/848/273 452/851/272 444/852/684
f 420/807/273 419/806/658 430/805/691 432/804/663
f 430/811/664 423/810/655 424/809/275 431/808/274
f 445/838/666 433/853/268 429/854/661 446/839/667
f 448/831/679 449/834/673 439/833/269 432/840/663
f 449/855/686 443/855/685 444/825/684 452/856/272
f 440/322/670 450/838/669 451/839/678 431/320/274
f 486/537/305 464/536/304 461/536/300 484/537/299
f 496/325/283 476/205/282 473/205/692 494/323/278
f 454/857/301 455/535/693 478/534/694
f 462/858/298 463/237/695 485/236/696
f 472/859/697 469/211/698 491/224/699
f 493/223/700 492/223/288 470/213/287 471/213/701
f 479/545/308 456/544/307 453/544/303 477/545/302
f 473/540/702 498/541/703 499/542/704 474/539/705
f 462/546/706 498/547/703 497/547/707 463/546/708
f 457/548/709 500/549/710 499/550/704 458/551/711
f 470/552/712 501/553/713 502/553/714 471/552/715
f 468/548/716 503/554/717 502/555/714 465/556/718
f 461/557/719 464/557/720 502/558/714 501/558/713
f 470/552/712 469/559/721 500/560/710 501/561/713
f 455/563/722 499/564/704 500/565/710 456/562/723
f 496/207/283 494/207/278 495/206/280 475/206/279
f 485/239/696 486/240/305 484/240/299 462/239/298
f 478/860/694 479/861/308 477/861/302 454/860/301
f 493/568/700 472/567/697 491/567/699 492/568/288
f 476/540/724 497/566/707 498/566/703 473/540/702
f 467/551/725 504/550/726 503/549/717 468/548/716
f 471/552/715 502/561/714 503/560/717 472/559/727
f 472/559/727 503/570/717 500/570/710 469/559/721
f 453/562/728 456/562/723 500/571/710 503/571/717
f 459/572/729 498/573/703 501/574/713 460/556/730
f 461/557/719 501/575/713 498/576/703 462/546/706
f 465/556/718 502/574/714 497/573/707 466/572/731
f 487/327/295 490/220/732 468/221/733 465/248/734
f 471/213/701 472/859/697 493/223/700
f 473/205/692 474/202/277 494/323/278
f 453/562/728 503/565/717 504/564/726 454/563/735
f 460/248/293 457/221/736 480/328/294
f 490/254/732 487/332/295 489/862/285
f 481/577/737 482/578/291 480/255/294
f 467/551/725 466/572/731 497/588/707 504/589/726
f 458/551/711 499/589/704 498/588/703 459/572/729
f 454/563/735 504/590/726 499/590/704 455/563/722
f 457/548/709 460/556/730 501/555/713 500/554/710
f 474/539/705 499/591/704 504/591/726 475/539/738
f 464/557/720 463/546/708 497/576/707 502/575/714
f 480/596/294 457/595/736 458/260/739 481/262/737
f 489/262/285 467/260/284 468/595/733 490/596/732
f 483/266/297 482/592/291 459/593/290 460/267/740
f 487/266/295 465/267/734 466/593/741 488/592/296
f 475/539/738 504/542/726 497/541/707 476/540/724
f 512/341/316 528/335/310 510/337/312 506/342/317
f 508/340/315 505/382/322 527/381/337 526/338/313
f 509/383/321 507/336/311 528/335/310 527/381/337
f 526/338/313 512/341/316 511/343/318 529/339/314
f 522/863/334 518/863/329 519/864/333 523/367/332
f 514/357/327 520/380/335 524/355/325 515/361/324
f 521/865/331 520/866/335 517/867/328 516/365/330
f 513/362/320 515/353/324 525/356/326
f 518/868/329 525/869/326 519/870/333
f 525/377/326 518/871/329 517/376/328 513/375/320
f 520/872/335 521/865/331 519/368/336
f 516/873/330 518/863/329 522/863/334
f 520/374/335 519/874/336 524/378/325
f 543/875/354 536/866/349 539/867/357 542/876/356
f 545/863/353 541/877/352 544/401/355
f 537/392/346 540/356/348 535/397/342
f 542/876/356 539/363/357 540/878/351 545/398/353
f 541/399/352 536/872/349 543/875/354
f 531/879/344 546/880/341 534/881/339 530/882/345
f 536/883/349 541/874/352 538/411/347
f 539/409/357 535/408/342 540/410/351
f 533/884/343 548/885/340 546/880/341 531/879/344
f 532/886/350 547/887/338 548/885/340 533/884/343
f 530/882/345 534/881/339 547/887/338 532/888/350
