# Blender 4.5.3 LTS
# www.blender.org
mtllib mesa.mtl
o candle_triple
v -2.013714 1.018875 1.435869
v -2.109918 1.577209 1.467889
v -2.250537 1.571873 1.369266
v -2.265578 1.553036 1.198901
v -2.051444 1.652894 1.130865
v -1.978161 1.703112 1.284479
v -1.970227 1.643323 1.377576
v -2.117248 1.623749 1.292694
v -2.104104 1.639134 1.419605
v -2.221498 1.620403 1.218899
v -2.060536 1.694807 1.179588
v -2.175311 1.018875 1.452220
v -2.287843 1.018875 1.322775
v -2.189474 1.018875 1.131443
v -1.960572 1.018875 1.202237
v -2.112926 1.553991 1.291121
v -2.113670 1.717089 1.324505
v -2.135424 1.713795 1.264020
v -1.822337 1.018875 1.103413
v -1.886793 1.815017 1.087316
v -1.823172 1.815360 1.165625
v -1.973511 1.788207 1.087326
v -1.910604 1.790455 1.166608
v -1.896985 1.812783 1.254135
v -1.996631 1.815372 1.188676
v -1.869398 1.018875 1.260006
v -1.995428 1.018875 1.223407
v -1.981270 1.018875 1.092937
v -1.910604 1.724975 1.166608
v -1.886014 1.889023 1.146207
v -1.929524 1.885862 1.182304
v -1.780852 1.018875 1.363325
v -1.833130 1.575357 1.420917
v -1.945213 1.575357 1.408490
v -1.962435 1.574469 1.324085
v -1.902503 1.575357 1.262683
v -1.881766 1.552438 1.347916
v -1.801430 1.575357 1.312694
v -1.849068 1.018875 1.251210
v -1.879418 1.018875 1.449973
v -1.989541 1.018875 1.334898
v -1.881766 1.486957 1.347916
v -1.851242 1.651006 1.338473
v -1.905252 1.647845 1.355181
v -2.560146 0.047783 2.909825
v -2.461605 0.847783 2.808386
v -2.555798 0.047783 3.209793
v -2.457258 0.847783 3.108355
v -2.860114 0.047783 2.914172
v -2.761574 0.847783 2.812733
v -1.060303 0.047783 2.888087
v -1.161741 0.847783 2.789547
v -1.360271 0.047783 2.892435
v -1.461710 0.847783 2.793894
v -1.355924 0.047783 3.192403
v -1.457363 0.847783 3.093863
v -2.846564 0.047783 3.204667
v -2.747616 0.847517 3.102809
v -1.065429 0.047783 3.178853
v -1.167287 0.847517 3.079905
v -2.610866 0.047783 -0.589808
v -2.509428 0.847783 -0.491267
v -2.606519 0.047783 -0.289839
v -2.505080 0.847783 -0.191299
v -2.906487 0.047783 -0.285492
v -2.805048 0.847783 -0.186952
v -1.106676 0.047783 -0.311577
v -1.205216 0.847783 -0.210138
v -1.410992 0.047783 -0.607198
v -1.509533 0.847783 -0.505759
v -1.406645 0.047783 -0.307229
v -1.505185 0.847783 -0.205791
v -2.901361 0.047783 -0.576258
v -2.799503 0.847517 -0.477310
v -1.120226 0.047783 -0.602072
v -1.219174 0.847517 -0.500214
v -1.309554 0.247783 -0.508657
v -1.306655 0.247783 -0.308679
v -1.306655 0.447783 -0.308679
v -2.709407 0.247783 -0.488369
v -2.706508 0.247783 -0.288390
v -2.706508 0.447783 -0.288390
v -1.260282 0.247783 2.890985
v -1.260282 0.447783 2.890985
v -1.257384 0.247783 3.090964
v -2.660135 0.247783 2.911274
v -2.660135 0.447783 2.911274
v -2.657237 0.247783 3.111253
v -1.309418 0.438408 -0.499284
v -2.709298 0.440283 -0.480870
v -1.257492 0.440283 3.083465
v -2.657372 0.438408 3.101879
v -2.443054 1.025496 3.297971
v -2.461538 0.847783 3.283435
v -2.929672 0.847783 3.290220
v -2.942860 1.033558 3.304314
v -2.461538 0.847783 3.283435
v -2.465098 1.029001 3.296573
v -1.454819 0.847783 3.268844
v -1.463954 1.023281 3.281455
v -2.896883 0.847876 2.641132
v -2.960903 1.036353 2.523703
v -2.956818 1.039022 2.737624
v -2.898551 1.036152 2.639851
v -2.498932 1.023183 -0.682860
v -2.518780 0.847783 -0.666150
v -1.525877 1.027621 -0.692672
v -1.512061 0.847783 -0.680741
v -2.519571 1.037783 0.533986
v -2.501390 0.847783 0.533723
v -2.936735 0.847861 0.571612
v -2.983775 1.039917 0.653778
v -2.929434 1.033339 0.540439
v -0.979877 0.847783 3.261961
v -0.963166 1.032369 3.274717
v -1.440336 1.026162 3.284172
v -1.454819 0.847783 3.268844
v -1.037118 0.847783 -0.687624
v -1.020821 1.032277 -0.701042
v -1.505680 1.022847 -0.694864
v -1.512061 0.847783 -0.680741
v -1.468232 1.037783 0.618760
v -1.045040 0.847727 0.612627
v -1.002452 1.040975 0.675521
v -1.004293 1.040975 0.548525
v -1.062971 1.038450 0.612887
v -2.986914 0.847783 -0.659366
v -3.003625 1.032369 -0.672122
v -2.518780 0.847783 -0.666150
v -2.518630 1.022129 -0.680497
v -2.971577 0.847783 0.398869
v -2.987242 1.039850 0.398523
v -1.512431 0.547783 -0.705738
v -2.512326 0.547783 -0.691247
v -1.510689 1.039480 -0.697609
v -2.419193 0.514103 -0.692596
v -2.310592 0.547783 -0.694170
v -1.714165 0.504124 -0.702814
v -1.605564 0.504124 -0.704388
v -2.510612 1.038740 -0.683440
v -1.863271 0.547783 -0.700653
v -2.012378 0.479176 -0.698492
v -2.161486 0.479176 -0.696331
v -2.454359 0.547783 3.308334
v -1.454464 0.547783 3.293842
v -2.456101 1.039480 3.300203
v -1.547597 0.514103 3.295192
v -1.656197 0.547783 3.296766
v -2.252625 0.504124 3.305410
v -2.361226 0.504124 3.306984
v -1.456178 1.038740 3.286035
v -2.103518 0.547783 3.303249
v -1.954412 0.479176 3.301088
v -1.805304 0.479176 3.298927
v -2.442406 1.047783 -0.179706
v -1.442511 1.047783 -0.194197
v -2.397845 1.047783 0.307199
v -1.397950 1.047783 0.292708
v -1.429987 1.047783 0.793223
v -2.429882 1.047783 0.807716
v -1.536908 1.047783 1.794878
v -2.536803 1.047783 1.809372
v -1.568945 1.047783 2.295396
v -2.568841 1.047783 2.309887
v -1.524384 1.047783 2.782301
v -2.524279 1.047783 2.796793
vn 0.5442 -0.6161 0.5695
vn -0.1043 0.3231 0.9406
vn -0.2686 -0.6117 0.7441
vn -0.8217 0.2788 -0.4971
vn -0.3855 -0.0634 -0.9205
vn -0.9805 -0.0174 0.1957
vn 0.2588 0.3944 -0.8818
vn 0.6939 -0.5843 -0.4208
vn -0.8665 0.1794 0.4658
vn -0.6517 0.6088 -0.4524
vn -0.3845 0.9090 0.1611
vn -0.3107 0.9453 0.0996
vn -0.4434 0.8941 -0.0625
vn -0.2559 0.9122 0.3201
vn -0.0823 0.9386 -0.3352
vn -0.3607 0.9307 0.0614
vn -0.0000 -1.0000 -0.0000
vn -0.9371 -0.0741 0.3411
vn -0.0000 -0.0000 -0.0000
vn 0.9371 0.0741 -0.3411
vn -0.5779 0.4022 -0.7101
vn -0.6430 0.6853 0.3419
vn 0.2938 0.6962 -0.6550
vn 0.0508 0.9968 0.0612
vn 0.7629 0.6417 -0.0782
vn 0.2696 0.6627 0.6986
vn 0.6782 -0.6112 -0.4080
vn 0.2861 -0.5712 0.7694
vn -0.5217 -0.5713 -0.6336
vn 0.6385 -0.0000 0.7696
vn -0.6385 -0.0000 -0.7696
vn 0.6730 0.6782 -0.2952
vn 0.7972 -0.5913 0.1218
vn 0.1994 -0.5859 -0.7855
vn 0.4076 0.6782 0.6115
vn -0.0302 -0.5880 0.8083
vn -0.4929 0.6851 0.5363
vn -0.9900 -0.0399 -0.1353
vn -0.1344 0.6805 -0.7203
vn -0.0129 0.9999 -0.0038
vn -0.6825 0.7001 -0.2098
vn 0.2955 -0.0000 0.9553
vn -0.2955 -0.0000 -0.9553
vn -0.5972 -0.5152 0.6148
vn -0.7843 -0.6193 0.0372
vn 0.7850 -0.6193 0.0145
vn 0.7843 -0.6193 -0.0372
vn -0.6148 -0.5152 -0.5972
vn -0.0372 -0.6193 -0.7843
vn -0.0001 -1.0000 0.0001
vn -0.0002 -1.0000 0.0002
vn -0.0001 -1.0000 0.0002
vn -0.9869 -0.1612 0.0032
vn -0.5173 0.8549 -0.0403
vn -0.8005 0.5835 0.1370
vn -0.7739 0.6135 -0.1570
vn -0.7432 0.6586 0.1179
vn -0.6125 0.7898 -0.0331
vn 0.3275 0.9448 -0.0068
vn 0.5810 0.5544 0.5958
vn 0.5675 0.5476 -0.6149
vn -0.7969 0.5890 -0.1344
vn 0.7514 0.6129 -0.2446
vn 0.4162 0.9093 -0.0060
vn -0.3538 0.9353 0.0042
vn 0.7565 0.6146 0.2236
vn 0.9955 0.0936 -0.0144
vn -0.0001 -1.0000 -0.0000
vn 0.9998 0.0109 -0.0139
vn 0.9999 -0.0021 -0.0145
vn -0.9924 -0.1134 0.0485
vn -0.0107 0.7321 -0.6811
vn -0.0122 0.0143 -0.9998
vn -0.0209 0.0212 -0.9996
vn -0.0223 0.0166 -0.9996
vn -0.0172 0.0157 -0.9997
vn -0.0160 0.0158 -0.9997
vn -0.0106 0.0175 -0.9998
vn -0.0100 0.6777 -0.7353
vn -0.0126 0.0152 -0.9998
vn 0.0107 0.7321 0.6811
vn 0.0122 0.0144 0.9998
vn 0.0209 0.0212 0.9996
vn 0.0223 0.0166 0.9996
vn 0.0172 0.0157 0.9997
vn 0.0160 0.0158 0.9997
vn 0.0106 0.0175 0.9998
vn 0.0100 0.6777 0.7353
vn 0.0126 0.0152 0.9998
vn -0.0000 1.0000 -0.0000
vn 0.7176 0.3676 0.5915
vn 0.9613 0.2712 0.0479
vn -0.0696 0.7215 0.6889
vn -0.8740 0.0102 0.4858
vn 0.9922 -0.1240 -0.0144
vn -0.6861 0.1745 0.7063
vn -0.9906 0.1283 0.0470
vn -0.0144 -0.1240 -0.9922
vn -0.0183 0.1283 0.9916
vn 0.0470 0.1283 0.9906
vn 0.6148 -0.5152 0.5972
vn 0.7063 0.1745 0.6861
vn -0.9922 -0.1240 0.0144
vn 0.9916 0.1283 0.0183
vn 0.0144 -0.1240 0.9922
vn -0.7063 0.1745 -0.6861
vn -0.0470 0.1283 -0.9906
vn -0.9916 0.1283 -0.0183
vn 0.6861 0.1745 -0.7063
vn 0.5972 -0.5152 -0.6148
vn 0.0183 0.1283 -0.9916
vn 0.9906 0.1283 -0.0470
vn 0.0145 -0.0000 0.9999
vn -0.0093 0.7071 -0.7070
vn 0.0001 0.9990 -0.0440
vn -0.0001 0.9990 0.0440
vn 0.0093 0.7071 0.7070
vn -0.0145 -0.0000 -0.9999
vn 0.0138 0.0440 0.9989
vn -0.0138 0.0440 -0.9989
vn -0.6056 0.4995 0.6195
vn 0.0150 -0.0733 0.9972
vn 0.7374 -0.0419 0.6742
vn -0.5304 0.5834 0.6150
vn -0.5441 0.5803 -0.6059
vn -0.9941 0.1080 0.0141
vn 0.0155 -0.0770 0.9969
vn 0.5648 0.5731 0.5937
vn 0.5465 0.5701 -0.6135
vn -0.0121 -0.0802 -0.9967
vn 0.9978 0.0645 -0.0150
vn 0.0037 0.6536 0.7569
vn 0.6195 0.5103 0.5965
vn 0.0176 -0.0786 0.9967
vn 0.9883 -0.1511 -0.0199
vn -0.5698 0.5658 -0.5960
vn 0.6014 0.5126 -0.6129
vn -0.0128 -0.0756 -0.9971
vn -0.7426 -0.0083 -0.6696
vn 0.9887 -0.1499 -0.0028
vn -0.9981 0.0589 0.0154
vn -0.0001 -1.0000 -0.0001
vn -0.0002 -1.0000 -0.0000
vn -0.0167 -0.0761 -0.9970
vn -0.6069 0.5380 -0.5850
vn -0.9824 -0.1859 -0.0161
vn -0.9876 -0.0415 0.1512
vn -0.9963 -0.0851 0.0151
vn -0.0000 -1.0000 -0.0001
vn 0.0003 1.0000 0.0080
vn 0.0003 1.0000 0.0091
vn -0.0146 0.0149 -0.9998
vn -0.0087 0.0159 -0.9998
vn 0.0146 0.0149 0.9998
vn 0.0087 0.0159 0.9998
vn -0.0003 1.0000 -0.0080
vn -0.0003 1.0000 -0.0091
vt 0.057381 0.053797
vt 0.072220 0.187171
vt 0.082731 0.053797
vt 0.080634 0.187171
vt 0.066625 0.053797
vt 0.090751 0.053797
vt 0.046131 0.187171
vt 0.038249 0.053797
vt 0.080634 0.211573
vt 0.087929 0.217228
vt 0.075474 0.221350
vt 0.064500 0.101863
vt 0.084644 0.173823
vt 0.069097 0.173823
vt 0.075474 0.173823
vt 0.050129 0.173823
vt 0.047361 0.173823
vt 0.079818 0.007547
vt 0.082731 0.007547
vt 0.090751 0.007547
vt 0.085140 0.007547
vt 0.066625 0.007547
vt 0.056349 0.007547
vt 0.038249 0.007547
vt 0.921876 0.767472
vt 0.940552 0.831170
vt 0.921615 0.831170
vt 0.922417 0.831170
vt 0.041736 0.211573
vt 0.045877 0.216531
vt 0.060472 0.217563
vt 0.081080 0.173823
vt 0.057925 0.173823
vt 0.065794 0.173823
vt 0.045571 0.173823
vt 0.072650 0.007547
vt 0.083261 0.007547
vt 0.048995 0.007547
vt 0.043859 0.007547
vt 0.040354 0.007547
vt 0.937115 0.831170
vt 0.914981 0.831170
vt 0.075592 0.187171
vt 0.086521 0.053797
vt 0.053387 0.053797
vt 0.090484 0.187171
vt 0.083261 0.053797
vt 0.063861 0.187171
vt 0.044743 0.053797
vt 0.042013 0.187171
vt 0.083429 0.173823
vt 0.069857 0.173823
vt 0.063205 0.173823
vt 0.046787 0.173823
vt 0.047853 0.173823
vt 0.083261 0.007547
vt 0.044743 0.007547
vt 0.041029 0.007547
vt 0.053387 0.007547
vt 0.937115 0.831170
vt 0.914980 0.831170
vt 0.592299 0.786290
vt 0.592855 0.786290
vt 0.579507 0.786290
vt 0.512768 0.786290
vt 0.526116 0.786290
vt 0.576170 0.847540
vt 0.594323 0.847540
vt 0.596192 0.847540
vt 0.593738 0.889090
vt 0.594635 0.905906
vt 0.597304 0.905906
vt 0.594635 0.836655
vt 0.594073 0.819839
vt 0.597304 0.836655
vt 0.596192 0.922159
vt 0.592781 0.922159
vt 0.576170 0.922159
vt 0.593449 0.922159
vt 0.575801 0.938629
vt 0.575648 0.936336
vt 0.576170 0.936009
vt 0.509431 0.969034
vt 0.512191 0.969034
vt 0.529453 0.969034
vt 0.511119 0.883530
vt 0.511641 0.866714
vt 0.508319 0.883530
vt 0.511013 0.935965
vt 0.511119 0.952781
vt 0.508319 0.952781
vt 0.510697 0.894415
vt 0.529453 0.894415
vt 0.509431 0.894415
vt 0.575478 0.878206
vt 0.576170 0.861390
vt 0.594323 0.819839
vt 0.047303 0.114572
vt 0.047303 0.012335
vt 0.057196 0.020385
vt 0.033920 0.114572
vt 0.033920 0.020385
vt 0.040098 0.012335
vt 0.067088 0.007735
vt 0.086873 0.020385
vt 0.086873 0.114572
vt 0.076980 0.007735
vt 0.033920 0.114572
vt 0.076980 0.178856
vt 0.057196 0.178856
vt 0.046268 0.187171
vt 0.036565 0.187171
vt 0.092437 0.187171
vt 0.072220 0.211573
vt 0.069097 0.221350
vt 0.046268 0.211573
vt 0.043537 0.217887
vt 0.050129 0.221350
vt 0.046131 0.211573
vt 0.083261 0.053797
vt 0.077018 0.053797
vt 0.088277 0.187171
vt 0.080021 0.187171
vt 0.064500 0.187171
vt 0.048995 0.053797
vt 0.046191 0.187171
vt 0.040354 0.053797
vt 0.041736 0.187171
vt 0.575058 0.890865
vt 0.579507 0.813991
vt 0.039934 0.187171
vt 0.592855 0.813991
vt 0.588406 0.890865
vt 0.587294 0.890865
vt 0.591743 0.813991
vt 0.526116 0.813991
vt 0.513880 0.813991
vt 0.518329 0.890865
vt 0.530565 0.890865
vt 0.517217 0.890865
vt 0.512768 0.813991
vt 0.513324 0.786290
vt 0.583957 0.833209
vt 0.521666 0.833209
vt 0.521666 0.852428
vt 0.583957 0.852428
vt 0.513324 0.786290
vt 0.583957 0.880128
vt 0.521666 0.880128
vt 0.521666 0.805509
vt 0.583957 0.805509
vt 0.521666 0.850026
vt 0.583957 0.850026
vt 0.596192 0.861390
vt 0.597304 0.878206
vt 0.575497 0.878206
vt 0.596738 0.878206
vt 0.573945 0.878790
vt 0.531678 0.831915
vt 0.574530 0.909456
vt 0.574585 0.909456
vt 0.573945 0.892640
vt 0.596615 0.936111
vt 0.531678 0.845765
vt 0.531245 0.862581
vt 0.531123 0.862581
vt 0.531354 0.929095
vt 0.574252 0.958833
vt 0.574322 0.957687
vt 0.531245 0.925390
vt 0.529729 0.967326
vt 0.509017 0.969919
vt 0.530138 0.925081
vt 0.529453 0.908265
vt 0.509431 0.908265
vt 0.509017 0.925081
vt 0.508319 0.925081
vt 0.530142 0.925081
vt 0.508983 0.925081
vt 0.529955 0.970762
vt 0.508983 0.971224
vt 0.529453 0.982884
vt 0.594297 0.847540
vt 0.596640 0.878206
vt 0.596192 0.889090
vt 0.593449 0.889090
vt 0.596640 0.936531
vt 0.047303 0.159552
vt 0.086873 0.159552
vt 0.086145 0.177400
vt 0.048031 0.177400
vt 0.100256 0.114572
vt 0.094078 0.014175
vt 0.100256 0.020385
vt 0.086873 0.067260
vt 0.094078 0.061050
vt 0.094078 0.161447
vt 0.040098 0.059210
vt 0.047303 0.059210
vt 0.040098 0.161447
vt 0.040098 0.161447
vt 0.083672 0.178856
vt 0.047303 0.124623
vt 0.086873 0.124623
s 1
usemtl texture.145
f 1/1/1 2/2/2 12/3/3
f 4/4/4 14/5/5 13/6/6
f 5/7/7 15/8/8 14/5/5
f 4/9/4 3/10/9 10/11/10
f 8/12/11 3/13/12 9/14/13
f 8/12/11 10/15/14 3/13/12
f 8/12/11 11/16/15 10/15/14
f 8/12/11 6/17/16 11/16/15
f 8/12/11 9/14/13 6/17/16
f 1/18/1 12/19/3 13/20/17
f 1/21/1 13/20/17 14/22/17
f 1/23/1 14/22/17 15/24/8
f 16/25/18 17/26/19 18/27/19
f 16/25/20 18/27/19 17/28/19
f 22/29/21 25/30/22 20/31/23
f 23/12/24 21/32/25 20/33/23
f 23/12/24 24/34/26 21/32/25
f 23/12/24 25/35/22 24/34/26
f 23/12/24 20/33/23 25/35/22
f 19/36/27 26/37/28 27/38/17
f 19/39/27 27/38/17 28/40/29
f 29/25/30 30/41/19 31/42/19
f 29/25/31 31/42/19 30/41/19
f 38/43/32 32/44/33 39/45/34
f 33/46/35 40/47/36 32/44/33
f 34/48/37 41/49/38 40/47/36
f 36/50/39 39/45/34 41/49/38
f 37/12/40 33/51/35 38/52/32
f 37/12/40 34/53/37 33/51/35
f 37/12/40 35/54/41 34/53/37
f 37/12/40 36/55/39 35/54/41
f 37/12/40 38/52/32 36/55/39
f 32/36/33 40/56/36 41/57/17
f 32/58/33 41/57/17 39/59/34
f 42/25/42 43/60/19 44/61/19
f 42/25/43 44/61/19 43/60/19
f 7/111/91 1/1/1 15/8/8 6/112/92
f 3/113/9 4/4/4 13/6/6
f 4/4/4 5/7/7 14/5/5
f 2/114/2 9/115/93 3/10/9
f 5/7/7 6/112/92 15/8/8
f 9/115/93 2/114/2 7/116/91 6/117/92
f 10/11/10 11/118/15 5/119/7 4/9/4
f 6/117/16 5/119/7 11/118/15
f 26/120/28 19/121/27 21/122/25 24/123/26
f 1/1/1 7/111/91 2/2/2
f 20/124/23 21/122/25 19/121/27
f 27/125/94 26/120/28 24/123/26 25/126/22
f 28/127/29 27/125/94 25/126/22 22/128/21
f 19/121/27 28/127/29 22/128/21 20/124/23
f 38/43/32 33/46/35 32/44/33
f 33/46/35 34/48/37 40/47/36
f 34/48/37 35/131/41 41/49/38
f 35/131/41 36/50/39 41/49/38
f 36/50/39 38/43/32 39/45/34
f 3/113/9 13/6/6 12/3/3 2/2/2
usemtl texture.143
f 57/62/44 49/63/45 47/64/17
f 51/65/46 55/66/17 53/66/17
f 45/64/17 47/64/17 49/63/45
f 67/65/47 71/66/17 69/66/17
f 73/62/48 61/64/49 65/63/17
f 63/64/17 65/63/17 61/64/49
f 110/67/50 111/68/51 131/69/52
f 101/70/53 104/71/54 102/72/55
f 104/73/54 101/74/53 103/75/56
f 132/76/57 113/77/58 109/78/59
f 104/79/54 103/76/56 98/80/60
f 98/80/60 130/81/61 109/82/59
f 113/77/58 112/76/62 109/78/59
f 124/83/63 126/84/64 122/85/65
f 126/84/64 125/83/66 122/85/65
f 126/86/64 123/87/67 125/88/66
f 123/89/67 126/90/64 124/91/63
f 123/92/68 121/93/17 118/94/17
f 130/95/61 110/96/69 129/96/70
f 102/76/55 104/79/54 98/80/60
f 113/73/58 111/97/71 112/75/62
f 135/98/72 138/99/73 141/100/74
f 135/101/72 133/102/75 139/103/76
f 135/98/72 141/100/74 142/104/77
f 137/105/78 140/106/79 143/107/80
f 143/107/80 140/106/79 142/104/77
f 140/106/79 135/98/72 142/104/77
f 146/98/81 149/99/82 152/100/83
f 146/108/81 144/102/84 150/103/85
f 146/98/81 152/100/83 153/104/86
f 148/105/87 151/106/88 154/107/89
f 154/107/89 151/106/88 153/104/86
f 151/106/88 146/98/81 153/104/86
f 160/109/90 161/109/90 159/110/90
f 48/129/95 47/130/95 45/130/95 46/129/95
f 49/132/45 57/132/44 58/133/96 50/133/97
f 45/130/98 49/132/98 50/133/98 46/129/98
f 58/134/96 57/135/44 47/130/99 48/129/99
f 55/136/100 59/137/101 60/138/102 56/139/100
f 53/136/103 55/136/103 56/139/103 54/139/103
f 52/140/98 51/141/98 53/136/98 54/139/98
f 60/140/102 59/141/101 51/141/46 52/140/104
f 63/130/95 61/130/95 62/129/95 64/129/95
f 59/142/101 55/66/17 51/65/46
f 66/133/105 65/132/105 63/130/105 64/129/105
f 61/130/49 73/135/48 74/134/106 62/129/107
f 74/133/106 73/132/48 65/132/108 66/133/108
f 76/138/109 75/137/110 69/136/111 70/139/111
f 71/136/105 67/141/105 68/140/105 72/139/105
f 70/139/103 69/136/103 71/136/103 72/139/103
f 67/141/47 75/141/110 76/140/109 68/140/112
f 81/143/113 78/144/113 79/145/113 82/146/113
f 67/65/47 69/66/17 75/147/110
f 90/148/114 82/148/115 79/149/115 89/149/114
f 77/150/17 78/150/17 81/151/17 80/151/17
f 87/148/116 92/148/117 91/149/117 84/149/116
f 83/144/118 86/143/118 87/146/118 84/145/118
f 83/150/17 85/150/17 88/151/17 86/151/17
f 88/143/119 85/144/119 91/152/117 92/153/117
f 77/144/120 80/143/120 90/153/114 89/152/114
f 111/154/71 101/154/53 102/155/55 112/155/62
f 98/156/60 96/157/121 95/154/122 97/96/123
f 94/158/17 106/158/17 108/159/17 99/159/17
f 93/160/124 105/161/125 106/162/126 94/162/126
f 103/76/56 96/163/121 98/80/60
f 98/80/60 109/78/59 112/76/62 102/76/55
f 99/164/127 100/165/128 93/160/124 94/162/127
f 105/161/125 107/166/129 108/164/130 106/162/130
f 108/164/131 107/166/129 100/165/128 99/164/131
f 107/167/129 105/168/125 93/169/124 100/170/128
f 116/171/132 115/172/133 124/83/63 122/85/65
f 116/173/132 117/174/134 114/175/134 115/176/133
f 115/176/133 114/175/135 123/175/135 124/177/63
f 117/93/68 121/93/17 123/92/68 114/94/68
f 120/178/136 119/179/137 118/175/138 121/174/139
f 120/180/136 122/85/65 125/83/66 119/181/137
f 122/182/65 120/180/136 116/171/132
f 119/179/137 125/177/66 123/175/140 118/175/140
f 117/174/141 116/173/141 120/178/136 121/174/139
f 97/96/123 110/96/69 130/95/61 98/156/60
f 111/68/51 110/67/50 97/67/142 101/183/143
f 130/95/61 129/96/144 127/154/144 128/184/145
f 103/155/56 101/154/53 95/154/146 96/157/121
f 131/185/147 111/186/71 113/71/58 132/72/57
f 131/69/52 127/69/17 129/67/17 110/67/50
f 128/184/145 127/154/148 131/154/147 132/155/57
f 97/67/142 95/69/149 101/183/143
f 130/81/61 128/187/145 132/76/57 109/78/59
f 166/188/150 165/189/151 163/190/90 164/191/90
f 140/192/79 136/193/152 134/194/153
f 137/195/78 136/196/152 140/197/79
f 139/198/76 138/199/73 135/200/72
f 151/192/88 147/193/154 145/194/155
f 148/195/87 147/196/154 151/197/88
f 150/198/85 149/199/82 146/201/81
f 156/188/156 155/189/157 157/190/90 158/191/90
f 159/110/90 158/191/90 157/190/90 160/109/90
f 160/202/90 162/110/90 161/109/90
f 135/203/72 140/204/79 155/189/157 156/188/156
f 162/110/90 164/191/90 163/190/90 161/109/90
f 146/203/81 151/204/88 165/189/151 166/188/150
