# Blender 4.5.3 LTS
# www.blender.org
mtllib puerta.mtl
o wall_doorway_door
v -1.008766 0.000000 -6.433298
v 0.991234 0.000000 -6.433298
v -1.008766 0.000000 -6.233297
v 0.991234 0.000000 -6.233297
v -0.550091 2.716892 -6.433783
v -0.656859 2.676046 -6.435713
v -0.981365 2.296089 -6.433297
v 0.965648 2.282467 -6.433297
v 0.798032 2.556798 -6.433297
v 0.531570 2.723814 -6.434071
v 0.532559 2.716892 -6.232812
v 0.639328 2.676046 -6.230882
v 0.972393 2.278562 -6.233297
v -0.991599 2.261840 -6.233297
v -0.815564 2.556798 -6.233297
v -0.549058 2.723820 -6.232523
v 0.583269 2.700460 -6.383299
v -0.600602 -0.000000 -6.412223
v -0.008766 0.000000 -6.403297
v 0.582888 0.000000 -6.403654
v -0.600602 -0.000000 -6.254372
v -0.008766 0.000000 -6.263298
v 0.583070 -0.000000 -6.254372
v -0.008766 2.750000 -6.383297
v -0.008766 2.750000 -6.283298
v -0.889228 1.558499 -6.133297
v 0.871696 1.558499 -6.133297
v -0.889228 1.841501 -6.133297
v 0.871696 1.841501 -6.133297
v -0.889228 1.558499 -6.533298
v 0.871696 1.558499 -6.533298
v -0.889228 1.841501 -6.533298
v 0.871696 1.841501 -6.533298
v 0.969275 1.486051 -6.333297
v 0.969275 1.913949 -6.333297
v -0.986807 1.913949 -6.333297
v -0.986807 1.486051 -6.333297
v -0.889228 0.458499 -6.133297
v 0.871696 0.458499 -6.133297
v -0.889228 0.741501 -6.133297
v 0.871696 0.741501 -6.133297
v -0.889228 0.458499 -6.533298
v 0.871696 0.458499 -6.533298
v -0.889228 0.741501 -6.533298
v 0.871696 0.741501 -6.533298
v 0.969275 0.386051 -6.333298
v 0.969275 0.813949 -6.333298
v -0.986807 0.813949 -6.333298
v -0.986807 0.386051 -6.333298
v 0.631265 2.668230 -6.433297
v 0.041234 2.750000 -6.433297
v -0.058766 2.750000 -6.433297
v -0.600763 2.700479 -6.383307
v -0.648739 2.668269 -6.233297
v -0.600763 2.700472 -6.283287
v -0.058766 2.750000 -6.233297
v 0.041234 2.750000 -6.233297
v 0.583231 2.700479 -6.283287
v -0.576176 1.471231 -6.592706
v -0.670915 1.420448 -6.593305
v -0.531503 1.380253 -6.632333
v -0.573322 1.344882 -6.714858
v -0.671205 1.314185 -6.673066
v -0.573558 1.187264 -6.693376
v -0.671083 1.162665 -6.616339
v -0.534674 1.182280 -6.610655
v -0.570890 1.117829 -6.617356
v -0.862033 1.030215 -6.536736
v -0.732610 1.161585 -6.585090
v -0.722658 1.154914 -6.523853
v -0.840265 1.140044 -6.488032
v -0.844471 1.179369 -6.575875
v -0.721371 1.310506 -6.573945
v -0.674271 1.319583 -6.488032
v -0.594667 1.341120 -6.567337
v -0.570934 1.229833 -6.585322
v -0.562491 1.210682 -6.525136
v -0.483088 1.308677 -6.502840
v -0.400751 1.241221 -6.577428
v -0.457877 1.124622 -6.585267
v -0.467674 1.086060 -6.524658
v -0.362917 1.139195 -6.488575
v -0.341337 1.022057 -6.540704
v -0.366617 1.023044 -6.584723
v -0.503168 0.976965 -6.585369
v -0.430995 0.915269 -6.487553
v -0.473299 0.863676 -6.569399
v -0.561696 0.961870 -6.524566
v -0.601784 0.834617 -6.575927
v -0.688029 0.958791 -6.584821
v -0.601784 0.848266 -6.487604
v -0.751327 0.877500 -6.575664
v -0.689290 0.989248 -6.524566
v -0.774159 0.916282 -6.488546
v -0.602614 1.351145 -6.572616
v -0.600604 1.235894 -6.588569
v -0.629722 1.467961 -6.069798
v -0.671973 1.380795 -6.034441
v -0.532230 1.425626 -6.081687
v -0.627924 1.339837 -5.948174
v -0.532239 1.323496 -5.998635
v -0.635700 1.132899 -6.013881
v -0.668853 1.182026 -6.055918
v -0.531887 1.165943 -6.042737
v -0.855088 1.167821 -6.129858
v -0.842449 1.137696 -6.081822
v -0.732610 1.161585 -6.081505
v -0.722658 1.154914 -6.142742
v -0.840265 1.140043 -6.178563
v -0.727657 1.304218 -6.092826
v -0.720680 1.291994 -6.178991
v -0.601784 1.343206 -6.101591
v -0.570934 1.229833 -6.081273
v -0.502856 1.186903 -6.140387
v -0.539271 1.319361 -6.179043
v -0.420103 1.278873 -6.126027
v -0.419180 1.251111 -6.081822
v -0.457877 1.124622 -6.081328
v -0.362761 1.150104 -6.179046
v -0.341337 1.022057 -6.125891
v -0.366617 1.023045 -6.081872
v -0.526247 0.955238 -6.081505
v -0.505444 0.997778 -6.141459
v -0.430995 0.915270 -6.179043
v -0.473299 0.863676 -6.097196
v -0.601784 0.834617 -6.090668
v -0.661995 0.963685 -6.142692
v -0.601784 0.848266 -6.178991
v -0.792495 0.895346 -6.129864
v -0.773936 0.913903 -6.081872
v -0.707128 0.980709 -6.081328
v -0.774159 0.916282 -6.178048
v -0.600918 1.351197 -6.093984
v -0.603038 1.235914 -6.078076
vn -0.0000 0.0073 -1.0000
vn -0.0000 0.9056 -0.4241
vn -0.2752 0.6433 -0.7144
vn 0.2759 0.6381 -0.7188
vn -0.0558 0.6368 -0.7690
vn 0.5792 0.5167 -0.6305
vn -0.0402 -0.0054 -0.9992
vn 0.9765 0.1582 -0.1462
vn 0.2449 0.2454 -0.9380
vn 0.2301 0.9098 -0.3453
vn 0.6717 0.4297 0.6034
vn 0.6678 0.5724 0.4759
vn 0.3119 -0.0517 0.9487
vn 0.2667 -0.1477 0.9524
vn 0.1299 -0.2592 0.9570
vn -0.0477 -0.1969 0.9793
vn -0.1006 -0.1791 0.9787
vn 0.4719 0.8803 -0.0498
vn 0.0527 0.8566 -0.5133
vn -0.3541 0.9093 0.2184
vn -0.9760 0.0032 -0.2177
vn -0.9079 -0.3569 -0.2198
vn -0.6529 0.7037 -0.2803
vn -0.2797 -0.0243 0.9598
vn -0.2835 0.0367 0.9583
vn -0.2297 0.2162 0.9489
vn 0.9607 0.2454 0.1297
vn 0.9718 -0.2292 0.0552
vn 0.8066 0.5865 0.0740
vn 0.3968 -0.7652 -0.5070
vn 0.8447 -0.2156 -0.4899
vn -0.2572 0.9541 -0.1534
vn 0.5718 0.7779 -0.2605
vn 0.6690 -0.7112 0.2159
vn -0.0469 -0.0588 -0.9972
vn -0.0033 -0.8501 -0.5266
vn -0.4605 -0.6953 -0.5519
vn -0.9612 -0.2618 -0.0863
vn -0.7594 0.3768 -0.5304
vn -0.8968 0.2969 0.3281
vn -0.6638 -0.7105 0.2336
vn -0.9042 -0.3346 -0.2654
vn -0.7810 0.4366 0.4467
vn -0.9297 0.0771 -0.3601
vn -0.7400 -0.5632 0.3677
vn -0.9307 0.2844 -0.2299
vn -0.9756 0.1465 0.1638
vn -0.2308 0.1840 0.9554
vn -0.2577 0.8964 0.3608
vn 0.7421 -0.5517 -0.3807
vn 0.9262 0.0651 0.3714
vn 0.7788 0.4371 -0.4499
vn 0.9275 0.3040 0.2176
vn -0.2963 -0.7508 0.5903
vn -0.9064 -0.3315 0.2617
vn 0.2831 -0.9012 -0.3281
vn 0.8863 -0.3524 0.3003
vn 0.2230 -0.1343 -0.9655
vn 0.2916 -0.0391 -0.9557
vn 0.1215 -0.2599 -0.9580
vn -0.0137 0.1165 0.9931
vn -0.0021 0.0482 0.9988
vn -0.0443 0.8731 0.4856
vn -0.9569 0.2830 -0.0657
vn -0.6888 0.2610 -0.6764
vn -0.9996 0.0098 -0.0247
vn 0.0054 0.0009 1.0000
vn -0.3198 -0.0545 -0.9459
vn -0.2176 -0.2154 -0.9520
vn -0.0554 -0.2890 -0.9557
vn 0.0184 -0.0349 0.9992
vn 0.6856 0.7268 -0.0419
vn 0.9597 0.2798 -0.0259
vn 0.2243 0.9456 -0.2357
vn 0.0410 -0.0893 0.9952
vn 0.4091 -0.7673 0.4939
vn 0.9761 -0.1974 -0.0911
vn 0.6696 -0.7096 -0.2194
vn 0.0042 -0.8546 0.5193
vn 0.4486 0.8823 0.1423
vn -0.4517 0.7781 0.4364
vn -0.7512 0.4674 0.4660
vn 0.1246 0.2452 -0.9614
vn -0.0179 0.3179 -0.9479
vn 0.2280 0.1847 -0.9560
vn -0.6767 0.4218 -0.6034
vn -0.6762 0.5633 -0.4748
vn 0.9998 0.0097 -0.0168
vn 0.9445 0.3226 0.0613
vn 0.7027 0.2343 0.6718
vn -0.2759 0.6381 0.7188
vn 0.3507 0.6193 0.7025
vn 0.3471 0.6417 -0.6839
vn -0.0720 0.6652 -0.7432
vn 0.0278 -0.0046 -0.9996
vn -0.5767 0.5127 0.6361
vn 0.0717 0.6640 0.7443
vn 0.0106 -0.0108 -0.9999
vn -0.0013 -0.0110 -0.9999
vn -0.3441 0.6431 0.6841
vn 0.2781 0.6431 0.7135
vn -0.3507 0.6193 -0.7025
vn 0.0303 -0.0041 0.9995
vn 0.0526 0.6379 0.7683
vn 0.0284 -0.0038 0.9996
vn -0.0090 -0.0094 0.9999
vn -0.0276 -0.0045 0.9996
vn 0.0092 -0.0095 0.9999
vn -0.0000 0.9402 0.3406
vn -0.0000 1.0000 -0.0000
vn -0.0000 -0.0000 -1.0000
vn -0.0000 -0.9402 0.3406
vn -0.0000 -1.0000 -0.0000
vn 0.8987 -0.0000 0.4385
vn -0.0000 -0.0000 1.0000
vn -0.0000 0.9402 -0.3406
vn -0.4599 0.7891 0.4073
vn -0.4451 0.7968 -0.4086
vn 0.4452 0.7968 0.4086
vn 0.4601 0.7884 -0.4083
vn -0.0000 0.9056 0.4241
vn 0.0090 -0.0094 -0.9999
vn -0.8987 -0.0000 0.4385
vn -0.8987 -0.0000 -0.4385
vn 0.8987 -0.0000 -0.4385
vn -0.0000 -0.9402 -0.3406
vn -0.0429 -0.0058 -0.9991
vn -0.0542 -0.0056 -0.9985
vn 0.0212 0.0107 -0.9997
vn -0.0212 0.0107 0.9997
vn -0.0000 0.0073 1.0000
vn -0.0034 0.0107 0.9999
vn 0.2761 -0.4043 -0.8720
vn 0.7251 -0.5590 0.4022
vn 0.8978 -0.3401 -0.2797
vn -0.4735 0.7049 -0.5281
vn 0.0155 0.1207 -0.9926
vn -0.0674 0.0415 -0.9969
vn -0.1434 -0.9341 -0.3270
vn -0.2749 -0.9010 -0.3355
vn 0.8626 -0.4502 -0.2306
vn 0.8546 -0.4644 -0.2323
vn 0.0436 0.0749 -0.9962
vn 0.7637 0.5753 -0.2929
vn 0.0381 0.0326 -0.9987
vn 0.0322 -0.0840 -0.9959
vn 0.0281 -0.0254 -0.9993
vn -0.0821 0.2820 0.9559
vn 0.1988 0.1969 0.9601
vn 0.2047 0.1903 0.9601
vn 0.0091 0.3250 0.9457
vn -0.0149 -0.9630 0.2692
vn -0.7168 -0.5693 -0.4026
vn -0.4231 0.7534 0.5034
vn -0.0138 0.0634 0.9979
vn -0.0098 0.0264 0.9996
vn -0.9387 0.3417 0.0446
vn -0.9213 0.0293 0.3877
vn 0.7283 -0.4057 0.5522
vn -0.6848 -0.7189 0.1191
vn 0.0060 -0.9337 0.3581
vn 0.7224 -0.4147 0.5533
vn -0.4769 0.8215 -0.3125
vn -0.9350 0.1145 -0.3358
vn -0.9733 -0.0507 0.2238
vn 0.7936 0.5631 0.2305
vn 0.7653 0.4870 0.4209
vn 0.8953 -0.1620 0.4150
vn -0.1916 0.1867 -0.9636
vn -0.2076 0.1691 -0.9635
vn 0.0018 -0.0293 0.9996
vn 0.0022 -0.0310 0.9995
vn -0.0038 -0.9575 -0.2883
vn -0.7365 -0.6761 0.0205
vn -0.6970 -0.6406 -0.3221
vn -0.7151 -0.5759 0.3962
vt 0.551875 0.835797
vt 0.552174 0.959004
vt 0.549933 0.959004
vt 0.552174 0.896504
vt 0.552846 0.773297
vt 0.554414 0.927754
vt 0.523502 0.924090
vt 0.516028 0.919098
vt 0.509062 0.906699
vt 0.172863 0.950019
vt 0.178417 0.941114
vt 0.178390 0.974912
vt 0.180934 0.931263
vt 0.172860 0.943015
vt 0.207354 0.922466
vt 0.192565 0.917502
vt 0.189025 0.941705
vt 0.176545 0.919154
vt 0.166932 0.938740
vt 0.166469 0.935010
vt 0.180934 0.967666
vt 0.189025 0.922039
vt 0.167295 0.876416
vt 0.165198 0.863708
vt 0.170031 0.919320
vt 0.154486 0.922503
vt 0.167295 0.914235
vt 0.161807 0.896603
vt 0.154486 0.902837
vt 0.152286 0.913138
vt 0.158913 0.945630
vt 0.166362 0.873308
vt 0.154581 0.911374
vt 0.176445 0.928612
vt 0.189500 0.920048
vt 0.161807 0.876937
vt 0.189500 0.909945
vt 0.180934 0.887347
vt 0.200226 0.896294
vt 0.209821 0.917101
vt 0.207540 0.942015
vt 0.198283 0.873949
vt 0.207354 0.902800
vt 0.200215 0.876990
vt 0.189008 0.942521
vt 0.188055 0.937820
vt 0.189006 0.922533
vt 0.180934 0.924838
vt 0.189004 0.911615
vt 0.189005 0.950142
vt 0.183580 0.939549
vt 0.184000 0.974463
vt 0.180934 0.924826
vt 0.173632 0.938919
vt 0.180934 0.931261
vt 0.173762 0.966623
vt 0.188050 0.966714
vt 0.188065 0.897480
vt 0.184201 0.891763
vt 0.189009 0.900478
vt 0.177609 0.886176
vt 0.173754 0.898061
vt 0.192565 0.917503
vt 0.194937 0.938740
vt 0.177561 0.923223
vt 0.160609 0.966854
vt 0.180934 0.985549
vt 0.595477 0.890113
vt 0.595166 0.891676
vt 0.596976 0.788922
vt 0.165198 0.916861
vt 0.154806 0.922073
vt 0.172092 0.917674
vt 0.173933 0.942252
vt 0.154581 0.931041
vt 0.160742 0.953260
vt 0.154806 0.902408
vt 0.173933 0.922585
vt 0.173365 0.910132
vt 0.166812 0.894430
vt 0.161807 0.876937
vt 0.186968 0.921146
vt 0.173365 0.922856
vt 0.170238 0.911931
vt 0.186968 0.912885
vt 0.180934 0.887799
vt 0.200215 0.896656
vt 0.189009 0.943041
vt 0.507371 0.788922
vt 0.509062 0.891074
vt 0.509017 0.890848
vt 0.549933 0.912129
vt 0.527980 0.910349
vt 0.528083 0.910370
vt 0.595166 0.907301
vt 0.580937 0.924031
vt 0.580855 0.804547
vt 0.596976 0.804547
vt 0.588320 0.903473
vt 0.580937 0.908406
vt 0.516028 0.903473
vt 0.523411 0.908406
vt 0.527844 0.804547
vt 0.549933 0.804547
vt 0.528083 0.925994
vt 0.576263 0.910370
vt 0.554414 0.912129
vt 0.576367 0.910349
vt 0.523502 0.908467
vt 0.580846 0.924092
vt 0.595477 0.905738
vt 0.527980 0.925974
vt 0.549933 0.927754
vt 0.580846 0.908467
vt 0.509017 0.906473
vt 0.523411 0.924031
vt 0.523492 0.804547
vt 0.507371 0.804547
vt 0.576263 0.925995
vt 0.576503 0.804547
vt 0.554414 0.804547
vt 0.572028 0.946220
vt 0.524335 0.946220
vt 0.521692 0.951326
vt 0.574671 0.951326
vt 0.524335 0.882401
vt 0.572028 0.882401
vt 0.572028 0.902350
vt 0.524335 0.902350
vt 0.524335 0.838532
vt 0.572028 0.838532
vt 0.574671 0.833425
vt 0.521692 0.833425
vt 0.521692 0.877294
vt 0.521692 0.907457
vt 0.578698 0.909909
vt 0.525649 0.909909
vt 0.552174 0.912129
vt 0.576367 0.925974
vt 0.574671 0.907457
vt 0.574671 0.877294
vt 0.571111 0.858538
vt 0.523419 0.858538
vt 0.520775 0.863644
vt 0.573754 0.863644
vt 0.523419 0.816654
vt 0.571111 0.816654
vt 0.571111 0.836603
vt 0.523419 0.836603
vt 0.523419 0.772784
vt 0.571111 0.772784
vt 0.573754 0.767678
vt 0.520775 0.767678
vt 0.520775 0.811547
vt 0.520775 0.841710
vt 0.573754 0.841710
vt 0.573754 0.811547
vt 0.579121 0.773297
vt 0.580846 0.892842
vt 0.578698 0.894285
vt 0.578698 0.956785
vt 0.576504 0.957197
vt 0.577729 0.835797
vt 0.525649 0.894284
vt 0.526068 0.773297
vt 0.527843 0.894697
vt 0.523502 0.955340
vt 0.525478 0.835797
vt 0.525649 0.956784
vt 0.525226 0.835797
vt 0.523502 0.955342
vt 0.525649 0.956785
vt 0.525649 0.894285
vt 0.527843 0.894697
vt 0.526618 0.773297
vt 0.551875 0.835797
vt 0.578698 0.956785
vt 0.578698 0.894285
vt 0.580846 0.892842
vt 0.588320 0.919098
vt 0.178053 0.901067
vt 0.172860 0.900504
vt 0.195057 0.978465
vt 0.194315 0.918095
vt 0.207666 0.962000
vt 0.177561 0.826099
vt 0.176545 0.830168
vt 0.192565 0.854633
vt 0.194315 0.852395
vt 0.195391 0.959880
vt 0.190608 0.916761
vt 0.165198 0.916861
vt 0.170031 0.911249
vt 0.154581 0.931041
vt 0.176445 0.914459
vt 0.190608 0.913811
vt 0.200215 0.896656
vt 0.180934 0.868133
vt 0.180934 0.866670
vt 0.172865 0.911614
vt 0.172862 0.922533
vt 0.172860 0.942520
vt 0.189005 0.917403
vt 0.172863 0.917454
vt 0.194315 0.918096
vt 0.207666 0.962000
vt 0.209004 0.942650
vt 0.207666 0.942334
vt 0.195375 0.959829
vt 0.192565 0.854633
vt 0.172092 0.846181
vt 0.194315 0.852396
vt 0.194937 0.919074
vt 0.207354 0.902800
vt 0.180934 0.967911
vt 0.165198 0.863708
vt 0.192454 0.916605
vt 0.160609 0.947188
vt 0.154581 0.911375
vt 0.161807 0.896603
vt 0.170238 0.912809
vt 0.166362 0.873308
vt 0.192454 0.910843
vt 0.200226 0.896294
vt 0.180934 0.866670
vt 0.201782 0.873718
vt 0.200215 0.876990
vt 0.200226 0.876627
s 1
usemtl texture.008
f 19/1/1 24/2/2 51/3/3
f 24/4/2 19/5/1 52/6/4
f 50/7/5 9/8/6 8/9/7
f 61/10/8 62/11/9 59/12/10
f 96/13/11 66/14/12 61/10/8
f 71/15/13 70/16/14 74/17/15
f 74/17/15 77/18/16 78/19/17
f 78/20/18 75/21/19 74/22/20
f 81/23/21 80/24/22 85/25/23
f 82/26/24 81/27/25 86/28/26
f 82/29/27 83/30/28 79/31/29
f 83/30/28 87/32/30 84/33/31
f 88/34/32 85/25/23 90/35/33
f 86/36/34 87/32/30 83/30/28
f 90/37/35 89/38/36 92/39/37
f 68/40/38 72/41/39 92/42/37
f 71/43/40 68/40/38 94/44/41
f 65/45/42 96/13/43 63/46/44
f 63/47/44 95/48/45 60/49/46
f 98/50/47 100/51/48 97/52/49
f 133/53/50 101/54/51 134/55/52
f 99/56/53 59/12/10 97/52/49
f 60/57/46 98/50/47 97/52/49
f 65/58/42 102/59/54 103/60/55
f 67/61/56 104/62/57 102/59/54
f 108/63/58 109/15/59 111/64/60
f 113/65/61 117/66/62 112/67/63
f 14/68/64 7/69/65 1/70/66 3/70/66
f 118/71/67 117/66/62 113/65/61
f 119/72/68 114/73/69 115/74/70
f 118/71/67 121/75/71 117/66/62
f 116/76/72 119/77/73 115/78/74
f 122/79/75 121/75/71 118/71/67
f 122/79/75 125/80/76 121/75/71
f 119/77/73 120/30/77 124/81/78
f 122/79/75 126/38/79 125/80/76
f 127/82/80 122/83/81 123/84/82
f 127/85/83 128/86/84 132/87/85
f 134/55/86 103/88/87 98/50/47
f 2/89/88 8/90/89 13/91/90 4/89/88
f 57/92/91 11/93/92 10/94/93 51/92/3
f 7/95/65 6/96/94 18/97/95 1/98/95
f 15/99/96 6/100/94 7/69/65 14/68/64
f 9/101/6 12/102/97 13/91/90 8/90/89
f 20/103/98 19/104/99 51/3/3 10/105/93
f 16/106/100 56/107/101 52/107/4 5/108/102
f 12/102/97 9/101/6 50/109/5
f 21/97/103 54/110/104 14/111/105 3/98/103
f 23/103/106 11/112/92 57/113/91 22/104/106
f 6/100/94 15/99/96 54/114/104
f 13/115/90 12/116/97 23/117/107 4/118/107
f 56/6/101 16/119/100 21/120/108 22/121/108
f 28/122/109 29/123/109 35/124/110 36/125/110
f 31/126/111 30/127/111 32/128/111 33/129/111
f 27/130/112 26/131/112 37/132/113 34/133/113
f 29/129/114 27/126/114 34/134/114 35/135/114
f 28/128/115 26/127/115 27/126/115 29/129/115
f 36/125/110 35/124/110 33/123/116 32/122/116
f 55/136/117 16/106/100 5/108/102 53/136/118
f 54/114/104 55/136/117 53/136/118 6/100/94
f 58/137/119 12/102/97 50/109/5 17/137/120
f 11/93/92 58/137/119 17/137/120 10/94/93
f 24/138/2 52/107/4 56/107/101 25/138/121
f 51/92/3 24/138/2 25/138/121 57/92/91
f 18/120/122 5/139/102 52/6/4 19/121/122
f 26/127/123 28/128/123 36/140/123 37/141/123
f 37/141/124 36/140/124 32/128/124 30/127/124
f 35/135/125 34/134/125 31/126/125 33/129/125
f 34/133/113 37/132/113 30/131/126 31/130/126
f 40/142/109 41/143/109 47/144/110 48/145/110
f 43/146/111 42/147/111 44/148/111 45/149/111
f 39/150/112 38/151/112 49/152/113 46/153/113
f 41/149/114 39/146/114 46/154/114 47/155/114
f 40/148/115 38/147/115 39/146/115 41/149/115
f 48/145/110 47/144/110 45/143/116 44/142/116
f 38/147/123 40/148/123 48/156/123 49/157/123
f 49/157/124 48/156/124 44/148/124 42/147/124
f 47/155/125 46/154/125 43/146/125 45/149/125
f 46/153/113 49/152/113 42/151/126 43/150/126
f 8/9/7 2/118/127 20/117/128 50/7/5
f 18/158/129 6/159/94 53/160/118
f 53/161/118 5/162/102 18/163/129
f 17/164/120 20/165/98 10/166/93
f 50/167/5 20/168/128 17/169/120
f 60/57/46 59/12/10 62/11/9 63/46/44
f 23/170/130 12/171/97 58/172/119
f 58/173/119 11/174/92 23/175/130
f 22/176/131 57/3/91 25/2/121
f 25/4/121 56/6/101 22/5/131
f 21/163/132 16/162/100 55/177/117
f 55/178/117 54/179/104 21/158/132
f 15/180/96 14/111/105 54/110/104
f 63/46/44 62/11/9 64/181/133 65/58/42
f 95/48/134 96/13/11 61/10/8
f 64/181/133 62/11/9 61/10/8 66/182/135
f 73/183/136 75/67/19 76/65/137 69/184/138
f 64/181/133 67/61/56 65/58/42
f 66/182/135 67/61/56 64/181/133
f 69/184/138 72/185/39 73/183/136
f 71/43/40 72/41/39 68/40/38
f 76/186/139 77/187/140 70/188/141 69/189/142
f 72/41/39 71/43/40 74/22/20 73/190/136
f 74/17/15 70/16/14 77/18/16
f 80/24/22 81/23/21 77/187/140 76/186/139
f 76/65/137 75/67/19 79/66/143
f 90/35/33 69/189/142 70/188/141 93/191/144
f 74/22/20 75/21/19 73/190/136
f 78/20/18 79/31/29 75/21/19
f 80/192/145 76/65/137 79/66/143
f 77/18/16 81/27/25 82/26/24 78/19/17
f 89/38/36 90/37/35 85/193/146 87/80/30
f 80/192/145 79/66/143 84/194/147
f 78/20/18 82/29/27 79/31/29
f 83/30/28 84/33/31 79/31/29
f 85/193/146 80/192/145 84/194/147
f 85/193/146 84/194/147 87/80/30
f 88/34/32 81/23/21 85/25/23
f 86/28/26 81/27/25 88/195/148
f 82/29/27 86/36/34 83/30/28
f 93/196/149 94/197/150 91/86/151 88/195/148
f 91/86/151 86/28/26 88/195/148
f 93/191/144 88/34/32 90/35/33
f 87/32/30 86/36/34 91/198/152 89/199/36
f 92/42/37 89/199/36 91/198/152 94/44/41
f 92/39/37 72/185/39 69/184/138 90/37/35
f 70/16/14 71/15/13 94/197/150 93/196/149
f 100/51/48 101/54/51 99/56/53 97/52/49
f 94/44/41 68/40/38 92/42/37
f 59/12/10 60/57/46 97/52/49
f 63/46/44 96/13/43 95/48/45
f 133/53/50 99/200/53 101/201/51
f 102/59/54 100/51/48 98/50/47 103/60/55
f 134/55/52 101/54/51 104/202/57
f 104/62/57 101/54/51 100/51/48 102/59/54
f 133/53/153 98/203/47 60/49/46 95/48/45
f 134/55/52 104/202/57 66/14/12 96/13/11
f 99/200/53 133/53/50 95/48/134 61/204/8
f 61/10/8 59/12/10 99/56/53
f 110/183/154 107/205/155 113/65/61 112/67/63
f 65/58/42 67/61/56 102/59/54
f 107/205/155 110/183/154 106/206/156
f 105/207/157 106/208/158 110/209/154
f 108/210/159 114/211/160 113/186/161 107/212/162
f 111/64/60 115/74/70 114/73/69 108/63/58
f 111/213/163 109/214/164 105/207/157 110/209/154
f 112/215/63 115/78/74 111/213/163 110/209/154
f 118/216/165 113/186/161 114/211/160
f 131/217/166 127/85/80 108/210/159 107/212/162
f 112/215/63 117/218/167 116/76/72
f 120/30/77 116/76/72 117/218/167 121/219/168
f 112/215/63 116/76/72 115/78/74
f 118/216/165 114/211/160 123/84/82 122/83/81
f 119/72/68 124/220/169 123/221/170 114/73/69
f 123/221/170 124/220/169 128/86/84 127/85/83
f 119/77/73 116/76/72 120/30/77
f 120/30/77 121/219/168 125/222/76
f 126/38/79 122/79/75 131/223/171 130/224/172
f 124/81/78 120/30/77 125/222/76
f 128/198/173 124/81/78 125/222/76 126/225/79
f 131/217/166 122/83/81 127/82/80
f 129/226/174 132/227/175 128/198/173 126/225/79
f 126/225/79 130/228/176 129/226/174
f 130/224/172 131/223/171 107/205/155 106/206/156
f 132/87/85 109/15/59 108/63/58 127/85/83
f 106/208/158 105/207/157 129/226/174 130/228/176
f 109/214/164 132/227/175 129/226/174 105/207/157
f 67/61/56 66/182/135 104/62/57
f 103/88/87 134/55/86 96/13/43 65/45/42
f 133/53/153 134/55/86 98/50/47
